<svg width="157" height="102" viewBox="0 0 157 102" fill="none" xmlns="http://www.w3.org/2000/svg">
<path d="M7.46108 2.49477C6.35362 0.583272 3.90627 -0.0685348 1.99477 1.03892C0.0832716 2.14638 -0.568535 4.59373 0.538922 6.50523L7.46108 2.49477ZM150.631 74.9499C152.813 74.6013 154.298 72.5503 153.95 70.3688C153.601 68.1874 151.55 66.7015 149.369 67.0501L150.631 74.9499ZM0.538922 6.50523C18.6095 37.6955 31.4024 59.3739 52.4135 70.708C73.5184 82.0927 102.123 82.7012 150.631 74.9499L149.369 67.0501C100.877 74.7988 74.7316 73.6573 56.2115 63.667C37.5976 53.6261 25.8905 34.3045 7.46108 2.49477L0.538922 6.50523Z" fill="#20ACE2"/>
<path d="M128 53L151.5 70.5L135.5 97.5" stroke="#20ACE2" stroke-width="8" stroke-linecap="round"/>
</svg>
