<svg xmlns="http://www.w3.org/2000/svg" viewBox="0 0 1440 576"><defs><style>.cls-1{isolation:isolate;}.cls-2{fill:#eaeef8;mix-blend-mode:color-dodge;}</style></defs><g class="cls-1"><g id="Layer_1" data-name="Layer 1"><path class="cls-2" d="M233.65,541.32a3.8,3.8,0,1,0,3.8,3.79A3.8,3.8,0,0,0,233.65,541.32Z"/><path class="cls-2" d="M257.24,487.47a3.81,3.81,0,1,0-3.8,3.8A3.8,3.8,0,0,0,257.24,487.47Z"/><path class="cls-2" d="M274.15,440.45a3.81,3.81,0,1,0-3.81-3.8A3.81,3.81,0,0,0,274.15,440.45Z"/><path class="cls-2" d="M517.71,181.78a3.76,3.76,0,0,0,3.71,3.37,3.81,3.81,0,0,0,0-7.61,3.76,3.76,0,0,0-3.28,2,3.77,3.77,0,0,0-3.71-3.37,3.82,3.82,0,0,0-3.81,3.81,3.71,3.71,0,0,0,.91,2.38,3.08,3.08,0,0,0-3.08.55,3.79,3.79,0,1,0-3.54,5.09,3.64,3.64,0,0,0,2.13-.75,3.78,3.78,0,0,0,7.35-1.27,3.71,3.71,0,0,0-.91-2.38,4.2,4.2,0,0,0,.95.18A3.77,3.77,0,0,0,517.71,181.78Z"/><path class="cls-2" d="M376,275.27a3.81,3.81,0,1,0-3.81-3.81A3.81,3.81,0,0,0,376,275.27Z"/><path class="cls-2" d="M295.21,388.58a3.81,3.81,0,1,0,3.81,3.8A3.8,3.8,0,0,0,295.21,388.58Z"/><path class="cls-2" d="M360.6,294.36a3.81,3.81,0,1,0-3.8,3.8A3.81,3.81,0,0,0,360.6,294.36Z"/><path class="cls-2" d="M398.11,252.51a3.81,3.81,0,1,0-3.81,3.81A3.8,3.8,0,0,0,398.11,252.51Z"/><path class="cls-2" d="M336.81,318a3.8,3.8,0,1,0,3.8,3.79A3.8,3.8,0,0,0,336.81,318Z"/><path class="cls-2" d="M316.21,350.46a3.8,3.8,0,1,0,3.8,3.8A3.8,3.8,0,0,0,316.21,350.46Z"/><path class="cls-2" d="M253.64,341.43a3.81,3.81,0,1,0-3.8-3.8A3.8,3.8,0,0,0,253.64,341.43Z"/><path class="cls-2" d="M470.88,202.85a3.81,3.81,0,0,0,3.8-3.81,3.7,3.7,0,0,0-.52-1.8,3.68,3.68,0,0,0,.44-1.68,3.81,3.81,0,1,0-7.61,0,3.7,3.7,0,0,0,.52,1.8,3.68,3.68,0,0,0-.44,1.68A3.82,3.82,0,0,0,470.88,202.85Z"/><path class="cls-2" d="M443.3,217.91a3.81,3.81,0,1,0-3.8-3.8A3.8,3.8,0,0,0,443.3,217.91Z"/><path class="cls-2" d="M494.5,192.36a3.67,3.67,0,0,0,.66-.13,3.76,3.76,0,0,0,3.69,3.27,3.81,3.81,0,0,0,0-7.62,3.88,3.88,0,0,0-.66.14,3.67,3.67,0,0,0-5-3,4.65,4.65,0,0,0,.32-.63h-7.13a3.78,3.78,0,0,0,3.57,2.62,3.45,3.45,0,0,0,1.29-.26,3.73,3.73,0,0,0-.51,1.81A3.8,3.8,0,0,0,494.5,192.36Z"/><path class="cls-2" d="M428,220.54a3.81,3.81,0,1,0,3.81,3.81A3.81,3.81,0,0,0,428,220.54Z"/><path class="cls-2" d="M531.38,173.67a3.81,3.81,0,1,0,3.81,3.8A3.8,3.8,0,0,0,531.38,173.67Z"/><path class="cls-2" d="M486.49,195.17a3.8,3.8,0,0,0,.48-1.76,3.75,3.75,0,0,0-1.9-3.22,3.79,3.79,0,1,0-5.67,3.39,3.77,3.77,0,0,0,3.47,3.58,3.73,3.73,0,0,0-.49,1.75,3.81,3.81,0,1,0,4.11-3.74Z"/><path class="cls-2" d="M472.57,204.27a3.81,3.81,0,1,0,3.8,3.8A3.8,3.8,0,0,0,472.57,204.27Z"/><path class="cls-2" d="M351.65,366.33a3.8,3.8,0,1,0,3.8,3.8A3.81,3.81,0,0,0,351.65,366.33Z"/><path class="cls-2" d="M292.57,520.67a3.8,3.8,0,1,0,3.8,3.8A3.81,3.81,0,0,0,292.57,520.67Z"/><path class="cls-2" d="M331.75,410.57a3.81,3.81,0,1,0,3.8,3.81A3.82,3.82,0,0,0,331.75,410.57Z"/><path class="cls-2" d="M311.88,461.88a3.8,3.8,0,1,0,3.81,3.8A3.8,3.8,0,0,0,311.88,461.88Z"/><path class="cls-2" d="M425.93,248.21a3.81,3.81,0,1,0,3.8,3.81A3.82,3.82,0,0,0,425.93,248.21Z"/><path class="cls-2" d="M371.23,328.59a3.81,3.81,0,1,0,3.8,3.81A3.82,3.82,0,0,0,371.23,328.59Z"/><path class="cls-2" d="M442.43,230.3a3.8,3.8,0,1,0,3.81,3.79A3.8,3.8,0,0,0,442.43,230.3Z"/><path class="cls-2" d="M458,215.82a3.81,3.81,0,1,0,3.81,3.81A3.81,3.81,0,0,0,458,215.82Z"/><path class="cls-2" d="M390.23,296.74a3.81,3.81,0,1,0,3.81,3.81A3.82,3.82,0,0,0,390.23,296.74Z"/><path class="cls-2" d="M408.5,277.77a3.81,3.81,0,1,0-3.8-3.8A3.81,3.81,0,0,0,408.5,277.77Z"/><path class="cls-2" d="M310.33,290.14a3.81,3.81,0,1,0,3.8,3.8A3.8,3.8,0,0,0,310.33,290.14Z"/><path class="cls-2" d="M366.17,252.77A3.8,3.8,0,0,0,370,249a3.72,3.72,0,0,0-.89-2.36,3.78,3.78,0,0,0,.13-.67,3.69,3.69,0,0,0-.65-2c0-.13.07-.25.07-.38a3.78,3.78,0,0,0-2-3.28,3.56,3.56,0,0,0,.21-1,3.8,3.8,0,1,0-7.6,0,3.76,3.76,0,0,0,2,3.27,3.13,3.13,0,0,0,.44,3c0,.13-.08.24-.08.37a3.73,3.73,0,0,0,.9,2.36,3.45,3.45,0,0,0,3.67,4.47Z"/><path class="cls-2" d="M333.72,276.33a3.8,3.8,0,1,0-3.8,3.8A3.8,3.8,0,0,0,333.72,276.33Z"/><path class="cls-2" d="M445.78,201.7a3.71,3.71,0,0,0,.33,1.52,3.77,3.77,0,1,0,4.56,3.66,3.88,3.88,0,0,0-.33-1.53,3.76,3.76,0,0,0,3-3.65,3.8,3.8,0,1,0-7.6,0Z"/><path class="cls-2" d="M442.08,207.93a3.8,3.8,0,1,0-6.52,2.65,3.7,3.7,0,0,0-2.18-.77,3.8,3.8,0,0,0-3.79,3.72,3.69,3.69,0,0,0-6.76-1.12,3.79,3.79,0,1,0-3.53,5.14,3.74,3.74,0,0,0,3.14-1.78,3.78,3.78,0,0,0,7.32-1.27,3.76,3.76,0,0,0,3.62,2.91A3.8,3.8,0,0,0,436.1,211a3.64,3.64,0,0,0,2.18.78A3.81,3.81,0,0,0,442.08,207.93Z"/><path class="cls-2" d="M164.53,531.65a3.8,3.8,0,1,0-3.8,3.81A3.81,3.81,0,0,0,164.53,531.65Z"/><path class="cls-2" d="M243.2,368a3.81,3.81,0,1,0,3.81-3.8A3.81,3.81,0,0,0,243.2,368Z"/><path class="cls-2" d="M264.91,339.32a3.81,3.81,0,1,0,3.8-3.81A3.8,3.8,0,0,0,264.91,339.32Z"/><path class="cls-2" d="M286.08,314.79a3.81,3.81,0,1,0,3.8-3.81A3.81,3.81,0,0,0,286.08,314.79Z"/><circle class="cls-2" cx="181.43" cy="482.79" r="3.8"/><path class="cls-2" d="M199.21,439.38a3.8,3.8,0,1,0,3.8-3.81A3.8,3.8,0,0,0,199.21,439.38Z"/><path class="cls-2" d="M225,397.39a3.81,3.81,0,1,0,3.8,3.81A3.81,3.81,0,0,0,225,397.39Z"/><path class="cls-2" d="M125.15,549.31a3.81,3.81,0,1,0,3.8,3.8A3.8,3.8,0,0,0,125.15,549.31Z"/><path class="cls-2" d="M149.09,505.6a3.8,3.8,0,1,0-3.8,3.81A3.8,3.8,0,0,0,149.09,505.6Z"/><path class="cls-2" d="M236,362.78a3.8,3.8,0,1,0-3.8,3.81A3.8,3.8,0,0,0,236,362.78Z"/><path class="cls-2" d="M214.1,391.83a3.81,3.81,0,1,0-3.8,3.8A3.81,3.81,0,0,0,214.1,391.83Z"/><path class="cls-2" d="M166.49,459.17a3.81,3.81,0,1,0,3.81,3.8A3.8,3.8,0,0,0,166.49,459.17Z"/><path class="cls-2" d="M188.29,421.32a3.81,3.81,0,1,0,3.81,3.8A3.81,3.81,0,0,0,188.29,421.32Z"/><path class="cls-2" d="M267.52,373.6a3.81,3.81,0,1,0,3.8,3.81A3.81,3.81,0,0,0,267.52,373.6Z"/><path class="cls-2" d="M224.18,455.85a3.81,3.81,0,1,0,3.81,3.81A3.81,3.81,0,0,0,224.18,455.85Z"/><path class="cls-2" d="M245.76,411.87a3.81,3.81,0,1,0,3.81,3.81A3.81,3.81,0,0,0,245.76,411.87Z"/><path class="cls-2" d="M203.25,505.84a3.8,3.8,0,1,0,3.8,3.81A3.81,3.81,0,0,0,203.25,505.84Z"/><path class="cls-2" d="M183.54,562a3.8,3.8,0,1,0,3.8,3.79A3.8,3.8,0,0,0,183.54,562Z"/><path class="cls-2" d="M330.63,296.37a3.81,3.81,0,1,0-3.8-3.81A3.82,3.82,0,0,0,330.63,296.37Z"/><circle class="cls-2" cx="350.24" cy="272.63" r="3.8"/><path class="cls-2" d="M372.73,256a3.81,3.81,0,1,0-3.81,3.81A3.81,3.81,0,0,0,372.73,256Z"/><path class="cls-2" d="M292.89,344.45a3.8,3.8,0,1,0-3.8,3.8A3.81,3.81,0,0,0,292.89,344.45Z"/><path class="cls-2" d="M314,316.33a3.8,3.8,0,1,0-3.8,3.81A3.8,3.8,0,0,0,314,316.33Z"/><path class="cls-2" d="M390.41,242.29a3.81,3.81,0,0,0-3.8-3.81l-.11,0s0-.07,0-.11a3.77,3.77,0,0,0-3-3.65,3.73,3.73,0,0,0-1.84-1.4,3.75,3.75,0,1,0-2,7.21,3.73,3.73,0,0,0,3,1.64l.11,0s0,.07,0,.12a3.8,3.8,0,1,0,7.6,0Z"/><path class="cls-2" d="M463.13,201a3.76,3.76,0,0,0-3.24-3.69,3.8,3.8,0,0,0,2.53-2.45h-7.13a3.73,3.73,0,0,0,3,2.53,3.72,3.72,0,0,0-2.49,5.12,3.79,3.79,0,1,0,5.55,3.34,3.67,3.67,0,0,0-.33-1.52A3.8,3.8,0,0,0,463.13,201Z"/><path class="cls-2" d="M418.85,225.3a3.81,3.81,0,0,0,0-7.61,3.76,3.76,0,0,0-3.11,1.73,3.63,3.63,0,0,0-5.52-.83,3.75,3.75,0,0,0-2.82-1.3,3.81,3.81,0,0,0,0,7.61,3.71,3.71,0,0,0,2.41-.93,3.65,3.65,0,0,0,5.91-.43A3.77,3.77,0,0,0,418.85,225.3Z"/><path class="cls-2" d="M407.06,230.92a3.8,3.8,0,0,0-3.8-3.8,3.71,3.71,0,0,0-1.73.46,3.79,3.79,0,0,0-3.32-2,3.54,3.54,0,0,1-3.74-.62,3.89,3.89,0,0,0-.47.09,3.79,3.79,0,1,0-3.53,5.14,2.63,2.63,0,0,0,.47-.1,3.78,3.78,0,0,0,3.53,2.47,3.52,3.52,0,0,1,3.74.63,3.79,3.79,0,0,0,1.73-.47,3.76,3.76,0,0,0,3.32,2A3.8,3.8,0,0,0,407.06,230.92Z"/><path class="cls-2" d="M411.65,233.18a3.81,3.81,0,1,0,3.8,3.81A3.82,3.82,0,0,0,411.65,233.18Z"/><path class="cls-2" d="M696.59,144.51a3.76,3.76,0,0,0-2.76,1.22,3.84,3.84,0,0,0-2.13,1,34.67,34.67,0,0,0-5.62,3.47,3.71,3.71,0,0,0-3.14,3,3.76,3.76,0,0,0-3.24,3.69,3.3,3.3,0,0,0,.13.64,3.75,3.75,0,0,0-2.45,6.34,3.44,3.44,0,0,0-.9-.19,3.81,3.81,0,1,0,3.8,3.81,3.78,3.78,0,0,0-1-2.59,3.42,3.42,0,0,0,.91.18,3.8,3.8,0,0,0,3.8-3.8,3.58,3.58,0,0,0-.14-.65,3.73,3.73,0,0,0,3.37-3.06,3.73,3.73,0,0,0,2.81-2,30.78,30.78,0,0,1,4.79-2.46,9.34,9.34,0,0,0,5.62-4.84,2.46,2.46,0,0,0-.1-.47,3.86,3.86,0,0,0,1.62-2h-2.5A3.76,3.76,0,0,0,696.59,144.51Z"/><path class="cls-2" d="M513.63,536a3.8,3.8,0,1,0,3.8,3.79A3.8,3.8,0,0,0,513.63,536Z"/><path class="cls-2" d="M591.06,225a3.81,3.81,0,1,0,3.8,3.81A3.81,3.81,0,0,0,591.06,225Z"/><path class="cls-2" d="M550,357a3.81,3.81,0,1,0,3.8,3.81A3.8,3.8,0,0,0,550,357Z"/><path class="cls-2" d="M581.7,249a3.8,3.8,0,1,0,3.8,3.8A3.8,3.8,0,0,0,581.7,249Z"/><path class="cls-2" d="M599.81,213.22a3.8,3.8,0,1,0-3.8-3.8A3.8,3.8,0,0,0,599.81,213.22Z"/><path class="cls-2" d="M561.14,314.24a3.81,3.81,0,1,0,3.8,3.81A3.81,3.81,0,0,0,561.14,314.24Z"/><path class="cls-2" d="M571.73,278.54a3.8,3.8,0,1,0,3.8,3.8A3.81,3.81,0,0,0,571.73,278.54Z"/><path class="cls-2" d="M608,198a3.81,3.81,0,1,0-3.8-3.81A3.82,3.82,0,0,0,608,198Z"/><path class="cls-2" d="M622.61,177.1a3.81,3.81,0,1,0-3.8-3.8A3.81,3.81,0,0,0,622.61,177.1Z"/><path class="cls-2" d="M629.13,170.45a3.81,3.81,0,1,0-3.8-3.81A3.82,3.82,0,0,0,629.13,170.45Z"/><path class="cls-2" d="M615.57,186.1a3.81,3.81,0,1,0-3.8-3.81A3.81,3.81,0,0,0,615.57,186.1Z"/><path class="cls-2" d="M538.23,407.6a3.8,3.8,0,1,0,3.8,3.8A3.8,3.8,0,0,0,538.23,407.6Z"/><path class="cls-2" d="M526.05,467a3.8,3.8,0,1,0,3.81,3.8A3.81,3.81,0,0,0,526.05,467Z"/><path class="cls-2" d="M635.13,347.06a3.81,3.81,0,1,0,3.8,3.81A3.82,3.82,0,0,0,635.13,347.06Z"/><path class="cls-2" d="M658.68,217.23a3.81,3.81,0,1,0,3.81,3.81A3.81,3.81,0,0,0,658.68,217.23Z"/><path class="cls-2" d="M668.24,183.63a3.81,3.81,0,1,0,3.81,3.8A3.8,3.8,0,0,0,668.24,183.63Z"/><path class="cls-2" d="M663.64,198.42a3.8,3.8,0,1,0,3.8,3.79A3.8,3.8,0,0,0,663.64,198.42Z"/><path class="cls-2" d="M647.68,269.72a3.8,3.8,0,1,0,3.8,3.8A3.8,3.8,0,0,0,647.68,269.72Z"/><path class="cls-2" d="M641.6,304.87a3.81,3.81,0,1,0,3.8,3.81A3.81,3.81,0,0,0,641.6,304.87Z"/><path class="cls-2" d="M653.37,240.76a3.81,3.81,0,1,0,3.8,3.8A3.8,3.8,0,0,0,653.37,240.76Z"/><path class="cls-2" d="M672.52,172.27a3.8,3.8,0,1,0,3.8,3.8A3.8,3.8,0,0,0,672.52,172.27Z"/><path class="cls-2" d="M628.25,397.16a3.81,3.81,0,1,0,3.8,3.8A3.81,3.81,0,0,0,628.25,397.16Z"/><path class="cls-2" d="M613.36,524.88a3.8,3.8,0,1,0,3.8,3.8A3.8,3.8,0,0,0,613.36,524.88Z"/><path class="cls-2" d="M621,456.11a3.8,3.8,0,1,0,3.81,3.8A3.8,3.8,0,0,0,621,456.11Z"/><path class="cls-2" d="M511.5,204.43a3.8,3.8,0,1,0-3.8,3.81A3.8,3.8,0,0,0,511.5,204.43Z"/><path class="cls-2" d="M523.93,193.88a3.81,3.81,0,1,0-3.8,3.81A3.8,3.8,0,0,0,523.93,193.88Z"/><path class="cls-2" d="M531.69,181.9a3.81,3.81,0,1,0,3.8,3.81A3.82,3.82,0,0,0,531.69,181.9Z"/><path class="cls-2" d="M484,234.82a3.8,3.8,0,1,0-3.8,3.8A3.8,3.8,0,0,0,484,234.82Z"/><path class="cls-2" d="M543.74,175.92a3.77,3.77,0,1,0-4.55,1.63,3.7,3.7,0,0,0-.59,1.9,3.81,3.81,0,1,0,7.61,0A3.78,3.78,0,0,0,543.74,175.92Z"/><path class="cls-2" d="M468.93,255.81a3.81,3.81,0,1,0-3.8,3.8A3.8,3.8,0,0,0,468.93,255.81Z"/><path class="cls-2" d="M498.2,217.9a3.81,3.81,0,1,0-3.81,3.8A3.81,3.81,0,0,0,498.2,217.9Z"/><path class="cls-2" d="M561.44,167.13a3.81,3.81,0,1,0,3.8,3.81A3.81,3.81,0,0,0,561.44,167.13Z"/><path class="cls-2" d="M569.82,171.72a3.8,3.8,0,1,0-3.8-3.8A3.8,3.8,0,0,0,569.82,171.72Z"/><path class="cls-2" d="M552.62,170.92c0-.08,0-.14,0-.21a3.8,3.8,0,1,0-7.6,0,3.77,3.77,0,0,0,3.49,3.73c0,.08,0,.14,0,.22a3.81,3.81,0,1,0,7.61,0A3.77,3.77,0,0,0,552.62,170.92Z"/><path class="cls-2" d="M453,281.5a3.81,3.81,0,1,0-3.8,3.81A3.8,3.8,0,0,0,453,281.5Z"/><path class="cls-2" d="M343.55,568.7a3.8,3.8,0,1,0,3.8,3.8A3.8,3.8,0,0,0,343.55,568.7Z"/><path class="cls-2" d="M436.29,312.57a3.8,3.8,0,1,0-3.8,3.8A3.8,3.8,0,0,0,436.29,312.57Z"/><path class="cls-2" d="M415.09,345.91a3.8,3.8,0,1,0,3.8,3.8A3.81,3.81,0,0,0,415.09,345.91Z"/><path class="cls-2" d="M379,441.23a3.8,3.8,0,1,0,3.8,3.8A3.8,3.8,0,0,0,379,441.23Z"/><path class="cls-2" d="M397.16,389.83a3.81,3.81,0,1,0,3.8,3.81A3.82,3.82,0,0,0,397.16,389.83Z"/><path class="cls-2" d="M360.89,500.7a3.8,3.8,0,1,0,3.8,3.8A3.8,3.8,0,0,0,360.89,500.7Z"/><path class="cls-2" d="M538.38,216.63a3.81,3.81,0,1,0,3.8,3.81A3.81,3.81,0,0,0,538.38,216.63Z"/><path class="cls-2" d="M526.22,236.73a3.8,3.8,0,1,0,3.8,3.81A3.81,3.81,0,0,0,526.22,236.73Z"/><path class="cls-2" d="M560.41,195.66a3.81,3.81,0,1,0-3.8-3.8A3.81,3.81,0,0,0,560.41,195.66Z"/><path class="cls-2" d="M549.77,208.22a3.81,3.81,0,1,0-3.8-3.81A3.81,3.81,0,0,0,549.77,208.22Z"/><path class="cls-2" d="M485.19,328.23A3.81,3.81,0,1,0,489,332,3.81,3.81,0,0,0,485.19,328.23Z"/><path class="cls-2" d="M513.28,269.16a3.81,3.81,0,1,0-3.8-3.81A3.81,3.81,0,0,0,513.28,269.16Z"/><path class="cls-2" d="M503.39,295.6a3.8,3.8,0,1,0-3.8,3.81A3.8,3.8,0,0,0,503.39,295.6Z"/><path class="cls-2" d="M595.79,169.22a3.81,3.81,0,1,0-3.8-3.81A3.82,3.82,0,0,0,595.79,169.22Z"/><path class="cls-2" d="M606.76,162.61a3.7,3.7,0,0,0,6.45-1.55,3.7,3.7,0,0,0,5.95-1.59,3.74,3.74,0,0,0,2,.61,3.5,3.5,0,0,0,3.67-4.48,3.52,3.52,0,0,0,.81.13,3.75,3.75,0,0,0,3.56-2.61h-6.06a3.7,3.7,0,0,0-2-.64,3.78,3.78,0,0,0-3.54,2.52,3.66,3.66,0,0,0-2-.62,3.76,3.76,0,0,0-3.62,2.88,3.72,3.72,0,0,0-6.18,2.7,3.75,3.75,0,0,0-2.83-1.33,3.81,3.81,0,1,0,3.77,4Z"/><path class="cls-2" d="M584.16,169.41a3.81,3.81,0,1,0,3.81-3.8A3.81,3.81,0,0,0,584.16,169.41Z"/><path class="cls-2" d="M583.28,174.85a3.8,3.8,0,1,0-3.8,3.81A3.8,3.8,0,0,0,583.28,174.85Z"/><path class="cls-2" d="M574.1,182.17a3.8,3.8,0,1,0-3.8,3.81A3.8,3.8,0,0,0,574.1,182.17Z"/><path class="cls-2" d="M438.86,482.37a3.8,3.8,0,1,0,3.81,3.8A3.8,3.8,0,0,0,438.86,482.37Z"/><path class="cls-2" d="M470.15,371.6a3.81,3.81,0,1,0,3.81,3.81A3.81,3.81,0,0,0,470.15,371.6Z"/><path class="cls-2" d="M454.63,422.73a3.8,3.8,0,1,0,3.8,3.79A3.8,3.8,0,0,0,454.63,422.73Z"/><path class="cls-2" d="M423.28,551.22a3.8,3.8,0,1,0,3.8,3.81A3.81,3.81,0,0,0,423.28,551.22Z"/><path class="cls-2" d="M60.61,550.15a3.81,3.81,0,1,0-3.8-3.8,3.57,3.57,0,0,0,.24,1.14,3.78,3.78,0,1,0-3.27,5.65,3.82,3.82,0,0,0,3.81-3.81,3.57,3.57,0,0,0-.24-1.14A3.75,3.75,0,0,0,60.61,550.15Z"/><path class="cls-2" d="M192.69,338.05a3.81,3.81,0,1,0,3.8,3.81A3.82,3.82,0,0,0,192.69,338.05Z"/><path class="cls-2" d="M202.84,321.54a3.81,3.81,0,1,0,3.8,3.81A3.81,3.81,0,0,0,202.84,321.54Z"/><path class="cls-2" d="M181.8,362.45a3.8,3.8,0,1,0-3.81-3.8A3.8,3.8,0,0,0,181.8,362.45Z"/><path class="cls-2" d="M219.45,314.4a3.8,3.8,0,1,0,3.8-3.81A3.8,3.8,0,0,0,219.45,314.4Z"/><path class="cls-2" d="M212.47,333.88a3.81,3.81,0,1,0-3.8-3.81A3.81,3.81,0,0,0,212.47,333.88Z"/><path class="cls-2" d="M163.23,374.26a3.81,3.81,0,1,0-3.81-3.81A3.81,3.81,0,0,0,163.23,374.26Z"/><path class="cls-2" d="M182.87,339.43a3.81,3.81,0,1,0-3.8-3.81A3.81,3.81,0,0,0,182.87,339.43Z"/><path class="cls-2" d="M173.39,356.71a3.81,3.81,0,1,0-3.81-3.8A3.8,3.8,0,0,0,173.39,356.71Z"/><path class="cls-2" d="M156.22,388.38a3.81,3.81,0,1,0-3.8,3.8A3.81,3.81,0,0,0,156.22,388.38Z"/><path class="cls-2" d="M90.67,492.17a3.81,3.81,0,1,0-3.79-3.81A3.81,3.81,0,0,0,90.67,492.17Z"/><path class="cls-2" d="M70.07,541.17a3.74,3.74,0,0,0-2.8-3.59,3.73,3.73,0,0,0,.65-2,3.8,3.8,0,1,0-7.6,0,3.76,3.76,0,0,0,2.81,3.6,3.64,3.64,0,0,0-.67,2,3.81,3.81,0,0,0,7.61,0Z"/><path class="cls-2" d="M85.78,515s0,0,0,.08a3.8,3.8,0,1,0,3.8-3.8,3.76,3.76,0,0,0-3.16,1.82s0-.06,0-.09a3.81,3.81,0,0,0-3.8-3.81,3.67,3.67,0,0,0-1.8.52,3.79,3.79,0,1,0-3.42,5.42,3.67,3.67,0,0,0,1.8-.52,3.79,3.79,0,0,0,3.42,2.19A3.73,3.73,0,0,0,85.78,515Z"/><path class="cls-2" d="M258,304.58a3.81,3.81,0,1,0-3.81,3.79A3.82,3.82,0,0,0,258,304.58Z"/><path class="cls-2" d="M269.77,290.75a3.8,3.8,0,1,0-3.8,3.8A3.81,3.81,0,0,0,269.77,290.75Z"/><path class="cls-2" d="M135,433.23a3.66,3.66,0,0,0-2.78-5.41,3.78,3.78,0,1,0-3.77,1.77,3.57,3.57,0,0,0,.85,4.83,3.7,3.7,0,0,0-.46,1.71,3.81,3.81,0,0,0,.49,1.77,3.71,3.71,0,0,0-.83,2.27,3.43,3.43,0,0,0,.21,1,3.75,3.75,0,0,0-1.42,2.9,3.83,3.83,0,0,0,.24,1.22,3.59,3.59,0,0,0-1,5.36,3.73,3.73,0,0,0,1.44,7,3.84,3.84,0,1,0,.72,0,3.77,3.77,0,0,0,3.46-3.74,3.69,3.69,0,0,0-.81-2.23,3.57,3.57,0,0,0,1.75-4.49,3.76,3.76,0,0,0,1.78-3.14,3.7,3.7,0,0,0-.2-1,3.78,3.78,0,0,0,1.42-2.9,3.46,3.46,0,0,1,.33-4A3.72,3.72,0,0,0,135,433.23Z"/><path class="cls-2" d="M71.05,526.5a3.63,3.63,0,0,0-1.87.56,3.75,3.75,0,0,0,.58-1.89A3.8,3.8,0,1,0,66,529a3.69,3.69,0,0,0,1.86-.56,3.73,3.73,0,0,0-.58,1.9A3.77,3.77,0,0,0,70.52,534a4,4,0,0,0-.22,1.1,3.8,3.8,0,0,0,7.6,0,3.75,3.75,0,0,0-3.27-3.7,4,4,0,0,0,.22-1.09A3.8,3.8,0,0,0,71.05,526.5Z"/><path class="cls-2" d="M86.51,508.13a3.73,3.73,0,0,0,3.14-1.8,3.76,3.76,0,0,0,2.63,1.08,3.81,3.81,0,1,0,0-7.61,3.73,3.73,0,0,0-3.14,1.8,3.76,3.76,0,0,0-2.63-1.08,3.81,3.81,0,1,0,0,7.61Z"/><path class="cls-2" d="M121.28,457.37a3.75,3.75,0,0,0-1-2.58,3.75,3.75,0,0,0,1.42-2.9,3.79,3.79,0,0,0-2.33-3.5A3.79,3.79,0,0,0,116.6,442a3.8,3.8,0,0,0-1.47,7.31,3.73,3.73,0,0,0,0,5.2,3.78,3.78,0,0,0-1.42,2.9,3.65,3.65,0,0,0,.55,1.85,3.8,3.8,0,0,0-2.18,3.41,3.71,3.71,0,0,0,.61,1.94,3.71,3.71,0,0,0-1.81,6.39,3.79,3.79,0,0,0-3.4,2.19A3.8,3.8,0,0,0,105.3,470a3.8,3.8,0,1,0-5.32-3.48,3.77,3.77,0,0,0,2.2,3.42,3.82,3.82,0,0,0-2.28,3.49,3.74,3.74,0,0,0,1.49,2.94,3.68,3.68,0,0,0-1.3,6.84,3.62,3.62,0,0,0-.87-.17,3.8,3.8,0,1,0,3.8,3.8,3.75,3.75,0,0,0-1.84-3.18,3.64,3.64,0,0,0,.86.17,3.75,3.75,0,0,0,3.18-1.83,3.5,3.5,0,0,0-.21,1,3.81,3.81,0,1,0,3.81-3.8,3.74,3.74,0,0,0-3.18,1.84,3.92,3.92,0,0,0,.2-1,3.76,3.76,0,0,0-1.48-2.94,3.74,3.74,0,0,0,2.76-2.05,3.78,3.78,0,1,0,6.34-3,3.82,3.82,0,0,0,3.79-3.81,3.59,3.59,0,0,0-.61-1.93,3.77,3.77,0,0,0,3-3.65,3.68,3.68,0,0,0-.56-1.85A3.8,3.8,0,0,0,121.28,457.37Z"/><path class="cls-2" d="M232.9,321.42a3.81,3.81,0,1,0-3.8-3.8A3.8,3.8,0,0,0,232.9,321.42Z"/><path class="cls-2" d="M248.05,302.84a3.81,3.81,0,1,0-3.81,3.81A3.81,3.81,0,0,0,248.05,302.84Z"/><path class="cls-2" d="M76.47,416.58a3.81,3.81,0,1,0-3.81,3.8A3.81,3.81,0,0,0,76.47,416.58Z"/><path class="cls-2" d="M84.87,379.61a3.81,3.81,0,1,0-3.8-3.81A3.8,3.8,0,0,0,84.87,379.61Z"/><path class="cls-2" d="M65.94,441a3.81,3.81,0,1,0-3.8-3.81A3.81,3.81,0,0,0,65.94,441Z"/><path class="cls-2" d="M51.45,483.16a3.81,3.81,0,1,0-3.8-3.8A3.8,3.8,0,0,0,51.45,483.16Z"/><path class="cls-2" d="M45.63,465.55a3.81,3.81,0,1,0-3.81,3.8A3.82,3.82,0,0,0,45.63,465.55Z"/><path class="cls-2" d="M58.86,454.32a3.81,3.81,0,1,0,3.79,3.81A3.82,3.82,0,0,0,58.86,454.32Z"/><path class="cls-2" d="M43.77,504.79A3.81,3.81,0,1,0,40,501,3.81,3.81,0,0,0,43.77,504.79Z"/><path class="cls-2" d="M3.94,575l3.38,5.85A3.78,3.78,0,1,0,3.94,575Z"/><path class="cls-2" d="M28.45,505.15a3.81,3.81,0,1,0,3.8,3.81A3.82,3.82,0,0,0,28.45,505.15Z"/><path class="cls-2" d="M35.25,490.89a3.81,3.81,0,1,0-3.8-3.81A3.81,3.81,0,0,0,35.25,490.89Z"/><path class="cls-2" d="M18.15,554a3.81,3.81,0,1,0-3.8,3.8A3.81,3.81,0,0,0,18.15,554Z"/><path class="cls-2" d="M21.46,535a3.8,3.8,0,1,0-3.81-3.8A3.8,3.8,0,0,0,21.46,535Z"/><path class="cls-2" d="M82.79,396.13A3.81,3.81,0,1,0,79,399.94,3.81,3.81,0,0,0,82.79,396.13Z"/><path class="cls-2" d="M75.51,453.59a3.81,3.81,0,1,0-3.81-3.8A3.8,3.8,0,0,0,75.51,453.59Z"/><path class="cls-2" d="M83.43,433.09a3.81,3.81,0,1,0-3.81-3.8A3.8,3.8,0,0,0,83.43,433.09Z"/><path class="cls-2" d="M35.89,526.89a3.81,3.81,0,1,0-3.8-3.81A3.81,3.81,0,0,0,35.89,526.89Z"/><path class="cls-2" d="M62.45,492a3.81,3.81,0,1,0-3.81,3.8A3.82,3.82,0,0,0,62.45,492Z"/><path class="cls-2" d="M108.42,369.28a3.8,3.8,0,1,0-3.8,3.81A3.8,3.8,0,0,0,108.42,369.28Z"/><path class="cls-2" d="M71,470.68a3.81,3.81,0,1,0-3.81,3.8A3.81,3.81,0,0,0,71,470.68Z"/><path class="cls-2" d="M90.94,412.89a3.81,3.81,0,1,0-3.79-3.8A3.81,3.81,0,0,0,90.94,412.89Z"/><path class="cls-2" d="M23.61,568.91a3.8,3.8,0,1,0-3.8,3.81A3.8,3.8,0,0,0,23.61,568.91Z"/><path class="cls-2" d="M27.88,549.51a3.8,3.8,0,1,0-3.81-3.8A3.81,3.81,0,0,0,27.88,549.51Z"/><path class="cls-2" d="M101.82,389.11a3.8,3.8,0,1,0-3.8,3.81A3.8,3.8,0,0,0,101.82,389.11Z"/><path class="cls-2" d="M43.76,407.88a3.8,3.8,0,1,0-3.8,3.81A3.8,3.8,0,0,0,43.76,407.88Z"/><path class="cls-2" d="M19.84,416.47A3.81,3.81,0,1,0,16,412.66,3.81,3.81,0,0,0,19.84,416.47Z"/><path class="cls-2" d="M6.25,481.64a3.81,3.81,0,1,0-3.8-3.8A3.8,3.8,0,0,0,6.25,481.64Z"/><path class="cls-2" d="M7.25,456a3.8,3.8,0,1,0,3.8-3.81A3.81,3.81,0,0,0,7.25,456Z"/><path class="cls-2" d="M11.79,434.27a3.8,3.8,0,1,0,3.79-3.8A3.8,3.8,0,0,0,11.79,434.27Z"/><path class="cls-2" d="M20,391.12a3.8,3.8,0,1,0,3.8-3.81A3.8,3.8,0,0,0,20,391.12Z"/><path class="cls-2" d="M-1.18,394.92a3.8,3.8,0,1,0,3.79-3.8A3.8,3.8,0,0,0-1.18,394.92Z"/><path class="cls-2" d="M-4.56,416.79a3.81,3.81,0,0,0,3.8,3.81,3.82,3.82,0,0,0,3.81-3.81A3.81,3.81,0,0,0-.76,413,3.8,3.8,0,0,0-4.56,416.79Z"/><path class="cls-2" d="M50.25,423.26a3.81,3.81,0,1,0,3.81-3.81A3.82,3.82,0,0,0,50.25,423.26Z"/><path class="cls-2" d="M2.66,538l2.25,3.89a3.8,3.8,0,1,0,1.48-7.31A3.78,3.78,0,0,0,2.66,538Z"/><path class="cls-2" d="M14.74,493.91a3.81,3.81,0,1,0,3.8-3.81A3.8,3.8,0,0,0,14.74,493.91Z"/><path class="cls-2" d="M8.75,516a3.81,3.81,0,1,0,3.8-3.81A3.8,3.8,0,0,0,8.75,516Z"/><path class="cls-2" d="M59.65,406.19a3.81,3.81,0,1,0-3.8-3.81A3.81,3.81,0,0,0,59.65,406.19Z"/><path class="cls-2" d="M64.86,377.8a3.81,3.81,0,1,0,3.8,3.8A3.8,3.8,0,0,0,64.86,377.8Z"/><path class="cls-2" d="M-2.59,499.88a3.81,3.81,0,1,0,3.81-3.8A3.81,3.81,0,0,0-2.59,499.88Z"/><path class="cls-2" d="M48.1,448.1a3.81,3.81,0,1,0-3.79-3.8A3.81,3.81,0,0,0,48.1,448.1Z"/><path class="cls-2" d="M48.32,386.7a3.8,3.8,0,1,0-3.81,3.8A3.82,3.82,0,0,0,48.32,386.7Z"/><path class="cls-2" d="M20.51,472.1a3.81,3.81,0,1,0,3.8-3.8A3.81,3.81,0,0,0,20.51,472.1Z"/><path class="cls-2" d="M53.63,513.94a3.8,3.8,0,1,0-3.8,3.8A3.81,3.81,0,0,0,53.63,513.94Z"/><path class="cls-2" d="M35.06,425.33a3.81,3.81,0,1,0,3.8,3.81A3.82,3.82,0,0,0,35.06,425.33Z"/><path class="cls-2" d="M29.83,446.73a3.81,3.81,0,1,0,3.81,3.81A3.81,3.81,0,0,0,29.83,446.73Z"/><path class="cls-2" d="M112,430.26a3.81,3.81,0,1,0-3.81,3.8A3.81,3.81,0,0,0,112,430.26Z"/><path class="cls-2" d="M98.06,454.15a3.81,3.81,0,1,0-3.81-3.8A3.81,3.81,0,0,0,98.06,454.15Z"/><path class="cls-2" d="M91.37,471.05a3.8,3.8,0,1,0-3.8,3.8A3.81,3.81,0,0,0,91.37,471.05Z"/><path class="cls-2" d="M50.9,537.81A3.8,3.8,0,1,0,54.7,534,3.8,3.8,0,0,0,50.9,537.81Z"/><path class="cls-2" d="M65.79,518.49a3.81,3.81,0,1,0-3.8-3.8A3.81,3.81,0,0,0,65.79,518.49Z"/><path class="cls-2" d="M76.78,496.27A3.81,3.81,0,1,0,73,492.46,3.82,3.82,0,0,0,76.78,496.27Z"/><path class="cls-2" d="M158.22,363.18a3.8,3.8,0,1,0-3.8,3.8A3.81,3.81,0,0,0,158.22,363.18Z"/><path class="cls-2" d="M40.86,540.25a3.8,3.8,0,1,0-3.8-3.8A3.81,3.81,0,0,0,40.86,540.25Z"/><path class="cls-2" d="M90.17,483.87a3.81,3.81,0,1,0-3.8-3.8A3.81,3.81,0,0,0,90.17,483.87Z"/><path class="cls-2" d="M78.13,505.91a3.81,3.81,0,1,0-3.8-3.8A3.81,3.81,0,0,0,78.13,505.91Z"/><path class="cls-2" d="M241.44,322.54a3.81,3.81,0,1,0-3.8-3.81A3.81,3.81,0,0,0,241.44,322.54Z"/><path class="cls-2" d="M113.43,442.44a3.81,3.81,0,1,0-3.8-3.8A3.81,3.81,0,0,0,113.43,442.44Z"/><path class="cls-2" d="M163.19,349a3.81,3.81,0,1,0-3.8-3.8A3.81,3.81,0,0,0,163.19,349Z"/><path class="cls-2" d="M145,377.61a3.81,3.81,0,1,0,3.8,3.81A3.82,3.82,0,0,0,145,377.61Z"/><path class="cls-2" d="M124.48,422.83a3.81,3.81,0,1,0-3.81-3.8A3.81,3.81,0,0,0,124.48,422.83Z"/><ellipse class="cls-2" cx="135.02" cy="399.99" rx="3.8" ry="3.81"/><path class="cls-2" d="M102,462.75a3.81,3.81,0,1,0-3.8-3.8A3.81,3.81,0,0,0,102,462.75Z"/><path class="cls-2" d="M109,404.54a3.81,3.81,0,1,0-3.8-3.8A3.8,3.8,0,0,0,109,404.54Z"/><path class="cls-2" d="M100.68,424.25a3.81,3.81,0,1,0-3.8-3.81A3.82,3.82,0,0,0,100.68,424.25Z"/><path class="cls-2" d="M124.19,365.81a3.81,3.81,0,1,0-3.81-3.8A3.81,3.81,0,0,0,124.19,365.81Z"/><path class="cls-2" d="M77,482.07a3.81,3.81,0,1,0-3.8,3.8A3.81,3.81,0,0,0,77,482.07Z"/><path class="cls-2" d="M86.51,461a3.8,3.8,0,1,0-3.8,3.81A3.8,3.8,0,0,0,86.51,461Z"/><path class="cls-2" d="M116.86,385.08a3.8,3.8,0,1,0-3.8-3.8A3.81,3.81,0,0,0,116.86,385.08Z"/><path class="cls-2" d="M91.9,444.32a3.81,3.81,0,1,0-3.8-3.81A3.81,3.81,0,0,0,91.9,444.32Z"/><path class="cls-2" d="M31.82,563.44a3.81,3.81,0,1,0-3.8-3.8A3.81,3.81,0,0,0,31.82,563.44Z"/><path class="cls-2" d="M53.44,529.93a3.81,3.81,0,1,0-3.8-3.81A3.81,3.81,0,0,0,53.44,529.93Z"/><path class="cls-2" d="M135.62,376.44a3.8,3.8,0,1,0-3.8-3.8A3.8,3.8,0,0,0,135.62,376.44Z"/><path class="cls-2" d="M143.67,357.77a3.81,3.81,0,1,0-3.8-3.8A3.81,3.81,0,0,0,143.67,357.77Z"/><path class="cls-2" d="M127,395.31a3.8,3.8,0,1,0-3.81-3.8A3.8,3.8,0,0,0,127,395.31Z"/><path class="cls-2" d="M33.37,577.1a3.81,3.81,0,1,0-3.8-3.81A3.81,3.81,0,0,0,33.37,577.1Z"/><path class="cls-2" d="M43.39,545.48a3.81,3.81,0,1,0,3.8,3.8A3.8,3.8,0,0,0,43.39,545.48Z"/><path class="cls-2" d="M121.63,410.68a3.8,3.8,0,1,0-3.8,3.81A3.8,3.8,0,0,0,121.63,410.68Z"/><path class="cls-2" d="M63.4,507.54a3.81,3.81,0,1,0-3.8-3.8A3.8,3.8,0,0,0,63.4,507.54Z"/><path class="cls-2" d="M90.18,552.82a3.81,3.81,0,1,0-3.81-3.8A3.8,3.8,0,0,0,90.18,552.82Z"/><path class="cls-2" d="M106.07,508.46a3.81,3.81,0,1,0,3.8-3.81A3.8,3.8,0,0,0,106.07,508.46Z"/><path class="cls-2" d="M134.22,471.77a3.8,3.8,0,1,0-3.8,3.8A3.81,3.81,0,0,0,134.22,471.77Z"/><path class="cls-2" d="M234.47,336.63a3.8,3.8,0,0,0-3.78,3.68,3.66,3.66,0,0,0-6.05,2,3.89,3.89,0,0,0-1.49-.3,3.8,3.8,0,0,0-3.48,2.29,3.83,3.83,0,0,0-1.27-.25,3.72,3.72,0,0,0-3,1.59,3.67,3.67,0,0,0-2-.64,3.77,3.77,0,0,0-2.67,1.1,3.65,3.65,0,0,0-6.07,0s0-.05,0-.08a3.8,3.8,0,1,0-3.8,3.81,3.76,3.76,0,0,0,3-1.62s0,.05,0,.08a3.8,3.8,0,0,0,3.8,3.8,3.74,3.74,0,0,0,2.67-1.11,3.64,3.64,0,0,0,6,.05,3.7,3.7,0,0,0,2,.64,3.8,3.8,0,0,0,3.49-2.3,3.82,3.82,0,0,0,1.26.25,3.75,3.75,0,0,0,3.64-3,3.69,3.69,0,0,0,1.48.3,3.8,3.8,0,0,0,3.78-3.68,3.7,3.7,0,0,0,2.42.95,3.81,3.81,0,0,0,0-7.62Z"/><path class="cls-2" d="M176.43,409.52A3.76,3.76,0,0,0,173,405.8a3.74,3.74,0,0,0-2-3.14,3.81,3.81,0,0,0-1.06-1.58,3.91,3.91,0,0,0-1-1.27,3.76,3.76,0,0,0-1.33-1.44,3.71,3.71,0,0,0-2.34-2.05,3.75,3.75,0,0,0-3.58-2.73h0a3.8,3.8,0,1,0-3.8,3.85H158a3.76,3.76,0,0,0,2.66,3.53,3.75,3.75,0,0,0,1.55,2,3.81,3.81,0,0,0,1,1.31,4,4,0,0,0,.88,1.14,3.79,3.79,0,0,0,1.64,1.72,3.76,3.76,0,0,0,3.14,2.47,3.79,3.79,0,0,0,7.57-.14Z"/><path class="cls-2" d="M196.53,386a3.2,3.2,0,0,0-.07.33,3.81,3.81,0,1,0,3.81-3.81,3.77,3.77,0,0,0-2.86,1.36,1.83,1.83,0,0,0,.07-.32,3.79,3.79,0,0,0-5.24-3.52,3.76,3.76,0,0,0-2.79-1.27,3.63,3.63,0,0,0-1.36.28,3.85,3.85,0,0,0-1.44-.29,3.63,3.63,0,0,0-1.55.35,3.24,3.24,0,0,0-.62-.12,3.3,3.3,0,0,0-.84.17,3.83,3.83,0,0,0-1.39-.28c-.11,0-.2.05-.31.05a3.8,3.8,0,0,0-2.53-1c-.16,0-.29.07-.45.08a3.78,3.78,0,0,0-3.45-2.25,3.63,3.63,0,0,0-1.55.35c0-.08,0-.15,0-.23a3.86,3.86,0,1,0-2.25,3.46c0,.07,0,.15,0,.23a3.8,3.8,0,0,0,3.8,3.8,3.12,3.12,0,0,0,.44-.09,3.8,3.8,0,0,0,3.46,2.26c.11,0,.2,0,.31-.06a3.75,3.75,0,0,0,2.53,1,3.93,3.93,0,0,0,.83-.16,3.8,3.8,0,0,0,1.4.28,3.72,3.72,0,0,0,1.56-.36,3.15,3.15,0,0,0,.61.13,3.67,3.67,0,0,0,1.36-.28,3.64,3.64,0,0,0,1.44.3,3.67,3.67,0,0,0,1.44-.3,3.68,3.68,0,0,0,5.64-.09Z"/><path class="cls-2" d="M276.24,307a3.78,3.78,0,0,0-1.3-2.82,3.72,3.72,0,0,0,.8-2.23,3.8,3.8,0,1,0-6.3,2.82,3.72,3.72,0,0,0-.8,2.23,3.8,3.8,0,1,0,7.6,0Z"/><path class="cls-2" d="M290.14,289.28v0a3.81,3.81,0,1,0-3.86,3.78v0a3.8,3.8,0,0,0,3.8,3.8,3.47,3.47,0,0,0,.85-.17,3.94,3.94,0,0,0-.14.7,3.81,3.81,0,1,0,3.81-3.81,4,4,0,0,0-.86.17,3.13,3.13,0,0,0,.14-.69A3.81,3.81,0,0,0,290.14,289.28Z"/><path class="cls-2" d="M73.61,569.24a3.8,3.8,0,1,0-3.8,3.8A3.81,3.81,0,0,0,73.61,569.24Z"/><path class="cls-2" d="M326.2,269.25a3.76,3.76,0,0,0-1.05-2.58,3.75,3.75,0,0,0,3.1-3.66,3.8,3.8,0,1,0-7.6,0,3.75,3.75,0,0,0,1,2.58,3.7,3.7,0,0,0-2.76,5.2,2.88,2.88,0,0,0-.51-.1,3.84,3.84,0,1,0,3.46,2.26,3,3,0,0,0,.52.1A3.8,3.8,0,0,0,326.2,269.25Z"/><path class="cls-2" d="M350.55,245a3.82,3.82,0,0,0-3.81,3.81,3.66,3.66,0,0,0,.62,1.95,3.68,3.68,0,0,0-.74,2.13c0,.16.08.3.09.46a3.65,3.65,0,0,0-.39,5.1,3.72,3.72,0,0,0-1.57,3,3.81,3.81,0,1,0,7.61,0,3.74,3.74,0,0,0-.87-2.31A2.92,2.92,0,0,0,353,255.7a3.75,3.75,0,0,0,1.26-2.78,3.66,3.66,0,0,0-.62-1.95,3.73,3.73,0,0,0,.74-2.13A3.81,3.81,0,0,0,350.55,245Z"/><path class="cls-2" d="M92.32,529.86a3.81,3.81,0,1,0-3.8,3.8A3.8,3.8,0,0,0,92.32,529.86Z"/><path class="cls-2" d="M317.62,281.51a3.78,3.78,0,0,0-7.21-1.62,3.75,3.75,0,0,0-3.66-3.1,3.81,3.81,0,1,0,3.41,5.43,3.76,3.76,0,0,0,3.66,3.1A3.82,3.82,0,0,0,317.62,281.51Z"/><path class="cls-2" d="M266.66,318.9a3.78,3.78,0,0,0-2.28-3.48,3.74,3.74,0,1,0-1.78-.28,3.86,3.86,0,0,0-2.37,1,3.45,3.45,0,0,0,.15-.71,3.81,3.81,0,1,0-3.8,3.81,3.76,3.76,0,0,0,2.62-1.08,3.4,3.4,0,0,0-.14.72,3.8,3.8,0,0,0,7.6,0Z"/><path class="cls-2" d="M284.33,298.89a3.4,3.4,0,0,0,.16-.77,3.81,3.81,0,1,0-7.61,0,3.74,3.74,0,0,0,1.78,3.13,4,4,0,0,0-.15.77,3.81,3.81,0,1,0,7.61,0A3.72,3.72,0,0,0,284.33,298.89Z"/><path class="cls-2" d="M300.86,283.54a3.71,3.71,0,0,0-1.33.27,3.77,3.77,0,0,0-3.25-1.95,3.81,3.81,0,0,0,0,7.61,3.63,3.63,0,0,0,1.33-.27,3.75,3.75,0,0,0,3.25,1.95,3.81,3.81,0,0,0,0-7.61Z"/><path class="cls-2" d="M246.4,338.32a3.8,3.8,0,1,0-3.8,3.81A3.8,3.8,0,0,0,246.4,338.32Z"/><path class="cls-2" d="M115.1,524a3.81,3.81,0,1,0,3.81,3.8A3.81,3.81,0,0,0,115.1,524Z"/><path class="cls-2" d="M95.75,570a3.81,3.81,0,1,0,3.8,3.81A3.82,3.82,0,0,0,95.75,570Z"/><path class="cls-2" d="M157,452.55a3.8,3.8,0,1,0-3.81-3.8A3.8,3.8,0,0,0,157,452.55Z"/><path class="cls-2" d="M139.45,486.09a3.8,3.8,0,1,0-3.8,3.81A3.8,3.8,0,0,0,139.45,486.09Z"/><path class="cls-2" d="M182.4,415.57a3.81,3.81,0,1,0-3.8,3.8A3.81,3.81,0,0,0,182.4,415.57Z"/><path class="cls-2" d="M263.26,308a3.81,3.81,0,1,0-3.8-3.8A3.81,3.81,0,0,0,263.26,308Z"/><path class="cls-2" d="M288.58,274.41a3.81,3.81,0,1,0,3.8,3.8A3.8,3.8,0,0,0,288.58,274.41Z"/><path class="cls-2" d="M280.19,291a3.8,3.8,0,1,0-3.8,3.81A3.8,3.8,0,0,0,280.19,291Z"/><path class="cls-2" d="M249.19,314.12a3.81,3.81,0,1,0,1.12,7.39,3.75,3.75,0,0,0-.24,1.16,3.81,3.81,0,1,0,3.8-3.8,3.77,3.77,0,0,0-1.11.22,3.75,3.75,0,0,0,.24-1.16A3.82,3.82,0,0,0,249.19,314.12Z"/><path class="cls-2" d="M60.41,569.29a3.81,3.81,0,0,0-3.81-3.8,3.75,3.75,0,0,0-3.67,3.17,3.73,3.73,0,0,0-2.55-1A3.82,3.82,0,0,0,46.87,570a2.47,2.47,0,0,0-.29-.06,3.74,3.74,0,0,0-3,1.53,3.7,3.7,0,0,0-1.88-.56,3.8,3.8,0,0,0,0,7.6,3.73,3.73,0,0,0,3-1.53,3.58,3.58,0,0,0,1.87.57,3.8,3.8,0,0,0,3.51-2.34c.1,0,.19.06.29.06a3.76,3.76,0,0,0,3.67-3.17,3.73,3.73,0,0,0,2.55,1A3.82,3.82,0,0,0,60.41,569.29Z"/><path class="cls-2" d="M95.76,490.67a3.76,3.76,0,0,0-3.65,3.05,3.77,3.77,0,0,0-2.77-1.23,3.81,3.81,0,0,0,0,7.61A3.75,3.75,0,0,0,93,497.05a3.78,3.78,0,0,0,6.57-2.57A3.81,3.81,0,0,0,95.76,490.67Z"/><path class="cls-2" d="M78.46,519.24a3.79,3.79,0,1,0-3.73,5.09,3.78,3.78,0,0,0,3.53,2.48,3.79,3.79,0,0,0,.2-7.57Z"/><path class="cls-2" d="M65,553.89a3.8,3.8,0,0,0-7.6,0,4.22,4.22,0,0,0,.17.86,3.64,3.64,0,0,0-1.73-.47,3.76,3.76,0,0,0-3.7,3.3,3.66,3.66,0,0,0-1.19-.25,3.78,3.78,0,0,0-3.75,3.52,3.75,3.75,0,0,0-3.59-2.75,3.8,3.8,0,1,0,3.75,4.08,3.72,3.72,0,0,0,7.29-.54,3.65,3.65,0,0,0,1.19.24,3.81,3.81,0,0,0,3.81-3.8,3.48,3.48,0,0,0-.18-.85A3.72,3.72,0,0,0,65,553.89Z"/><path class="cls-2" d="M108.16,490.13a3.81,3.81,0,1,0,3.8,3.81A3.82,3.82,0,0,0,108.16,490.13Z"/><path class="cls-2" d="M274.51,312.17a3.81,3.81,0,1,0,3.8,3.81A3.81,3.81,0,0,0,274.51,312.17Z"/><path class="cls-2" d="M340.81,252.32a3.81,3.81,0,0,0-7.61,0,3.73,3.73,0,0,0,1.89,3.21,3.77,3.77,0,0,0-1.9,3.22,3.57,3.57,0,0,0,.19.93,3.82,3.82,0,0,0-2.23,3.45,3.71,3.71,0,0,0,.22,1.1,3.75,3.75,0,0,0-3.12,3.66,3.81,3.81,0,1,0,7.61,0,3.65,3.65,0,0,0-.23-1.1,3.76,3.76,0,0,0,3.12-3.66,3.57,3.57,0,0,0-.19-.93,3.8,3.8,0,0,0,2.24-3.45,3.75,3.75,0,0,0-1.89-3.21A3.76,3.76,0,0,0,340.81,252.32Z"/><path class="cls-2" d="M152.63,432.14a3.77,3.77,0,0,0-1.25-2.78,3.6,3.6,0,0,0,.47-1.72,3.83,3.83,0,0,0-.29-1.45,3.77,3.77,0,0,0,.46-1.72,3.66,3.66,0,0,0-.15-.76,3.76,3.76,0,0,0,.51-1.81,3.69,3.69,0,0,0-.3-1.48,3.37,3.37,0,0,0,.23-1.1,3.83,3.83,0,0,0-1.11-2.69c0-.15.08-.28.08-.43a3.77,3.77,0,0,0-2.51-3.54,3.21,3.21,0,0,0,.11-.52,3.81,3.81,0,0,0-3.8-3.8,3.22,3.22,0,0,0-.7.14,3.75,3.75,0,0,0,.42-1.67,3.8,3.8,0,1,0-3.8,3.81,3.23,3.23,0,0,0,.7-.15,3.7,3.7,0,0,0,2.08,5.21,4.76,4.76,0,0,0-.1.52,3.79,3.79,0,0,0,1.11,2.69c0,.15-.08.27-.08.43a3.61,3.61,0,0,0,.3,1.47,3.79,3.79,0,0,0-.23,1.11,3.21,3.21,0,0,0,.16.76,3.54,3.54,0,0,0-.23,3.25,3.59,3.59,0,0,0,.78,4.5,3.74,3.74,0,0,0,3.34,5.54,2.33,2.33,0,0,0,.36-.08,3.76,3.76,0,0,0-1.54,3,3.8,3.8,0,1,0,3.8-3.8,2.53,2.53,0,0,0-.36.07A3.75,3.75,0,0,0,152.63,432.14Z"/><path class="cls-2" d="M310.87,270.24a3.81,3.81,0,1,0,3.81,3.81A3.81,3.81,0,0,0,310.87,270.24Z"/><path class="cls-2" d="M250.42,326.58a3.8,3.8,0,1,0-7.6,0,3.53,3.53,0,0,0,.14.72,3.74,3.74,0,0,0-6.37,2.21,3.69,3.69,0,0,0-2.36-.9,3.81,3.81,0,0,0-3.52,2.38,3.75,3.75,0,0,0-2.86-1.37,3.82,3.82,0,0,0-3.49,2.31,3.76,3.76,0,0,0-3.64-3,3.8,3.8,0,1,0,3.49,5.3,3.76,3.76,0,0,0,3.64,3,3.81,3.81,0,0,0,3.52-2.38,3.7,3.7,0,0,0,6.56-1.94,3.75,3.75,0,0,0,2.36.9A3.82,3.82,0,0,0,244.1,330a3.32,3.32,0,0,0-.15-.71,3.8,3.8,0,0,0,6.47-2.71Z"/><path class="cls-2" d="M316,265.36a3.81,3.81,0,1,0-3.8,3.81A3.81,3.81,0,0,0,316,265.36Z"/><path class="cls-2" d="M299.77,280.93a3.8,3.8,0,1,0-3.8-3.79A3.8,3.8,0,0,0,299.77,280.93Z"/><path class="cls-2" d="M208.33,365.37a3.91,3.91,0,0,0,.84.17,3.72,3.72,0,0,0,3.15-1.8,3.62,3.62,0,0,0,5.69-2.4,3.76,3.76,0,0,0,3.67,3.14,3.81,3.81,0,0,0,0-7.61,3.75,3.75,0,0,0-3.66,3.07,3.69,3.69,0,0,0-6.81-1.33,3.72,3.72,0,0,0-2-.68,3.77,3.77,0,0,0-3.09,1.71,3.79,3.79,0,0,0-.84-.17,3.73,3.73,0,0,0-2.9,1.43,5.35,5.35,0,0,0-.55-.11,3.68,3.68,0,0,0-2.28.85,3.88,3.88,0,0,0-1.32-.26,3.63,3.63,0,0,0-1.69.44,3.8,3.8,0,0,0-2.58-1,3.73,3.73,0,0,0-1.8.52,3.76,3.76,0,0,0-3.55-2.62,3.81,3.81,0,1,0,0,7.62,3.66,3.66,0,0,0,1.79-.52,3.77,3.77,0,0,0,3.56,2.61,3.65,3.65,0,0,0,1.7-.45,3.75,3.75,0,0,0,2.57,1.05,3.7,3.7,0,0,0,2.29-.85,3.83,3.83,0,0,0,1.31.27A3.74,3.74,0,0,0,204.7,367a3.23,3.23,0,0,0,.54.11A3.76,3.76,0,0,0,208.33,365.37Z"/><path class="cls-2" d="M71,554a3.8,3.8,0,1,0-3.81-3.8A3.8,3.8,0,0,0,71,554Z"/><path class="cls-2" d="M1370,469.64a3.8,3.8,0,1,0,3.8,3.8A3.8,3.8,0,0,0,1370,469.64Z"/><path class="cls-2" d="M1389.65,509.51a3.8,3.8,0,1,0-3.8-3.8A3.8,3.8,0,0,0,1389.65,509.51Z"/><path class="cls-2" d="M1408.73,537.37a3.81,3.81,0,1,0,3.8,3.81A3.81,3.81,0,0,0,1408.73,537.37Z"/><path class="cls-2" d="M1208.28,294.66a3.8,3.8,0,1,0-7.6,0s0,0,0,.06a3.79,3.79,0,1,0,5.38,3.43s0,0,0-.06A3.77,3.77,0,0,0,1208.28,294.66Z"/><path class="cls-2" d="M1408.71,556.47a3.81,3.81,0,1,0,3.81,3.81A3.81,3.81,0,0,0,1408.71,556.47Z"/><path class="cls-2" d="M1389.54,516.56a3.81,3.81,0,1,0,3.81,3.8A3.81,3.81,0,0,0,1389.54,516.56Z"/><path class="cls-2" d="M1369.48,480.28a3.81,3.81,0,1,0,3.8,3.81A3.81,3.81,0,0,0,1369.48,480.28Z"/><path class="cls-2" d="M1200.41,288.63a3.81,3.81,0,1,0-3.81-3.81A3.82,3.82,0,0,0,1200.41,288.63Z"/><path class="cls-2" d="M1163.94,255.7a3.81,3.81,0,1,0,3.81,3.81A3.81,3.81,0,0,0,1163.94,255.7Z"/><path class="cls-2" d="M1176.46,274.6a3.81,3.81,0,1,0-3.81-3.8A3.8,3.8,0,0,0,1176.46,274.6Z"/><path class="cls-2" d="M1402.87,518.23a3.68,3.68,0,0,1,4.27-1,3.81,3.81,0,0,0,0-7.61,3.74,3.74,0,0,0-2.82,1.31,3.91,3.91,0,0,0-1.45-.29,3.8,3.8,0,1,0,0,7.6Z"/><path class="cls-2" d="M1381.08,485.75a3.81,3.81,0,1,0,7.61,0,3.36,3.36,0,0,0-.2-.94,3.67,3.67,0,0,0,2.21.79,3.81,3.81,0,1,0-3.8-3.8,3.27,3.27,0,0,0,.19.94,3.74,3.74,0,0,0-2.21-.79A3.8,3.8,0,0,0,1381.08,485.75Z"/><path class="cls-2" d="M1280.07,361.29a3.67,3.67,0,0,0,2.19-.78,3.74,3.74,0,0,0,2.36.89,3.78,3.78,0,0,0,3.36-2.12,3.63,3.63,0,0,0,2.11.73,3.81,3.81,0,0,0,3.81-3.8,3.65,3.65,0,0,0-.24-1.19,3.74,3.74,0,0,0,3.19,1.87,3.81,3.81,0,1,0-3.8-3.81,3.65,3.65,0,0,0,.24,1.19,3.7,3.7,0,0,0-6.56.25,9.28,9.28,0,0,1-6.66-.83,3.61,3.61,0,0,0-1.14.23,3.19,3.19,0,0,0-3.72-1.32,3.77,3.77,0,0,0-3.35-2.1,3.72,3.72,0,0,0-1.37.28,3.81,3.81,0,0,0-3.52-2.38,3.7,3.7,0,0,1-6.43-1.58,3.8,3.8,0,1,0,0,7.6A3.69,3.69,0,0,1,1267,356a3.73,3.73,0,0,0,1.38-.28,3.8,3.8,0,0,0,3.51,2.38,3.46,3.46,0,0,0,.79-.16,3.78,3.78,0,0,0,3.35,2.1,3.85,3.85,0,0,0,1.14-.23A3.73,3.73,0,0,0,1280.07,361.29Z"/><path class="cls-2" d="M1211.14,289a3.8,3.8,0,1,0-3.8-3.8A3.8,3.8,0,0,0,1211.14,289Z"/><path class="cls-2" d="M1236.05,316.07a3.81,3.81,0,1,0-3.8-3.81A3.81,3.81,0,0,0,1236.05,316.07Z"/><path class="cls-2" d="M1223.14,302.34a3.8,3.8,0,1,0-3.81-3.8A3.81,3.81,0,0,0,1223.14,302.34Z"/><path class="cls-2" d="M1437.31,583.1a3.88,3.88,0,0,0,1.66-.42,3.72,3.72,0,0,0,3.07,1.68c.16,0,.3-.08.45-.09a3.79,3.79,0,0,0,2.84,1.32,3.69,3.69,0,0,1,5.08-.17,3.8,3.8,0,0,0,0-7.6,3.75,3.75,0,0,0-2.67,1.09,3.71,3.71,0,0,0-2.41-.93,2.21,2.21,0,0,0-.46.1,13.41,13.41,0,0,1-7.56-2.59,3.81,3.81,0,0,0,0,7.61Z"/><path class="cls-2" d="M1424.24,545.59a3.78,3.78,0,0,0-1.16-2.72,3.76,3.76,0,1,0-3.75-.86,3.77,3.77,0,0,0-2.7,3.58,3.81,3.81,0,1,0,7.61,0Z"/><path class="cls-2" d="M1334.24,414.76a3.85,3.85,0,0,0,.28-1.41c0-.08,0-.16,0-.24a3.81,3.81,0,0,0,.37-1.35,3.75,3.75,0,0,0,1.2-2.61,3.8,3.8,0,0,0,2.42-3.52,3.62,3.62,0,0,0-.18-.88,2.61,2.61,0,0,0,.32.06,3.8,3.8,0,1,0-3.81-3.8,3.72,3.72,0,0,0,.18.88c-.11,0-.21-.06-.32-.06a27.18,27.18,0,0,0-6.12,6.82,3.81,3.81,0,0,0-1.23,2.77,2.21,2.21,0,0,0,0,.25,3.68,3.68,0,0,0-.44,1.68,3.38,3.38,0,0,0,.11.57,3.89,3.89,0,0,0-.28,1.41,3.12,3.12,0,0,0,.11.53,3.69,3.69,0,0,0-.73,2.12,3.38,3.38,0,0,0,.16.78,3.78,3.78,0,1,0,5.58,3.3,4.13,4.13,0,0,0-.15-.78,3.78,3.78,0,0,0,2-3.3,3.45,3.45,0,0,0-.11-.54,3.71,3.71,0,0,0,.73-2.11A3.61,3.61,0,0,0,1334.24,414.76Z"/><path class="cls-2" d="M1184.28,272.46a3.8,3.8,0,1,0,3.81-3.8A3.82,3.82,0,0,0,1184.28,272.46Z"/><path class="cls-2" d="M1368.74,469.34a3.81,3.81,0,0,0,3.8-3.81,3.74,3.74,0,0,0-3-3.63,3.76,3.76,0,0,0,1-2.45,3.82,3.82,0,0,0-2.4-3.52,3.62,3.62,0,0,0,.32-1.51,3.72,3.72,0,0,0-1.8-3.15,3.79,3.79,0,0,0-.82-4.2,3.77,3.77,0,0,0,.73-2.13,3.73,3.73,0,0,0-.81-2.23,3.72,3.72,0,0,0,.79-5.91c.08,0,.14,0,.22,0a3.81,3.81,0,1,0-3.81-3.8,3.75,3.75,0,0,0,1.12,2.68c-.08,0-.14,0-.22,0a3.81,3.81,0,0,0-3.8,3.81,3.73,3.73,0,0,0,.81,2.23,3.75,3.75,0,0,0-1.91,3.22,3.8,3.8,0,0,0,1.14,2.71,3.66,3.66,0,0,0-.73,2.12,3.75,3.75,0,0,0,1.8,3.16,3.71,3.71,0,0,0-.31,1.49,3.79,3.79,0,0,0,2.4,3.52,3.69,3.69,0,0,0-.33,1.51,3.76,3.76,0,0,0,3,3.64,3.73,3.73,0,0,0-1,2.44A3.81,3.81,0,0,0,1368.74,469.34Z"/><path class="cls-2" d="M1387.78,498.3a3.8,3.8,0,0,0,3.8-3.8,3.75,3.75,0,0,0-.5-1.79,3.56,3.56,0,0,0,1.14.23,3.8,3.8,0,1,0-3.8-3.8,3.65,3.65,0,0,0,.51,1.79,3.68,3.68,0,0,0-1.15-.23,3.8,3.8,0,1,0,0,7.6Z"/><path class="cls-2" d="M1406.45,530.05a3.51,3.51,0,0,1,4.62-3.57,3.8,3.8,0,0,0,3.8-3.8v0a3.9,3.9,0,0,0,1.23.25,3.81,3.81,0,1,0-3.81-3.81s0,0,0,0a3.59,3.59,0,0,0-1.22-.25,3.79,3.79,0,0,0-3.79,3.73,3.22,3.22,0,0,0-.83-.17,3.81,3.81,0,0,0,0,7.61Z"/><path class="cls-2" d="M1246.16,327a8.94,8.94,0,0,1,11.08,3.35,3.81,3.81,0,1,0,0-7.61,3.72,3.72,0,0,1-7.37,0,3.7,3.7,0,0,1-6.78-1.68,3.75,3.75,0,0,0-3.07,1.68,3.59,3.59,0,0,0,.19-.92,3.81,3.81,0,1,0-3.8,3.8,3.74,3.74,0,0,0,3.06-1.66,3.43,3.43,0,0,0-.19.91,3.66,3.66,0,0,0,.77,2.16,3.79,3.79,0,1,0,4.07,3.75,3.65,3.65,0,0,0-.76-2.16A3.73,3.73,0,0,0,1246.16,327Z"/><path class="cls-2" d="M1259.13,343.72a3.75,3.75,0,0,0,2-.63,3.79,3.79,0,0,0,3.45,2.24,3.7,3.7,0,0,0,2.92-1.47,7,7,0,0,1,10,.09,3.81,3.81,0,1,0-3.73-4.19,11.23,11.23,0,0,1-9.16-2,3.63,3.63,0,0,0-2,.63,3.79,3.79,0,0,0-3.46-2.25,3.64,3.64,0,0,1-5.4-2.67,3.76,3.76,0,0,0-2.28.83,2.14,2.14,0,0,0,.06-.27,3.8,3.8,0,1,0-3.8,3.8A3.66,3.66,0,0,0,1250,337c0,.1-.06.19-.06.28a3.82,3.82,0,0,0,3.81,3.81,3.61,3.61,0,0,0,1.73-.48A3.77,3.77,0,0,0,1259.13,343.72Z"/><path class="cls-2" d="M1424.46,557a3.81,3.81,0,1,0,3.79,3.8A3.81,3.81,0,0,0,1424.46,557Z"/><path class="cls-2" d="M1176.08,280.1a3.76,3.76,0,0,0,3.28,2,3.81,3.81,0,1,0-3.46-5.35,3.76,3.76,0,0,0-3.28-2,3.67,3.67,0,0,0-1.87.57,3.78,3.78,0,0,0-2.69-6.39,3.74,3.74,0,0,0,.49-1.76,3.81,3.81,0,1,0-3.86,3.79,3.64,3.64,0,0,0-.5,1.76,3.82,3.82,0,0,0,3.81,3.81,3.67,3.67,0,0,0,1.87-.57,3.79,3.79,0,1,0,6.21,4.14Z"/><path class="cls-2" d="M1155.27,270a3.76,3.76,0,0,0-1,2.44,3.81,3.81,0,1,0,3.81-3.81l-.08,0a3.69,3.69,0,0,0-2-6.07,3.91,3.91,0,0,0,.14-.68,3.75,3.75,0,0,0-1.91-3.23,3.78,3.78,0,1,0-5,1.2,3.67,3.67,0,0,0-.67,2,3.73,3.73,0,0,0,2.93,3.61,3.36,3.36,0,0,0-.15.7,3.81,3.81,0,0,0,3.81,3.8Z"/><path class="cls-2" d="M1213.28,306.72a3.78,3.78,0,0,0,2.16-3.4,3.7,3.7,0,0,0-.77-2.18,3.77,3.77,0,0,0,2.82-3.61,3.81,3.81,0,1,0-7.61,0,3.76,3.76,0,0,0,.78,2.19,3.69,3.69,0,0,0-1.84,6.09,3.78,3.78,0,0,0,1.63,7.2,3.82,3.82,0,0,0,3.81-3.81A3.76,3.76,0,0,0,1213.28,306.72Z"/><path class="cls-2" d="M1191.07,296.57a3.76,3.76,0,0,0,3.56-2.59c.13,0,.24.07.38.07a3.81,3.81,0,1,0-3.56-5,2.33,2.33,0,0,0-.38-.08,3.81,3.81,0,0,0,0,7.61Z"/><path class="cls-2" d="M1251.62,346.51a3.8,3.8,0,1,0,3.81,3.8A3.81,3.81,0,0,0,1251.62,346.51Z"/><path class="cls-2" d="M1382.71,564.59a3.81,3.81,0,1,0-3.8,3.81A3.8,3.8,0,0,0,1382.71,564.59Z"/><path class="cls-2" d="M1359.17,521.7a3.81,3.81,0,1,0-3.8-3.81A3.82,3.82,0,0,0,1359.17,521.7Z"/><path class="cls-2" d="M1273.1,371.94a3.81,3.81,0,1,0,3.81,3.81A3.81,3.81,0,0,0,1273.1,371.94Z"/><path class="cls-2" d="M1298.7,404.93a3.8,3.8,0,1,0-3.8,3.81A3.8,3.8,0,0,0,1298.7,404.93Z"/><path class="cls-2" d="M1316.74,434.38a3.81,3.81,0,1,0,3.81,3.81A3.81,3.81,0,0,0,1316.74,434.38Z"/><path class="cls-2" d="M1338.3,472a3.8,3.8,0,1,0,3.81,3.8A3.8,3.8,0,0,0,1338.3,472Z"/><path class="cls-2" d="M1346.82,539.75a3.8,3.8,0,1,0,3.81,3.8A3.8,3.8,0,0,0,1346.82,539.75Z"/><path class="cls-2" d="M1330.2,495.41a3.8,3.8,0,1,0-3.8,3.81A3.81,3.81,0,0,0,1330.2,495.41Z"/><path class="cls-2" d="M1301.18,452.4a3.81,3.81,0,1,0,3.8-3.8A3.81,3.81,0,0,0,1301.18,452.4Z"/><path class="cls-2" d="M1279.25,414.38a3.81,3.81,0,1,0,3.8-3.81A3.8,3.8,0,0,0,1279.25,414.38Z"/><path class="cls-2" d="M1200.84,306a3.8,3.8,0,1,0-3.8,3.8A3.81,3.81,0,0,0,1200.84,306Z"/><path class="cls-2" d="M1177.12,291.66a3.81,3.81,0,1,0-3.8-3.81A3.82,3.82,0,0,0,1177.12,291.66Z"/><path class="cls-2" d="M1243,352.2a3.8,3.8,0,1,0-3.8,3.8A3.8,3.8,0,0,0,1243,352.2Z"/><path class="cls-2" d="M1264.8,381.09a3.8,3.8,0,1,0-3.8,3.81A3.8,3.8,0,0,0,1264.8,381.09Z"/><path class="cls-2" d="M1221.57,327.31a3.81,3.81,0,1,0-3.8,3.8A3.82,3.82,0,0,0,1221.57,327.31Z"/><path class="cls-2" d="M1244.81,315.63a3.81,3.81,0,1,0-3.8-3.81A3.82,3.82,0,0,0,1244.81,315.63Z"/><path class="cls-2" d="M1230.68,324.45a3.81,3.81,0,1,0,3.8,3.81A3.81,3.81,0,0,0,1230.68,324.45Z"/><path class="cls-2" d="M1386.38,535.77a3.81,3.81,0,1,0,3.8,3.8A3.8,3.8,0,0,0,1386.38,535.77Z"/><path class="cls-2" d="M1229.23,321.61a3.81,3.81,0,0,0,3.8-3.81,3.75,3.75,0,0,0-3.33-3.7,3.77,3.77,0,0,0,2-3.3,3.81,3.81,0,1,0-7.61,0,3.52,3.52,0,0,0,.22,1.07,3.76,3.76,0,0,0-1.55-1.68,3.77,3.77,0,0,0-2.82-6.3,3.81,3.81,0,0,0-3.8,3.8,3.77,3.77,0,0,0,1.88,3.21,3.73,3.73,0,0,0-1,2.5,3.81,3.81,0,1,0,7.39-1.08,3.76,3.76,0,0,0,3,2.19,3.76,3.76,0,0,0-2,3.29A3.81,3.81,0,0,0,1229.23,321.61Z"/><path class="cls-2" d="M1366.28,494.71a3.8,3.8,0,1,0,3.8,3.8A3.8,3.8,0,0,0,1366.28,494.71Z"/><path class="cls-2" d="M1124.39,238.69a3.82,3.82,0,0,0-3.81,3.81,4,4,0,0,0,.12.6,3.76,3.76,0,0,0-1,2.56,3.41,3.41,0,0,0,.15.72,3.77,3.77,0,0,0-.45,1.7,3.72,3.72,0,0,0,.38,1.59,3.72,3.72,0,0,0-1.65,3.05,3.81,3.81,0,0,0,7.61,0,3.71,3.71,0,0,0-.37-1.59,3.76,3.76,0,0,0,1.64-3,3.41,3.41,0,0,0-.15-.72,3.65,3.65,0,0,0,.45-1.7,3.75,3.75,0,0,0-.12-.6,3.76,3.76,0,0,0,1-2.56A3.81,3.81,0,0,0,1124.39,238.69Z"/><path class="cls-2" d="M1281.36,377.1a3.67,3.67,0,0,1,5.54-.54,3.67,3.67,0,0,0,1.52-.33,3.77,3.77,0,0,0,2.28.84,4.42,4.42,0,0,0,.5-.1,3.76,3.76,0,0,0,2.41.93,3.91,3.91,0,0,0,.68-.14,3.72,3.72,0,0,0,2,.68,3.44,3.44,0,0,1,3.13-.26,3.72,3.72,0,0,0,3-1.65,3.56,3.56,0,0,0,1,.2,3.77,3.77,0,0,0,3.71-3.35,3.68,3.68,0,0,0,1.59.37,3.8,3.8,0,1,0-3.72-4.26,3.64,3.64,0,0,0-1.58-.38,3.73,3.73,0,0,0-3,1.66,3.56,3.56,0,0,0-1-.2,3.36,3.36,0,0,1-3.13.26,3.91,3.91,0,0,0-.68.14,3.72,3.72,0,0,0-2-.68,4,4,0,0,0-.5.09,3.75,3.75,0,0,0-2.41-.92,3.67,3.67,0,0,0-1.52.33,7.85,7.85,0,0,1-7.82-.3,3.81,3.81,0,0,0,0,7.61Z"/><path class="cls-2" d="M1345.37,465.32a3.81,3.81,0,1,0-3.8-3.81A3.81,3.81,0,0,0,1345.37,465.32Z"/><path class="cls-2" d="M1327.83,428.46a3.8,3.8,0,1,0-3.8,3.8A3.81,3.81,0,0,0,1327.83,428.46Z"/><path class="cls-2" d="M1188.22,285.76a3.62,3.62,0,0,0,1.75.49,3.81,3.81,0,0,0,0-7.61,3.76,3.76,0,0,0-3.59,2.75,3.59,3.59,0,0,0-1.75-.49,3.81,3.81,0,1,0,3.59,4.86Z"/><path class="cls-2" d="M1413.26,375.28a3.81,3.81,0,1,0,3.8,3.81A3.8,3.8,0,0,0,1413.26,375.28Z"/><path class="cls-2" d="M1422.58,399.67a3.81,3.81,0,1,0-3.81,3.8A3.81,3.81,0,0,0,1422.58,399.67Z"/><path class="cls-2" d="M1428.49,420.36a3.8,3.8,0,1,0-3.8,3.8A3.81,3.81,0,0,0,1428.49,420.36Z"/><path class="cls-2" d="M1427.18,441.22a3.81,3.81,0,1,0,3.8-3.81A3.8,3.8,0,0,0,1427.18,441.22Z"/><path class="cls-2" d="M1437.63,458.51a3.81,3.81,0,1,0,3.8,3.81A3.82,3.82,0,0,0,1437.63,458.51Z"/><path class="cls-2" d="M1424.58,454.49a3.8,3.8,0,1,0-3.8,3.8A3.81,3.81,0,0,0,1424.58,454.49Z"/><path class="cls-2" d="M1410.05,413.32a3.81,3.81,0,1,0-3.81,3.8A3.82,3.82,0,0,0,1410.05,413.32Z"/><path class="cls-2" d="M1413.32,437.57a3.81,3.81,0,1,0-3.81-3.81A3.81,3.81,0,0,0,1413.32,437.57Z"/><path class="cls-2" d="M1440.45,497.09a3.8,3.8,0,1,0-3.8,3.8A3.81,3.81,0,0,0,1440.45,497.09Z"/><path class="cls-2" d="M1438.29,409.3a3.81,3.81,0,1,0-3.8-3.81A3.8,3.8,0,0,0,1438.29,409.3Z"/><path class="cls-2" d="M1428.58,479.38a3.81,3.81,0,1,0-3.81-3.8A3.8,3.8,0,0,0,1428.58,479.38Z"/><path class="cls-2" d="M1351.4,340.26h-7.12a3.73,3.73,0,0,0,7.12,0Z"/><path class="cls-2" d="M1388.23,356.35a3.74,3.74,0,0,0,3.55-2.62h-7.12A3.77,3.77,0,0,0,1388.23,356.35Z"/><path class="cls-2" d="M1408.69,362a3.76,3.76,0,0,0,3.56-2.62h-7.12A3.76,3.76,0,0,0,1408.69,362Z"/><path class="cls-2" d="M1429.43,367.05a3.78,3.78,0,0,0,3.57-2.62h-7.13A3.77,3.77,0,0,0,1429.43,367.05Z"/><path class="cls-2" d="M1429.65,384.49a3.8,3.8,0,1,0,3.8-3.81A3.8,3.8,0,0,0,1429.65,384.49Z"/><path class="cls-2" d="M1327.75,335.08a3.76,3.76,0,0,0,3.56-2.62h-7.13A3.78,3.78,0,0,0,1327.75,335.08Z"/><path class="cls-2" d="M1397.18,373a3.8,3.8,0,1,0-3.8,3.8A3.8,3.8,0,0,0,1397.18,373Z"/><path class="cls-2" d="M1368,350a3.76,3.76,0,0,0,3.56-2.62h-7.12A3.77,3.77,0,0,0,1368,350Z"/><path class="cls-2" d="M1443.5,430.4a3.81,3.81,0,1,0-3.8-3.81A3.82,3.82,0,0,0,1443.5,430.4Z"/><path class="cls-2" d="M1378.76,420a3.8,3.8,0,1,0-3.8-3.8A3.8,3.8,0,0,0,1378.76,420Z"/><path class="cls-2" d="M1401.34,456.35a3.8,3.8,0,1,0-3.8,3.8A3.81,3.81,0,0,0,1401.34,456.35Z"/><path class="cls-2" d="M1311.14,324H1304a3.74,3.74,0,0,0,7.13,0Z"/><path class="cls-2" d="M1387.94,439.83a3.81,3.81,0,1,0-3.8-3.81A3.82,3.82,0,0,0,1387.94,439.83Z"/><path class="cls-2" d="M1438.66,548.07a3.81,3.81,0,1,0-3.8-3.81A3.8,3.8,0,0,0,1438.66,548.07Z"/><path class="cls-2" d="M1421.53,498.8a3.8,3.8,0,1,0-3.8,3.81A3.81,3.81,0,0,0,1421.53,498.8Z"/><path class="cls-2" d="M1428.15,517.31a3.81,3.81,0,1,0,3.8,3.81A3.81,3.81,0,0,0,1428.15,517.31Z"/><path class="cls-2" d="M1411.3,477.24a3.81,3.81,0,1,0-3.81,3.81A3.81,3.81,0,0,0,1411.3,477.24Z"/><path class="cls-2" d="M1370.05,400.5a3.81,3.81,0,1,0-3.8-3.81A3.8,3.8,0,0,0,1370.05,400.5Z"/><path class="cls-2" d="M1361.85,381.3a3.81,3.81,0,1,0-3.79-3.8A3.81,3.81,0,0,0,1361.85,381.3Z"/><path class="cls-2" d="M1358,358.48a3.8,3.8,0,1,0-3.8,3.81A3.8,3.8,0,0,0,1358,358.48Z"/><path class="cls-2" d="M1388.06,409.24a3.81,3.81,0,1,0-3.8-3.8A3.81,3.81,0,0,0,1388.06,409.24Z"/><path class="cls-2" d="M1435,509.48a3.8,3.8,0,1,0-3.8,3.81A3.8,3.8,0,0,0,1435,509.48Z"/><path class="cls-2" d="M1404.26,449.54a3.81,3.81,0,1,0-3.81-3.81A3.81,3.81,0,0,0,1404.26,449.54Z"/><path class="cls-2" d="M1416.74,466.46a3.8,3.8,0,1,0-3.8,3.81A3.8,3.8,0,0,0,1416.74,466.46Z"/><path class="cls-2" d="M1444.41,531.94a3.81,3.81,0,1,0-3.81,3.8A3.81,3.81,0,0,0,1444.41,531.94Z"/><path class="cls-2" d="M1425.75,487.68a3.8,3.8,0,1,0-3.8,3.8A3.81,3.81,0,0,0,1425.75,487.68Z"/><path class="cls-2" d="M1380.65,389.5a3.81,3.81,0,1,0-3.8-3.81A3.81,3.81,0,0,0,1380.65,389.5Z"/><path class="cls-2" d="M1403.39,393.07a3.81,3.81,0,1,0-3.8,3.81A3.8,3.8,0,0,0,1403.39,393.07Z"/><path class="cls-2" d="M1377.53,366.1a3.81,3.81,0,1,0-3.81,3.81A3.81,3.81,0,0,0,1377.53,366.1Z"/><path class="cls-2" d="M1396,429.23a3.81,3.81,0,1,0-3.8-3.8A3.8,3.8,0,0,0,1396,429.23Z"/><path class="cls-2" d="M665.27,148.68h-4.13a3.67,3.67,0,0,0-5.59.54,3.56,3.56,0,0,0-.86-.18,3.73,3.73,0,0,0-3.07,1.68,3.87,3.87,0,0,0-1.18-.24,3.79,3.79,0,0,0-3.31,2A3.67,3.67,0,0,0,642.2,155a3.65,3.65,0,0,0-1.51-.32,3.81,3.81,0,0,0-3.8,3.8s0,.06,0,.09a3.73,3.73,0,0,0-1.76-.48,3.8,3.8,0,1,0,3.81,3.79s0-.05,0-.07a3.64,3.64,0,0,0,5.33-2.23,3.74,3.74,0,0,0,4.82-1.72,3.78,3.78,0,0,0,1.35.27,3.71,3.71,0,0,0,3.06-1.67,3.94,3.94,0,0,0,1.19.24,3.72,3.72,0,0,0,3-1.59,3.64,3.64,0,0,0,.87.18,3.81,3.81,0,0,0,3.8-3.81,1.89,1.89,0,0,0-.05-.23A3.76,3.76,0,0,0,665.27,148.68Z"/><path class="cls-2" d="M275.77,279.85a3.76,3.76,0,0,0,3.56-2.62h-7.12A3.76,3.76,0,0,0,275.77,279.85Z"/><path class="cls-2" d="M253.65,291.09a3.78,3.78,0,0,0,3.57-2.62h-7.13A3.78,3.78,0,0,0,253.65,291.09Z"/><path class="cls-2" d="M298.68,268.21a3.76,3.76,0,0,0,3.56-2.62h-7.12A3.76,3.76,0,0,0,298.68,268.21Z"/><path class="cls-2" d="M190.76,321.59a3.77,3.77,0,0,0,3.56-2.62h-7.13A3.78,3.78,0,0,0,190.76,321.59Z"/><path class="cls-2" d="M211.28,312a3.78,3.78,0,0,0,3.57-2.62h-7.13A3.78,3.78,0,0,0,211.28,312Z"/><path class="cls-2" d="M322.51,256.28a3.75,3.75,0,0,0,3.56-2.61H319A3.75,3.75,0,0,0,322.51,256.28Z"/><path class="cls-2" d="M235.77,299.22h-7.13a3.74,3.74,0,0,0,7.13,0Z"/><path class="cls-2" d="M429.08,208.56a3.75,3.75,0,0,0,3.56-2.62h-7.12A3.75,3.75,0,0,0,429.08,208.56Z"/><path class="cls-2" d="M400.59,220.17a3.77,3.77,0,0,0,3.57-2.62H397A3.76,3.76,0,0,0,400.59,220.17Z"/><path class="cls-2" d="M347.38,244.2a3.77,3.77,0,0,0,3.56-2.61h-7.13A3.77,3.77,0,0,0,347.38,244.2Z"/><path class="cls-2" d="M376.94,229.5h-7.12a3.73,3.73,0,0,0,7.12,0Z"/><path class="cls-2" d="M106.54,350.31a3.74,3.74,0,0,0,7.13,0Z"/><path class="cls-2" d="M5.39,376.69A3.76,3.76,0,0,0,9,374.07H1.83A3.77,3.77,0,0,0,5.39,376.69Z"/><path class="cls-2" d="M48.28,369.09a3.76,3.76,0,0,0,3.56-2.62H44.72A3.78,3.78,0,0,0,48.28,369.09Z"/><path class="cls-2" d="M27,373.18a3.77,3.77,0,0,0,3.56-2.62H23.48A3.76,3.76,0,0,0,27,373.18Z"/><path class="cls-2" d="M170.49,330.48a3.78,3.78,0,0,0,3.57-2.62h-7.13A3.78,3.78,0,0,0,170.49,330.48Z"/><path class="cls-2" d="M153.93,336.06h-7.12a3.73,3.73,0,0,0,7.12,0Z"/><path class="cls-2" d="M72.74,361.75H65.62a3.73,3.73,0,0,0,7.12,0Z"/><path class="cls-2" d="M133.84,343.54h-7.12a3.73,3.73,0,0,0,7.12,0Z"/><path class="cls-2" d="M93.32,356.37H86.2a3.73,3.73,0,0,0,7.12,0Z"/><path class="cls-2" d="M1073.91,214.9a3.77,3.77,0,0,0,3.57-2.62h-7.13A3.76,3.76,0,0,0,1073.91,214.9Z"/><path class="cls-2" d="M1101.7,226.72a3.78,3.78,0,0,0,3.56-2.62h-7.13A3.78,3.78,0,0,0,1101.7,226.72Z"/><path class="cls-2" d="M1153.61,250.87a3.77,3.77,0,0,0,3.55-2.62H1150A3.79,3.79,0,0,0,1153.61,250.87Z"/><path class="cls-2" d="M1128.24,238.76a3.77,3.77,0,0,0,3.56-2.62h-7.13A3.78,3.78,0,0,0,1128.24,238.76Z"/><path class="cls-2" d="M1018.06,190h-7.13a3.86,3.86,0,0,0,.94,1.47,3.77,3.77,0,0,0-3.44,3.73,3.65,3.65,0,0,0,.26,1.28,3.78,3.78,0,0,0,2.62,6.53,3.71,3.71,0,0,0,3.55-5.08,3.78,3.78,0,0,0,.09-5.38A3.78,3.78,0,0,0,1018.06,190Z"/><path class="cls-2" d="M1044.85,203.49a3.76,3.76,0,0,0,3.56-2.61h-7.12A3.76,3.76,0,0,0,1044.85,203.49Z"/><path class="cls-2" d="M982.87,182.6a3.75,3.75,0,0,0,3.56-2.61H979.3A3.77,3.77,0,0,0,982.87,182.6Z"/><path class="cls-2" d="M1174.32,260.25a3.74,3.74,0,0,0,7.13,0Z"/><path class="cls-2" d="M518.66,174.85a3.73,3.73,0,0,0,7.12,0Z"/><path class="cls-2" d="M1245.38,297.07a3.76,3.76,0,0,0,3.56-2.62h-7.12A3.77,3.77,0,0,0,1245.38,297.07Z"/><path class="cls-2" d="M1223.65,286.09a3.77,3.77,0,0,0,3.56-2.62h-7.12A3.76,3.76,0,0,0,1223.65,286.09Z"/><path class="cls-2" d="M1201.19,274.65a3.78,3.78,0,0,0,3.57-2.62h-7.13A3.78,3.78,0,0,0,1201.19,274.65Z"/><path class="cls-2" d="M1263,304.91a3.74,3.74,0,0,0,7.13,0Z"/><path class="cls-2" d="M737.84,144.61a3.66,3.66,0,0,0-5.8,0h-.34a2.64,2.64,0,0,0,.15.29,3.58,3.58,0,0,0-.52,1.14,4.12,4.12,0,0,0-.39.88,3.77,3.77,0,0,0-.49,1.27,3.63,3.63,0,0,0-.63,2v0a3.79,3.79,0,0,0-.53,1.83,3.64,3.64,0,0,0,.15.73,3.7,3.7,0,0,0-.72,2.11,3.58,3.58,0,0,0,.41,1.63,3.73,3.73,0,0,0,.22,5.36,3.74,3.74,0,0,0-1.93,3.24,3.81,3.81,0,1,0,6.35-2.79,3.74,3.74,0,0,0,1.93-3.24,3.65,3.65,0,0,0-.41-1.64,3.76,3.76,0,0,0,1-2.56,4.29,4.29,0,0,0-.15-.73,3.7,3.7,0,0,0,.72-2.11s0,0,0,0a3.5,3.5,0,0,0,.38-1.1,3.3,3.3,0,0,0,.42-.94,3.48,3.48,0,0,0,.46-1,3.71,3.71,0,0,0,.59-1.91,3.77,3.77,0,0,0-.34-1.54,4.4,4.4,0,0,0,.42-.84Z"/><path class="cls-2" d="M593.75,159h-7.13a4,4,0,0,0,.52,1,3.79,3.79,0,0,0-6.46,2.71,3.39,3.39,0,0,0,.17.84,3.74,3.74,0,1,0,.44,1.69,3.48,3.48,0,0,0-.18-.85,3.78,3.78,0,1,0,6.12-4.28,3.72,3.72,0,0,0,3,1.5A3.78,3.78,0,0,0,593.75,159Z"/><path class="cls-2" d="M555.68,169a3.77,3.77,0,0,0,3.56-2.62h-7.12A3.77,3.77,0,0,0,555.68,169Z"/><path class="cls-2" d="M916.08,165.51a3.77,3.77,0,0,0,3.57-2.61h-7.13A3.76,3.76,0,0,0,916.08,165.51Z"/><path class="cls-2" d="M953.59,170.87h-7.12a3.84,3.84,0,0,0,1.27,1.81,3.78,3.78,0,1,0,4,3.76,3.7,3.7,0,0,0-1.54-3A3.77,3.77,0,0,0,953.59,170.87Z"/><path class="cls-2" d="M1283.65,314.76a3.73,3.73,0,0,0,7.12,0Z"/><path class="cls-2" d="M1375.26,472.36a3.79,3.79,0,0,0,3.66,3.78,3.73,3.73,0,0,0-1,2.48,3.8,3.8,0,1,0,3.94-3.78,3.71,3.71,0,0,0-1.66-6,3.63,3.63,0,0,0-1-5.65,3.71,3.71,0,0,0,1.65-3.05,3.75,3.75,0,0,0-1.89-3.21,3.77,3.77,0,0,0,3.42-3.73,3.8,3.8,0,0,0-7.6,0,3.76,3.76,0,0,0,1.89,3.22,3.72,3.72,0,0,0-1.53,6.94,3.7,3.7,0,0,0,1,6.62A3.7,3.7,0,0,0,1375.26,472.36Z"/><circle class="cls-2" cx="1395.1" cy="496.62" r="3.8"/><path class="cls-2" d="M1285.65,340.45a3.81,3.81,0,1,0-3.81-3.81A3.81,3.81,0,0,0,1285.65,340.45Z"/><path class="cls-2" d="M1275.2,316.7a3.81,3.81,0,1,0,3.81,3.81A3.81,3.81,0,0,0,1275.2,316.7Z"/><path class="cls-2" d="M1398.85,508.63a3.69,3.69,0,0,1,5.61-.11,3.8,3.8,0,1,0-2.85-6.26,3.74,3.74,0,0,0-2.76-1.24,3.81,3.81,0,1,0,0,7.61Z"/><path class="cls-2" d="M1265.59,328.36a3.81,3.81,0,1,0-3.8-3.81A3.82,3.82,0,0,0,1265.59,328.36Z"/><path class="cls-2" d="M1250.75,309.28a3.81,3.81,0,1,0,3.8-3.81A3.8,3.8,0,0,0,1250.75,309.28Z"/><path class="cls-2" d="M1403.43,499.87a3.8,3.8,0,1,0-3.81-3.8A3.8,3.8,0,0,0,1403.43,499.87Z"/><path class="cls-2" d="M1428.76,547.09a3.8,3.8,0,1,0-3.8-3.8A3.81,3.81,0,0,0,1428.76,547.09Z"/><path class="cls-2" d="M1390.91,477.93a3.81,3.81,0,1,0-3.8-3.81A3.81,3.81,0,0,0,1390.91,477.93Z"/><path class="cls-2" d="M1315.15,344.77a3.81,3.81,0,1,0-3.81-3.81A3.81,3.81,0,0,0,1315.15,344.77Z"/><path class="cls-2" d="M1334,380.39a3.8,3.8,0,1,0-3.81-3.8A3.8,3.8,0,0,0,1334,380.39Z"/><path class="cls-2" d="M1359.09,413.66a3.8,3.8,0,1,0-3.8,3.8A3.81,3.81,0,0,0,1359.09,413.66Z"/><path class="cls-2" d="M1344.36,398.68a3.81,3.81,0,1,0-3.81-3.8A3.8,3.8,0,0,0,1344.36,398.68Z"/><path class="cls-2" d="M1396.93,465.74a3.81,3.81,0,1,0-3.8,3.8A3.81,3.81,0,0,0,1396.93,465.74Z"/><path class="cls-2" d="M1404.37,483.22a3.81,3.81,0,1,0,3.8,3.8A3.81,3.81,0,0,0,1404.37,483.22Z"/><path class="cls-2" d="M1382.2,449a3.81,3.81,0,1,0-3.8-3.8A3.81,3.81,0,0,0,1382.2,449Z"/><path class="cls-2" d="M1415.83,513a3.8,3.8,0,1,0-3.8-3.8A3.8,3.8,0,0,0,1415.83,513Z"/><path class="cls-2" d="M1427.41,536.07a3.81,3.81,0,1,0-3.81-3.8A3.8,3.8,0,0,0,1427.41,536.07Z"/><path class="cls-2" d="M1375.47,425.33a3.8,3.8,0,1,0-3.79,3.81A3.8,3.8,0,0,0,1375.47,425.33Z"/><path class="cls-2" d="M1343.1,372.29a3.81,3.81,0,1,0-3.8-3.8A3.81,3.81,0,0,0,1343.1,372.29Z"/><path class="cls-2" d="M1361.61,409.8a3.81,3.81,0,1,0-3.8-3.81A3.82,3.82,0,0,0,1361.61,409.8Z"/><path class="cls-2" d="M1352.08,390.88a3.81,3.81,0,1,0-3.81-3.81A3.8,3.8,0,0,0,1352.08,390.88Z"/><path class="cls-2" d="M1334.72,346.3a3.81,3.81,0,1,0,3.8,3.81A3.81,3.81,0,0,0,1334.72,346.3Z"/><path class="cls-2" d="M1295.35,334.89a3.81,3.81,0,1,0-3.8-3.8A3.8,3.8,0,0,0,1295.35,334.89Z"/><path class="cls-2" d="M1305.14,351.84a3.81,3.81,0,1,0-3.8-3.81A3.81,3.81,0,0,0,1305.14,351.84Z"/><path class="cls-2" d="M1330.61,382.86a3.8,3.8,0,1,0-7.6,0,3.87,3.87,0,0,0,.26,1.31,3.62,3.62,0,0,0-1.86-.56,3.76,3.76,0,0,0-3.66,3.08,1,1,0,0,0-.17,0,35.36,35.36,0,0,1-5.28,2.92,60.18,60.18,0,0,1-2.67,1.12,3.67,3.67,0,0,0-2.52,1.49,3.36,3.36,0,0,1-4.51,3.16,5.33,5.33,0,0,0,4.73,4.4,3.75,3.75,0,0,0,3-1.59,3.69,3.69,0,0,0,2-.74,3.77,3.77,0,0,0,1.48-.54,3.72,3.72,0,0,0,2.13-1,3.77,3.77,0,0,0,2.29-1.74,3.73,3.73,0,0,0,3-2.95,1.16,1.16,0,0,0,.18,0,3.8,3.8,0,0,0,3.8-3.8,3.56,3.56,0,0,0-.27-1.31,3.74,3.74,0,0,0,1.86.55A3.81,3.81,0,0,0,1330.61,382.86Z"/><path class="cls-2" d="M1315.63,369.05a3.81,3.81,0,1,0-3.8-3.8A3.81,3.81,0,0,0,1315.63,369.05Z"/><path class="cls-2" d="M1436.52,570.65a3.73,3.73,0,0,0,1.38-.28,3.79,3.79,0,0,0,7.21-1.63,3.82,3.82,0,0,0-3.81-3.81,3.64,3.64,0,0,0-1.37.28,3.8,3.8,0,0,0-3.41-2.17,3.25,3.25,0,0,0-.69.14,3.77,3.77,0,0,0-7.5.52,3.81,3.81,0,0,0,3.8,3.81,4.13,4.13,0,0,0,.7-.14A3.76,3.76,0,0,0,1436.52,570.65Z"/><path class="cls-2" d="M1431.93,558.44a3.75,3.75,0,0,1,7,1.76,3.81,3.81,0,1,0,0-7.61,3.74,3.74,0,0,0-3.25,2,3.8,3.8,0,0,0-3.79-3.71,3.67,3.67,0,0,0-1.44.29,2.77,2.77,0,0,0,.1-.5,3.81,3.81,0,1,0-3.8,3.81,3.85,3.85,0,0,0,1.44-.29,3.54,3.54,0,0,0-.1.49A3.8,3.8,0,0,0,1431.93,558.44Z"/><path class="cls-2" d="M1324.24,362.46a3.81,3.81,0,1,0-3.8-3.8A3.81,3.81,0,0,0,1324.24,362.46Z"/><path class="cls-2" d="M1354.78,419.84a3.81,3.81,0,0,0-7.61,0,3.56,3.56,0,0,0,.27,1.31,3.78,3.78,0,0,0-2.77,3.6,3.66,3.66,0,0,0,.24,1.2,3.8,3.8,0,0,0-1.2,2.76,3.62,3.62,0,0,0,.54,1.83,3.77,3.77,0,0,0-.34,1.54,3.72,3.72,0,0,0,1,2.57,3,3,0,0,0-.15.74,3.77,3.77,0,0,0,1.2,2.74,3.52,3.52,0,0,0-.22,1.07A3.76,3.76,0,0,0,1347,442a3.68,3.68,0,0,0,1.36,5.71,3.77,3.77,0,0,0,.52,7.5,3.78,3.78,0,0,0,1.6-7.22,3.72,3.72,0,0,0,2.06-6.45,3.75,3.75,0,0,0,.85-2.3,3.81,3.81,0,0,0-1.2-2.75,3.76,3.76,0,0,0,.21-1.06,3.83,3.83,0,0,0-1-2.58,4.29,4.29,0,0,0,.15-.73,3.46,3.46,0,0,1-.21-3.37,3.53,3.53,0,0,0-.25-1.21,3.75,3.75,0,0,0,1.22-2.75,3.88,3.88,0,0,0-.27-1.32A3.76,3.76,0,0,0,1354.78,419.84Z"/><path class="cls-2" d="M1237.05,297.46a3.81,3.81,0,1,0-3.8,3.81A3.81,3.81,0,0,0,1237.05,297.46Z"/><path class="cls-2" d="M1422.05,529a3.8,3.8,0,1,0-7.6,0,4.25,4.25,0,0,0,.12.62,3.76,3.76,0,0,0-2.66,3.57,3.81,3.81,0,0,0,7.61,0,3.25,3.25,0,0,0-.13-.62A3.75,3.75,0,0,0,1422.05,529Z"/><path class="cls-2" d="M849.3,157.7a3.77,3.77,0,0,0,1.5-.32,3.77,3.77,0,0,0,3.27,2,3.71,3.71,0,0,0,1.81-.52,3.8,3.8,0,0,0,3.44,2.22,3.67,3.67,0,0,0,2.14-.75,3.7,3.7,0,0,0,6.09,1.8,3.79,3.79,0,1,0,3.78-3.93,3.75,3.75,0,0,0-2.49,1,3.79,3.79,0,0,0-3.78-3.67,3.7,3.7,0,0,0-2.15.75,3.75,3.75,0,0,0-3.59-2.79,3.71,3.71,0,0,0-1.81.52,3.81,3.81,0,0,0-3.44-2.22,3.77,3.77,0,0,0-1.5.32,3.77,3.77,0,0,0-3.27-2,3.69,3.69,0,0,0-2.29.84h-5.17a3.76,3.76,0,0,0,3.56,2.62,1,1,0,0,0,.17,0,2.45,2.45,0,0,0-.08.37A3.82,3.82,0,0,0,849.3,157.7Z"/><path class="cls-2" d="M850,179.07a3.8,3.8,0,1,0-3.8,3.79A3.81,3.81,0,0,0,850,179.07Z"/><path class="cls-2" d="M840.48,174.12a3.81,3.81,0,1,0-3.81-3.81A3.82,3.82,0,0,0,840.48,174.12Z"/><path class="cls-2" d="M835.23,167.69a3.81,3.81,0,0,0,0-7.62,3.77,3.77,0,0,0-1.26.26,3.63,3.63,0,0,0,.21-1,3.81,3.81,0,0,0-3.8-3.8,3.12,3.12,0,0,0-.75.15,3.77,3.77,0,0,0-3.71-3.34,2.94,2.94,0,0,0-.59.12,3.8,3.8,0,0,0-3.5-2.32,3.67,3.67,0,0,0-.66.13,3.72,3.72,0,0,0-3.08-1.71,3.47,3.47,0,0,0-.56.11,3.75,3.75,0,0,0-2.86-1.37c-.1,0-.19.05-.29.06a3.72,3.72,0,0,0-2.82-1.32,3.82,3.82,0,0,0-2.74,1.19h-3.36a3.82,3.82,0,0,0,2.34,2.4,1.7,1.7,0,0,0,0,.22,3.81,3.81,0,0,0,3.8,3.81c.1,0,.19-.06.29-.07a3.72,3.72,0,0,0,2.82,1.32,2.44,2.44,0,0,0,.55-.12,3.75,3.75,0,0,0,2.87,1.38,3.56,3.56,0,0,0,.65-.13,3.76,3.76,0,0,0,3.09,1.7,3.86,3.86,0,0,0,.59-.12,3.81,3.81,0,0,0,3.5,2.32,3.69,3.69,0,0,0,.75-.15,3.76,3.76,0,0,0,3.71,3.35,3.72,3.72,0,0,0,1.25-.26,3.7,3.7,0,0,0-.21,1A3.82,3.82,0,0,0,835.23,167.69Z"/><path class="cls-2" d="M852.29,186.86a3.8,3.8,0,1,0,3.8,3.81A3.82,3.82,0,0,0,852.29,186.86Z"/><path class="cls-2" d="M873.56,244.75a3.81,3.81,0,1,0,3.8,3.8A3.8,3.8,0,0,0,873.56,244.75Z"/><path class="cls-2" d="M858.89,201.88a3.81,3.81,0,1,0,3.8,3.81A3.82,3.82,0,0,0,858.89,201.88Z"/><path class="cls-2" d="M866,221a3.81,3.81,0,1,0,3.8,3.81A3.81,3.81,0,0,0,866,221Z"/><path class="cls-2" d="M881.67,274a3.81,3.81,0,1,0,3.8,3.81A3.82,3.82,0,0,0,881.67,274Z"/><path class="cls-2" d="M890.3,309.41a3.81,3.81,0,1,0,3.8,3.81A3.82,3.82,0,0,0,890.3,309.41Z"/><path class="cls-2" d="M929.71,530.39a3.8,3.8,0,1,0,3.8,3.8A3.8,3.8,0,0,0,929.71,530.39Z"/><path class="cls-2" d="M899.45,351.87a3.81,3.81,0,1,0,3.81,3.81A3.81,3.81,0,0,0,899.45,351.87Z"/><path class="cls-2" d="M919.24,461.44a3.8,3.8,0,1,0,3.8,3.8A3.8,3.8,0,0,0,919.24,461.44Z"/><path class="cls-2" d="M909.12,402.25a3.8,3.8,0,1,0,3.8,3.8A3.81,3.81,0,0,0,909.12,402.25Z"/><path class="cls-2" d="M981.89,364.51a3.81,3.81,0,1,0,3.8,3.81A3.81,3.81,0,0,0,981.89,364.51Z"/><path class="cls-2" d="M1140.13,263.1a3.8,3.8,0,0,0,3.8-3.8,3.73,3.73,0,0,0-1.53-3,3.56,3.56,0,0,0,.2-1,3.82,3.82,0,0,0-1.09-2.66,3.46,3.46,0,0,0,.16-.79,3.72,3.72,0,0,0-.92-2.4,3.75,3.75,0,0,0,1.65-3.06,3.8,3.8,0,0,0-7.6,0,3.72,3.72,0,0,0,.92,2.4,3.74,3.74,0,0,0-1.66,3.06,3.83,3.83,0,0,0,1.1,2.66,3.47,3.47,0,0,0-.17.79,3.74,3.74,0,0,0,1.54,3,3.56,3.56,0,0,0-.2,1A3.8,3.8,0,0,0,1140.13,263.1Z"/><path class="cls-2" d="M944.77,192.1a3.81,3.81,0,1,0-3.81-3.81A3.82,3.82,0,0,0,944.77,192.1Z"/><path class="cls-2" d="M907.21,170.67a3.81,3.81,0,1,0-3.81-3.8A3.8,3.8,0,0,0,907.21,170.67Z"/><path class="cls-2" d="M915.49,174a3.81,3.81,0,1,0-3.8-3.8A3.8,3.8,0,0,0,915.49,174Z"/><path class="cls-2" d="M903.41,164.19a3.76,3.76,0,0,0-7-1.88,3.29,3.29,0,0,0,.09-.43,3.82,3.82,0,0,0-3.8-3.81,3.77,3.77,0,0,0-2.64,1.09,3.66,3.66,0,0,0-5.33-2.91l0-.05h-7.13a3.75,3.75,0,0,0,3.56,2.62,3.67,3.67,0,0,0,1.62-.42,3.66,3.66,0,0,0-.25,1.25,3.81,3.81,0,0,0,3.8,3.81,3.76,3.76,0,0,0,2.63-1.08,3.71,3.71,0,0,0,6.94,1.38,3.29,3.29,0,0,0-.09.43,3.81,3.81,0,1,0,7.61,0Z"/><path class="cls-2" d="M934.24,184.33a3.81,3.81,0,1,0-3.8-3.81A3.81,3.81,0,0,0,934.24,184.33Z"/><path class="cls-2" d="M932.2,231a3.8,3.8,0,1,0,3.8,3.8A3.81,3.81,0,0,0,932.2,231Z"/><path class="cls-2" d="M955.69,285.33a3.81,3.81,0,1,0,3.8,3.8A3.8,3.8,0,0,0,955.69,285.33Z"/><path class="cls-2" d="M943.59,255.43a3.81,3.81,0,1,0,3.8,3.8A3.8,3.8,0,0,0,943.59,255.43Z"/><path class="cls-2" d="M968.48,321.42a3.81,3.81,0,1,0,3.8,3.81A3.82,3.82,0,0,0,968.48,321.42Z"/><path class="cls-2" d="M893.57,174a3.81,3.81,0,1,0,3.8,3.8A3.8,3.8,0,0,0,893.57,174Z"/><path class="cls-2" d="M889.36,170.82a3.81,3.81,0,1,0-3.81,3.8A3.82,3.82,0,0,0,889.36,170.82Z"/><path class="cls-2" d="M878.15,169.49a3.81,3.81,0,1,0-3.8-3.8A3.8,3.8,0,0,0,878.15,169.49Z"/><path class="cls-2" d="M995.85,415.43a3.8,3.8,0,1,0,3.8,3.79A3.8,3.8,0,0,0,995.85,415.43Z"/><path class="cls-2" d="M902.21,183.35a3.81,3.81,0,1,0,3.81,3.81A3.81,3.81,0,0,0,902.21,183.35Z"/><path class="cls-2" d="M911.52,195.57a3.81,3.81,0,1,0,3.81,3.8A3.8,3.8,0,0,0,911.52,195.57Z"/><path class="cls-2" d="M921.51,211.23a3.81,3.81,0,1,0,3.81,3.81A3.81,3.81,0,0,0,921.51,211.23Z"/><path class="cls-2" d="M1010.17,475a3.8,3.8,0,1,0,3.8,3.81A3.81,3.81,0,0,0,1010.17,475Z"/><path class="cls-2" d="M1024.53,544a3.8,3.8,0,1,0,3.8,3.79A3.8,3.8,0,0,0,1024.53,544Z"/><path class="cls-2" d="M729.7,180.76a3.81,3.81,0,1,0,3.8,3.81A3.82,3.82,0,0,0,729.7,180.76Z"/><path class="cls-2" d="M730.49,169.61a3.8,3.8,0,1,0,3.8,3.8A3.8,3.8,0,0,0,730.49,169.61Z"/><path class="cls-2" d="M728.84,195.33a3.8,3.8,0,1,0,3.8,3.8A3.8,3.8,0,0,0,728.84,195.33Z"/><path class="cls-2" d="M727.92,213.91a3.81,3.81,0,1,0,3.81,3.81A3.81,3.81,0,0,0,727.92,213.91Z"/><path class="cls-2" d="M719.37,519.73a3.8,3.8,0,1,0,3.8,3.8A3.8,3.8,0,0,0,719.37,519.73Z"/><path class="cls-2" d="M726.93,237.2a3.81,3.81,0,1,0,3.81,3.81A3.81,3.81,0,0,0,726.93,237.2Z"/><path class="cls-2" d="M725.87,265.9a3.81,3.81,0,1,0,3.81,3.81A3.81,3.81,0,0,0,725.87,265.9Z"/><path class="cls-2" d="M724.74,300.8a3.81,3.81,0,1,0,3.8,3.8A3.8,3.8,0,0,0,724.74,300.8Z"/><path class="cls-2" d="M720.84,451.22a3.8,3.8,0,1,0,3.8,3.79A3.8,3.8,0,0,0,720.84,451.22Z"/><path class="cls-2" d="M722.22,392.55a3.8,3.8,0,1,0,3.81,3.8A3.8,3.8,0,0,0,722.22,392.55Z"/><path class="cls-2" d="M723.52,342.72a3.81,3.81,0,1,0,3.81,3.81A3.81,3.81,0,0,0,723.52,342.72Z"/><path class="cls-2" d="M804.66,242.36a3.81,3.81,0,1,0-3.81,3.81A3.82,3.82,0,0,0,804.66,242.36Z"/><path class="cls-2" d="M789.94,166a3.76,3.76,0,0,0-3.26-3.69,3.69,3.69,0,0,0,.92-2.4,3.81,3.81,0,0,0-2.29-3.5,3.38,3.38,0,0,0,.16-.78,3.78,3.78,0,0,0-2.06-3.32,3.74,3.74,0,0,0-2-2.93,3.84,3.84,0,0,0-2.16-2.1,76,76,0,0,0-3.08-2.31,3.68,3.68,0,0,0-5.67.07h-1.82a4,4,0,0,0,1.05,1.58,3.47,3.47,0,0,0-.17.85,3.8,3.8,0,0,0,2.36,3.51,3.57,3.57,0,0,0,1.52,1,3.75,3.75,0,0,0,1.46,1,3.64,3.64,0,0,0,1.29,1.11,3.73,3.73,0,0,0,1.77,1.9,3.75,3.75,0,0,0,2.21,3.06,3.66,3.66,0,0,0-.16.8,3.75,3.75,0,0,0,3.25,3.68,3.75,3.75,0,0,0-.92,2.41,3.81,3.81,0,0,0,7.61,0Z"/><path class="cls-2" d="M792.45,174.42a3.8,3.8,0,1,0-3.8,3.81A3.8,3.8,0,0,0,792.45,174.42Z"/><path class="cls-2" d="M801.26,219a3.8,3.8,0,1,0-3.8,3.81A3.8,3.8,0,0,0,801.26,219Z"/><path class="cls-2" d="M798.11,200.31a3.81,3.81,0,1,0-3.81,3.8A3.81,3.81,0,0,0,798.11,200.31Z"/><path class="cls-2" d="M795.17,185.65a3.8,3.8,0,1,0-3.8,3.81A3.8,3.8,0,0,0,795.17,185.65Z"/><path class="cls-2" d="M816.34,348.19a3.81,3.81,0,1,0-3.81,3.8A3.82,3.82,0,0,0,816.34,348.19Z"/><path class="cls-2" d="M830.44,525.52a3.8,3.8,0,1,0-3.8,3.8A3.8,3.8,0,0,0,830.44,525.52Z"/><path class="cls-2" d="M812.18,306.16a3.8,3.8,0,1,0-3.8,3.81A3.8,3.8,0,0,0,812.18,306.16Z"/><path class="cls-2" d="M808.29,271.16a3.8,3.8,0,1,0-3.8,3.81A3.8,3.8,0,0,0,808.29,271.16Z"/><path class="cls-2" d="M820.76,398.12a3.8,3.8,0,1,0-3.8,3.8A3.8,3.8,0,0,0,820.76,398.12Z"/><path class="cls-2" d="M825.47,456.9a3.81,3.81,0,1,0-3.81,3.8A3.81,3.81,0,0,0,825.47,456.9Z"/><path class="cls-2" d="M1220,401.31a3.81,3.81,0,1,0,3.8,3.81A3.81,3.81,0,0,0,1220,401.31Z"/><path class="cls-2" d="M1245.23,449.26a3.81,3.81,0,1,0-3.8,3.81A3.8,3.8,0,0,0,1245.23,449.26Z"/><path class="cls-2" d="M1198.52,370.68a3.8,3.8,0,1,0-3.8-3.8A3.8,3.8,0,0,0,1198.52,370.68Z"/><path class="cls-2" d="M1282.13,552.71a3.8,3.8,0,1,0,3.81,3.8A3.81,3.81,0,0,0,1282.13,552.71Z"/><path class="cls-2" d="M1181.12,334.11a3.81,3.81,0,1,0-3.81,3.81A3.82,3.82,0,0,0,1181.12,334.11Z"/><path class="cls-2" d="M1262.33,495.87a3.8,3.8,0,1,0,3.8,3.8A3.81,3.81,0,0,0,1262.33,495.87Z"/><path class="cls-2" d="M1086,233.5a3.8,3.8,0,0,0,2.48,1,3.76,3.76,0,0,0,2.61-1.06,3.83,3.83,0,0,0,1.36.27,3.76,3.76,0,0,0,2.9-1.43,3.56,3.56,0,0,0,.65.13,3.81,3.81,0,1,0,0-7.61,3.72,3.72,0,0,0-2.9,1.44,3.56,3.56,0,0,0-.65-.13,3.76,3.76,0,0,0-2.61,1.06,3.67,3.67,0,0,0-1.36-.28,3.81,3.81,0,0,0-3.8,3.81,3.45,3.45,0,0,0,.11.54,3.74,3.74,0,0,0-2.48-1,3.81,3.81,0,1,0,3.81,3.81A3.25,3.25,0,0,0,1086,233.5Z"/><path class="cls-2" d="M1099.48,243.48a3.81,3.81,0,1,0,3.8,3.81A3.81,3.81,0,0,0,1099.48,243.48Z"/><path class="cls-2" d="M1117.61,259.61a3.8,3.8,0,1,0,3.81,3.81A3.81,3.81,0,0,0,1117.61,259.61Z"/><path class="cls-2" d="M1136.7,279.1a3.81,3.81,0,1,0,3.8,3.8A3.8,3.8,0,0,0,1136.7,279.1Z"/><path class="cls-2" d="M1156.64,302.48a3.81,3.81,0,1,0,3.8,3.81A3.82,3.82,0,0,0,1156.64,302.48Z"/><path class="cls-2" d="M1070,223.67a23,23,0,0,1,8.8,2.34,3.76,3.76,0,0,0,3.34-2.09,3.71,3.71,0,0,0,1.81.52,3.81,3.81,0,1,0-3.36-5.52,3.66,3.66,0,0,0-1.79-.52,3.75,3.75,0,0,1-5.33-.06,3.74,3.74,0,0,0-3.7,3.31,3.91,3.91,0,1,0,.23,2Z"/><path class="cls-2" d="M1055,214.27a3.76,3.76,0,0,0-.82-2.26,1.89,1.89,0,0,0,.23.05,3.81,3.81,0,1,0-3.8-3.8,3.73,3.73,0,0,0,.83,2.26,1.69,1.69,0,0,0-.24-.05,3.81,3.81,0,1,0,3.8,3.8Z"/><path class="cls-2" d="M991.13,189.37a3.81,3.81,0,1,0-3.51-5.25A2.94,2.94,0,0,0,987,184a3.8,3.8,0,1,0,3.5,5.25A4,4,0,0,0,991.13,189.37Z"/><path class="cls-2" d="M1005,190.3a3.81,3.81,0,0,0-3.8-3.81,3.77,3.77,0,0,0-3.62,2.89,3.76,3.76,0,0,0-2.71,3.58,3.81,3.81,0,0,0,3.8,3.81,3.75,3.75,0,0,0,3.62-2.89A3.76,3.76,0,0,0,1005,190.3Z"/><path class="cls-2" d="M1037.2,210.7a3.81,3.81,0,0,0,3.8-3.81,3.76,3.76,0,0,0-2.94-3.63,3.7,3.7,0,0,0,.2-1,3.8,3.8,0,1,0-7.6,0,3.75,3.75,0,0,0,2.94,3.63,3.61,3.61,0,0,0,3.6,4.81Z"/><path class="cls-2" d="M1050.22,208.27a3.8,3.8,0,1,0-3.8,3.79A3.81,3.81,0,0,0,1050.22,208.27Z"/><path class="cls-2" d="M1066.08,218.9a3.81,3.81,0,0,0,0-7.61,3.72,3.72,0,0,1-6.68-.31,3.81,3.81,0,0,0,0,7.62,3.76,3.76,0,0,0,3.23-1.93A3.82,3.82,0,0,0,1066.08,218.9Z"/><path class="cls-2" d="M1327.71,573.16a3.8,3.8,0,1,0,3.8,3.8A3.8,3.8,0,0,0,1327.71,573.16Z"/><path class="cls-2" d="M1023.49,192.69a3.79,3.79,0,0,0-2.73,6.43,3.71,3.71,0,0,0,1.86,5,3.77,3.77,0,0,0-1.51,3,3.81,3.81,0,1,0,5.4-3.43A3.69,3.69,0,0,0,1027,198a3.78,3.78,0,0,0-3.46-5.35Z"/><path class="cls-2" d="M1240,390.46a3.8,3.8,0,1,0,3.8-3.81A3.8,3.8,0,0,0,1240,390.46Z"/><path class="cls-2" d="M1221.91,353.52a3.81,3.81,0,1,0,3.8,3.81A3.81,3.81,0,0,0,1221.91,353.52Z"/><path class="cls-2" d="M1265.73,424.9a3.81,3.81,0,1,0,3.8,3.81A3.81,3.81,0,0,0,1265.73,424.9Z"/><path class="cls-2" d="M1287.36,468.6a3.81,3.81,0,1,0,3.8,3.81A3.81,3.81,0,0,0,1287.36,468.6Z"/><path class="cls-2" d="M1308.22,518a3.81,3.81,0,1,0,3.8,3.81A3.82,3.82,0,0,0,1308.22,518Z"/><path class="cls-2" d="M1200.42,325.09a3.8,3.8,0,1,0,3.8,3.8A3.81,3.81,0,0,0,1200.42,325.09Z"/><path class="cls-2" d="M1155.59,284.24a3.81,3.81,0,1,0,3.8-3.8A3.81,3.81,0,0,0,1155.59,284.24Z"/><path class="cls-2" d="M1175.72,304.69a3.8,3.8,0,1,0,3.8-3.81A3.8,3.8,0,0,0,1175.72,304.69Z"/><path class="cls-2" d="M1104.69,244.53a3.76,3.76,0,0,0,3.53-2.52,3.68,3.68,0,0,0,2.22-1.62A3.74,3.74,0,0,0,1113,237a3.77,3.77,0,1,0-4.81-3.78,3.7,3.7,0,0,0-2.11,1.6,30.68,30.68,0,0,0-5.19,5.88A3.81,3.81,0,0,0,1104.69,244.53Z"/><path class="cls-2" d="M1140.16,270.88a3.8,3.8,0,1,0-3.8-3.81A3.82,3.82,0,0,0,1140.16,270.88Z"/><path class="cls-2" d="M1009.73,277.64a3.81,3.81,0,1,0-3.8-3.8A3.81,3.81,0,0,0,1009.73,277.64Z"/><path class="cls-2" d="M934,169.91a3.8,3.8,0,1,0-7.6,0,3.62,3.62,0,0,0,.59,1.91,3.76,3.76,0,0,0-6.28,2.83,3.8,3.8,0,1,0,7.6,0,3.71,3.71,0,0,0-.59-1.91,3.76,3.76,0,0,0,6.28-2.83Z"/><path class="cls-2" d="M1037.34,247.77a3.8,3.8,0,1,0-3.8-3.8A3.8,3.8,0,0,0,1037.34,247.77Z"/><path class="cls-2" d="M1025.62,226.5a3.81,3.81,0,1,0-3.81,3.81A3.81,3.81,0,0,0,1025.62,226.5Z"/><path class="cls-2" d="M1011,212.5a3.81,3.81,0,1,0-3.81,3.8A3.8,3.8,0,0,0,1011,212.5Z"/><path class="cls-2" d="M997.35,201.41a3.8,3.8,0,1,0-3.8,3.8A3.81,3.81,0,0,0,997.35,201.41Z"/><path class="cls-2" d="M1074.88,291.68a3.81,3.81,0,1,0-3.81,3.8A3.82,3.82,0,0,0,1074.88,291.68Z"/><path class="cls-2" d="M1057.58,265.49a3.8,3.8,0,1,0-3.8,3.8A3.81,3.81,0,0,0,1057.58,265.49Z"/><path class="cls-2" d="M922.42,170.75a3.8,3.8,0,1,0-3.8-3.8A3.8,3.8,0,0,0,922.42,170.75Z"/><path class="cls-2" d="M942.47,173a3.8,3.8,0,1,0-3.8,3.81A3.8,3.8,0,0,0,942.47,173Z"/><path class="cls-2" d="M960.47,177.78a3.73,3.73,0,0,0,.74-2.13,3.81,3.81,0,1,0-6.23,2.87,3.65,3.65,0,0,0-.74,2.12,3.81,3.81,0,1,0,7.61,0A3.72,3.72,0,0,0,960.47,177.78Z"/><path class="cls-2" d="M980.82,196.52a3.81,3.81,0,1,0-3.8-3.81A3.81,3.81,0,0,0,980.82,196.52Z"/><path class="cls-2" d="M969.08,182.15a3.8,3.8,0,1,0-2.75,1.08,3.8,3.8,0,1,0,2.75-1.08Z"/><path class="cls-2" d="M1092.39,492.18a3.81,3.81,0,1,0,3.8,3.8A3.8,3.8,0,0,0,1092.39,492.18Z"/><path class="cls-2" d="M1075.21,432.58a3.8,3.8,0,1,0,3.8,3.79A3.8,3.8,0,0,0,1075.21,432.58Z"/><path class="cls-2" d="M1041.34,337.56a3.81,3.81,0,1,0,3.8,3.81A3.82,3.82,0,0,0,1041.34,337.56Z"/><path class="cls-2" d="M1058.09,381.26a3.81,3.81,0,1,0,3.79,3.81A3.82,3.82,0,0,0,1058.09,381.26Z"/><path class="cls-2" d="M1109.09,560.66a3.8,3.8,0,1,0,3.81,3.79A3.8,3.8,0,0,0,1109.09,560.66Z"/><path class="cls-2" d="M956.1,194.63a3.8,3.8,0,1,0,3.8,3.8A3.8,3.8,0,0,0,956.1,194.63Z"/><path class="cls-2" d="M981.25,231.77a3.81,3.81,0,1,0-3.81-3.8A3.8,3.8,0,0,0,981.25,231.77Z"/><path class="cls-2" d="M1025.18,300.73a3.81,3.81,0,1,0,3.8,3.81A3.81,3.81,0,0,0,1025.18,300.73Z"/><path class="cls-2" d="M995.08,252.35a3.81,3.81,0,1,0-3.81-3.81A3.81,3.81,0,0,0,995.08,252.35Z"/><path class="cls-2" d="M968.26,215.27a3.8,3.8,0,1,0-3.81-3.81A3.81,3.81,0,0,0,968.26,215.27Z"/><path class="cls-2" d="M1092.94,323.18a3.81,3.81,0,1,0-3.8,3.81A3.8,3.8,0,0,0,1092.94,323.18Z"/><path class="cls-2" d="M1111.64,360.67a3.8,3.8,0,1,0-3.8,3.81A3.8,3.8,0,0,0,1111.64,360.67Z"/><path class="cls-2" d="M980.08,183.4a3.8,3.8,0,1,0-3.8,3.8A3.81,3.81,0,0,0,980.08,183.4Z"/><path class="cls-2" d="M1035.71,216.8a3.81,3.81,0,1,0,3.8-3.81A3.81,3.81,0,0,0,1035.71,216.8Z"/><path class="cls-2" d="M1051.31,228.94a3.81,3.81,0,1,0,3.8-3.8A3.81,3.81,0,0,0,1051.31,228.94Z"/><path class="cls-2" d="M1228.15,532a3.8,3.8,0,1,0,3.8,3.8A3.8,3.8,0,0,0,1228.15,532Z"/><path class="cls-2" d="M1188.07,422.69a3.81,3.81,0,1,0,3.8,3.8A3.81,3.81,0,0,0,1188.07,422.69Z"/><path class="cls-2" d="M1067.9,244a3.81,3.81,0,1,0,3.81-3.8A3.82,3.82,0,0,0,1067.9,244Z"/><path class="cls-2" d="M1208.49,473.78a3.81,3.81,0,1,0,3.8,3.8A3.81,3.81,0,0,0,1208.49,473.78Z"/><path class="cls-2" d="M1089.26,258.67a3.81,3.81,0,1,0,3.81,3.81A3.81,3.81,0,0,0,1089.26,258.67Z"/><path class="cls-2" d="M1107.74,288.76a3.81,3.81,0,1,0-3.81-3.81A3.81,3.81,0,0,0,1107.74,288.76Z"/><path class="cls-2" d="M1167.44,378.4a3.81,3.81,0,1,0,3.8,3.8A3.8,3.8,0,0,0,1167.44,378.4Z"/><path class="cls-2" d="M1147,340.42a3.81,3.81,0,1,0,3.79,3.81A3.82,3.82,0,0,0,1147,340.42Z"/><path class="cls-2" d="M1127,308.2a3.81,3.81,0,1,0,3.8,3.8A3.8,3.8,0,0,0,1127,308.2Z"/><path class="cls-2" d="M1146.19,452.4a3.8,3.8,0,1,0,3.8,3.8A3.8,3.8,0,0,0,1146.19,452.4Z"/><path class="cls-2" d="M1127,401a3.8,3.8,0,1,0,3.8,3.8A3.8,3.8,0,0,0,1127,401Z"/><path class="cls-2" d="M1165.06,511.56a3.8,3.8,0,1,0,3.8,3.8A3.81,3.81,0,0,0,1165.06,511.56Z"/></g></g></svg>