<svg width="750" height="269" viewBox="0 0 750 269" fill="none" xmlns="http://www.w3.org/2000/svg">
<path d="M130.3 90.3998C130.1 90.4998 129.9 90.4998 129.8 90.5998C125.1 92.7998 123.7 98.1998 125.9 102.9C128.1 107.5 131.7 110.4 138.8 107.2C172.6 91.6998 215.7 106.4 232.4 141.7C249.3 177.2 234 220.4 198.5 237.3C164.6 253.4 124.3 241.2 105.9 208.8L120.9 201.7L79.5998 174.3L74.7998 223.6L88.9998 216.9C111.7 258.2 163.2 275 206.5 254.5C251.4 233.2 270.5 179.1 249.1 134.1C227.8 89.6998 174.8 70.2998 130.3 90.3998Z" fill="#27AAE1"/>
<path d="M168.5 221.7C171.6 221.7 174.2 224.2 174.2 227.4C174.2 230.5 171.7 233.1 168.5 233.1C165.4 233.1 162.8 230.6 162.8 227.4C162.9 224.2 165.4 221.7 168.5 221.7Z" fill="#27AAE1"/>
<path d="M205.9 136.2C209 136.2 211.6 138.7 211.6 141.9C211.6 145.1 209.1 147.6 205.9 147.6C202.8 147.6 200.3 145.1 200.3 141.9C200.3 138.7 202.8 136.2 205.9 136.2Z" fill="#27AAE1"/>
<path d="M205.9 204C209 204 211.6 206.5 211.6 209.7C211.6 212.8 209.1 215.4 205.9 215.4C202.8 215.4 200.3 212.9 200.3 209.7C200.3 206.5 202.8 204 205.9 204Z" fill="#27AAE1"/>
<path d="M218.5 170.7C221.6 170.7 224.2 173.2 224.2 176.4C224.2 179.5 221.7 182.1 218.5 182.1C215.4 182.1 212.9 179.6 212.9 176.4C212.9 173.3 215.4 170.7 218.5 170.7Z" fill="#27AAE1"/>
<path d="M178.2 129.7C178.2 125.3 174.6 121.5 170.2 121.5H168.5C164.1 121.5 160.6 125.3 160.6 129.7V177.1L137.4 200.3C134 203.7 134.1 209.3 137.4 212.7C140.7 216.1 146.3 216.1 149.8 212.7L175.5 187C175.7 186.8 175.9 186.6 176 186.4C177.4 184.9 178.3 183 178.3 180.8L178.2 129.7Z" fill="#27AAE1"/>
<path d="M121.3 53.6999C117.5 23.2999 89.5999 1.4999 59.1999 5.2999C28.7999 8.9999 6.9999 36.6999 10.7999 67.3999C15.0999 102 53.7999 146.6 71.4999 165.4C75.8999 170.1 83.2999 169.2 86.3999 163.6C98.8999 141 125.6 88.0999 121.3 53.6999ZM98.0999 81.3999C89.9999 86.7999 79.3999 89.7999 69.8999 90.8999C60.3999 92.0999 49.2999 91.7999 40.1999 88.4999C35.7999 86.8999 28.9999 83.4999 28.3999 78.1999C27.9999 74.6999 28.0999 70.4999 28.2999 66.8999C28.4999 61.2999 28.8999 55.5999 29.3999 49.9999C29.7999 44.8999 30.2999 39.8999 30.8999 34.7999C31.0999 33.2999 31.2999 31.6999 31.4999 30.0999C37.3999 34.8999 50.2999 36.4999 63.0999 34.9999C77.5999 33.1999 71.7999 41.5999 72.6999 48.8999C73.0999 52.0999 75.9999 54.2999 79.0999 53.8999C82.2999 53.4999 84.4999 50.5999 84.0999 47.4999C83.4999 42.9999 75.5999 32.9999 81.4999 30.1999C86.2999 27.8999 90.1999 25.2999 92.3999 22.4999C92.9999 23.9999 93.5999 25.4999 94.1999 26.9999C95.9999 31.7999 97.6999 36.4999 99.3999 41.3999C101.2 46.6999 103 52.0999 104.5 57.4999C105.5 60.8999 106.7 64.9999 107.1 68.3999C107.7 73.7999 102 78.7999 98.0999 81.3999Z" fill="#27AAE1"/>
<path d="M476 140.5C474.2 138.7 472.1 137.3 469.8 136.3C467.4 135.3 464.8 134.7 462.1 134.7C459.4 134.7 456.9 135.2 454.4 136.3C452.1 137.3 450 138.7 448.2 140.5C446.4 142.3 445 144.4 444 146.7C443 149.1 442.4 151.7 442.4 154.4C442.4 157.1 442.9 159.6 444 162.1C445 164.4 446.4 166.5 448.2 168.3C450 170.1 452.1 171.5 454.4 172.5C456.8 173.5 459.4 174.1 462.1 174.1C464.8 174.1 467.3 173.6 469.8 172.5C472.1 171.5 474.2 170.1 476 168.3C477.8 166.5 479.2 164.4 480.2 162.1C481.2 159.7 481.8 157.1 481.8 154.4C481.8 151.7 481.3 149.2 480.2 146.7C479.2 144.5 477.8 142.3 476 140.5Z" fill="#27AAE1"/>
<path d="M725.8 102H291.6C280.8 102 272 110.8 272 121.6V184.7C272 195.5 280.8 204.3 291.6 204.3H725.9C736.7 204.3 745.5 195.5 745.5 184.7V121.6C745.4 110.8 736.6 102 725.8 102ZM350.4 164.6C349.1 167.7 347.2 170.5 344.8 173C342.4 175.4 339.6 177.3 336.4 178.6C333.1 180 329.7 180.6 326.2 180.6C322.3 180.6 318.7 179.8 315.2 178.2C311.9 176.7 309 174.5 306.5 171.7V188.8H299.9V154.4C299.9 150.9 300.6 147.5 301.9 144.2C303.2 141.1 305.1 138.3 307.5 135.8C309.9 133.4 312.7 131.5 315.9 130.2C319.2 128.8 322.6 128.2 326.1 128.2C329.7 128.2 333.1 128.9 336.3 130.2C339.4 131.5 342.2 133.4 344.7 135.8C347.1 138.2 349 141 350.3 144.2C351.7 147.5 352.3 150.9 352.3 154.4C352.4 158 351.7 161.3 350.4 164.6ZM420.4 154.5C420.4 158.1 419.7 161.5 418.4 164.7C417.1 167.8 415.2 170.6 412.8 173.1C410.4 175.5 407.6 177.4 404.4 178.7C401.1 180.1 397.7 180.7 394.2 180.7C390.6 180.7 387.2 180 384 178.7C380.9 177.4 378.1 175.5 375.6 173.1C373.2 170.7 371.3 167.9 370 164.7C368.6 161.4 368 158 368 154.5V129.9H374.6V154.5C374.6 157.2 375.1 159.7 376.2 162.2C377.2 164.5 378.6 166.6 380.4 168.4C382.2 170.2 384.3 171.6 386.6 172.6C389 173.6 391.6 174.2 394.3 174.2C397 174.2 399.5 173.7 402 172.6C404.3 171.6 406.4 170.2 408.2 168.4C410 166.6 411.4 164.5 412.4 162.2C413.4 159.8 414 157.2 414 154.5V129.9H420.6V154.5H420.4ZM488.3 154.5C488.3 158.1 487.6 161.5 486.3 164.7C485 167.8 483.1 170.6 480.7 173.1C478.3 175.5 475.5 177.4 472.3 178.7C469 180.1 465.6 180.7 462.1 180.7C458.6 180.7 455.1 180 451.9 178.7C448.8 177.4 446 175.5 443.5 173.1C441.1 170.7 439.2 167.9 437.9 164.7C436.5 161.4 435.9 158 435.9 154.5C435.9 151 436.6 147.6 437.9 144.3C439.2 141.2 441.1 138.4 443.5 135.9C445.9 133.5 448.7 131.6 451.9 130.3C455.2 128.9 458.6 128.3 462.1 128.3C466 128.3 469.6 129.1 473.1 130.7C476.4 132.2 479.3 134.4 481.8 137.2V120.1H488.4L488.3 154.5ZM556.2 154.5C556.2 158.1 555.5 161.5 554.2 164.7C552.9 167.8 551 170.6 548.6 173.1C546.2 175.5 543.4 177.4 540.2 178.7C536.9 180.1 533.5 180.7 530 180.7C526.5 180.7 523 180 519.8 178.7C516.7 177.4 513.9 175.5 511.4 173.1C509 170.7 507.1 167.9 505.8 164.7C504.4 161.4 503.8 158 503.8 154.5C503.8 151 504.5 147.6 505.8 144.3C507.1 141.2 509 138.4 511.4 135.9C513.8 133.5 516.6 131.6 519.8 130.3C523.1 128.9 526.5 128.3 530 128.3C533.9 128.3 537.5 129.1 541 130.7C544.3 132.2 547.2 134.4 549.7 137.2V120.1H556.3L556.2 154.5ZM579.9 179H573.3V129.8H579.9V179ZM579.5 123C578.7 123.8 577.7 124.2 576.6 124.2C575.5 124.2 574.5 123.8 573.7 123C572.9 122.2 572.5 121.2 572.5 120.1C572.5 119 572.9 118 573.7 117.2C574.5 116.4 575.5 116 576.6 116C577.7 116 578.7 116.4 579.5 117.2C580.3 118 580.7 118.9 580.7 120.1C580.7 121.1 580.3 122.1 579.5 123ZM649.5 179H642.9V154.4C642.9 151.7 642.4 149.2 641.3 146.7C640.3 144.4 638.9 142.3 637.1 140.5C635.3 138.7 633.2 137.3 630.9 136.3C628.5 135.3 625.9 134.7 623.2 134.7C620.5 134.7 618 135.2 615.5 136.3C613.2 137.3 611.1 138.7 609.3 140.5C607.5 142.3 606.1 144.4 605.1 146.7C604.1 149.1 603.5 151.7 603.5 154.4V179H596.9V154.4C596.9 150.9 597.6 147.5 598.9 144.2C600.2 141.1 602.1 138.3 604.5 135.8C606.9 133.4 609.7 131.5 612.9 130.2C616.2 128.8 619.6 128.2 623.1 128.2C626.7 128.2 630.1 128.9 633.3 130.2C636.4 131.5 639.2 133.4 641.7 135.8C644.1 138.2 646 141 647.3 144.2C648.7 147.5 649.3 150.9 649.3 154.4V179H649.5ZM717.4 179C717.4 183.7 716.2 188.1 713.9 192.1L708.2 188.8C709.9 185.8 710.8 182.5 710.8 179V171.7C710.5 172.1 710.2 172.4 709.8 172.8C707.7 175 705.2 176.7 702.5 178C699.7 179.4 696.8 180.2 693.7 180.5C692.8 180.6 692 180.6 691.1 180.6C687.5 180.6 684.1 179.9 680.8 178.5C677.6 177.1 674.8 175.2 672.4 172.8C670.6 171 669.1 169 667.9 166.7C665.9 162.9 664.8 158.8 664.8 154.4C664.8 150.9 665.5 147.5 666.8 144.2C668.1 141.1 670 138.3 672.4 135.8C674.8 133.4 677.6 131.5 680.8 130.2C684.1 128.8 687.5 128.2 691 128.2C694.5 128.2 698 128.9 701.2 130.2C704.3 131.5 707.1 133.4 709.6 135.8C712 138.2 713.9 141 715.2 144.2C716.6 147.5 717.2 150.9 717.2 154.4V179H717.4Z" fill="#27AAE1"/>
<path d="M340.1 140.5C338.3 138.7 336.2 137.3 333.9 136.3C331.5 135.3 328.9 134.7 326.2 134.7C323.5 134.7 321 135.2 318.5 136.3C316.2 137.3 314.1 138.7 312.3 140.5C310.5 142.3 309.1 144.4 308.1 146.7C307.1 149.1 306.5 151.7 306.5 154.4C306.5 157.1 307 159.6 308.1 162.1C309.1 164.4 310.5 166.5 312.3 168.3C314.1 170.1 316.2 171.5 318.5 172.5C320.9 173.5 323.5 174.1 326.2 174.1C328.9 174.1 331.4 173.6 333.9 172.5C336.2 171.5 338.3 170.1 340.1 168.3C341.9 166.5 343.3 164.4 344.3 162.1C345.3 159.7 345.9 157.1 345.9 154.4C345.9 151.7 345.4 149.2 344.3 146.7C343.3 144.5 341.9 142.3 340.1 140.5Z" fill="#27AAE1"/>
<path d="M543.9 140.5C542.1 138.7 540 137.3 537.7 136.3C535.3 135.3 532.7 134.7 530 134.7C527.3 134.7 524.8 135.2 522.3 136.3C520 137.3 517.9 138.7 516.1 140.5C514.3 142.3 512.9 144.4 511.9 146.7C510.9 149.1 510.3 151.7 510.3 154.4C510.3 157.1 510.8 159.6 511.9 162.1C512.9 164.4 514.3 166.5 516.1 168.3C517.9 170.1 520 171.5 522.3 172.5C524.7 173.5 527.3 174.1 530 174.1C532.7 174.1 535.2 173.6 537.7 172.5C540 171.5 542.1 170.1 543.9 168.3C545.7 166.5 547.1 164.4 548.1 162.1C549.1 159.7 549.7 157.1 549.7 154.4C549.7 151.7 549.2 149.2 548.1 146.7C547.1 144.5 545.7 142.3 543.9 140.5Z" fill="#27AAE1"/>
<path d="M705 140.5C703.2 138.7 701.1 137.3 698.8 136.3C696.4 135.3 693.8 134.7 691.1 134.7C688.4 134.7 685.9 135.2 683.4 136.3C681.1 137.3 679 138.7 677.2 140.5C675.4 142.3 674 144.4 673 146.7C672 149.1 671.4 151.7 671.4 154.4C671.4 156.5 671.7 158.6 672.4 160.6C673.1 162.8 674.2 164.9 675.7 166.7C677.6 169 679.8 170.8 682.4 172.1C685.1 173.4 688 174.1 691 174.1C694.1 174.1 696.9 173.4 699.6 172.1C702.2 170.8 704.5 169 706.3 166.7C707.8 164.9 708.9 162.8 709.6 160.6C710.3 158.6 710.6 156.5 710.6 154.4C710.6 151.7 710.1 149.2 709 146.7C708.3 144.5 706.9 142.3 705 140.5Z" fill="#27AAE1"/>
</svg>
