<?xml version="1.0" encoding="utf-8"?>
<!-- Generator: Adobe Illustrator 19.1.0, SVG Export Plug-In . SVG Version: 6.00 Build 0)  -->
<svg version="1.0" id="Layer_1" xmlns="http://www.w3.org/2000/svg" xmlns:xlink="http://www.w3.org/1999/xlink" x="0px" y="0px"
	 viewBox="80 265 750 269" style="enable-background:new 80 265 750 269;" xml:space="preserve">
<style type="text/css">
	.st0{fill:#27AAE1;}
</style>
<g>
	<g>
		<path class="st0" d="M210.3,355.4c-0.2,0.1-0.4,0.1-0.5,0.2c-4.7,2.2-6.1,7.6-3.9,12.3c2.2,4.6,5.8,7.5,12.9,4.3l0,0
			c33.8-15.5,76.9-0.8,93.6,34.5c16.9,35.5,1.6,78.7-33.9,95.6c-33.9,16.1-74.2,3.9-92.6-28.5l15-7.1l-41.3-27.4l-4.8,49.3l14.2-6.7
			c22.7,41.3,74.2,58.1,117.5,37.6c44.9-21.3,64-75.4,42.6-120.4C307.8,354.7,254.8,335.3,210.3,355.4z"/>
		<path class="st0" d="M248.5,486.7c3.1,0,5.7,2.5,5.7,5.7c0,3.1-2.5,5.7-5.7,5.7c-3.1,0-5.7-2.5-5.7-5.7
			C242.9,489.2,245.4,486.7,248.5,486.7z"/>
		<path class="st0" d="M285.9,401.2c3.1,0,5.7,2.5,5.7,5.7s-2.5,5.7-5.7,5.7c-3.1,0-5.6-2.5-5.6-5.7S282.8,401.2,285.9,401.2z"/>
		<path class="st0" d="M285.9,469c3.1,0,5.7,2.5,5.7,5.7c0,3.1-2.5,5.7-5.7,5.7c-3.1,0-5.6-2.5-5.6-5.7
			C280.3,471.5,282.8,469,285.9,469z"/>
		<path class="st0" d="M298.5,435.7c3.1,0,5.7,2.5,5.7,5.7c0,3.1-2.5,5.7-5.7,5.7c-3.1,0-5.6-2.5-5.6-5.7
			C292.9,438.3,295.4,435.7,298.5,435.7z"/>
		<path class="st0" d="M258.2,394.7c0-4.4-3.6-8.2-8-8.2h-1.7c-4.4,0-7.9,3.8-7.9,8.2v47.4l-23.2,23.2c-3.4,3.4-3.3,9,0,12.4
			c3.3,3.4,8.9,3.4,12.4,0l25.7-25.7c0.2-0.2,0.4-0.4,0.5-0.6c1.4-1.5,2.3-3.4,2.3-5.6L258.2,394.7L258.2,394.7z"/>
		<g>
			<path class="st0" d="M201.3,318.7c-3.8-30.4-31.7-52.2-62.1-48.4c-30.4,3.7-52.2,31.4-48.4,62.1c4.3,34.6,43,79.2,60.7,98
				c4.4,4.7,11.8,3.8,14.9-1.8C178.9,406,205.6,353.1,201.3,318.7z M178.1,346.4c-8.1,5.4-18.7,8.4-28.2,9.5
				c-9.5,1.2-20.6,0.9-29.7-2.4c-4.4-1.6-11.2-5-11.8-10.3c-0.4-3.5-0.3-7.7-0.1-11.3c0.2-5.6,0.6-11.3,1.1-16.9
				c0.4-5.1,0.9-10.1,1.5-15.2c0.2-1.5,0.4-3.1,0.6-4.7c5.9,4.8,18.8,6.4,31.6,4.9c14.5-1.8,8.7,6.6,9.6,13.9c0.4,3.2,3.3,5.4,6.4,5
				c3.2-0.4,5.4-3.3,5-6.4c-0.6-4.5-8.5-14.5-2.6-17.3c4.8-2.3,8.7-4.9,10.9-7.7c0.6,1.5,1.2,3,1.8,4.5c1.8,4.8,3.5,9.5,5.2,14.4
				c1.8,5.3,3.6,10.7,5.1,16.1c1,3.4,2.2,7.5,2.6,10.9C187.7,338.8,182,343.8,178.1,346.4z"/>
		</g>
	</g>
	<g>
		<path class="st0" d="M554.6,428.8c-1.8-1.8-3.9-3.2-6.2-4.2c-2.4-1-5-1.6-7.7-1.6c-2.7,0-5.2,0.5-7.7,1.6c-2.3,1-4.4,2.4-6.2,4.2
			c-1.8,1.8-3.2,3.9-4.2,6.2c-1,2.4-1.6,5-1.6,7.7s0.5,5.2,1.6,7.7c1,2.3,2.4,4.4,4.2,6.2c1.8,1.8,3.9,3.2,6.2,4.2
			c2.4,1,5,1.6,7.7,1.6c2.7,0,5.2-0.5,7.7-1.6c2.3-1,4.4-2.4,6.2-4.2c1.8-1.8,3.2-3.9,4.2-6.2c1-2.4,1.6-5,1.6-7.7s-0.5-5.2-1.6-7.7
			C557.8,432.8,556.4,430.6,554.6,428.8z"/>
		<path class="st0" d="M804.4,390.3H370.2c-10.8,0-19.6,8.8-19.6,19.6V473c0,10.8,8.8,19.6,19.6,19.6h434.3
			c10.8,0,19.6-8.8,19.6-19.6v-63.1C824,399.1,815.2,390.3,804.4,390.3z M429,452.9c-1.3,3.1-3.2,5.9-5.6,8.4
			c-2.4,2.4-5.2,4.3-8.4,5.6c-3.3,1.4-6.7,2-10.2,2c-3.9,0-7.5-0.8-11-2.4c-3.3-1.5-6.2-3.7-8.7-6.5v17.1h-6.6v-34.4
			c0-3.5,0.7-6.9,2-10.2c1.3-3.1,3.2-5.9,5.6-8.4c2.4-2.4,5.2-4.3,8.4-5.6c3.3-1.4,6.7-2,10.2-2c3.6,0,7,0.7,10.2,2
			c3.1,1.3,5.9,3.2,8.4,5.6c2.4,2.4,4.3,5.2,5.6,8.4c1.4,3.3,2,6.7,2,10.2C431,446.3,430.3,449.6,429,452.9z M499,442.8
			c0,3.6-0.7,7-2,10.2c-1.3,3.1-3.2,5.9-5.6,8.4c-2.4,2.4-5.2,4.3-8.4,5.6c-3.3,1.4-6.7,2-10.2,2c-3.6,0-7-0.7-10.2-2
			c-3.1-1.3-5.9-3.2-8.4-5.6c-2.4-2.4-4.3-5.2-5.6-8.4c-1.4-3.3-2-6.7-2-10.2v-24.6h6.6v24.6c0,2.7,0.5,5.2,1.6,7.7
			c1,2.3,2.4,4.4,4.2,6.2c1.8,1.8,3.9,3.2,6.2,4.2c2.4,1,5,1.6,7.7,1.6s5.2-0.5,7.7-1.6c2.3-1,4.4-2.4,6.2-4.2
			c1.8-1.8,3.2-3.9,4.2-6.2c1-2.4,1.6-5,1.6-7.7v-24.6h6.6v24.6H499z M566.9,442.8c0,3.6-0.7,7-2,10.2c-1.3,3.1-3.2,5.9-5.6,8.4
			c-2.4,2.4-5.2,4.3-8.4,5.6c-3.3,1.4-6.7,2-10.2,2s-7-0.7-10.2-2c-3.1-1.3-5.9-3.2-8.4-5.6c-2.4-2.4-4.3-5.2-5.6-8.4
			c-1.4-3.3-2-6.7-2-10.2s0.7-6.9,2-10.2c1.3-3.1,3.2-5.9,5.6-8.4c2.4-2.4,5.2-4.3,8.4-5.6c3.3-1.4,6.7-2,10.2-2
			c3.9,0,7.5,0.8,11,2.4c3.3,1.5,6.2,3.7,8.7,6.5v-17.1h6.6L566.9,442.8L566.9,442.8z M634.8,442.8c0,3.6-0.7,7-2,10.2
			c-1.3,3.1-3.2,5.9-5.6,8.4c-2.4,2.4-5.2,4.3-8.4,5.6c-3.3,1.4-6.7,2-10.2,2s-7-0.7-10.2-2c-3.1-1.3-5.9-3.2-8.4-5.6
			c-2.4-2.4-4.3-5.2-5.6-8.4c-1.4-3.3-2-6.7-2-10.2s0.7-6.9,2-10.2c1.3-3.1,3.2-5.9,5.6-8.4c2.4-2.4,5.2-4.3,8.4-5.6
			c3.3-1.4,6.7-2,10.2-2c3.9,0,7.5,0.8,11,2.4c3.3,1.5,6.2,3.7,8.7,6.5v-17.1h6.6L634.8,442.8L634.8,442.8z M658.5,467.3h-6.6v-49.2
			h6.6V467.3z M658.1,411.3c-0.8,0.8-1.8,1.2-2.9,1.2c-1.1,0-2.1-0.4-2.9-1.2c-0.8-0.8-1.2-1.8-1.2-2.9c0-1.1,0.4-2.1,1.2-2.9
			c0.8-0.8,1.8-1.2,2.9-1.2c1.1,0,2.1,0.4,2.9,1.2c0.8,0.8,1.2,1.7,1.2,2.9C659.3,409.4,658.9,410.4,658.1,411.3z M728.1,467.3h-6.6
			v-24.6c0-2.7-0.5-5.2-1.6-7.7c-1-2.3-2.4-4.4-4.2-6.2s-3.9-3.2-6.2-4.2c-2.4-1-5-1.6-7.7-1.6s-5.2,0.5-7.7,1.6
			c-2.3,1-4.4,2.4-6.2,4.2s-3.2,3.9-4.2,6.2c-1,2.4-1.6,5-1.6,7.7v24.6h-6.6v-24.6c0-3.5,0.7-6.9,2-10.2c1.3-3.1,3.2-5.9,5.6-8.4
			c2.4-2.4,5.2-4.3,8.4-5.6c3.3-1.4,6.7-2,10.2-2c3.6,0,7,0.7,10.2,2c3.1,1.3,5.9,3.2,8.4,5.6c2.4,2.4,4.3,5.2,5.6,8.4
			c1.4,3.3,2,6.7,2,10.2v24.6H728.1z M796,467.3c0,4.7-1.2,9.1-3.5,13.1l-5.7-3.3c1.7-3,2.6-6.3,2.6-9.8V460c-0.3,0.4-0.6,0.7-1,1.1
			c-2.1,2.2-4.6,3.9-7.3,5.2c-2.8,1.4-5.7,2.2-8.8,2.5c-0.9,0.1-1.7,0.1-2.6,0.1c-3.6,0-7-0.7-10.3-2.1c-3.2-1.4-6-3.3-8.4-5.7
			c-1.8-1.8-3.3-3.8-4.5-6.1c-2-3.8-3.1-7.9-3.1-12.3c0-3.5,0.7-6.9,2-10.2c1.3-3.1,3.2-5.9,5.6-8.4c2.4-2.4,5.2-4.3,8.4-5.6
			c3.3-1.4,6.7-2,10.2-2s7,0.7,10.2,2c3.1,1.3,5.9,3.2,8.4,5.6c2.4,2.4,4.3,5.2,5.6,8.4c1.4,3.3,2,6.7,2,10.2v24.6H796z"/>
		<path class="st0" d="M418.7,428.8c-1.8-1.8-3.9-3.2-6.2-4.2c-2.4-1-5-1.6-7.7-1.6s-5.2,0.5-7.7,1.6c-2.3,1-4.4,2.4-6.2,4.2
			c-1.8,1.8-3.2,3.9-4.2,6.2c-1,2.4-1.6,5-1.6,7.7s0.5,5.2,1.6,7.7c1,2.3,2.4,4.4,4.2,6.2c1.8,1.8,3.9,3.2,6.2,4.2
			c2.4,1,5,1.6,7.7,1.6s5.2-0.5,7.7-1.6c2.3-1,4.4-2.4,6.2-4.2c1.8-1.8,3.2-3.9,4.2-6.2c1-2.4,1.6-5,1.6-7.7s-0.5-5.2-1.6-7.7
			C421.9,432.8,420.5,430.6,418.7,428.8z"/>
		<path class="st0" d="M622.5,428.8c-1.8-1.8-3.9-3.2-6.2-4.2c-2.4-1-5-1.6-7.7-1.6s-5.2,0.5-7.7,1.6c-2.3,1-4.4,2.4-6.2,4.2
			s-3.2,3.9-4.2,6.2c-1,2.4-1.6,5-1.6,7.7s0.5,5.2,1.6,7.7c1,2.3,2.4,4.4,4.2,6.2s3.9,3.2,6.2,4.2c2.4,1,5,1.6,7.7,1.6
			s5.2-0.5,7.7-1.6c2.3-1,4.4-2.4,6.2-4.2s3.2-3.9,4.2-6.2c1-2.4,1.6-5,1.6-7.7s-0.5-5.2-1.6-7.7
			C625.7,432.8,624.3,430.6,622.5,428.8z"/>
		<path class="st0" d="M783.6,428.8c-1.8-1.8-3.9-3.2-6.2-4.2c-2.4-1-5-1.6-7.7-1.6s-5.2,0.5-7.7,1.6c-2.3,1-4.4,2.4-6.2,4.2
			s-3.2,3.9-4.2,6.2c-1,2.4-1.6,5-1.6,7.7c0,2.1,0.3,4.2,1,6.2c0.7,2.2,1.8,4.3,3.3,6.1c1.9,2.3,4.1,4.1,6.7,5.4
			c2.7,1.3,5.6,2,8.6,2c3.1,0,5.9-0.7,8.6-2c2.6-1.3,4.9-3.1,6.7-5.4c1.5-1.8,2.6-3.9,3.3-6.1c0.7-2,1-4.1,1-6.2
			c0-2.7-0.5-5.2-1.6-7.7C786.9,432.8,785.5,430.6,783.6,428.8z"/>
	</g>
</g>
</svg>
