<svg width="196" height="197" viewBox="0 0 196 197" fill="none" xmlns="http://www.w3.org/2000/svg">
<path d="M94.7765 65.0915C94.7765 65.0915 94.2148 65.0915 94.7765 65.0915C90.8448 66.7114 89.7215 71.0313 91.4065 74.8112C93.0915 78.591 95.8998 80.751 101.516 78.0511C128.476 66.1714 162.176 77.5111 175.656 103.97C189.136 130.969 176.779 163.908 148.696 176.868C121.736 189.288 90.2832 180.108 75.6799 155.269L87.4749 149.869L54.8984 128.809L50.9668 166.068L62.2 161.208C80.1732 192.527 120.613 205.487 154.874 189.828C190.259 173.628 205.424 132.589 188.574 98.5704C171.724 64.5515 130.161 49.9719 94.7765 65.0915Z" fill="#27AAE1"/>
<path d="M125.107 164.989C127.353 164.989 129.6 167.148 129.6 169.308C129.6 171.468 127.353 173.628 125.107 173.628C122.86 173.628 120.614 171.468 120.614 169.308C120.614 166.608 122.299 164.989 125.107 164.989Z" fill="#27AAE1"/>
<path d="M154.875 99.6507C157.121 99.6507 159.368 101.811 159.368 103.971C159.368 106.131 157.121 108.29 154.875 108.29C152.628 108.29 150.381 106.131 150.381 103.971C150.381 101.811 152.066 99.6507 154.875 99.6507Z" fill="#27AAE1"/>
<path d="M154.875 151.489C157.121 151.489 159.368 153.649 159.368 155.809C159.368 157.969 157.121 160.129 154.875 160.129C152.628 160.129 150.381 157.969 150.381 155.809C150.381 153.109 152.066 151.489 154.875 151.489Z" fill="#27AAE1"/>
<path d="M164.423 126.11C166.67 126.11 168.916 128.27 168.916 130.43C168.916 132.59 166.67 134.75 164.423 134.75C162.176 134.75 159.93 132.59 159.93 130.43C159.93 128.27 162.176 126.11 164.423 126.11Z" fill="#27AAE1"/>
<path d="M132.97 94.7909C132.97 91.551 130.162 88.3111 126.792 88.3111H125.669C122.299 88.3111 119.49 91.011 119.49 94.7909V130.97L100.955 148.789C98.147 151.489 98.147 155.809 100.955 157.969C103.764 160.669 108.257 160.669 110.504 157.969L130.723 138.529C130.723 138.529 130.723 137.99 131.285 137.99C132.408 136.91 132.97 135.29 132.97 133.67V94.7909Z" fill="#27AAE1"/>
<path d="M87.4754 37.0126C84.6671 13.7933 62.2005 -2.40616 38.6107 0.293759C14.4592 2.99367 -2.9523 24.053 0.417672 47.2723C3.78765 73.7314 34.6791 107.21 48.159 121.79C51.529 125.57 57.7073 124.49 59.9539 120.17C70.0638 103.43 90.8453 63.4718 87.4754 37.0126ZM69.5022 58.0719C63.3239 62.3918 54.8989 64.5517 47.0357 65.0917C39.1724 65.6317 30.7475 65.6317 23.4458 63.4718C20.0759 62.3918 14.4592 59.6919 13.8976 55.912C13.3359 53.2121 13.8976 49.9722 13.8976 47.2723C13.8976 42.9524 14.4592 38.6325 14.4592 34.3127C15.0209 30.5328 15.0209 26.7529 15.5826 22.973C15.5826 21.8931 16.1442 20.8131 16.1442 19.1932C20.6375 22.973 30.7474 24.053 40.8574 22.973C52.0906 21.3531 47.5973 27.8329 48.7207 33.7727C49.2823 35.9326 51.529 38.0926 53.7756 37.5526C56.0223 37.0126 58.2689 34.8527 57.7072 32.6927C57.1456 29.4528 50.9673 21.8931 55.4606 19.7331C59.3922 18.1132 62.2005 15.9533 63.8855 13.7933C64.4472 14.8733 65.0089 15.9533 65.0089 17.0332C66.6939 20.8131 67.8172 24.053 68.9405 27.8329C70.6255 32.1528 71.7488 35.9326 72.8721 40.2525C73.4338 42.9524 74.5571 46.1923 75.1188 48.3522C76.8038 52.6721 72.3105 55.912 69.5022 58.0719Z" fill="#27AAE1"/>
</svg>
