<?xml version="1.0" encoding="utf-8"?>
<!-- Generator: Adobe Illustrator 19.1.0, SVG Export Plug-In . SVG Version: 6.00 Build 0)  -->
<svg version="1.0" id="Layer_1" xmlns="http://www.w3.org/2000/svg" xmlns:xlink="http://www.w3.org/1999/xlink" x="0px" y="0px"
	 viewBox="37 64 556 554" style="enable-background:new 37 64 556 554;" xml:space="preserve">
<style type="text/css">
	.st0{fill:#27AAE1;}
</style>
<g>
	<g>
		<path class="st0" d="M278,201c-0.3,0.1-0.6,0.2-0.8,0.3c-7.2,3.4-9.5,11.7-6,18.9c3.4,7.1,8.9,11.6,19.9,6.6l0,0
			c52-23.9,118.2-1.2,144,53c26,54.6,2.5,121-52.1,147c-52.1,24.8-114.1,6-142.5-43.8l23-10.9L200,330l-7.4,75.9l21.8-10.3
			c34.9,63.5,114.1,89.4,180.7,57.8c69.1-32.8,98.4-116,65.6-185.1C428.1,199.8,346.6,169.9,278,201z"/>
		<path class="st0" d="M336.9,402.8c4.8,0,8.7,3.9,8.7,8.7c0,4.8-3.9,8.7-8.7,8.7c-4.8,0-8.7-3.9-8.7-8.7
			C328.2,406.7,332.1,402.8,336.9,402.8z"/>
		<path class="st0" d="M394.4,271.3c4.8,0,8.7,3.9,8.7,8.7s-3.9,8.7-8.7,8.7c-4.8,0-8.7-3.9-8.7-8.7S389.6,271.3,394.4,271.3z"/>
		<path class="st0" d="M394.4,375.7c4.8,0,8.7,3.9,8.7,8.7s-3.9,8.7-8.7,8.7c-4.8,0-8.7-3.9-8.7-8.7
			C385.7,379.6,389.6,375.7,394.4,375.7z"/>
		<path class="st0" d="M413.7,324.5c4.8,0,8.7,3.9,8.7,8.7s-3.9,8.7-8.7,8.7c-4.8,0-8.7-3.9-8.7-8.7
			C405,328.3,408.9,324.5,413.7,324.5z"/>
		<path class="st0" d="M351.8,261.3c0-6.8-5.5-12.7-12.3-12.7h-2.7c-6.8,0-12.2,5.9-12.2,12.7v72.9L289,369.8
			c-5.3,5.3-5,13.8,0,19.1c5,5.3,13.8,5.3,19,0l39.5-39.5c0.3-0.3,0.5-0.7,0.8-1c2.2-2.2,3.5-5.3,3.5-8.6V261.3L351.8,261.3z"/>
		<g>
			<path class="st0" d="M264.3,144.4c-5.8-46.8-48.8-80.3-95.6-74.5s-80.3,48.4-74.5,95.6c6.6,53.2,66.2,121.8,93.4,150.8
				c6.7,7.3,18.2,5.8,22.9-2.8C229.8,278.7,270.8,197.3,264.3,144.4z M228.5,187c-12.4,8.3-28.8,12.8-43.4,14.7
				c-14.7,1.8-31.7,1.4-45.7-3.6c-6.8-2.4-17.2-7.6-18.2-15.8c-0.7-5.4-0.4-11.9-0.2-17.3c0.3-8.7,0.9-17.4,1.6-26
				c0.6-7.8,1.4-15.6,2.3-23.4c0.3-2.4,0.6-4.8,0.9-7.2c9.1,7.3,28.9,9.9,48.6,7.5c22.3-2.8,13.4,10.1,14.8,21.4
				c0.6,4.9,5,8.3,9.9,7.7s8.3-5,7.7-9.9c-0.9-7-13.1-22.3-4-26.7c7.4-3.5,13.4-7.5,16.8-11.9c0.9,2.3,1.8,4.6,2.7,6.9
				c2.8,7.3,5.4,14.7,8,22.1c2.8,8.2,5.5,16.5,7.9,24.8c1.5,5.2,3.4,11.5,4,16.8C243.3,175.4,234.5,183,228.5,187z"/>
		</g>
	</g>
	<g>
		<path class="st0" d="M277.1,540.4c-2.1-2.1-4.5-3.7-7.2-4.9c-2.8-1.2-5.8-1.8-8.8-1.8c-3.1,0-6,0.6-8.8,1.8
			c-2.7,1.1-5.1,2.8-7.2,4.9c-2.1,2.1-3.7,4.5-4.9,7.2c-1.2,2.8-1.8,5.8-1.8,8.8c0,3.1,0.6,6,1.8,8.9c1.1,2.7,2.8,5.1,4.9,7.2
			c2.1,2.1,4.5,3.7,7.2,4.9c2.8,1.2,5.8,1.8,8.8,1.8c3.1,0,6-0.6,8.8-1.8c2.7-1.1,5.1-2.8,7.2-4.9c2.1-2.1,3.7-4.5,4.9-7.2
			c1.2-2.8,1.8-5.8,1.8-8.9c0-3.1-0.6-6-1.8-8.8C280.8,544.9,279.2,542.5,277.1,540.4z"/>
		<path class="st0" d="M565.6,495.9H64.1c-12.4,0-22.6,10.2-22.6,22.6v72.9c0,12.4,10.2,22.6,22.6,22.6h501.5
			c12.4,0,22.6-10.2,22.6-22.6v-72.9C588.3,506,578.1,495.9,565.6,495.9z M132.1,568.2c-1.5,3.6-3.7,6.8-6.5,9.7
			c-2.8,2.8-6,4.9-9.7,6.5c-3.8,1.6-7.7,2.4-11.8,2.4c-4.4,0-8.7-0.9-12.7-2.8c-3.8-1.8-7.2-4.3-10-7.5v19.7h-7.6v-39.8
			c0-4.1,0.8-8,2.4-11.8c1.5-3.6,3.7-6.8,6.5-9.7c2.8-2.8,6-4.9,9.7-6.5c3.8-1.6,7.7-2.4,11.8-2.4c4.1,0,8,0.8,11.8,2.4
			c3.6,1.5,6.8,3.7,9.7,6.5c2.8,2.8,4.9,6,6.5,9.7c1.6,3.8,2.4,7.7,2.4,11.8C134.4,560.5,133.6,564.5,132.1,568.2z M212.9,556.4
			c0,4.1-0.8,8-2.4,11.8c-1.5,3.6-3.7,6.8-6.5,9.7c-2.8,2.8-6,4.9-9.7,6.5c-3.8,1.6-7.7,2.4-11.8,2.4s-8-0.8-11.8-2.4
			c-3.6-1.5-6.8-3.7-9.7-6.5c-2.8-2.8-4.9-6-6.5-9.7c-1.6-3.8-2.4-7.7-2.4-11.8V528h7.6v28.4c0,3.1,0.6,6,1.8,8.9
			c1.1,2.7,2.8,5.1,4.9,7.2c2.1,2.1,4.5,3.7,7.2,4.9c2.8,1.2,5.8,1.8,8.9,1.8c3.1,0,6-0.6,8.8-1.8c2.7-1.1,5.1-2.8,7.2-4.9
			c2.1-2.1,3.7-4.5,4.9-7.2c1.2-2.8,1.8-5.8,1.8-8.9V528h7.6L212.9,556.4L212.9,556.4z M291.3,556.4c0,4.1-0.8,8-2.4,11.8
			c-1.5,3.6-3.7,6.8-6.5,9.7c-2.8,2.8-6,4.9-9.7,6.5c-3.8,1.6-7.7,2.4-11.8,2.4c-4.1,0-8-0.8-11.8-2.4c-3.6-1.5-6.8-3.7-9.7-6.5
			c-2.8-2.8-4.9-6-6.5-9.7c-1.6-3.8-2.4-7.7-2.4-11.8s0.8-8,2.4-11.8c1.5-3.6,3.7-6.8,6.5-9.7c2.8-2.8,6-4.9,9.7-6.5
			c3.8-1.6,7.7-2.4,11.8-2.4c4.4,0,8.7,0.9,12.7,2.8c3.8,1.8,7.2,4.3,10,7.5v-19.7h7.6L291.3,556.4L291.3,556.4z M369.8,556.4
			c0,4.1-0.8,8-2.4,11.8c-1.5,3.6-3.7,6.8-6.5,9.7c-2.8,2.8-6,4.9-9.7,6.5c-3.8,1.6-7.7,2.4-11.8,2.4s-8-0.8-11.8-2.4
			c-3.6-1.5-6.8-3.7-9.7-6.5c-2.8-2.8-4.9-6-6.5-9.7c-1.6-3.8-2.4-7.7-2.4-11.8s0.8-8,2.4-11.8c1.5-3.6,3.7-6.8,6.5-9.7
			c2.8-2.8,6-4.9,9.7-6.5c3.8-1.6,7.7-2.4,11.8-2.4c4.4,0,8.7,0.9,12.7,2.8c3.8,1.8,7.2,4.3,10,7.5v-19.7h7.6L369.8,556.4
			L369.8,556.4z M397.1,584.8h-7.6V528h7.6V584.8z M396.7,520c-0.9,0.9-2.1,1.4-3.4,1.4s-2.4-0.5-3.4-1.4c-0.9-0.9-1.4-2-1.4-3.4
			c0-1.3,0.5-2.4,1.4-3.3c0.9-0.9,2.1-1.4,3.4-1.4s2.4,0.5,3.4,1.4c0.9,0.9,1.4,2,1.4,3.3C398.1,518,397.6,519.1,396.7,520z
			 M477.4,584.8h-7.6v-28.4c0-3.1-0.6-6-1.8-8.8c-1.1-2.7-2.8-5.1-4.9-7.2c-2.1-2.1-4.5-3.7-7.2-4.9c-2.8-1.2-5.8-1.8-8.8-1.8
			c-3.1,0-6,0.6-8.9,1.8c-2.7,1.1-5.1,2.8-7.2,4.9c-2.1,2.1-3.7,4.5-4.9,7.2c-1.2,2.8-1.8,5.8-1.8,8.8v28.4h-7.6v-28.4
			c0-4.1,0.8-8,2.4-11.8c1.5-3.6,3.7-6.8,6.5-9.7c2.8-2.8,6-4.9,9.7-6.5c3.8-1.6,7.7-2.4,11.8-2.4c4.1,0,8,0.8,11.8,2.4
			c3.6,1.5,6.8,3.7,9.7,6.5c2.8,2.8,4.9,6,6.5,9.7c1.6,3.8,2.4,7.7,2.4,11.8v28.4H477.4z M555.9,584.8c0,5.4-1.4,10.5-4.1,15.1
			l-6.5-3.8c2-3.5,3-7.3,3-11.4v-8.4c-0.3,0.4-0.7,0.8-1.1,1.2c-2.5,2.5-5.3,4.5-8.4,6c-3.2,1.6-6.6,2.5-10.2,2.9
			c-1,0.1-2,0.1-3,0.1c-4.1,0-8.1-0.8-11.9-2.4c-3.7-1.6-6.9-3.8-9.7-6.6c-2.1-2.1-3.8-4.4-5.2-7.1c-2.4-4.4-3.6-9.1-3.6-14.2
			c0-4.1,0.8-8,2.4-11.8c1.5-3.6,3.7-6.8,6.5-9.7c2.8-2.8,6-4.9,9.7-6.5c3.8-1.6,7.7-2.4,11.8-2.4s8,0.8,11.8,2.4
			c3.6,1.5,6.8,3.7,9.7,6.5c2.8,2.8,4.9,6,6.5,9.7c1.6,3.8,2.4,7.7,2.4,11.8L555.9,584.8L555.9,584.8z"/>
		<path class="st0" d="M120.2,540.4c-2.1-2.1-4.5-3.7-7.2-4.9c-2.8-1.2-5.8-1.8-8.8-1.8c-3.1,0-6,0.6-8.9,1.8
			c-2.7,1.1-5.1,2.8-7.2,4.9c-2.1,2.1-3.7,4.5-4.9,7.2c-1.2,2.8-1.8,5.8-1.8,8.8c0,3.1,0.6,6,1.8,8.9c1.1,2.7,2.8,5.1,4.9,7.2
			c2.1,2.1,4.5,3.7,7.2,4.9c2.8,1.2,5.8,1.8,8.9,1.8s6-0.6,8.8-1.8c2.7-1.1,5.1-2.8,7.2-4.9c2.1-2.1,3.7-4.5,4.9-7.2
			c1.2-2.8,1.8-5.8,1.8-8.9c0-3.1-0.6-6-1.8-8.8C123.9,544.9,122.3,542.5,120.2,540.4z"/>
		<path class="st0" d="M355.5,540.4c-2.1-2.1-4.5-3.7-7.2-4.9c-2.8-1.2-5.8-1.8-8.8-1.8c-3.1,0-6,0.6-8.8,1.8
			c-2.7,1.1-5.1,2.8-7.2,4.9c-2.1,2.1-3.7,4.5-4.9,7.2c-1.2,2.8-1.8,5.8-1.8,8.8c0,3.1,0.6,6,1.8,8.9c1.1,2.7,2.8,5.1,4.9,7.2
			c2.1,2.1,4.5,3.7,7.2,4.9c2.8,1.2,5.8,1.8,8.8,1.8c3.1,0,6-0.6,8.8-1.8c2.7-1.1,5.1-2.8,7.2-4.9c2.1-2.1,3.7-4.5,4.9-7.2
			c1.2-2.8,1.8-5.8,1.8-8.9c0-3.1-0.6-6-1.8-8.8C359.3,544.9,357.6,542.5,355.5,540.4z"/>
		<path class="st0" d="M541.7,540.4c-2.1-2.1-4.5-3.7-7.2-4.9c-2.8-1.2-5.8-1.8-8.8-1.8c-3.1,0-6,0.6-8.8,1.8
			c-2.7,1.1-5.1,2.8-7.2,4.9c-2.1,2.1-3.7,4.5-4.9,7.2c-1.2,2.8-1.8,5.8-1.8,8.8c0,2.5,0.4,4.8,1.1,7.2c0.8,2.6,2.1,4.9,3.8,7
			c2.1,2.6,4.7,4.7,7.8,6.2s6.5,2.3,10,2.3s6.9-0.8,10-2.3c3-1.5,5.6-3.6,7.8-6.2c1.7-2.1,3-4.5,3.8-7c0.8-2.3,1.1-4.7,1.1-7.2
			c0-3.1-0.6-6-1.8-8.8C545.4,544.9,543.8,542.5,541.7,540.4z"/>
	</g>
</g>
</svg>
