<?xml version="1.0" standalone="no"?><svg xmlns:xlink="http://www.w3.org/1999/xlink" xmlns="http://www.w3.org/2000/svg" viewBox="0 0 1000 1500" preserveAspectRatio="xMaxYMax slice"><g transform="scale(2.358490566037736)"><rect x="0" y="0" width="424" height="636" fill="#ffffff"/><rect x="0" y="0" width="70.67" height="70.67" fill="#8ed5f0"/><rect x="0" y="0" width="70.67" height="70.67" fill="#c6e1ed"/><rect x="70.66666666666667" y="0" width="70.66666666666667" height="70.66666666666667" fill="#ffffff"/><rect x="70.67" y="0" width="35.33" height="35.33" fill="#7387a1"/><path d="M 70.67 35.33 A 35.33 35.33 0 0 1 106 0 L 106 8.8325 A 26.4975 26.4975 0 0 0 79.5025 35.33" fill="#c4e0ec"/><rect x="106" y="0" width="35.33" height="35.33" fill="#d9dee6"/><path d="M 106 0 A 35.33 35.33 0 0 1 141.32999999999998 35.33 L 132.4975 35.33 A 26.4975 26.4975 0 0 0 106 8.8325" fill="#4cbce8"/><rect x="70.67" y="35.33" width="35.33" height="35.33" fill="#fcfeff"/><path d="M 70.67 35.33 A 35.33 35.33 0 0 0 106 70.66 L 106 61.8275 A 26.4975 26.4975 0 0 1 79.5025 35.33" fill="#dfeef5"/><rect x="106" y="35.33" width="35.33" height="35.33" fill="#27afe3"/><path d="M 106 70.66 A 35.33 35.33 0 0 0 141.32999999999998 35.33 L 132.4975 35.33 A 26.4975 26.4975 0 0 1 106 61.8275" fill="#b0d5e6"/><rect x="141.33333333333334" y="0" width="70.66666666666667" height="70.66666666666667" fill="#ffffff"/><rect x="141.33" y="0" width="35.33" height="35.33" fill="#81d0ef"/><path d="M 141.33 35.33 A 35.33 35.33 0 0 1 176.66000000000003 0 L 176.66000000000003 8.8325 A 26.4975 26.4975 0 0 0 150.16250000000002 35.33" fill="#22416a"/><rect x="176.67" y="0" width="35.33" height="35.33" fill="#899ab0"/><path d="M 176.67 0 A 35.33 35.33 0 0 1 212 35.33 L 203.1675 35.33 A 26.4975 26.4975 0 0 0 176.67 8.8325" fill="#97a5b9"/><rect x="141.33" y="35.33" width="35.33" height="35.33" fill="#62c4eb"/><path d="M 141.33 35.33 A 35.33 35.33 0 0 0 176.66000000000003 70.66 L 176.66000000000003 61.8275 A 26.4975 26.4975 0 0 1 150.16250000000002 35.33" fill="#f3f9fb"/><rect x="176.67" y="35.33" width="35.33" height="35.33" fill="#7ecfee"/><path d="M 176.67 70.66 A 35.33 35.33 0 0 0 212 35.33 L 203.1675 35.33 A 26.4975 26.4975 0 0 1 176.67 61.8275" fill="#cfe5f0"/><rect x="212" y="0" width="70.66666666666667" height="70.66666666666667" fill="#ffffff"/><rect x="212" y="0" width="35.33" height="35.33" fill="#cde5ef"/><path d="M 212 35.33 A 35.33 35.33 0 0 1  247.32999999999998 0 L 247.32999999999998 35.33" fill="#acd3e5"/><rect x="247.33" y="0" width="35.33" height="35.33" fill="#c2e8f7"/><path d="M 247.33 0 A 35.33 35.33 0 0 1 282.66 35.33 L 247.33 35.33" fill="#28afe3"/><rect x="212" y="35.33" width="35.33" height="35.33" fill="#97a6b9"/><path d="M 212 35.33 A 35.33 35.33 0 0 0 247.32999999999998 70.66 L 247.32999999999998 35.33" fill="#93a2b6"/><rect x="247.33" y="35.33" width="35.33" height="35.33" fill="#72caed"/><path d="M 247.33 70.66 A 35.33 35.33 0 0 0 282.66 35.33 L 247.33 35.33" fill="#9dcbe0"/><rect x="282.67" y="0" width="70.67" height="70.67" fill="#a4cfe2"/><path d="M 282.67 70.67 A 70.67 70.67 0 0 0 353.34000000000003 0 L 282.67 0" fill="#d3d9e1"/><rect x="353.33" y="0" width="70.67" height="70.67" fill="#a6d0e3"/><path d="M 353.33 70.67 A 70.67 70.67 0 0 1  424 0 L 353.33 70.67 A 70.67 70.67 0 0 0 424 0" fill="#c1deeb"/><rect x="0" y="70.66666666666667" width="70.66666666666667" height="70.66666666666667" fill="#ffffff"/><rect x="0" y="70.67" width="35.33" height="35.33" fill="#304c73"/><circle cx="17.665" cy="88.33500000000001" r="17.665" fill="#fcfeff"/><rect x="35.33" y="70.67" width="35.33" height="35.33" fill="#8596ad"/><rect x="35.33" y="70.67" width="35.33" height="35.33" fill="#d4e8f1"/><rect x="0" y="106" width="35.33" height="35.33" fill="#3b567b"/><circle cx="17.665" cy="123.66499999999999" r="17.665" fill="#37b5e5"/><rect x="35.33" y="106" width="35.33" height="35.33" fill="#8293ab"/><rect x="35.33" y="106" width="35.33" height="35.33" fill="#d4e8f1"/><rect x="70.67" y="70.67" width="70.67" height="70.67" fill="#d0e6f0"/><rect x="70.67" y="70.67" width="70.67" height="70.67" fill="#a4cfe2"/><rect x="141.33333333333334" y="70.66666666666667" width="70.66666666666667" height="70.66666666666667" fill="#ffffff"/><rect x="141.33" y="70.67" width="35.33" height="35.33" fill="#d7dde4"/><path d="M 141.33 70.67 A 35.33 35.33 0 0 1 176.66000000000003 106 L 141.33 106" fill="#67c6eb"/><rect x="176.67" y="70.67" width="35.33" height="35.33" fill="#e6f2f7"/><path d="M 176.67 106 A 35.33 35.33 0 0 1  212 70.67 L 212 106" fill="#60c4ea"/><rect x="141.33" y="106" width="35.33" height="35.33" fill="#455e81"/><path d="M 141.33 141.32999999999998 A 35.33 35.33 0 0 0 176.66000000000003 106 L 141.33 106" fill="#56c0e9"/><rect x="176.67" y="106" width="35.33" height="35.33" fill="#c9ebf8"/><path d="M 176.67 106 A 35.33 35.33 0 0 0 212 141.32999999999998 L 212 106" fill="#5a7190"/><rect x="212" y="70.67" width="70.67" height="70.67" fill="#2c4971"/><path d="M 212 141.34 A 70.67 70.67 0 0 1  282.67 70.67 L 212 141.34 A 70.67 70.67 0 0 0 282.67 70.67" fill="#496284"/><rect x="282.6666666666667" y="70.66666666666667" width="70.66666666666667" height="70.66666666666667" fill="#ffffff"/><rect x="282.67" y="70.67" width="35.33" height="35.33" fill="#b4e3f5"/><path d="M 282.67 70.67 A 35.33 35.33 0 0 0 318 106 L 318 70.67" fill="#caebf8"/><rect x="318" y="70.67" width="35.33" height="35.33" fill="#22ade2"/><path d="M 318 106 A 35.33 35.33 0 0 0 353.33 70.67 L 318 70.67" fill="#173763"/><rect x="282.67" y="106" width="35.33" height="35.33" fill="#edf5f9"/><path d="M 282.67 141.32999999999998 A 35.33 35.33 0 0 1  318 106 L 318 141.32999999999998" fill="#f7fcfe"/><rect x="318" y="106" width="35.33" height="35.33" fill="#f9fdfe"/><path d="M 318 106 A 35.33 35.33 0 0 1 353.33 141.32999999999998 L 318 141.32999999999998" fill="#6ec9ec"/><rect x="353.33333333333337" y="70.66666666666667" width="70.66666666666667" height="70.66666666666667" fill="#ffffff"/><rect x="353.33" y="70.67" width="35.33" height="35.33" fill="#b3e3f5"/><path d="M 353.33 106 A 35.33 35.33 0 0 1 388.65999999999997 70.67 L 388.65999999999997 79.5025 A 26.4975 26.4975 0 0 0 362.16249999999997 106" fill="#b7c1ce"/><rect x="388.67" y="70.67" width="35.33" height="35.33" fill="#e2f0f6"/><path d="M 388.67 70.67 A 35.33 35.33 0 0 1 424 106 L 415.1675 106 A 26.4975 26.4975 0 0 0 388.67 79.5025" fill="#99a7ba"/><rect x="353.33" y="106" width="35.33" height="35.33" fill="#f5f6f8"/><path d="M 353.33 106 A 35.33 35.33 0 0 0 388.65999999999997 141.32999999999998 L 388.65999999999997 132.4975 A 26.4975 26.4975 0 0 1 362.16249999999997 106" fill="#20ace2"/><rect x="388.67" y="106" width="35.33" height="35.33" fill="#8bd4f0"/><path d="M 388.67 141.32999999999998 A 35.33 35.33 0 0 0 424 106 L 415.1675 106 A 26.4975 26.4975 0 0 1 388.67 132.4975" fill="#10315e"/><rect x="0" y="141.33333333333334" width="70.66666666666667" height="70.66666666666667" fill="#ffffff"/><rect x="0" y="141.33" width="35.33" height="35.33" fill="#26aee3"/><polygon points="35.33,141.33 35.33,176.66000000000003 0,176.66000000000003" fill="#d9dee5"/><rect x="35.33" y="141.33" width="35.33" height="35.33" fill="#badae9"/><polygon points="35.33,141.33 70.66,176.66000000000003 35.33,176.66000000000003" fill="#3fb8e6"/><rect x="0" y="176.67" width="35.33" height="35.33" fill="#9caabc"/><polygon points="0,176.67 35.33,176.67 35.33,212" fill="#c7ced9"/><rect x="35.33" y="176.67" width="35.33" height="35.33" fill="#a0adbf"/><polygon points="35.33,176.67 70.66,176.67 35.33,212" fill="#d4dae2"/><rect x="70.66666666666667" y="141.33333333333334" width="70.66666666666667" height="70.66666666666667" fill="#ffffff"/><rect x="70.67" y="141.33" width="35.33" height="35.33" fill="#d5e9f1"/><polygon points="106,141.33 106,176.66000000000003 70.67,176.66000000000003" fill="#ebf8fc"/><rect x="106" y="141.33" width="35.33" height="35.33" fill="#dce1e7"/><polygon points="106,141.33 141.32999999999998,141.33 106,176.66000000000003" fill="#a2cee1"/><rect x="70.67" y="176.67" width="35.33" height="35.33" fill="#27afe3"/><polygon points="70.67,176.67 106,176.67 106,212" fill="#7ecfee"/><rect x="106" y="176.67" width="35.33" height="35.33" fill="#46bae7"/><polygon points="106,176.67 141.32999999999998,212 106,212" fill="#e3f5fb"/><rect x="141.33333333333334" y="141.33333333333334" width="70.66666666666667" height="70.66666666666667" fill="#ffffff"/><rect x="141.33" y="141.33" width="35.33" height="35.33" fill="#2bb0e3"/><circle cx="158.995" cy="158.995" r="17.665" fill="#d2d8e1"/><rect x="176.67" y="141.33" width="35.33" height="35.33" fill="#47bbe7"/><rect x="176.67" y="141.33" width="35.33" height="35.33" fill="#fefeff"/><rect x="141.33" y="176.67" width="35.33" height="35.33" fill="#e0f3fb"/><circle cx="158.995" cy="194.33499999999998" r="17.665" fill="#26446d"/><rect x="176.67" y="176.67" width="35.33" height="35.33" fill="#2b4970"/><rect x="176.67" y="176.67" width="35.33" height="35.33" fill="#c6e1ed"/><rect x="212" y="141.33" width="70.67" height="70.67" fill="#ddf2fb"/><path d="M 212 141.33 A 70.67 70.67 0 0 1  282.67 212 L 212 141.33 A 70.67 70.67 0 0 0 282.67 212" fill="#badae9"/><rect x="282.67" y="141.33" width="70.67" height="70.67" fill="#e2e6eb"/><rect x="282.67" y="141.33" width="70.67" height="70.67" fill="#21406a"/><rect x="353.33333333333337" y="141.33333333333334" width="70.66666666666667" height="70.66666666666667" fill="#ffffff"/><rect x="353.33" y="141.33" width="35.33" height="35.33" fill="#c3dfec"/><polygon points="388.65999999999997,141.33 388.65999999999997,176.66000000000003 353.33,176.66000000000003" fill="#42b9e6"/><rect x="388.67" y="141.33" width="35.33" height="35.33" fill="#e4e7ec"/><polygon points="388.67,141.33 424,141.33 388.67,176.66000000000003" fill="#eff1f4"/><rect x="353.33" y="176.67" width="35.33" height="35.33" fill="#5dc3ea"/><polygon points="353.33,176.67 388.65999999999997,176.67 388.65999999999997,212" fill="#ecf5f9"/><rect x="388.67" y="176.67" width="35.33" height="35.33" fill="#abe0f4"/><polygon points="388.67,176.67 424,212 388.67,212" fill="#49bbe7"/><rect x="0" y="212" width="70.66666666666667" height="70.66666666666667" fill="#ffffff"/><rect x="0" y="212" width="35.33" height="35.33" fill="#a1cde1"/><polygon points="35.33,212 35.33,247.32999999999998 0,247.32999999999998" fill="#3fb8e6"/><rect x="35.33" y="212" width="35.33" height="35.33" fill="#f4f5f7"/><polygon points="35.33,212 70.66,247.32999999999998 35.33,247.32999999999998" fill="#2a4870"/><rect x="0" y="247.33" width="35.33" height="35.33" fill="#bbdbe9"/><polygon points="0,247.33 35.33,247.33 35.33,282.66" fill="#435d81"/><rect x="35.33" y="247.33" width="35.33" height="35.33" fill="#c3ccd7"/><polygon points="35.33,247.33 70.66,247.33 35.33,282.66" fill="#eff1f4"/><rect x="70.66666666666667" y="212" width="70.66666666666667" height="70.66666666666667" fill="#ffffff"/><rect x="70.67" y="212" width="35.33" height="35.33" fill="#c4e9f7"/><path d="M 70.67 247.32999999999998 A 35.33 35.33 0 0 1 106 212 L 106 220.8325 A 26.4975 26.4975 0 0 0 79.5025 247.32999999999998" fill="#173762"/><rect x="106" y="212" width="35.33" height="35.33" fill="#c9e2ee"/><path d="M 106 212 A 35.33 35.33 0 0 1 141.32999999999998 247.32999999999998 L 132.4975 247.32999999999998 A 26.4975 26.4975 0 0 0 106 220.8325" fill="#88d3f0"/><rect x="70.67" y="247.33" width="35.33" height="35.33" fill="#f2fafd"/><path d="M 70.67 247.33 A 35.33 35.33 0 0 0 106 282.66 L 106 273.8275 A 26.4975 26.4975 0 0 1 79.5025 247.33" fill="#f6fafc"/><rect x="106" y="247.33" width="35.33" height="35.33" fill="#b4bfcd"/><path d="M 106 282.66 A 35.33 35.33 0 0 0 141.32999999999998 247.33 L 132.4975 247.33 A 26.4975 26.4975 0 0 1 106 273.8275" fill="#23ade2"/><rect x="141.33333333333334" y="212" width="70.66666666666667" height="70.66666666666667" fill="#ffffff"/><rect x="141.33" y="212" width="35.33" height="35.33" fill="#e4f1f6"/><polygon points="176.66000000000003,212 176.66000000000003,247.32999999999998 141.33,247.32999999999998" fill="#e6f2f7"/><rect x="176.67" y="212" width="35.33" height="35.33" fill="#163662"/><polygon points="176.67,212 212,247.32999999999998 176.67,247.32999999999998" fill="#f5f7f9"/><rect x="141.33" y="247.33" width="35.33" height="35.33" fill="#11325f"/><polygon points="141.33,247.33 176.66000000000003,247.33 141.33,282.66" fill="#32b3e4"/><rect x="176.67" y="247.33" width="35.33" height="35.33" fill="#95d8f1"/><polygon points="176.67,247.33 212,247.33 212,282.66" fill="#feffff"/><rect x="212" y="212" width="70.67" height="70.67" fill="#ffffff"/><path d="M 212 282.67 A 70.67 70.67 0 0 0 282.67 212 L 212 212" fill="#d5e9f1"/><rect x="282.6666666666667" y="212" width="70.66666666666667" height="70.66666666666667" fill="#ffffff"/><rect x="282.67" y="212" width="35.33" height="35.33" fill="#667b98"/><circle cx="300.33500000000004" cy="229.665" r="17.665" fill="#dee2e9"/><rect x="318" y="212" width="35.33" height="35.33" fill="#a3cee2"/><rect x="318" y="212" width="35.33" height="35.33" fill="#9fcce0"/><rect x="282.67" y="247.33" width="35.33" height="35.33" fill="#b3d7e7"/><circle cx="300.33500000000004" cy="264.995" r="17.665" fill="#dfeef5"/><rect x="318" y="247.33" width="35.33" height="35.33" fill="#bfddea"/><rect x="318" y="247.33" width="35.33" height="35.33" fill="#e1eff5"/><rect x="353.33333333333337" y="212" width="70.66666666666667" height="70.66666666666667" fill="#ffffff"/><rect x="353.33" y="212" width="35.33" height="35.33" fill="#b6d8e8"/><polygon points="388.65999999999997,212 388.65999999999997,247.32999999999998 353.33,247.32999999999998" fill="#a6b2c3"/><rect x="388.67" y="212" width="35.33" height="35.33" fill="#b7d9e8"/><polygon points="388.67,212 424,212 388.67,247.32999999999998" fill="#a0cde1"/><rect x="353.33" y="247.33" width="35.33" height="35.33" fill="#a0adbf"/><polygon points="353.33,247.33 388.65999999999997,247.33 388.65999999999997,282.66" fill="#b1d6e6"/><rect x="388.67" y="247.33" width="35.33" height="35.33" fill="#6f839e"/><polygon points="388.67,247.33 424,282.66 388.67,282.66" fill="#93a2b6"/><rect x="0" y="282.6666666666667" width="70.66666666666667" height="70.66666666666667" fill="#ffffff"/><rect x="0" y="282.67" width="35.33" height="35.33" fill="#d6e9f2"/><path d="M 0 318 A 35.33 35.33 0 0 0 35.33 282.67 L 0 282.67" fill="#deedf4"/><rect x="35.33" y="282.67" width="35.33" height="35.33" fill="#6b7f9b"/><path d="M 35.33 282.67 A 35.33 35.33 0 0 0 70.66 318 L 70.66 282.67" fill="#a8d1e3"/><rect x="0" y="318" width="35.33" height="35.33" fill="#fefeff"/><path d="M 0 318 A 35.33 35.33 0 0 1 35.33 353.33 L 0 353.33" fill="#d0d7e0"/><rect x="35.33" y="318" width="35.33" height="35.33" fill="#e4f1f6"/><path d="M 35.33 353.33 A 35.33 35.33 0 0 1  70.66 318 L 70.66 353.33" fill="#e2f0f6"/><rect x="70.67" y="282.67" width="70.67" height="70.67" fill="#ecf8fd"/><rect x="70.67" y="282.67" width="70.67" height="70.67" fill="#edf5f9"/><rect x="141.33333333333334" y="282.6666666666667" width="70.66666666666667" height="70.66666666666667" fill="#ffffff"/><rect x="141.33" y="282.67" width="35.33" height="35.33" fill="#8fd5f0"/><polygon points="176.66000000000003,282.67 176.66000000000003,318 141.33,318" fill="#f2f8fb"/><rect x="176.67" y="282.67" width="35.33" height="35.33" fill="#e5f1f7"/><polygon points="176.67,282.67 212,318 176.67,318" fill="#feffff"/><rect x="141.33" y="318" width="35.33" height="35.33" fill="#3b577b"/><polygon points="141.33,318 176.66000000000003,318 176.66000000000003,353.33" fill="#f8fcfe"/><rect x="176.67" y="318" width="35.33" height="35.33" fill="#bcdbe9"/><polygon points="176.67,318 212,318 176.67,353.33" fill="#d8dde5"/><rect x="212" y="282.67" width="70.67" height="70.67" fill="#687d99"/><path d="M 212 353.34000000000003 A 70.67 70.67 0 0 1  282.67 282.67 L 282.67 353.34000000000003" fill="#a4b0c2"/><rect x="282.67" y="282.67" width="70.67" height="70.67" fill="#60c4ea"/><path d="M 282.67 282.67 A 70.67 70.67 0 0 0 353.34000000000003 353.34000000000003 L 353.34000000000003 282.67" fill="#617795"/><rect x="353.33" y="282.67" width="70.67" height="70.67" fill="#74cbed"/><path d="M 353.33 282.67 A 70.67 70.67 0 0 1 424 353.34000000000003 L 353.33 353.34000000000003" fill="#1f3e68"/><rect x="0" y="353.33333333333337" width="70.66666666666667" height="70.66666666666667" fill="#ffffff"/><rect x="0" y="353.33" width="35.33" height="35.33" fill="#bcc5d2"/><path d="M 0 388.65999999999997 A 35.33 35.33 0 0 0 35.33 353.33 L 0 353.33" fill="#89d3f0"/><rect x="35.33" y="353.33" width="35.33" height="35.33" fill="#edf6f9"/><path d="M 35.33 353.33 A 35.33 35.33 0 0 0 70.66 388.65999999999997 L 70.66 353.33" fill="#afe1f5"/><rect x="0" y="388.67" width="35.33" height="35.33" fill="#71859f"/><path d="M 0 388.67 A 35.33 35.33 0 0 1 35.33 424 L 0 424" fill="#8293ab"/><rect x="35.33" y="388.67" width="35.33" height="35.33" fill="#203f69"/><path d="M 35.33 424 A 35.33 35.33 0 0 1  70.66 388.67 L 70.66 424" fill="#42b9e6"/><rect x="70.67" y="353.33" width="70.67" height="70.67" fill="#e5f1f7"/><path d="M 70.67 424 A 70.67 70.67 0 0 1  141.34 353.33 L 70.67 424 A 70.67 70.67 0 0 0 141.34 353.33" fill="#b5d8e7"/><rect x="141.33" y="353.33" width="70.67" height="70.67" fill="#bbdbe9"/><polygon points="141.33,353.33 212,353.33 141.33,424" fill="#cbe3ee"/><rect x="212" y="353.33" width="70.67" height="70.67" fill="#3fb7e6"/><rect x="212" y="353.33" width="70.67" height="70.67" fill="#a0cde1"/><rect x="282.6666666666667" y="353.33333333333337" width="70.66666666666667" height="70.66666666666667" fill="#ffffff"/><rect x="282.67" y="353.33" width="35.33" height="35.33" fill="#e7f2f7"/><path d="M 282.67 388.65999999999997 A 35.33 35.33 0 0 1 318 353.33 L 318 362.16249999999997 A 26.4975 26.4975 0 0 0 291.5025 388.65999999999997" fill="#bdc6d2"/><rect x="318" y="353.33" width="35.33" height="35.33" fill="#28afe3"/><path d="M 318 353.33 A 35.33 35.33 0 0 1 353.33 388.65999999999997 L 344.4975 388.65999999999997 A 26.4975 26.4975 0 0 0 318 362.16249999999997" fill="#feffff"/><rect x="282.67" y="388.67" width="35.33" height="35.33" fill="#a9d2e4"/><path d="M 282.67 388.67 A 35.33 35.33 0 0 0 318 424 L 318 415.1675 A 26.4975 26.4975 0 0 1 291.5025 388.67" fill="#cde4ef"/><rect x="318" y="388.67" width="35.33" height="35.33" fill="#aad2e4"/><path d="M 318 424 A 35.33 35.33 0 0 0 353.33 388.67 L 344.4975 388.67 A 26.4975 26.4975 0 0 1 318 415.1675" fill="#3ab6e5"/><rect x="353.33333333333337" y="353.33333333333337" width="70.66666666666667" height="70.66666666666667" fill="#ffffff"/><rect x="353.33" y="353.33" width="35.33" height="35.33" fill="#d0edf9"/><path d="M 353.33 388.65999999999997 A 35.33 35.33 0 0 1  388.65999999999997 353.33 L 388.65999999999997 388.65999999999997" fill="#b7d9e8"/><rect x="388.67" y="353.33" width="35.33" height="35.33" fill="#d1e6f0"/><path d="M 388.67 353.33 A 35.33 35.33 0 0 1 424 388.65999999999997 L 388.67 388.65999999999997" fill="#85d2ef"/><rect x="353.33" y="388.67" width="35.33" height="35.33" fill="#597090"/><path d="M 353.33 388.67 A 35.33 35.33 0 0 0 388.65999999999997 424 L 388.65999999999997 388.67" fill="#27afe3"/><rect x="388.67" y="388.67" width="35.33" height="35.33" fill="#9dcbe0"/><path d="M 388.67 424 A 35.33 35.33 0 0 0 424 388.67 L 388.67 388.67" fill="#caebf8"/><rect x="0" y="424" width="70.67" height="70.67" fill="#2e4b72"/><polygon points="0,424 70.67,494.67 0,494.67" fill="#cde4ef"/><rect x="70.66666666666667" y="424" width="70.66666666666667" height="70.66666666666667" fill="#ffffff"/><rect x="70.67" y="424" width="35.33" height="35.33" fill="#a7d0e3"/><polygon points="106,424 106,459.33 70.67,459.33" fill="#a5b1c2"/><rect x="106" y="424" width="35.33" height="35.33" fill="#f8fcfd"/><polygon points="106,424 141.32999999999998,459.33 106,459.33" fill="#edf5f9"/><rect x="70.67" y="459.33" width="35.33" height="35.33" fill="#687d99"/><polygon points="70.67,459.33 106,459.33 106,494.65999999999997" fill="#bddcea"/><rect x="106" y="459.33" width="35.33" height="35.33" fill="#bfddeb"/><polygon points="106,459.33 141.32999999999998,459.33 106,494.65999999999997" fill="#22406a"/><rect x="141.33" y="424" width="70.67" height="70.67" fill="#b6e4f6"/><path d="M 141.33 494.67 A 70.67 70.67 0 0 1  212 424 L 141.33 494.67 A 70.67 70.67 0 0 0 212 424" fill="#feffff"/><rect x="212" y="424" width="70.66666666666667" height="70.66666666666667" fill="#ffffff"/><rect x="212" y="424" width="35.33" height="35.33" fill="#f6fafc"/><polygon points="247.32999999999998,424 247.32999999999998,459.33 212,459.33" fill="#5cc2ea"/><rect x="247.33" y="424" width="35.33" height="35.33" fill="#edf8fd"/><polygon points="247.33,424 282.66,424 247.33,459.33" fill="#fcfdfe"/><rect x="212" y="459.33" width="35.33" height="35.33" fill="#cbe4ee"/><polygon points="212,459.33 247.32999999999998,459.33 247.32999999999998,494.65999999999997" fill="#f0f2f5"/><rect x="247.33" y="459.33" width="35.33" height="35.33" fill="#40b8e6"/><polygon points="247.33,459.33 282.66,494.65999999999997 247.33,494.65999999999997" fill="#8cd4f0"/><rect x="282.6666666666667" y="424" width="70.66666666666667" height="70.66666666666667" fill="#ffffff"/><rect x="282.67" y="424" width="35.33" height="35.33" fill="#f3f5f7"/><polygon points="318,424 318,459.33 282.67,459.33" fill="#c0c9d5"/><rect x="318" y="424" width="35.33" height="35.33" fill="#bfe7f7"/><polygon points="318,424 353.33,424 318,459.33" fill="#eef0f3"/><rect x="282.67" y="459.33" width="35.33" height="35.33" fill="#3f5a7e"/><polygon points="282.67,459.33 318,459.33 318,494.65999999999997" fill="#a8d1e3"/><rect x="318" y="459.33" width="35.33" height="35.33" fill="#324f75"/><polygon points="318,459.33 353.33,494.65999999999997 318,494.65999999999997" fill="#4f6788"/><rect x="353.33" y="424" width="70.67" height="70.67" fill="#cfd6df"/><polygon points="353.33,424 424,424 424,494.67" fill="#ddf3fb"/><rect x="0" y="494.67" width="70.67" height="70.67" fill="#30b2e4"/><rect x="0" y="494.67" width="70.67" height="70.67" fill="#27aee3"/><rect x="70.67" y="494.67" width="70.67" height="70.67" fill="#f4f9fb"/><path d="M 70.67 494.67 A 70.67 70.67 0 0 1 141.34 565.34 L 70.67 565.34" fill="#b3d7e7"/><rect x="141.33" y="494.67" width="70.67" height="70.67" fill="#dde2e8"/><path d="M 141.33 494.67 A 70.67 70.67 0 0 0 212 565.34 L 212 494.67" fill="#d1e7f0"/><rect x="212" y="494.6666666666667" width="70.66666666666667" height="70.66666666666667" fill="#ffffff"/><rect x="212" y="494.67" width="35.33" height="35.33" fill="#43b9e7"/><polygon points="247.32999999999998,494.67 247.32999999999998,530 212,530" fill="#4b6486"/><rect x="247.33" y="494.67" width="35.33" height="35.33" fill="#bbdbe9"/><polygon points="247.33,494.67 282.66,494.67 247.33,530" fill="#c1deeb"/><rect x="212" y="530" width="35.33" height="35.33" fill="#aed4e5"/><polygon points="212,530 247.32999999999998,530 247.32999999999998,565.33" fill="#8596ad"/><rect x="247.33" y="530" width="35.33" height="35.33" fill="#2c4a71"/><polygon points="247.33,530 282.66,565.33 247.33,565.33" fill="#95a4b7"/><rect x="282.67" y="494.67" width="70.67" height="70.67" fill="#163662"/><path d="M 282.67 565.34 A 70.67 70.67 0 0 0 353.34000000000003 494.67 L 282.67 494.67" fill="#a4cfe2"/><rect x="353.33" y="494.67" width="70.67" height="70.67" fill="#a1cde1"/><rect x="353.33" y="494.67" width="70.67" height="70.67" fill="#95a3b7"/><rect x="0" y="565.3333333333334" width="70.66666666666667" height="70.66666666666667" fill="#ffffff"/><rect x="0" y="565.33" width="35.33" height="35.33" fill="#c1e8f7"/><polygon points="35.33,565.33 35.33,600.6600000000001 0,600.6600000000001" fill="#2ab0e3"/><rect x="35.33" y="565.33" width="35.33" height="35.33" fill="#4c6587"/><polygon points="35.33,565.33 70.66,565.33 35.33,600.6600000000001" fill="#d5e8f1"/><rect x="0" y="600.67" width="35.33" height="35.33" fill="#7ecfee"/><polygon points="0,600.67 35.33,600.67 35.33,636" fill="#c9d0da"/><rect x="35.33" y="600.67" width="35.33" height="35.33" fill="#f5f6f8"/><polygon points="35.33,600.67 70.66,636 35.33,636" fill="#335076"/><rect x="70.67" y="565.33" width="70.67" height="70.67" fill="#a2afc0"/><path d="M 70.67 636 A 70.67 70.67 0 0 1  141.34 565.33 L 70.67 636 A 70.67 70.67 0 0 0 141.34 565.33" fill="#96d8f1"/><rect x="141.33" y="565.33" width="70.67" height="70.67" fill="#667b98"/><rect x="141.33" y="565.33" width="70.67" height="70.67" fill="#a1aec0"/><rect x="212" y="565.33" width="70.67" height="70.67" fill="#d6dbe3"/><polygon points="212,565.33 282.67,636 212,636" fill="#0b2d5b"/><rect x="282.67" y="565.33" width="70.67" height="70.67" fill="#667b98"/><rect x="282.67" y="565.33" width="70.67" height="70.67" fill="#9ba9bc"/><rect x="353.33" y="565.33" width="70.67" height="70.67" fill="#30b2e4"/><path d="M 353.33 565.33 A 70.67 70.67 0 0 0 424 636 L 424 565.33" fill="#91a0b5"/></g></svg>