<svg id="Layer_1" data-name="Layer 1" xmlns="http://www.w3.org/2000/svg" viewBox="0 0 100 100"><defs><style>.cls-1{fill:#20ace2;}.cls-2{opacity:0.25;}</style></defs><path class="cls-1" d="M50,41.8A8.2,8.2,0,1,1,41.8,50,8.2,8.2,0,0,1,50,41.8m0-9A17.2,17.2,0,1,0,67.2,50,17.22,17.22,0,0,0,50,32.8Z"/><path class="cls-1" d="M50,24.4C75.2,24.4,86.2,50,86.2,50S76.4,75.6,50,75.6C24.8,75.6,13.8,50,13.8,50S25.2,24.4,50,24.4m0-9C19.7,15.4,6.14,45.08,5.58,46.34L4,49.94l1.55,3.61C6.08,54.82,19.23,84.6,50,84.6c13.42,0,25.42-5.46,34.69-15.79a54.73,54.73,0,0,0,9.92-15.59l1.3-3.42-1.44-3.35C93.92,45.18,80.77,15.4,50,15.4Z"/><g class="cls-2"><circle class="cls-1" cx="50" cy="50" r="8.2"/><path class="cls-1" d="M13.8,50S24.8,75.6,50,75.6C76.4,75.6,86.2,50,86.2,50S75.2,24.4,50,24.4C25.2,24.4,13.8,50,13.8,50Z"/></g><path class="cls-1" d="M3.8,24.4h10V13H25V4H13a9.2,9.2,0,0,0-9.2,9.2Z"/><path class="cls-1" d="M76,3.6v10H87.4V24.8h9v-12a9.2,9.2,0,0,0-9.2-9.2Z"/><path class="cls-1" d="M96.7,75.6h-10V87H75.5v9h12a9.2,9.2,0,0,0,9.2-9.2Z"/><path class="cls-1" d="M24.6,96.4v-10H13.2V75.2h-9v12a9.2,9.2,0,0,0,9.2,9.2Z"/></svg>