<svg id="Layer_1" data-name="Layer 1" xmlns="http://www.w3.org/2000/svg" viewBox="0 0 100 100"><defs><style>.cls-1,.cls-3{fill:#20ace2;}.cls-1{opacity:0.25;}.cls-2{fill:none;stroke:#20ace2;stroke-miterlimit:10;stroke-width:3px;}</style></defs><circle class="cls-1" cx="67.81" cy="75.12" r="23.36"/><polyline class="cls-2" points="67.81 61.86 67.81 75.12 77.31 84.64"/><path class="cls-3" d="M67.81,59.76A15.37,15.37,0,1,1,52.45,75.12,15.38,15.38,0,0,1,67.81,59.76m0-8A23.37,23.37,0,1,0,91.17,75.12,23.36,23.36,0,0,0,67.81,51.76Z"/><path class="cls-3" d="M39.52,75.12a29,29,0,0,1,25.36-28.8V18.86a8.72,8.72,0,0,0-8.74-8.73H52.26a8.74,8.74,0,0,0-8.74-8.62H34.91a8.74,8.74,0,0,0-8.73,8.62H22.9a8.72,8.72,0,0,0-8.74,8.73V76.94a8.73,8.73,0,0,0,8.74,8.73H41.5A29.06,29.06,0,0,1,39.52,75.12ZM22.9,18.86h12l0-8.61h8.61v8.61H56.14v27.4H22.9Z"/><polygon class="cls-1" points="22.9 46.26 56.14 46.26 56.14 18.86 43.52 18.86 43.52 10.25 34.91 10.25 34.94 18.86 22.9 18.86 22.9 46.26"/><path class="cls-3" d="M46,27.42H37.75v2.39a3.9,3.9,0,0,1,1.4-.77,6.25,6.25,0,0,1,2-.28,5.63,5.63,0,0,1,3.26.91,5.5,5.5,0,0,1,2,2.42A8.53,8.53,0,0,1,47,35.45a7.09,7.09,0,0,1-1.92,5.3,7.15,7.15,0,0,1-5.26,1.89,9.66,9.66,0,0,1-4.22-.86,6.15,6.15,0,0,1-2.69-2.35A6,6,0,0,1,32,36h6.13a1.42,1.42,0,0,0,.31.86,1.24,1.24,0,0,0,1,.39,1.18,1.18,0,0,0,1.05-.51,2.53,2.53,0,0,0,.34-1.39,1.8,1.8,0,0,0-.39-1.25,1.39,1.39,0,0,0-1.09-.42,1.31,1.31,0,0,0-.91.28.86.86,0,0,0-.31.65H32.07V21.89H46Z"/></svg>