<svg id="Layer_1" data-name="Layer 1" xmlns="http://www.w3.org/2000/svg" viewBox="0 0 100 100"><defs><style>.cls-1,.cls-2{fill:#20ace2;}.cls-1{opacity:0.25;}</style></defs><path class="cls-1" d="M50.53,98.49c17.63-7.87,33.52-25,33.52-25,5.9-6.18,5.34-16.86,5.34-16.86V21.75C74.49,16.13,50.53,1.51,50.53,1.51H49.47s-24,14.62-38.86,20.24V56.61S10.05,67.29,16,73.47c0,0,15.89,17.15,33.52,25Z"/><path class="cls-2" d="M50,10.52c6.41,3.78,20,11.6,31.39,16.59V57c.08,1.91-.33,8-3.13,11l0,0,0,0C78,68.18,64.81,82.31,50,89.87,35.19,82.31,22,68.18,21.82,68l0,0,0,0C18.94,65,18.53,58.89,18.6,57V27.11C30,22.12,43.59,14.3,50,10.52m.53-9H49.47s-24,14.62-38.86,20.24V56.61S10.05,67.29,16,73.47c0,0,15.89,17.14,33.52,25h1.06c17.63-7.88,33.52-25,33.52-25,5.9-6.18,5.34-16.86,5.34-16.86V21.75C74.49,16.13,50.53,1.51,50.53,1.51Z"/><path class="cls-2" d="M50,25.74S36.35,38.16,36.35,52.27C36.35,61.49,42.46,69,50,69s13.65-7.48,13.65-16.7C63.65,39.87,50,25.74,50,25.74Zm4.42,39.72c-1.49-.95,0-2.16,0-2.16,6.07-3.78,6.07-13.22,4.85-16.86s.81-2.7.81-2.7a4.06,4.06,0,0,1,1.2,1.82C65.86,58.32,55.82,66.35,54.42,65.46Z"/></svg>