<svg id="Layer_1" data-name="Layer 1" xmlns="http://www.w3.org/2000/svg" viewBox="0 0 100 100"><defs><style>.cls-1,.cls-2{fill:#20ace2;}.cls-1{opacity:0.25;}.cls-3{fill:none;stroke:#20ace2;stroke-miterlimit:10;stroke-width:5px;}</style></defs><path class="cls-1" d="M28.31,4.16C25,13.55,18,20.05,6.42,23,7.35,54.32,19.66,79.54,50,95.84c25.06-13.6,41.94-35.05,43.58-72.57-11.31-3.08-19-9.35-22.68-19.11Z"/><path class="cls-2" d="M65.8,12.16C70,19.7,76.47,25.29,85.18,28.87,82.69,55.2,71.38,73.75,50,86.64,38.49,79.79,30,71.4,24.13,61.09c-5.27-9.25-8.37-19.88-9.39-32.37A35.45,35.45,0,0,0,33.55,12.16H65.8m5.1-8H28.31C25,13.55,18,20.05,6.42,23,7.35,54.32,19.66,79.54,50,95.84c25.06-13.6,41.94-35.05,43.58-72.57-11.31-3.08-19-9.35-22.68-19.11Z"/><path class="cls-3" d="M40.11,33.18c0-16.8,19.66-16.8,19.66,0"/><path class="cls-2" d="M63.4,37.12H36.6a3.4,3.4,0,0,0-3.4,3.39V62.36a3.4,3.4,0,0,0,3.4,3.39H63.4a3.4,3.4,0,0,0,3.4-3.39V40.51A3.4,3.4,0,0,0,63.4,37.12Zm-9.8,21.2H46.25L47.14,52h.21a4.45,4.45,0,1,1,5.08.05Z"/></svg>