<?xml version="1.0" encoding="utf-8"?>
<!-- Generator: Adobe Illustrator 19.1.0, SVG Export Plug-In . SVG Version: 6.00 Build 0)  -->
<svg version="1.0" id="Layer_1" xmlns="http://www.w3.org/2000/svg" xmlns:xlink="http://www.w3.org/1999/xlink" x="0px" y="0px"
	 viewBox="0 0 343.3 277" style="enable-background:new 0 0 343.3 277;" xml:space="preserve">
<style type="text/css">
	.st0{fill:#2DA9E1;}
	.st1{fill:#FFFFFF;}
	.st2{fill:#268EB2;}
	.st3{fill:#3F403F;}
</style>
<g>
	<g>
		<path class="st0" d="M224.8,23.6h-53.2h-53.2c-2.7,16.2-16.7,28.5-33.7,28.5c-2.5,0-4.9-0.3-7.3-0.8c-5.6,22.4-8.2,44.9-9.4,59.9
			c-1.7,21.3,1.3,42.8,9.6,62.5c26.6,62.7,93.9,83.1,93.9,83.1s67.2-20.4,93.9-83.1c8.3-19.7,11.3-41.2,9.6-62.5
			c-1.2-15-3.8-37.5-9.4-59.9c-2.3,0.5-4.8,0.8-7.3,0.8C241.6,52.2,227.5,39.8,224.8,23.6z"/>
	</g>
	<path class="st0" d="M171.6,272.1c-0.2,0-0.4,0-0.6-0.1c-0.8-0.2-76.1-23.7-105.8-93.6c-9.1-21.4-12.8-45.8-10.9-70.5
		c1.5-18.1,4.7-45.3,11.7-71.9c0.1-0.5,0.5-1,1-1.2c0.5-0.3,1-0.3,1.5-0.2c2.6,0.7,5.1,1.1,7.7,1.1c14.4,0,26.7-10.9,28.5-25.4
		c0.1-1,1-1.8,2-1.8h129.7c1,0,1.9,0.8,2,1.8c1.8,14.5,14.1,25.4,28.5,25.4c2.5,0,5.1-0.4,7.7-1.1c0.5-0.1,1.1-0.1,1.5,0.2
		c0.5,0.3,0.8,0.7,1,1.2c7,26.5,10.3,53.7,11.7,71.9l0,0c2,24.7-1.8,49.1-10.9,70.5c-29.7,69.9-105,93.4-105.8,93.6
		C172,272,171.8,272.1,171.6,272.1z M69.6,38.9c-6.6,25.6-9.7,51.7-11.1,69.2c-1.9,24.1,1.7,47.8,10.5,68.6
		c27.6,64.9,95.6,88.8,102.6,91.2c7-2.3,75.1-26.3,102.6-91.2c8.8-20.8,12.5-44.6,10.5-68.6l0,0c-1.4-17.5-4.5-43.6-11.1-69.2
		c-2.3,0.5-4.5,0.7-6.7,0.7c-15.9,0-29.4-11.6-32.2-27.2H108.5c-2.8,15.6-16.4,27.2-32.2,27.2C74.1,39.7,71.8,39.4,69.6,38.9z"/>
	<g>
		<g>
			<path class="st1" d="M206.9,110.4L206.9,110.4l0-15.8c0-19.4-15.8-35.2-35.2-35.2c-19.4,0-35.2,15.8-35.2,35.2v15.8
				c-5.1,1.5-8.9,6.2-8.9,11.8v51.4c0,6.8,5.5,12.3,12.3,12.3h63.8c6.8,0,12.3-5.5,12.3-12.3v-51.4
				C215.8,116.6,212,111.8,206.9,110.4z M179.8,166h-16.3c-1.6,0-2.7-1.5-2.2-3l4.3-14.6c-2.6-1.9-4.2-4.9-4.2-8.3
				c0-5.7,4.6-10.3,10.3-10.3c5.7,0,10.3,4.6,10.3,10.3c0,3.4-1.7,6.4-4.2,8.3L182,163C182.5,164.5,181.4,166,179.8,166z
				 M195.7,109.9h-48.2h0h0V94.5c0-13.2,10.9-24.1,24.1-24.1s24.1,10.9,24.1,24.1V109.9z"/>
		</g>
	</g>
	<g>
		<g>
			<g>
				<path class="st2" d="M66.4,214.4c0,0-7.8,2.9-13.4,0.8c-5.6-2.1-46-28.4-46-28.4l13,25.7l-19,7.1c0,0,38.9,22,44.4,24.9
					c5.4,2.9,18.7,8.6,32.5,1.3c0,0,2.6-1.9,3.1-6.5s0.4-12,0.4-12L66.4,214.4z"/>
				<path class="st1" d="M63.5,250.3c-7.8,0-14.4-2.7-18.6-5c-5.4-2.9-44-24.7-44.4-24.9c-0.3-0.2-0.5-0.6-0.5-1
					c0-0.4,0.3-0.7,0.7-0.9l17.9-6.7L6.1,187.2c-0.2-0.4-0.1-0.9,0.2-1.2c0.3-0.3,0.8-0.3,1.2-0.1c0.4,0.3,40.4,26.3,45.8,28.4
					c5.1,2,12.6-0.7,12.7-0.8c0.3-0.1,0.7-0.1,1,0.2l15,12.7c0.2,0.2,0.4,0.5,0.4,0.8c0,0.3,0.1,7.6-0.4,12.1
					c-0.5,4.9-3.4,7.1-3.5,7.2C73.3,249.3,68.2,250.3,63.5,250.3z M3.4,219.7c7.9,4.4,37.8,21.3,42.5,23.8c6.3,3.4,18.8,8,31.5,1.3
					l0,0c0,0,2.2-1.7,2.6-5.7c0.4-3.8,0.4-9.8,0.4-11.5l-14.3-12c-2,0.6-8.5,2.5-13.6,0.6c-4.7-1.8-33.4-20.2-43.1-26.5L20.9,212
					c0.1,0.3,0.1,0.6,0,0.8c-0.1,0.3-0.3,0.5-0.6,0.6L3.4,219.7z"/>
			</g>
			<g>
				<path class="st3" d="M68.8,222c0,0-12.1,2.3-8.5,6.5c3.4,4,16.1,4.7,19.6,14.8c0.1,0.4,0.7,0.3,0.7-0.1l2-18.9L68.8,222z"/>
				<path class="st1" d="M80.2,244.5c-0.6,0-1.1-0.4-1.3-0.9c-2.1-6.1-8-8.6-12.8-10.6c-2.8-1.2-5.3-2.3-6.7-3.9
					c-1.1-1.3-1-2.4-0.7-3.1c1.2-3.2,8.4-4.7,9.8-5c0.1,0,0.2,0,0.4,0l13.8,2.3c0.5,0.1,0.9,0.6,0.8,1.1l-2,18.9
					c-0.1,0.7-0.6,1.1-1.2,1.2C80.3,244.5,80.3,244.5,80.2,244.5z M68.8,223c-3.1,0.6-7.6,2.1-8.1,3.7c0,0.1-0.2,0.5,0.4,1.1
					c1,1.2,3.3,2.2,5.9,3.3c4.5,1.9,10,4.3,12.9,9.6l1.7-15.6L68.8,223z"/>
			</g>
			<g>
				<path class="st2" d="M276.9,214.4c0,0,7.8,2.9,13.4,0.8c5.6-2.1,46-28.4,46-28.4l-13,25.7l19,7.1c0,0-38.9,22-44.4,24.9
					c-5.4,2.9-18.7,8.6-32.5,1.3c0,0-2.6-1.9-3.1-6.5s-0.4-12-0.4-12L276.9,214.4z"/>
				<path class="st1" d="M279.7,250.3c-4.7,0-9.7-1-14.8-3.7c-0.2-0.2-3.1-2.3-3.7-7.3c-0.5-4.6-0.4-11.8-0.4-12.1
					c0-0.3,0.1-0.6,0.4-0.8l15-12.7c0.3-0.2,0.7-0.3,1-0.2c0.1,0,7.6,2.7,12.7,0.8c5.4-2.1,45.4-28.1,45.8-28.4
					c0.4-0.3,0.9-0.2,1.2,0.1c0.3,0.3,0.4,0.8,0.2,1.2l-12.5,24.7l17.9,6.7c0.4,0.1,0.6,0.5,0.7,0.9c0,0.4-0.2,0.8-0.5,1
					c-0.4,0.2-39,22-44.4,24.9C294.2,247.5,287.5,250.3,279.7,250.3z M262.9,227.6c0,1.7,0,7.6,0.4,11.5c0.4,4,2.6,5.7,2.7,5.8
					c12.6,6.7,25.1,2,31.4-1.3c4.7-2.5,34.6-19.4,42.5-23.8l-16.9-6.3c-0.3-0.1-0.5-0.3-0.6-0.6c-0.1-0.3-0.1-0.6,0-0.8l11.3-22.3
					c-9.7,6.3-38.3,24.7-43.1,26.5c-5,1.9-11.6,0.1-13.6-0.6L262.9,227.6z"/>
			</g>
			<g>
				<path class="st3" d="M274.5,222c0,0,12.1,2.3,8.5,6.5c-3.4,4-16.1,4.7-19.6,14.8c-0.1,0.4-0.7,0.3-0.7-0.1l-2-18.9L274.5,222z"
					/>
				<path class="st1" d="M263.1,244.5c0,0-0.1,0-0.1,0c-0.6-0.1-1.1-0.6-1.2-1.2l-2-18.9c-0.1-0.5,0.3-1,0.8-1.1l13.8-2.3
					c0.1,0,0.2,0,0.3,0c1.4,0.3,8.7,1.8,9.8,5c0.3,0.7,0.3,1.8-0.7,3.1c-1.3,1.6-3.8,2.7-6.7,3.9c-4.8,2-10.7,4.5-12.8,10.6
					C264.2,244.2,263.6,244.5,263.1,244.5z M261.8,225.1l1.7,15.6c2.9-5.3,8.4-7.6,12.9-9.6c2.6-1.1,4.9-2.1,5.9-3.3
					c0.5-0.6,0.4-1,0.4-1.1c-0.6-1.6-5-3.1-8.1-3.7L261.8,225.1z"/>
			</g>
		</g>
		<g>
			<path class="st0" d="M278.4,185.8c0,0-19,6.7-49,12.4c-38.1,7.2-77.2,7.2-115.3,0c-24.9-4.7-42.3-10.1-47.5-11.8
				c-0.8-0.3-1.7,0.3-1.8,1.1l-5.2,39.2c0.1-1.1,2.4-1.4,3.4-1c56.3,19.9,108.7,20,108.7,20s52.9,0.5,109.2-20.2
				c0,0,2.9-0.4,2.8,1.4L278.4,185.8z"/>
			<path class="st1" d="M171.8,246.7c-0.1,0-0.2,0-0.2,0c-0.5,0-53.2-0.3-109-20.1c-0.6-0.2-1.8,0-2.1,0.2c-0.1,0.5-0.6,0.9-1.1,0.9
				c-0.5-0.1-0.9-0.5-0.9-1.1c0,0,0-0.1,0-0.1l5.1-39.1c0.1-0.7,0.5-1.3,1.1-1.7c0.6-0.4,1.3-0.5,2-0.2c4.8,1.6,22.3,7.1,47.3,11.8
				c38.1,7.2,76.8,7.2,115,0c29.6-5.6,48.7-12.3,48.9-12.3c0.3-0.1,0.6-0.1,0.9,0.1c0.3,0.2,0.4,0.4,0.5,0.7l5.3,40.4
				c0.1,0.2,0.1,0.5,0.1,0.7c0,0.5-0.4,1-1,1c-0.6,0-1-0.4-1.1-0.9l0-0.2c-0.3-0.4-1.1-0.4-1.6-0.3
				C227.1,246.3,175.6,246.7,171.8,246.7z M61.9,224.5c0.5,0,1,0.1,1.4,0.2c55.5,19.7,107.8,20,108.3,20c0.6,0,53.4,0.3,108.9-20.2
				c0.1,0,0.1,0,0.2-0.1c0.2,0,0.9-0.1,1.7,0l-4.9-37.3c-4.6,1.5-22.4,7.2-48,12c-38.4,7.2-77.3,7.2-115.7,0
				c-25.2-4.7-42.8-10.3-47.6-11.9c-0.1,0-0.2,0-0.3,0c-0.1,0-0.2,0.1-0.2,0.3l-4.9,37C61.2,224.5,61.6,224.5,61.9,224.5z"/>
		</g>
	</g>
	<g>
		<path class="st1" d="M82.2,218.8l3-11.1l2.6,0.7l-1.1,4.3l8.1,2.2l1.1-4.3l2.6,0.7l-3,11.1l-2.6-0.7l1.3-4.8l-8.1-2.2l-1.3,4.8
			L82.2,218.8z"/>
		<path class="st1" d="M99.9,223.4l8.5-10.1l2.5,0.5l4.3,12.5l-2.9-0.6l-0.9-2.7l-7.1-1.4l-1.8,2.2L99.9,223.4z M105.8,219.9
			l4.9,0.9l-1.6-5.1L105.8,219.9z"/>
		<path class="st1" d="M130,218.8l-7.1-0.9l-0.9,7.2l7.1,0.9l0.3-2.4l2.6,0.9l-0.2,1.3c-0.1,1-0.4,1.7-0.9,2.1
			c-0.4,0.3-1.2,0.4-2.3,0.3l-6.8-0.9c-1.1-0.1-1.8-0.4-2.2-0.9c-0.3-0.4-0.4-1.2-0.3-2.2l0.8-6c0.1-1,0.4-1.7,0.9-2
			c0.4-0.3,1.2-0.4,2.3-0.3l6.8,0.9c1.1,0.1,1.8,0.4,2.2,0.9c0.3,0.4,0.4,1.2,0.3,2.2l-0.1,1.1l-2.7,0.1L130,218.8z"/>
		<path class="st1" d="M137.6,229.2l0.9-11.5l2.7,0.2l-0.4,4.8l6.7-4.3l3.9,0.3l-8,4.8l8.1,6.7l-4.3-0.3l-6.5-5.6l-0.4,5
			L137.6,229.2z"/>
		<path class="st1" d="M155.9,230.4l0.3-11.5l11.8,0.3l-0.1,2l-9.1-0.3l-0.1,2.6l5.3,0.1l-0.1,2l-5.3-0.1l-0.1,2.8l9.2,0.3l-0.1,2.2
			L155.9,230.4z"/>
		<path class="st1" d="M173.2,230.7l-0.2-11.5l9.8-0.2c0.9,0,1.6,0.1,2,0.5c0.4,0.3,0.6,0.9,0.6,1.7l0.1,2.7c0,0.8-0.2,1.3-0.6,1.7
			c-0.4,0.4-1.1,0.6-2,0.6l-1.5,0l5.4,4.2l-3.8,0.1l-4.7-4.2l-2.5,0.1l0.1,4.3L173.2,230.7z M181.6,221.1l-6,0.1l0.1,3.2l6-0.1
			c0.5,0,0.8-0.1,0.9-0.2c0.2-0.1,0.2-0.4,0.2-0.7l0-1.4c0-0.3-0.1-0.6-0.3-0.7C182.4,221.1,182.1,221.1,181.6,221.1z"/>
		<path class="st1" d="M209.5,219.2l-7.5,0.7l0.2,2.5l7.1-0.7c1.1-0.1,1.9,0,2.3,0.4c0.4,0.3,0.7,1,0.8,2.1l0.2,1.6
			c0.1,1,0,1.8-0.4,2.2c-0.4,0.4-1.1,0.7-2.2,0.8l-7.1,0.7c-1.1,0.1-1.9,0-2.3-0.4c-0.4-0.3-0.7-1-0.8-2.1l0-0.3l2.3-0.7l0.1,1.4
			l8.1-0.8l-0.3-2.6l-7.1,0.7c-1.1,0.1-1.9,0-2.3-0.4c-0.4-0.3-0.7-1-0.8-2.1l-0.1-1.3c-0.1-1,0-1.8,0.4-2.2
			c0.4-0.4,1.1-0.7,2.2-0.8l6.5-0.6c1.1-0.1,1.8,0,2.3,0.3c0.4,0.3,0.7,1,0.8,1.9l0,0.2l-2.3,0.8L209.5,219.2z"/>
		<path class="st1" d="M216.6,228l4.7-12.3l2.5-0.4l8.2,10.4l-3,0.5l-1.7-2.3l-7.2,1.1l-0.9,2.7L216.6,228z M221,222.7l5-0.8
			l-3.1-4.2L221,222.7z"/>
		<path class="st1" d="M236.4,224.8l-2.4-11.2l11.4-2.4l0.4,2L237,215l0.6,3l4.7-1l0.4,2.1l-4.7,1l0.9,4.3L236.4,224.8z"/>
		<path class="st1" d="M251.7,221.4l-3.1-11.1l11.3-3.2l0.5,1.9l-8.7,2.4l0.7,2.5l5.1-1.4l0.5,1.9l-5.1,1.4l0.8,2.7l8.9-2.5l0.6,2.1
			L251.7,221.4z"/>
	</g>
</g>
</svg>
