<?xml version="1.0" encoding="utf-8"?>
<!-- Generator: Adobe Illustrator 19.1.0, SVG Export Plug-In . SVG Version: 6.00 Build 0)  -->
<svg version="1.0" id="Layer_1" xmlns="http://www.w3.org/2000/svg" xmlns:xlink="http://www.w3.org/1999/xlink" x="0px" y="0px"
	 viewBox="0 0 238 384" style="enable-background:new 0 0 238 384;" xml:space="preserve">
<style type="text/css">
	.st0{fill:#29AAE1;}
</style>
<path class="st0" d="M166.3,96.5c4,4,4,10.6,0,14.6c-4,4-10.6,4-14.6,0C144,103.4,133.6,99,122.4,99c-11.1,0-21.6,4.4-29.3,12.1
	c-4,4-10.6,4-14.6,0c-4-4-4-10.6,0-14.6c11.6-11.6,27.2-18.2,43.9-18.2S154.8,84.9,166.3,96.5z M189.5,76.9c3.7,3.7,3.7,9.8,0,13.5
	c-3.7,3.7-9.8,3.7-13.5,0c-14.2-14.2-33.4-22.3-53.9-22.3s-39.7,8.1-53.9,22.3c-3.7,3.7-9.8,3.7-13.5,0c-3.7-3.7-3.7-9.8,0-13.5
	C72.5,59.2,96.5,49,122.1,49S171.7,59.2,189.5,76.9z M210.3,58.6c3.5,3.5,3.5,9.3,0,12.8s-9.3,3.5-12.8,0
	c-20.3-20.3-47.7-31.9-76.9-31.9S63.9,51.1,43.6,71.4c-3.5,3.5-9.3,3.5-12.8,0s-3.5-9.3,0-12.8c23.6-23.6,55.6-37.2,89.8-37.2
	S186.7,34.9,210.3,58.6z M122.4,154.5c-11.4,0-20.7-9.3-20.7-20.7s9.3-20.7,20.7-20.7c11.4,0,20.7,9.3,20.7,20.7
	S133.9,154.5,122.4,154.5z"/>
<path class="st0" d="M120.2,362.7c-55.1,0-99.9-44.8-99.9-99.9s44.8-99.9,99.9-99.9s99.9,44.8,99.9,99.9S175.3,362.7,120.2,362.7z
	 M120.2,170.4c-50.9,0-92.4,41.4-92.4,92.4s41.4,92.4,92.4,92.4c50.9,0,92.4-41.4,92.4-92.4S171.1,170.4,120.2,170.4z"/>
<g>
	<g>
		<path class="st0" d="M27.3,234.7c22.8-19.1,55.4-28.9,96.7-28.9c36,0,66.6,7.3,88.6,21.2c1.8,1.1,2.3,3.4,1.2,5.2
			c-1.1,1.8-3.4,2.3-5.2,1.2c-20.8-13.1-50.1-20.1-84.6-20.1c-39.6,0-70.5,9.1-91.9,27.1c0,0-2.3,1.9-2.9,2.6L27.3,234.7z"/>
	</g>
	<g>
		<path class="st0" d="M27.3,290.9c22.8,19.1,55.4,28.9,96.7,28.9c36,0,66.6-7.3,88.6-21.3c1.8-1.1,2.3-3.4,1.2-5.2
			c-1.1-1.8-3.4-2.3-5.2-1.2c-20.8,13.1-50.1,20.1-84.6,20.1c-39.6,0-70.5-9.1-91.9-27.1l-4.3-4L27.3,290.9z"/>
	</g>
</g>
<g>
	<g>
		<path class="st0" d="M92.1,356.2c-19.1-22.8-28.9-55.4-28.9-96.7c0-36.3,7.5-67.1,21.6-89.2c1.1-1.8,3.5-2.3,5.2-1.1
			c1.8,1.1,2.3,3.4,1.1,5.2c-13.4,20.9-20.4,50.3-20.4,85.2c0,39.6,9.1,70.5,27.1,91.9l3.2,3l-5.3,2.8L92.1,356.2z"/>
	</g>
	<g>
		<path class="st0" d="M148.3,356.2c19.1-22.8,28.9-55.4,28.9-96.7c0-36.6-7.6-67.6-22-89.7c0,0,0,0,0,0L149,174
			c13.5,20.9,20.7,50.5,20.7,85.5c0,39.6-9.1,70.5-27.1,91.9l-2.7,2.9L148.3,356.2z"/>
	</g>
</g>
<path class="st0" d="M216.2,266.6h-192c-2.1,0-3.8-1.7-3.8-3.8c0-2.1,1.7-3.8,3.8-3.8h192c2.1,0,3.8,1.7,3.8,3.8
	C220,264.9,218.3,266.6,216.2,266.6z"/>
<path class="st0" d="M120.2,362.6c-2.1,0-3.8-1.7-3.8-3.8v-192c0-2.1,1.7-3.8,3.8-3.8c2.1,0,3.8,1.7,3.8,3.8v192
	C123.9,360.9,122.3,362.6,120.2,362.6z"/>
</svg>
