<svg id="Layer_1" data-name="Layer 1" xmlns="http://www.w3.org/2000/svg" viewBox="0 0 100 100"><defs><style>.cls-1{fill:none;stroke:#20ace2;stroke-miterlimit:10;stroke-width:11px;}.cls-2{fill:#20ace2;}</style></defs><line class="cls-1" x1="16.78" y1="14.2" x2="79.98" y2="77.74"/><path class="cls-2" d="M7.38,40.3l6.88,7.4a50.28,50.28,0,0,1,20-13.07l-7.93-8A60.46,60.46,0,0,0,7.38,40.3Z"/><path class="cls-2" d="M50,31.94A49,49,0,0,1,85.74,47.7l6.88-7.4A58.38,58.38,0,0,0,50,21.48a56.21,56.21,0,0,0-9.68.84l9.57,9.62Z"/><path class="cls-2" d="M20,53.88l7.32,7.87A31.05,31.05,0,0,1,50,51.76c.44,0,.87,0,1.3,0L41.19,41.63A41.74,41.74,0,0,0,20,53.88Z"/><path class="cls-2" d="M80,53.88a41.84,41.84,0,0,0-20.23-12L76,58.18Z"/><path class="cls-2" d="M50,61a22.68,22.68,0,0,0-16.56,7.3L50,86.12,66.56,68.31A22.68,22.68,0,0,0,50,61Z"/></svg>