<svg id="Layer_1" data-name="Layer 1" xmlns="http://www.w3.org/2000/svg" viewBox="0 0 100 100"><defs><style>.cls-1,.cls-2{fill:#20ace2;}.cls-1{opacity:0.25;}</style></defs><path class="cls-1" d="M50.54,100C68.7,91.9,85,74.25,85,74.25c6.07-6.36,5.5-17.35,5.5-17.35V21C75.2,15.24,50.54.2,50.54.2H49.46S24.8,15.24,9.46,21V56.9s-.57,11,5.5,17.35c0,0,16.34,17.65,34.5,25.75Z"/><path class="cls-2" d="M50,10.36C56.67,14.28,70.14,22,81.54,27V57.37c.07,1.41-.23,7.75-3,10.67l0,0,0,0C78.3,68.29,65,82.5,50,90.27c-15-7.75-28.3-22-28.44-22.13l0,0-.05,0c-2.48-2.6-3.1-8.3-3-10.69V27C29.86,22,43.33,14.28,50,10.36M50.54.2H49.46S24.8,15.24,9.46,21V56.9s-.57,11,5.5,17.35c0,0,16.34,17.65,34.5,25.75h1.08C68.7,91.9,85,74.25,85,74.25c6.07-6.36,5.5-17.35,5.5-17.35V21C75.2,15.24,50.54.2,50.54.2Z"/><path class="cls-2" d="M50,25.13S36,37.92,36,52.44c0,9.49,6.28,17.18,14,17.18s14-7.69,14-17.18C64,39.67,50,25.13,50,25.13ZM54.55,66c-1.53-1,0-2.22,0-2.22,6.24-3.89,6.24-13.61,5-17.35s.84-2.78.84-2.78a4,4,0,0,1,1.23,1.87C66.32,58.66,56,66.93,54.55,66Z"/></svg>