<svg xmlns="http://www.w3.org/2000/svg" viewBox="0 0 100 100"><defs><style>.cls-1,.cls-2{fill:#20ace2;}.cls-2{opacity:0.25;}</style></defs><g id="Layer_2" data-name="Layer 2"><path class="cls-1" d="M35.19,75.31V84H17.39a4.7,4.7,0,0,1-4.53-3.48L1.78,39.28a4.7,4.7,0,0,1,4.54-5.92H89.68a4.7,4.7,0,0,1,4.46,6.18L92,46h-9.4l1.6-4.44H11.39l9.8,34Z"/><path class="cls-2" d="M35.19,75.31V59.56S37.59,47.25,50.39,46h32.2l1.6-4.44H11.39l9.8,34Z"/><path class="cls-1" d="M20,41.56,43.44,6.9a5.44,5.44,0,0,1,9.05,0l22.9,34.61H64.19L47.69,16l-16.3,25.6Z"/><path class="cls-1" d="M89.86,62.25V87.49H51.72V62.25H89.86m0-9H51.72a9,9,0,0,0-9,9V87.49a9,9,0,0,0,9,9H89.86a9,9,0,0,0,9-9V62.25a9,9,0,0,0-9-9Z"/><rect class="cls-2" x="51.72" y="62.25" width="38.13" height="25.25"/><rect class="cls-1" x="51.72" y="66.6" width="29.6" height="8.27"/></g></svg>