<svg xmlns="http://www.w3.org/2000/svg" viewBox="0 0 100 100"><defs><style>.cls-1,.cls-2{fill:#20ace2;}.cls-1{opacity:0.25;}</style></defs><g id="Layer_2" data-name="Layer 2"><polygon class="cls-1" points="31.69 41.2 31.69 78.53 23.43 78.53 23.43 34.27 52.29 21.47 81.29 34.27 81.29 78.53 73.56 78.53 73.56 40.93 31.69 41.2"/><path class="cls-2" d="M52.29,21.47l29,12.8V78.53H73.56V40.93l-41.87.27V78.53H23.43V34.27l28.86-12.8m0-9.84-3.64,1.61L19.78,26l-5.35,2.37V87.53H40.69V50.14L64.56,50V87.53H90.29V28.4L84.93,26l-29-12.8-3.65-1.6Z"/><polygon class="cls-2" points="31.69 57.2 48.09 57.2 48.09 53.6 56.23 53.6 56.23 57.2 73.56 57.2 73.56 66.27 31.69 66.27 31.69 57.2"/></g></svg>