<svg xmlns="http://www.w3.org/2000/svg" viewBox="0 0 100 100"><defs><style>.cls-1,.cls-2{fill:#20ace2;}.cls-1{opacity:0.25;}</style></defs><g id="Layer_2" data-name="Layer 2"><path class="cls-1" d="M21.2,25.73,50.6,13.2l29,12.53V49.58s-3.87,30-29,37.22c0,0-25.67-9.33-29.4-36.8Z"/><path class="cls-2" d="M50.6,13.2l29,12.53V49.58s-3.87,30-29,37.22c0,0-25.67-9.33-29.4-36.8V25.73L50.6,13.2m0-9.79L47.07,4.92,17.67,17.45,12.2,19.79V50.61l.08.6c4.42,32.48,34,43.59,35.24,44.05l2.75,1,2.81-.81c30.47-8.73,35.26-43.26,35.45-44.72l.07-.57V19.82l-5.43-2.35-29-12.53L50.62,3.41Z"/><polygon class="cls-2" points="35.07 43.73 46.53 55.87 70.53 32.53 75.93 38.53 46.07 68.33 29.07 50 35.07 43.73"/></g></svg>