<svg xmlns="http://www.w3.org/2000/svg" viewBox="0 0 100 100"><defs><style>.cls-1,.cls-2{fill:#20ace2;}.cls-1{opacity:0.25;}.cls-3{fill:none;stroke:#20ace2;stroke-miterlimit:10;stroke-width:8px;}</style></defs><g id="Layer_2" data-name="Layer 2"><polygon class="cls-1" points="33.2 26.13 38.27 31.73 61.73 31.73 66.53 26.13 57.07 19.07 42.53 19.07 33.2 26.13"/><path class="cls-1" d="M20.6,80.93H79.4v-2.6c0-12.92-58.8-12.92-58.8,0Z"/><path class="cls-2" d="M57.07,19.07l9.46,7.06-4.8,5.6H38.27l-5.07-5.6,9.33-7.06H57.07m2.65-8H39.85L37.7,12.69l-9.33,7.07-7,5.27,5.86,6.47,5.06,5.6,2.39,2.63H65.41l2.4-2.79,4.8-5.6,5.57-6.5-6.86-5.12-9.47-7.06-2.13-1.59Z"/><path class="cls-3" d="M37,38.56S35.8,52,49.64,52,62.86,37.91,62.86,37.91"/><path class="cls-2" d="M50,68.64c14.7,0,29.4,3.23,29.4,9.69v2.6H20.6v-2.6c0-6.46,14.7-9.69,29.4-9.69m0-9a84.08,84.08,0,0,0-22.74,2.79c-13.63,4-15.66,11.68-15.66,15.9v11.6H88.4V78.33c0-4.22-2-11.91-15.66-15.9A84.08,84.08,0,0,0,50,59.64Z"/><path class="cls-2" d="M45.79,68.73,43.9,80.93H56.2l-2-12.2C51.33,68.61,48.52,68.6,45.79,68.73Z"/><rect class="cls-2" x="62.1" y="76.98" width="8.85" height="3.95"/><rect class="cls-2" x="28.98" y="76.98" width="8.85" height="3.95"/></g></svg>