<svg xmlns="http://www.w3.org/2000/svg" viewBox="0 0 100 100"><defs><style>.cls-1,.cls-2{fill:#20ace2;}.cls-2{opacity:0.25;}</style></defs><g id="Layer_2" data-name="Layer 2"><path class="cls-1" d="M16.8,89.72V52.38H83.4V89.72h8.2V51.52a6,6,0,0,0-6-6H14.4a6,6,0,0,0-6,6v38.2Z"/><rect class="cls-1" x="8.4" y="73.42" width="83.2" height="8.5"/><rect class="cls-2" x="16.8" y="52.38" width="66.6" height="21.03"/><rect class="cls-2" x="21.13" y="23.32" width="58.53" height="22.2"/><polygon class="cls-1" points="21.13 23.32 79.67 23.32 79.67 52.38 87.8 52.38 87.8 14.52 12.33 14.52 12.33 52.38 21.13 52.38 21.13 23.32"/><rect class="cls-1" x="25.13" y="31.32" width="21.07" height="21.07" rx="5.13"/><rect class="cls-1" x="54.33" y="31.32" width="21.07" height="21.07" rx="5.13"/></g></svg>