<?xml version="1.0" encoding="utf-8"?>
<!-- Generator: Adobe Illustrator 19.1.0, SVG Export Plug-In . SVG Version: 6.00 Build 0)  -->
<svg version="1.1" id="Layer_1" xmlns="http://www.w3.org/2000/svg" xmlns:xlink="http://www.w3.org/1999/xlink" x="0px" y="0px"
	 viewBox="0 0 264 256" style="enable-background:new 0 0 264 256;" xml:space="preserve">
<style type="text/css">
	.st0{fill:#F8F8F9;}
	.st1{fill:#5E5F5F;}
	.st2{fill:#C4E9F6;}
	.st3{fill:#334048;}
	.st4{fill:#434343;}
	.st5{fill:#787878;}
	.st6{fill:#3F4D57;}
	.st7{fill:#999999;}
	.st8{fill:#6BAFD1;}
	.st9{fill:#86C0E4;}
	.st10{fill:#1F376B;}
	.st11{opacity:0.5;fill:#86C0E4;}
	.st12{fill:#728694;}
	.st13{fill:#27AAE1;}
	.st14{fill:#FFFFFF;}
</style>
<g>
	<circle class="st0" cx="140.8" cy="131" r="84.3"/>
	<g>
		<path class="st1" d="M117.2,91.8c-0.3,0-0.5-0.2-0.5-0.5c0-0.3-0.1-0.7-0.1-1c-0.1-0.6-0.1-1-0.1-1c0-0.3,0.2-0.5,0.5-0.5
			c0.3,0,0.5,0.2,0.5,0.4c0,0.3,0.1,0.6,0.1,1c0,0.3,0.1,0.6,0.1,1c0,0.3-0.1,0.5-0.4,0.6c0,0,0,0,0,0
			C117.3,91.8,117.2,91.8,117.2,91.8C117.2,91.8,117.2,91.8,117.2,91.8z"/>
		<path class="st1" d="M137.9,119.3c-0.1,0-0.2,0-0.2-0.1c-1.3-0.7-2.6-1.5-3.9-2.3c-0.2-0.2-0.3-0.5-0.1-0.7
			c0.2-0.2,0.5-0.3,0.7-0.1c1.2,0.8,2.5,1.5,3.8,2.2c0.2,0.1,0.3,0.4,0.2,0.7C138.2,119.2,138,119.3,137.9,119.3z M124.3,107.9
			c-0.2,0-0.3-0.1-0.4-0.2c-0.9-1.2-1.7-2.5-2.5-3.8c-0.1-0.2-0.1-0.5,0.2-0.7c0.2-0.1,0.5-0.1,0.7,0.2c0.7,1.3,1.6,2.5,2.4,3.7
			c0.2,0.2,0.1,0.5-0.1,0.7C124.5,107.9,124.4,107.9,124.3,107.9z"/>
		<path class="st1" d="M168.8,125.8l-0.8,0c-0.3,0-0.5-0.2-0.5-0.5c0-0.3,0.2-0.5,0.5-0.5l0.7,0c1.2,0,2.4,0,3.7-0.1
			c0.3,0,0.5,0.2,0.5,0.5c0,0.3-0.2,0.5-0.5,0.5C171.3,125.8,170,125.8,168.8,125.8z M154.8,124.7
			C154.7,124.7,154.7,124.7,154.8,124.7c-1.6-0.3-3.1-0.6-4.5-0.9c-0.3-0.1-0.4-0.3-0.4-0.6c0.1-0.3,0.3-0.4,0.6-0.4
			c1.4,0.3,2.9,0.6,4.3,0.9c0.3,0,0.5,0.3,0.4,0.6C155.2,124.5,155,124.7,154.8,124.7z M185.8,124.5c-0.2,0-0.5-0.2-0.5-0.4
			c0-0.3,0.2-0.5,0.4-0.6c1.4-0.2,2.9-0.4,4.4-0.7c0.3,0,0.5,0.1,0.6,0.4c0,0.3-0.1,0.5-0.4,0.6
			C188.8,124.1,187.3,124.3,185.8,124.5C185.9,124.5,185.9,124.5,185.8,124.5z"/>
		<path class="st1" d="M203.8,122.2c-0.1,0-0.3,0-0.4-0.1c-0.2-0.2-0.2-0.5,0-0.7c0,0,0.1-0.1,0.1-0.1c0,0-0.1,0-0.1,0
			c-0.3,0.1-0.5-0.1-0.6-0.4c-0.1-0.3,0.1-0.5,0.4-0.6c0.6-0.2,1.3-0.3,1.9-0.5c0.2-0.1,0.5,0.1,0.6,0.3c0.1,0.2,0.1,0.5-0.1,0.6
			c0,0-0.5,0.5-1.4,1.3C204.1,122.1,204,122.2,203.8,122.2z"/>
		<path class="st1" d="M191.7,141.4c-0.1,0-0.1,0-0.2,0c-0.3-0.1-0.4-0.4-0.3-0.6c0.4-0.9,0.7-1.8,1.1-2.7c0.1-0.3,0.4-0.4,0.7-0.3
			c0.3,0.1,0.4,0.4,0.3,0.7c-0.4,0.8-0.8,1.7-1.1,2.6C192.1,141.3,191.9,141.4,191.7,141.4z M196.8,131.2c-0.1,0-0.2,0-0.3-0.1
			c-0.2-0.1-0.3-0.5-0.2-0.7c0.5-0.8,1-1.6,1.6-2.4c0.2-0.2,0.5-0.3,0.7-0.1c0.2,0.2,0.3,0.5,0.1,0.7c-0.5,0.8-1.1,1.6-1.6,2.4
			C197.2,131.1,197,131.2,196.8,131.2z"/>
		<path class="st1" d="M186.5,175.2c-0.3,0-0.5-0.2-0.5-0.5c-0.1-1-0.1-1.9-0.1-2.9c0-0.3,0.2-0.5,0.5-0.5c0.3,0,0.5,0.2,0.5,0.5
			c0,0.9,0.1,1.9,0.1,2.9C187,175,186.8,175.2,186.5,175.2C186.5,175.2,186.5,175.2,186.5,175.2z M186.6,163.8
			C186.6,163.8,186.6,163.7,186.6,163.8c-0.3,0-0.5-0.3-0.5-0.5c0.1-1,0.2-1.9,0.3-2.9c0-0.3,0.3-0.5,0.6-0.4c0.3,0,0.5,0.3,0.4,0.6
			c-0.1,0.9-0.2,1.9-0.3,2.8C187.1,163.6,186.9,163.8,186.6,163.8z M188.3,152.4c0,0-0.1,0-0.1,0c-0.3-0.1-0.4-0.3-0.4-0.6
			c0.2-1,0.4-1.9,0.7-2.8c0.1-0.3,0.3-0.4,0.6-0.4c0.3,0.1,0.4,0.3,0.4,0.6c-0.2,0.9-0.5,1.8-0.7,2.8
			C188.7,152.2,188.5,152.4,188.3,152.4z"/>
		<path class="st1" d="M187.6,185.8c-0.1,0-0.2,0-0.2-0.1c0,0-0.6-0.3-1.8-0.9c-0.2-0.1-0.3-0.4-0.2-0.7s0.4-0.3,0.7-0.2
			c0.3,0.2,0.6,0.3,0.9,0.5c0-0.3-0.1-0.7-0.1-1c0-0.3,0.2-0.5,0.4-0.6c0.3,0,0.5,0.2,0.6,0.4c0.1,0.7,0.2,1.3,0.3,2
			c0,0.2,0,0.4-0.2,0.5C187.8,185.7,187.7,185.8,187.6,185.8z"/>
		<path class="st1" d="M173.7,179.1c-0.1,0-0.1,0-0.2,0c-1.3-0.6-2.7-1.1-4.1-1.7c-0.3-0.1-0.4-0.4-0.3-0.7s0.4-0.4,0.7-0.3
			c1.4,0.6,2.8,1.2,4.1,1.7c0.3,0.1,0.4,0.4,0.3,0.7C174.1,179,173.9,179.1,173.7,179.1z M157,172.7c-0.1,0-0.1,0-0.2,0
			c-1.4-0.5-2.8-0.9-4.2-1.4c-0.3-0.1-0.4-0.4-0.3-0.6c0.1-0.3,0.4-0.4,0.6-0.3c1.4,0.5,2.9,0.9,4.3,1.4c0.3,0.1,0.4,0.4,0.3,0.6
			C157.4,172.5,157.2,172.7,157,172.7z"/>
		<path class="st1" d="M139.8,167.6c0,0-0.1,0-0.1,0c-1.4-0.3-2.9-0.7-4.4-1c-0.3-0.1-0.4-0.3-0.4-0.6c0.1-0.3,0.3-0.4,0.6-0.4
			c1.5,0.3,2.9,0.6,4.4,1c0.3,0.1,0.4,0.3,0.4,0.6C140.2,167.5,140,167.6,139.8,167.6z M99.7,164.8c-0.2,0-0.5-0.2-0.5-0.4
			c0-0.3,0.1-0.5,0.4-0.6c1.5-0.2,3-0.4,4.5-0.5c0.3,0,0.5,0.2,0.5,0.5c0,0.3-0.2,0.5-0.5,0.5C102.7,164.4,101.3,164.6,99.7,164.8
			C99.8,164.8,99.8,164.8,99.7,164.8z M122.1,164.5C122.1,164.5,122.1,164.5,122.1,164.5c-1.6-0.2-3.1-0.3-4.5-0.4
			c-0.3,0-0.5-0.3-0.5-0.5s0.2-0.5,0.5-0.5c1.5,0.1,3,0.2,4.5,0.4c0.3,0,0.5,0.3,0.4,0.5C122.6,164.3,122.4,164.5,122.1,164.5z"/>
		<path class="st1" d="M85,169.1c-0.2,0-0.4-0.1-0.4-0.3c-0.1-0.2,0-0.5,0.2-0.7c0,0,0.6-0.4,1.6-1.1c0.2-0.2,0.5-0.1,0.7,0.1
			c0.1,0.1,0.1,0.2,0.1,0.2c0.1,0.1,0.1,0.1,0.2,0.2c0.1,0.3,0,0.5-0.3,0.7c-0.6,0.3-1.2,0.5-1.8,0.8C85.1,169.1,85,169.1,85,169.1z
			"/>
		<path class="st1" d="M95,160.6c-0.1,0-0.3,0-0.3-0.1c-0.2-0.2-0.2-0.5,0-0.7c0.9-0.9,1.7-1.8,2.5-2.7c0.2-0.2,0.5-0.2,0.7,0
			c0.2,0.2,0.2,0.5,0,0.7c-0.8,0.9-1.7,1.9-2.5,2.8C95.2,160.5,95.1,160.6,95,160.6z M104.2,148.9c-0.1,0-0.2,0-0.3-0.1
			c-0.2-0.1-0.3-0.5-0.1-0.7c0.7-1,1.3-2.1,1.9-3.2c0.1-0.2,0.4-0.3,0.7-0.2c0.2,0.1,0.3,0.4,0.2,0.7c-0.6,1.1-1.3,2.1-2,3.2
			C104.6,148.8,104.4,148.9,104.2,148.9z"/>
		<path class="st1" d="M111.1,135.7c-0.1,0-0.1,0-0.2,0c-0.3-0.1-0.4-0.4-0.3-0.7c0.5-1.1,0.9-2.3,1.3-3.5c0.1-0.3,0.4-0.4,0.6-0.3
			c0.3,0.1,0.4,0.4,0.3,0.6c-0.4,1.2-0.9,2.4-1.3,3.5C111.5,135.6,111.3,135.7,111.1,135.7z M115.5,121.5c0,0-0.1,0-0.1,0
			c-0.3-0.1-0.4-0.3-0.4-0.6c0.3-1.2,0.5-2.4,0.7-3.6c0-0.3,0.3-0.5,0.6-0.4c0.3,0,0.5,0.3,0.4,0.6c-0.2,1.2-0.5,2.5-0.7,3.7
			C116,121.3,115.8,121.5,115.5,121.5z M117.5,106.7C117.5,106.7,117.5,106.7,117.5,106.7c-0.3,0-0.5-0.2-0.5-0.5
			c0.1-1.2,0.1-2.5,0.1-3.7c0-0.3,0.2-0.5,0.5-0.5c0,0,0,0,0,0c0.3,0,0.5,0.2,0.5,0.5c0,1.2-0.1,2.5-0.1,3.7
			C118,106.5,117.7,106.7,117.5,106.7z"/>
	</g>
	<g>
		<g>
			<g>
				<g>
					<polygon class="st2" points="139.4,207 164,192.9 164,153 139.4,167.1 					"/>
					<polygon class="st3" points="139.4,210.2 164,196.1 164,192.9 139.4,207 					"/>
					<g>
						<polygon class="st4" points="149.1,204.6 154.3,201.6 154.3,191.5 149.1,194.5 						"/>
						<polygon class="st5" points="153.6,202.1 153.6,192.6 149.8,194.8 149.8,204.3 						"/>
					</g>
				</g>
				<g>
					<polygon class="st2" points="114.9,192.9 139.4,207 139.4,167.1 114.9,153 					"/>
					<polygon class="st5" points="114.9,196.1 139.4,210.2 139.4,207 114.9,192.9 					"/>
				</g>
			</g>
			<g>
				<g>
					<polygon class="st6" points="112.6,152.5 139.4,137 139.4,135 112.6,150.5 					"/>
					<polygon class="st2" points="112.6,150.5 139.4,166 166.2,152.5 166.2,150.5 139.4,135 					"/>
					<polygon class="st3" points="139.4,167.9 166.2,152.5 166.2,150.5 139.4,166 					"/>
					<polygon class="st5" points="112.6,152.5 139.4,167.9 139.4,166 112.6,150.5 					"/>
				</g>
				<g>
					<polygon class="st6" points="115.5,150.4 139.4,136.6 139.4,134.9 115.5,148.7 					"/>
					<polygon class="st7" points="115.5,148.7 139.4,162.5 163.4,150.4 163.4,148.7 139.4,134.9 					"/>
					<polygon class="st3" points="139.4,164.2 163.4,150.4 163.4,148.7 139.4,162.5 					"/>
					<polygon class="st5" points="115.5,150.4 139.4,164.2 139.4,162.5 115.5,148.7 					"/>
				</g>
			</g>
		</g>
	</g>
	<g>
		<g>
			<polygon class="st2" points="130.5,87.6 146.7,97 146.7,72.4 130.5,72.3 			"/>
			<polygon class="st8" points="187.9,48.4 146.7,72.4 146.7,97 187.9,73.1 			"/>
		</g>
		<g>
			<polygon class="st2" points="149.9,95.1 174.5,109.4 174.5,90.7 149.9,76.5 			"/>
			<polygon class="st8" points="212.5,68.6 174.5,90.7 174.5,109.4 212.5,87.3 			"/>
			<polygon class="st9" points="149.9,77.3 174.5,91.6 174.5,90.7 149.9,76.5 			"/>
			<polygon class="st10" points="212.5,68.6 174.5,90.7 174.5,91.6 212.5,69.5 			"/>
			<polygon class="st2" points="149.9,95.1 174.5,109.4 174.5,108.3 149.9,94.1 			"/>
			<polygon class="st11" points="212.5,86.2 174.5,108.3 174.5,109.4 212.5,87.3 			"/>
			<polygon class="st7" points="187.9,54.4 149.9,76.5 174.5,90.7 212.5,68.6 			"/>
		</g>
		<g>
			<polygon class="st5" points="152.4,86.4 152.4,99.8 166.1,107.7 166.1,94.3 			"/>
			<polygon class="st4" points="169.1,106.2 166.1,108.1 166.1,94.2 169.1,92.2 			"/>
			<polygon class="st4" points="153.1,100.3 152.7,100.5 152.7,86.5 153.1,86.3 			"/>
			<polygon class="st4" points="155.3,84.4 152.3,86.3 166.1,94.2 169.1,92.2 			"/>
			<polygon class="st4" points="166.1,94.2 166.1,94.2 152.3,86.3 152.3,100.3 152.7,100.5 152.7,87.1 165.7,94.5 165.7,107.9 
				166.1,108.1 166.1,94.2 			"/>
		</g>
		<g>
			<polygon class="st5" points="130.2,75.1 130.2,79.5 143.9,87.3 143.9,82.9 			"/>
			<polygon class="st4" points="144.3,87.6 143.9,87.8 143.9,82.8 144.3,82.6 			"/>
			<polygon class="st4" points="130.9,79.9 130.5,80.2 130.5,75.2 130.9,74.9 			"/>
			<polygon class="st4" points="130.5,74.7 130.1,74.9 143.9,82.8 144.3,82.6 			"/>
			<polygon class="st4" points="130.9,79.5 130.5,79.7 143.5,87.2 143.9,86.9 			"/>
			<path class="st4" d="M130.1,74.9v5l13.8,7.9v-5v0L130.1,74.9z M130.5,79.7v-4l13,7.4v4L130.5,79.7z"/>
		</g>
		<g>
			<polygon class="st9" points="130.4,72.3 146.8,72.4 146.8,71.7 130.4,71.7 			"/>
			<polygon class="st10" points="187.9,47.8 146.8,71.7 146.8,72.4 187.9,48.5 			"/>
			<polygon class="st7" points="171.6,47.8 130.4,71.7 146.8,71.7 187.9,47.8 			"/>
		</g>
		<g>
			<polygon class="st4" points="210.1,87.6 210.9,88.3 205,91.7 204.2,91.1 			"/>
			<polygon class="st5" points="210.4,80.3 210.4,87.5 204.6,90.9 204.6,83.7 			"/>
			<polygon class="st4" points="204.1,91.1 204.6,91.4 204.6,83.5 204.1,83.3 			"/>
			<polygon class="st4" points="209.6,88 210,88.3 210,80.4 209.6,80.1 			"/>
			<polygon class="st4" points="210,79.9 210.5,80.1 204.6,83.5 204.1,83.3 			"/>
			<polygon class="st4" points="204.6,83.6 204.6,83.5 210.5,80.1 210.5,88 210,88.3 210,81.6 205,84.5 205,91.1 204.6,91.4 
				204.6,83.6 			"/>
		</g>
	</g>
	<g>
		<g>
			<g>
				<g>
					<g>
						<polygon class="st2" points="60,128.6 44.2,119 44.5,108.1 50.4,108 60.3,117.6 						"/>
						<polygon class="st8" points="60,128.6 85.1,114.8 85.4,103.9 60.3,117.6 						"/>
					</g>
					<g>
						<polygon class="st2" points="49.1,108.4 44.2,107.9 69.7,93.9 75.6,93.8 						"/>
						<polygon class="st7" points="50.2,107.7 60.2,117.5 85.5,103.7 75.6,93.8 						"/>
						<polygon class="st5" points="50.2,107.7 44.2,107.9 44.2,108.5 50.1,108.4 60.2,118.2 60.2,117.5 						"/>
						<polygon class="st9" points="85.6,104.3 85.5,103.7 60.2,117.5 60.2,118.2 						"/>
					</g>
					<g>
						<polygon class="st5" points="44,113.3 44,114 59.8,123.5 59.8,122.9 						"/>
						<g>
							<polygon class="st9" points="59.8,122.9 59.8,123.5 60.1,123.3 60.2,122.7 							"/>
						</g>
						<polygon class="st2" points="44,113.3 44.4,113.1 60.2,122.7 59.8,122.9 						"/>
					</g>
				</g>
				<g>
					<g>
						<polygon class="st8" points="93.5,138.5 109.7,129.7 110,118.8 104.1,118.4 93.8,127.6 						"/>
						<polygon class="st2" points="93.5,138.5 69.1,123.6 69.3,112.7 93.8,127.6 						"/>
						<polygon class="st5" points="96.2,140.1 96.2,140.4 69.1,123.8 69.1,123.6 						"/>
					</g>
					<g>
						<g>
							<polygon class="st8" points="92.9,138.1 87.8,135 87.9,130.4 93,133.5 							"/>
							<g>
								<polygon class="st5" points="88,134.9 88.1,130.5 93,133.5 92.9,137.9 								"/>
							</g>
						</g>
					</g>
					<g>
						<polygon class="st7" points="105.4,119.1 110.2,118.8 85.5,103.7 69.6,97.1 						"/>
						<polygon class="st2" points="104.3,118.4 93.8,127.7 69,112.6 69.6,97.1 						"/>
						<polygon class="st9" points="104.2,118.4 110.2,118.8 110.2,119.5 104.3,119.1 93.8,128.4 93.8,127.7 						"/>
						<polygon class="st5" points="69,113.3 69,112.6 93.8,127.7 93.8,128.4 						"/>
					</g>
					<polygon class="st2" points="96.3,135.9 96.2,140.1 93.5,138.5 93.6,134.2 					"/>
					<polygon class="st8" points="112.5,127.1 96.3,135.9 96.2,140.1 112.4,131.3 					"/>
					<g>
						<polygon class="st9" points="112.5,127.2 110.2,125.3 93.6,133.5 93.6,134.2 96.2,136 						"/>
						<polygon class="st12" points="110.2,124.3 110.2,124.9 94,133.7 94,133.1 						"/>
						<g>
							<polygon class="st9" points="94,133 94,133.7 93.6,133.5 93.6,132.8 							"/>
						</g>
						<polygon class="st2" points="110.2,124.3 109.8,124 93.6,132.8 94,133.1 						"/>
						<polygon class="st2" points="112.5,126.8 110.2,124.9 94,133.7 96.3,135.6 						"/>
						<polygon class="st12" points="112.5,127.2 112.5,126.8 96.3,135.6 96.2,136 						"/>
					</g>
				</g>
			</g>
			<g>
				<g>
					<polygon class="st8" points="57.5,127 52.9,124.2 53,120 57.6,122.8 					"/>
					<g>
						<polygon class="st5" points="53,124.1 53.1,120.1 57.6,122.8 57.5,126.9 						"/>
					</g>
				</g>
			</g>
			<g>
				<g>
					<polygon class="st8" points="50.6,122.9 46,120 46.1,115.8 50.7,118.6 					"/>
					<g>
						<polygon class="st5" points="46.2,120 46.3,115.9 50.7,118.6 50.7,122.7 						"/>
					</g>
				</g>
			</g>
			<polygon class="st12" points="96.2,140.1 96.2,140.4 112.4,131.5 112.4,131.3 			"/>
			<polygon class="st5" points="44.2,118.9 60,128.6 60,128.8 44.2,119.2 			"/>
			<polygon class="st12" points="60,128.6 60,128.8 69.1,123.8 69.1,123.6 			"/>
		</g>
	</g>
	<g>
		<path class="st13" d="M86.8,170.5c2.2-3.9,6.8-13,6-19c-0.7-5.3-5.5-9-10.7-8.4c-5.3,0.7-9,5.4-8.4,10.7c0.7,6,7.4,13.7,10.5,16.9
			C85,171.6,86.2,171.5,86.8,170.5z"/>
		<path class="st14" d="M87.8,146.1c-0.4,0.5-1.1,0.9-1.9,1.3c-1,0.5,0.4,2.2,0.5,3c0.1,0.5-0.3,1-0.9,1.1c-0.5,0.1-1-0.3-1.1-0.9
			c-0.2-1.3,0.8-2.7-1.7-2.4c-2.2,0.3-4.4,0-5.5-0.8c0,0.3-0.1,0.5-0.1,0.8c-0.1,0.9-0.2,1.7-0.3,2.6c-0.1,1-0.1,1.9-0.2,2.9
			c0,0.6-0.1,1.3,0,1.9c0.1,0.9,1.3,1.5,2,1.8c1.6,0.6,3.5,0.6,5.1,0.4c1.6-0.2,3.5-0.7,4.9-1.6c0.7-0.4,1.7-1.3,1.5-2.2
			c-0.1-0.6-0.3-1.3-0.5-1.9c-0.3-0.9-0.6-1.9-0.9-2.8c-0.3-0.8-0.6-1.7-0.9-2.5C88,146.6,87.9,146.4,87.8,146.1L87.8,146.1z"/>
	</g>
	<g>
		<path class="st13" d="M207.7,125.8c2.2-3.9,6.8-13,6-19c-0.7-5.3-5.5-9-10.7-8.4s-9,5.4-8.4,10.7c0.7,6,7.4,13.7,10.5,16.9
			C205.8,126.9,207.1,126.7,207.7,125.8z"/>
		<path class="st14" d="M208.7,101.4c-0.4,0.5-1.1,0.9-1.9,1.3c-1,0.5,0.4,2.2,0.5,3c0.1,0.5-0.3,1-0.9,1.1c-0.5,0.1-1-0.3-1.1-0.9
			c-0.2-1.3,0.8-2.7-1.7-2.4c-2.2,0.3-4.4,0-5.5-0.8c0,0.3-0.1,0.5-0.1,0.8c-0.1,0.9-0.2,1.7-0.3,2.6c-0.1,1-0.1,1.9-0.2,2.9
			c0,0.6-0.1,1.3,0,1.9c0.1,0.9,1.3,1.5,2,1.8c1.6,0.6,3.5,0.6,5.1,0.4c1.6-0.2,3.5-0.7,4.9-1.6c0.7-0.4,1.7-1.3,1.5-2.2
			c-0.1-0.6-0.3-1.3-0.5-1.9c-0.3-0.9-0.6-1.9-0.9-2.8c-0.3-0.8-0.6-1.7-0.9-2.5C208.9,101.9,208.8,101.7,208.7,101.4L208.7,101.4z"
			/>
	</g>
	<g>
		<path class="st13" d="M188,186.9c1.6-2.9,5.1-9.9,4.6-14.3c-0.5-4-4.1-6.8-8.1-6.3c-4,0.5-6.8,4.1-6.3,8.1
			c0.6,4.5,5.6,10.3,7.9,12.8C186.6,187.7,187.6,187.6,188,186.9z"/>
		<path class="st14" d="M188.8,168.5c-0.3,0.4-0.8,0.7-1.4,1c-0.8,0.4,0.3,1.7,0.3,2.3c0.1,0.4-0.2,0.8-0.7,0.8
			c-0.4,0.1-0.8-0.2-0.8-0.7c-0.1-1,0.6-2.1-1.3-1.8c-1.7,0.2-3.4,0-4.1-0.6c0,0.2-0.1,0.4-0.1,0.6c-0.1,0.7-0.1,1.3-0.2,2
			c-0.1,0.7-0.1,1.5-0.1,2.2c0,0.5,0,1,0,1.5c0.1,0.7,1,1.1,1.5,1.3c1.2,0.4,2.6,0.5,3.9,0.3c1.2-0.2,2.6-0.5,3.7-1.2
			c0.5-0.3,1.3-1,1.2-1.7c-0.1-0.5-0.2-1-0.3-1.4c-0.2-0.7-0.4-1.4-0.7-2.1c-0.2-0.6-0.4-1.3-0.7-1.9
			C188.9,168.9,188.9,168.7,188.8,168.5L188.8,168.5z"/>
	</g>
	<path class="st13" d="M109.8,86.5h-5.3c-0.4,0-0.7-0.3-0.7-0.7s0.3-0.7,0.7-0.7h5.3c0.4,0,0.7,0.3,0.7,0.7S110.2,86.5,109.8,86.5z
		 M99.3,86.5h-5.3c-0.4,0-0.7-0.3-0.7-0.7s0.3-0.7,0.7-0.7h5.3c0.4,0,0.7,0.3,0.7,0.7S99.7,86.5,99.3,86.5z M88.8,86.5h-5.3
		c-0.4,0-0.7-0.3-0.7-0.7s0.3-0.7,0.7-0.7h5.3c0.4,0,0.7,0.3,0.7,0.7S89.2,86.5,88.8,86.5z M78.3,86.5H73c-0.4,0-0.7-0.3-0.7-0.7
		s0.3-0.7,0.7-0.7h5.3c0.4,0,0.7,0.3,0.7,0.7S78.7,86.5,78.3,86.5z M67.8,86.5h-5.3c-0.4,0-0.7-0.3-0.7-0.7s0.3-0.7,0.7-0.7h5.3
		c0.4,0,0.7,0.3,0.7,0.7S68.2,86.5,67.8,86.5z M57.3,86.5H52c-0.4,0-0.7-0.3-0.7-0.7s0.3-0.7,0.7-0.7h5.3c0.4,0,0.7,0.3,0.7,0.7
		S57.7,86.5,57.3,86.5z M46.8,86.5h-5.3c-0.4,0-0.7-0.3-0.7-0.7s0.3-0.7,0.7-0.7h5.3c0.4,0,0.7,0.3,0.7,0.7S47.1,86.5,46.8,86.5z
		 M36.3,86.5h-0.6c-1.1,0-2.1-0.9-2.1-2.1V82c0-0.4,0.3-0.7,0.7-0.7S35,81.6,35,82v2.5c0,0.4,0.3,0.7,0.7,0.7h0.6
		c0.4,0,0.7,0.3,0.7,0.7S36.6,86.5,36.3,86.5z M111.2,82c-0.4,0-0.7-0.3-0.7-0.7v-5.3c0-0.4,0.3-0.7,0.7-0.7c0.4,0,0.7,0.3,0.7,0.7
		v5.3C111.9,81.7,111.6,82,111.2,82z M34.3,77.4c-0.4,0-0.7-0.3-0.7-0.7v-5.3c0-0.4,0.3-0.7,0.7-0.7s0.7,0.3,0.7,0.7v5.3
		C35,77.1,34.6,77.4,34.3,77.4z M111.2,71.5c-0.4,0-0.7-0.3-0.7-0.7v-5.3c0-0.4,0.3-0.7,0.7-0.7c0.4,0,0.7,0.3,0.7,0.7v5.3
		C111.9,71.2,111.6,71.5,111.2,71.5z M34.3,66.9c-0.4,0-0.7-0.3-0.7-0.7V61c0-0.4,0.3-0.7,0.7-0.7S35,60.6,35,61v5.3
		C35,66.6,34.6,66.9,34.3,66.9z M111.2,61c-0.4,0-0.7-0.3-0.7-0.7v-5.3c0-0.4,0.3-0.7,0.7-0.7c0.4,0,0.7,0.3,0.7,0.7v5.3
		C111.9,60.7,111.6,61,111.2,61z M34.3,56.4c-0.4,0-0.7-0.3-0.7-0.7v-3.1c0-1.1,0.9-2.1,2.1-2.1c0,0,0,0,0,0c0.4,0,0.7,0.3,0.7,0.7
		c0,0.4-0.3,0.7-0.7,0.7c-0.4,0-0.7,0.3-0.7,0.7v3.1C35,56.1,34.6,56.4,34.3,56.4z M109.2,51.9H104c-0.4,0-0.7-0.3-0.7-0.7
		s0.3-0.7,0.7-0.7h5.3c0.4,0,0.7,0.3,0.7,0.7S109.6,51.9,109.2,51.9z M98.7,51.9h-5.3c-0.4,0-0.7-0.3-0.7-0.7s0.3-0.7,0.7-0.7h5.3
		c0.4,0,0.7,0.3,0.7,0.7S99.1,51.9,98.7,51.9z M88.2,51.9h-5.3c-0.4,0-0.7-0.3-0.7-0.7s0.3-0.7,0.7-0.7h5.3c0.4,0,0.7,0.3,0.7,0.7
		S88.6,51.9,88.2,51.9z M77.7,51.9h-5.3c-0.4,0-0.7-0.3-0.7-0.7s0.3-0.7,0.7-0.7h5.3c0.4,0,0.7,0.3,0.7,0.7S78.1,51.9,77.7,51.9z
		 M67.2,51.9h-5.3c-0.4,0-0.7-0.3-0.7-0.7s0.3-0.7,0.7-0.7h5.3c0.4,0,0.7,0.3,0.7,0.7S67.5,51.9,67.2,51.9z M56.7,51.9h-5.3
		c-0.4,0-0.7-0.3-0.7-0.7s0.3-0.7,0.7-0.7h5.3c0.4,0,0.7,0.3,0.7,0.7S57,51.9,56.7,51.9z M46.1,51.9h-5.3c-0.4,0-0.7-0.3-0.7-0.7
		s0.3-0.7,0.7-0.7h5.3c0.4,0,0.7,0.3,0.7,0.7S46.5,51.9,46.1,51.9z"/>
	<g>
		<path class="st13" d="M118.7,94.4c2.9-5.3,9.2-17.7,8.2-25.7c-0.9-7.1-7.4-12.2-14.5-11.3s-12.2,7.4-11.3,14.5
			c1,8.1,10.1,18.5,14.2,22.9C116.3,96,118,95.7,118.7,94.4z"/>
		<path class="st14" d="M120.1,61.4c-0.5,0.7-1.4,1.3-2.6,1.8c-1.4,0.7,0.5,3,0.6,4.1c0.1,0.7-0.4,1.4-1.2,1.5
			c-0.7,0.1-1.4-0.4-1.5-1.2c-0.2-1.7,1.1-3.7-2.3-3.3c-3,0.4-6,0-7.4-1.1c0,0.4-0.1,0.7-0.1,1.1c-0.1,1.2-0.3,2.4-0.4,3.6
			c-0.1,1.3-0.2,2.6-0.2,4c0,0.8-0.1,1.8,0,2.6c0.2,1.2,1.7,2,2.8,2.4c2.1,0.8,4.7,0.8,7,0.6c2.2-0.3,4.7-1,6.6-2.2
			c0.9-0.6,2.3-1.8,2.1-3c-0.1-0.8-0.4-1.8-0.6-2.6c-0.4-1.3-0.8-2.5-1.2-3.8c-0.4-1.1-0.8-2.2-1.2-3.4
			C120.4,62.2,120.2,61.8,120.1,61.4L120.1,61.4z"/>
	</g>
</g>
</svg>
