<?xml version="1.0" encoding="utf-8"?>
<!-- Generator: Adobe Illustrator 19.1.0, SVG Export Plug-In . SVG Version: 6.00 Build 0)  -->
<svg version="1.1" id="Layer_1" xmlns="http://www.w3.org/2000/svg" xmlns:xlink="http://www.w3.org/1999/xlink" x="0px" y="0px"
	 viewBox="0 0 264 256" style="enable-background:new 0 0 264 256;" xml:space="preserve">
<style type="text/css">
	.st0{fill:#F8F8F9;}
	.st1{fill:#999999;}
	.st2{fill:#F1F0F0;}
	.st3{clip-path:url(#SVGID_2_);}
	.st4{fill:#6BAFD1;}
	.st5{fill:#AAA89F;}
	.st6{clip-path:url(#SVGID_2_);fill:#6BAFD1;}
	.st7{fill:#E6E7E8;}
	.st8{fill:url(#SVGID_3_);}
	.st9{fill:#27AAE1;}
	.st10{fill:#FFFFFF;}
</style>
<g>
	<circle class="st0" cx="132" cy="128" r="84.3"/>
	<path class="st1" d="M205.6,181.8c0.4,0.8,0,1.3-0.9,1.1l-37.5-8.9c-0.9-0.2-2.2,0-2.9,0.5l-12.3,7.9c-0.7,0.5-2.1,0.9-3,0.9H60.5
		c-0.9,0-1.4-0.7-1.1-1.5l20.6-52.6c0.3-0.8,1.3-1.5,2.1-1.5H134c0.9,0,2.2-0.4,2.9-1l9.8-7.7c0.7-0.5,1.9-0.8,2.8-0.5l26.1,8.7
		c0.8,0.3,1.8,1.2,2.2,2L205.6,181.8z"/>
	<g>
		<g>
			<path class="st1" d="M205.6,180.8c0.4,0.8,0,1.3-0.9,1.1l-37.5-8.9c-0.9-0.2-2.2,0-2.9,0.5l-12.3,7.9c-0.7,0.5-2.1,0.9-3,0.9
				H60.5c-0.9,0-1.4-0.7-1.1-1.5l20.6-52.6c0.3-0.8,1.3-1.5,2.1-1.5H134c0.9,0,2.2-0.4,2.9-1l9.8-7.7c0.7-0.5,1.9-0.8,2.8-0.5
				l26.1,8.7c0.8,0.3,1.8,1.2,2.2,2L205.6,180.8z"/>
			<path class="st2" d="M201.1,176.4c0.3,0.7,0,1.2-0.8,1l-34-8.1c-0.8-0.2-2,0-2.6,0.5l-11.1,7.2c-0.7,0.4-1.9,0.8-2.7,0.8H65
				c-0.8,0-1.2-0.6-1-1.4l18.6-47.1c0.3-0.8,1.1-1.4,1.9-1.4h51.7c0.8,0,2-0.4,2.6-0.9l8.9-7c0.6-0.5,1.8-0.7,2.5-0.4l23.7,7.8
				c0.8,0.3,1.7,1,2,1.8L201.1,176.4z"/>
			<g>
				<defs>
					<path id="SVGID_1_" d="M201,176.4c0.3,0.7,0,1.2-0.8,1l-34-8.1c-0.8-0.2-2,0-2.6,0.5l-11.1,7.2c-0.7,0.4-1.9,0.8-2.7,0.8H65
						c-0.8,0-1.2-0.6-1-1.4l18.6-47.1c0.3-0.8,1.1-1.4,1.9-1.4h51.7c0.8,0,2-0.4,2.6-0.9l8.9-7c0.6-0.5,1.8-0.7,2.5-0.4l23.7,7.8
						c0.8,0.3,1.7,1,2,1.8L201,176.4z"/>
				</defs>
				<clipPath id="SVGID_2_">
					<use xlink:href="#SVGID_1_"  style="overflow:visible;"/>
				</clipPath>
				<g class="st3">
					<path class="st4" d="M152.5,176.7l5.5-3.6c-4.5-6.2-13.7-17.6-42.6-21.3c-16.9-2.1-34.6-0.3-42,1.2l-2.5,5.5
						c11.2-3.2,35.8-3.7,46.3-0.5c18.2,5.5,26.1,15.3,28.8,19.4h3.9C150.6,177.5,151.8,177.2,152.5,176.7z"/>
				</g>
				<g class="st3">
					
						<rect x="97.3" y="135" transform="matrix(0.9931 0.1171 -0.1171 0.9931 17.0071 -10.4952)" class="st1" width="1.1" height="9"/>
					<path class="st5" d="M97.8,144.2l-1.1-0.1l1.1-9.1l0.1,0l1.1,0.1L97.8,144.2L97.8,144.2L97.8,144.2L97.8,144.2z M97.8,144.1
						L97.8,144.1L97.8,144.1L97.8,144.1z M96.9,143.9l0.9,0.1l1.1-8.8l-0.9-0.1L96.9,143.9L96.9,143.9z"/>
				</g>
				<g class="st3">
					<polygon class="st1" points="125.4,139.2 110,139.2 110,138.1 125.1,138.1 130.7,134.2 131.3,135.1 					"/>
					<path class="st5" d="M109.9,139.3L109.9,139.3v-1.2l15.1,0l5.7-4l0.7,1l-5.9,4.1l0-0.1v0.1H109.9L109.9,139.3z M110.1,139.1
						h15.3l5.8-4l-0.5-0.7l-5.6,3.9h-15V139.1L110.1,139.1z"/>
				</g>
				<g class="st3">
					<path class="st1" d="M153.6,150.4c0,0-0.1,0-0.1,0l-11.5-2.5l-67.3-0.4c-0.3,0-0.5-0.2-0.5-0.5c0-0.3,0.2-0.5,0.5-0.5h0
						l67.4,0.4c0,0,0.1,0,0.1,0l11.3,2.4l3.5-4.2c0.1-0.1,0.3-0.2,0.5-0.2l7.2,1.1l-2.2-6.5c-0.1-0.3,0.1-0.6,0.3-0.7
						c0.3-0.1,0.6,0.1,0.7,0.3l2.4,7.4c0.1,0.2,0,0.4-0.1,0.5c-0.1,0.1-0.3,0.2-0.5,0.2l-7.7-1.2l-3.5,4.2
						C153.9,150.4,153.7,150.4,153.6,150.4z"/>
					<path class="st5" d="M153.4,150.5l-11.5-2.5l-67.3-0.4c-0.3,0-0.6-0.3-0.6-0.6l0,0h0v0h0c0,0,0,0,0,0l0,0h0
						c0-0.3,0.3-0.6,0.6-0.6l0,0h0l67.4,0.4c0,0,0.1,0,0.1,0l0,0l11.2,2.4l3.5-4.2c0.1-0.1,0.3-0.2,0.5-0.2l0,0c0,0,0.1,0,0.1,0l0,0
						l7,1.1l-2.1-6.4c0-0.1,0-0.1,0-0.2l0,0c0-0.3,0.2-0.5,0.4-0.6l0,0c0.1,0,0.1,0,0.2,0l0,0c0.3,0,0.5,0.2,0.6,0.4l0,0l2.4,7.4
						c0,0.1,0,0.1,0,0.2l0,0c0,0.1-0.1,0.3-0.1,0.4l0,0c-0.1,0.1-0.3,0.2-0.5,0.2l0,0c0,0-0.1,0-0.1,0l0,0l-7.7-1.2l-3.5,4.2
						c-0.1,0.1-0.3,0.2-0.5,0.2l0,0v-0.1v-0.1c0.1,0,0.3-0.1,0.3-0.2l0,0l3.5-4.2l0.1,0l7.7,1.2c0,0,0,0,0.1,0l0,0
						c0.1,0,0.3-0.1,0.3-0.2l0,0c0.1-0.1,0.1-0.2,0.1-0.3l0,0c0,0,0-0.1,0-0.1l0,0l-2.4-7.4c-0.1-0.2-0.2-0.3-0.4-0.3l0,0
						c0,0-0.1,0-0.1,0l0,0c-0.2,0.1-0.3,0.2-0.3,0.4l0,0c0,0,0,0.1,0,0.1l0,0l2.2,6.5c0,0,0,0.1,0,0.1l0,0c0,0,0,0-0.1,0l0,0
						l-7.2-1.1c0,0,0,0-0.1,0l0,0c-0.1,0-0.3,0.1-0.3,0.2l0,0l-3.5,4.2l-0.1,0l-11.3-2.4c0,0-0.1,0-0.1,0l0,0l-67.4-0.4h0
						c-0.3,0-0.5,0.2-0.5,0.5l0,0c0,0,0,0,0,0l0,0v0c0,0,0,0,0,0l0,0c0,0,0,0,0,0l0,0c0,0,0,0,0,0l0,0c0,0.2,0.2,0.4,0.5,0.4l0,0
						l67.3,0.4l11.5,2.5c0,0,0.1,0,0.1,0l0,0v0.1v0.1C153.5,150.5,153.5,150.5,153.4,150.5L153.4,150.5z M74.1,147.1
						C74.1,147.1,74,147.1,74.1,147.1L74.1,147.1L74.1,147.1C74,147.1,74.1,147.1,74.1,147.1L74.1,147.1z M74.1,147.1L74.1,147.1
						C74.1,147,74.1,147,74.1,147.1L74.1,147.1C74.1,147,74.1,147.1,74.1,147.1L74.1,147.1C74.1,147.1,74.1,147.1,74.1,147.1
						L74.1,147.1z"/>
				</g>
				<path class="st6" d="M121.2,151c13.4,1.1,21.5,6.4,21.5,6.4s-1.8-7.8-2.3-7.9c-1.6-0.2-19.5-0.3-19.5-0.3L121.2,151z"/>
				<path class="st6" d="M72.5,160.9l-2.4,6.2c0,0,7.2-4.2,16.3-4.5c13.5-0.4,33.2,3.7,39.5,0.9c-8.2-4.2-16.2-5.6-26-5.8
					C81.1,157.5,72.5,160.9,72.5,160.9z"/>
				<g class="st3">
					<path class="st7" d="M154.1,135.4l-4,2.2l1.1-11.5l32.9,8.9c0.3,0.1,0.6-0.1,0.7-0.4c0.1-0.3-0.1-0.6-0.4-0.7l-33.5-9.1
						c-0.2,0-0.3,0-0.4,0.1c-0.1,0.1-0.2,0.2-0.2,0.4l-1.2,12.8l-0.1,0h-8.5l-8.2-6.4l-1.1-4.8l-2.1,0.5l0.6,2.9l-16-0.1h0
						c-0.2,0-0.3,0.1-0.4,0.2l-2.7,2.9l0.4-6.4l-2.1-0.1l-0.5,7.6h-18l2-6.8l-2.1-0.6l-4.7,15.9H75.1v2.1h66l13.2-7.4l34.3,9
						l0.5-2.1L154.1,135.4z M113.9,131.4l16,0.1l2.6,11.5H110l0.5-7.8L113.9,131.4z M90,135.5h18.3l-0.5,7.5h-20L90,135.5z
						 M140.6,142.9h-6l-2.1-9.4l7.3,5.8c0.1,0.1,0.2,0.1,0.3,0.1h6.8L140.6,142.9z"/>
					<path class="st7" d="M154.4,137.7l-13.3,7.4h-66l-0.1-0.1v-2.1l0.1-0.1h10.4l4.7-15.9l0.1-0.1l2.1,0.6l0.1,0.1l-2,6.7h17.8
						l0.5-7.5l0.1-0.1l2.1,0.1l0.1,0.1l-0.4,6.2l2.5-2.8c0.1-0.1,0.3-0.2,0.5-0.2l0,0h0l15.9,0.1l-0.6-2.8l0.1-0.1l2.1-0.5l0.1,0.1
						l1.1,4.8l8.2,6.4l8.5,0l0,0l1.2-12.8c0-0.2,0.1-0.3,0.3-0.4l0,0c0.1-0.1,0.2-0.1,0.4-0.1l0,0c0.1,0,0.1,0,0.2,0l0,0l33.5,9.1
						c0.3,0.1,0.5,0.3,0.5,0.6l0,0c0,0.1,0,0.1,0,0.2l0,0c-0.1,0.3-0.3,0.5-0.6,0.5l0,0c-0.1,0-0.1,0-0.2,0l0,0l-32.8-8.9l-1,11.2
						l3.9-2.2l0,0.1l0-0.1l35.2,9.2l0.1,0.1l-0.5,2.1l-0.1,0.1L154.4,137.7L154.4,137.7z M188.7,146.6l0.5-1.9l-35.1-9.2l-4,2.2
						c0,0-0.1,0-0.1,0l0,0c0,0,0,0,0-0.1l0,0l1.1-11.5c0,0,0,0,0-0.1l0,0c0,0,0,0,0.1,0l0,0l32.9,8.9c0,0,0.1,0,0.1,0l0,0
						c0.2,0,0.4-0.1,0.4-0.3l0,0c0,0,0-0.1,0-0.1l0,0c0-0.2-0.1-0.4-0.3-0.4l0,0l-33.5-9.1c0,0-0.1,0-0.1,0l0,0
						c-0.1,0-0.2,0-0.3,0.1l0,0c-0.1,0.1-0.2,0.2-0.2,0.3l0,0l-1.2,12.8l0,0.1l-0.1,0.1l-8.6,0l-8.2-6.5l-1.1-4.8l-1.9,0.4l0.6,2.8
						c0,0,0,0,0,0.1l0,0c0,0,0,0-0.1,0l0,0l-16-0.1h0c-0.1,0-0.3,0.1-0.3,0.1l0,0l-2.7,2.9c0,0-0.1,0-0.1,0l0,0c0,0-0.1,0,0-0.1l0,0
						l0.4-6.4l-2-0.1l-0.5,7.5l-0.1,0.1h-18c0,0,0,0-0.1,0l0,0c0,0,0,0,0-0.1l0,0l2-6.7l-1.9-0.6L85.6,143l-0.1,0.1H75.2v2l65.9,0
						l13.3-7.4L188.7,146.6L188.7,146.6z M134.6,143L134.6,143l-2.2-9.5c0,0,0-0.1,0-0.1l0,0c0,0,0.1,0,0.1,0l0,0l7.3,5.8
						c0.1,0.1,0.2,0.1,0.3,0.1l0,0h6.8c0,0,0.1,0,0.1,0.1l0,0c0,0,0,0.1,0,0.1l0,0l-6.4,3.6l0-0.1v0.1H134.6L134.6,143z
						 M134.7,142.9h5.9l6.1-3.4h-6.5c-0.1,0-0.3,0-0.4-0.1l0,0l-7.2-5.6L134.7,142.9L134.7,142.9z M110,143
						C109.9,143,109.9,143,110,143L110,143C109.9,143,109.9,143,110,143L110,143l0.4-8l3.4-3.7l0.1,0.1v-0.1l16,0.1l0.1,0.1
						l2.6,11.5c0,0,0,0,0,0.1l0,0c0,0,0,0-0.1,0l0,0H110L110,143z M110.5,135.1l-0.5,7.8h22.3l-2.5-11.3l-15.9-0.1L110.5,135.1
						L110.5,135.1z M87.8,143C87.8,143,87.7,143,87.8,143L87.8,143c-0.1-0.1-0.1-0.1-0.1-0.1l0,0l2.2-7.5l0.1-0.1h18.3
						c0,0,0,0,0.1,0l0,0c0,0,0,0,0,0.1l0,0l-0.5,7.5l-0.1,0.1H87.8L87.8,143z M87.9,142.9h19.8l0.5-7.3H90.1L87.9,142.9L87.9,142.9z
						"/>
				</g>
				<polygon class="st6" points="155.9,134.1 154.1,128.4 165.5,131.5 167.9,137.3 				"/>
				<polygon class="st6" points="169.5,137.8 167.1,132.2 176.1,134.3 179.7,140.7 				"/>
				<polygon class="st6" points="166.6,142.2 169.1,149.3 185.5,153.8 182,146.5 				"/>
				<g class="st3">
					<path class="st1" d="M190.6,167.9l-2.1-5.9c-0.1-0.1-0.2-0.2-0.3-0.3l-5.9-2.6l-1.5-3.2c-0.1-0.3-0.4-0.4-0.7-0.3
						c-0.3,0.1-0.4,0.4-0.3,0.7l1.6,3.4c0.1,0.1,0.1,0.2,0.3,0.3l5.9,2.6l0.3,0.8l-17.2-4.9c-0.3-0.1-0.6,0.1-0.7,0.4
						c-0.1,0.3,0.1,0.6,0.4,0.7l17.8,5.1c0,0,0.1,0,0.1,0l1.3,3.7c0.1,0.2,0.3,0.4,0.5,0.4c0.1,0,0.1,0,0.2,0
						C190.6,168.5,190.7,168.2,190.6,167.9z"/>
					<path class="st5" d="M189.5,168.3l-1.3-3.6c0,0-0.1,0-0.1,0l0,0l-17.8-5.1c-0.3-0.1-0.4-0.3-0.4-0.6l0,0c0-0.1,0-0.1,0-0.2l0,0
						c0.1-0.3,0.3-0.4,0.6-0.4l0,0c0.1,0,0.1,0,0.2,0l0,0l17,4.9l-0.2-0.6l-5.9-2.6c-0.1-0.1-0.2-0.2-0.3-0.3l0,0l-1.6-3.4
						c0-0.1-0.1-0.2-0.1-0.3l0,0c0-0.2,0.1-0.5,0.4-0.6l0,0c0.1,0,0.2-0.1,0.3-0.1l0,0c0.2,0,0.5,0.1,0.6,0.4l0,0l1.5,3.2l5.9,2.6
						c0.2,0.1,0.3,0.2,0.3,0.3l0,0l2.1,5.9l-0.1,0l0.1,0c0,0.1,0,0.1,0,0.2l0,0c0,0.2-0.2,0.5-0.4,0.6l0,0c-0.1,0-0.1,0-0.2,0l0,0
						C189.8,168.7,189.6,168.5,189.5,168.3L189.5,168.3z M170,158.9c0,0,0,0.1,0,0.1l0,0c0,0.2,0.1,0.4,0.3,0.4l0,0l17.8,5.1
						c0,0,0.1,0,0.1,0l0,0l0.1,0.1l1.3,3.7c0.1,0.2,0.2,0.3,0.4,0.3l0,0c0.1,0,0.1,0,0.2,0l0,0c0.2-0.1,0.3-0.2,0.3-0.4l0,0
						c0-0.1,0-0.1,0-0.2l0,0l0,0l-2.1-5.9c0-0.1-0.1-0.2-0.2-0.3l0,0l-5.9-2.6l-1.5-3.2c-0.1-0.2-0.2-0.3-0.4-0.3l0,0
						c-0.1,0-0.1,0-0.2,0l0,0c-0.2,0.1-0.3,0.2-0.3,0.4l0,0c0,0.1,0,0.1,0,0.2l0,0l1.6,3.4c0,0.1,0.1,0.2,0.2,0.2l0,0l5.9,2.6
						l0.3,0.8c0,0,0,0.1,0,0.1l0,0c0,0-0.1,0-0.1,0l0,0l-17.2-4.9c0,0-0.1,0-0.1,0l0,0C170.3,158.5,170.1,158.7,170,158.9L170,158.9
						z"/>
				</g>
				<g class="st3">
					<path class="st1" d="M192.3,169.2c-0.2,0-0.4-0.1-0.5-0.3l-1.9-4.7c-0.1-0.2,0-0.4,0.1-0.6l1.3-1.3l-1-2.7
						c-0.1-0.3,0-0.6,0.3-0.7c0.3-0.1,0.6,0,0.7,0.3l1.2,3c0.1,0.2,0,0.4-0.1,0.6l-1.3,1.3l1.7,4.4c0.1,0.3,0,0.6-0.3,0.7
						C192.4,169.1,192.4,169.2,192.3,169.2z"/>
					<path class="st5" d="M191.7,168.8l-1.9-4.7c0-0.1,0-0.2,0-0.2l0,0c0-0.2,0.1-0.3,0.2-0.4l0,0l1.3-1.2l-1-2.6c0-0.1,0-0.1,0-0.2
						l0,0c0-0.2,0.1-0.5,0.4-0.6l0,0c0.1,0,0.1,0,0.2,0l0,0c0.2,0,0.5,0.1,0.6,0.4l0,0l1.2,3c0,0.1,0,0.1,0,0.2l0,0
						c0,0.2-0.1,0.3-0.2,0.4l0,0l-1.3,1.2l1.7,4.3c0,0.1,0,0.2,0,0.2l0,0c0,0.2-0.2,0.5-0.4,0.6l0,0c-0.1,0-0.2,0-0.2,0l0,0v-0.1
						v-0.1c0.1,0,0.1,0,0.2,0l0,0c0.2-0.1,0.3-0.2,0.3-0.4l0,0c0-0.1,0-0.1,0-0.2l0,0l-1.7-4.4l0-0.1l1.3-1.3
						c0.1-0.1,0.1-0.2,0.1-0.3l0,0c0-0.1,0-0.1,0-0.2l0,0l-1.2-3c-0.1-0.2-0.2-0.3-0.4-0.3l0,0c0,0-0.1,0-0.2,0l0,0
						c-0.2,0.1-0.3,0.2-0.3,0.4l0,0c0,0.1,0,0.1,0,0.2l0,0l1,2.7l0,0.1l-1.3,1.3c-0.1,0.1-0.1,0.2-0.1,0.3l0,0c0,0.1,0,0.1,0,0.2
						l0,0l1.9,4.7c0.1,0.2,0.2,0.3,0.4,0.3l0,0v0.1v0.1C192.1,169.2,191.8,169.1,191.7,168.8L191.7,168.8z"/>
				</g>
				<g class="st3">
					<path class="st1" d="M203.7,175c-0.1,0-0.1,0-0.1,0l-7.9-2.3l-3.6,0.9c-0.1,0-0.2,0-0.3,0l-18.7-4.8c-0.3-0.1-0.5-0.4-0.4-0.6
						c0.1-0.3,0.4-0.5,0.7-0.4l18.6,4.8l3.6-0.9c0.1,0,0.2,0,0.3,0l8,2.3c0.3,0.1,0.4,0.4,0.4,0.7C204.1,174.9,203.9,175,203.7,175z
						"/>
					<path class="st5" d="M203.5,175.1l-7.8-2.3l-3.6,0.9c0,0-0.1,0-0.1,0l0,0c-0.1,0-0.1,0-0.2,0l0,0l-18.7-4.8
						c-0.3-0.1-0.5-0.3-0.5-0.6l0,0c0,0,0-0.1,0-0.2l0,0c0.1-0.3,0.3-0.5,0.6-0.5l0,0c0,0,0.1,0,0.2,0l0,0l18.6,4.8l3.6-0.9
						c0,0,0.1,0,0.1,0l0,0c0.1,0,0.1,0,0.2,0l0,0l8,2.3c0.3,0.1,0.4,0.3,0.4,0.6l0,0c0,0.1,0,0.1,0,0.2l0,0
						c-0.1,0.3-0.3,0.4-0.6,0.4l0,0V175V175c0.2,0,0.4-0.1,0.4-0.3l0,0c0,0,0-0.1,0-0.1l0,0c0-0.2-0.1-0.4-0.3-0.4l0,0l-8-2.3
						c0,0-0.1,0-0.1,0l0,0c0,0-0.1,0-0.1,0l0,0l-3.7,0.9l-18.6-4.8c0,0-0.1,0-0.1,0l0,0c-0.2,0-0.4,0.1-0.4,0.3l0,0c0,0,0,0.1,0,0.1
						l0,0c0,0.2,0.1,0.4,0.3,0.4l0,0l18.7,4.8c0,0,0.1,0,0.1,0l0,0c0,0,0.1,0,0.1,0l0,0l3.6-0.9l7.9,2.3c0,0,0.1,0,0.1,0l0,0v0.1
						v0.1C203.6,175.1,203.5,175.1,203.5,175.1L203.5,175.1z"/>
				</g>
				<g class="st3">
					<path class="st7" d="M202.5,170.8l-30.8-8.6l0,0l-3-8.8c9,2.6,21.5,6.7,27.5,8.7l0.7-2c-3.4-1.1-33-11.1-37.8-11.1
						c-0.7,0-2.5,0-13.8,10.6c-8.8,8.2-32.8,7.7-45.7,6.1c-13.4-1.7-28.8,1.8-40,9l1.2,1.8c10.8-7,25.6-10.3,38.6-8.7
						c13.2,1.6,38,2.1,47.4-6.7c10.1-9.5,12.2-10,12.3-10c1,0,3.7,0.6,7.1,1.6l7.2,21.4l2-0.7l-2.9-8.8l29.5,8.2L202.5,170.8z"/>
					<path class="st7" d="M60.7,176.5l-1.2-1.8l0-0.1c9.4-6,21.6-9.4,33.2-9.4l0,0c2.3,0,4.6,0.1,6.9,0.4l0,0c4.3,0.5,9.9,1,15.7,1
						l0,0c11.5,0,24.1-1.6,29.9-7.1l0,0c11.3-10.6,13.1-10.6,13.9-10.6l0,0c4.8,0,34.4,10,37.8,11.1l0,0l0.1,0.1l-0.7,2l-0.1,0.1
						c-5.9-2-18.4-6.1-27.3-8.7l0,0l2.9,8.6l30.8,8.5l0,0.1l0-0.1l0.1,0.1l-0.6,2.1l-0.1,0.1l-29.3-8.1l2.9,8.6l0,0.1l-2,0.7
						l-0.1-0.1l-7.1-21.4c-3.4-1-6.1-1.6-7.1-1.6l0,0c-0.1,0-2.2,0.5-12.3,10l0,0c-6.3,5.9-19.6,7.7-31.7,7.7l0,0
						c-5.9,0-11.4-0.4-15.8-1l0,0c-2.2-0.3-4.4-0.4-6.6-0.4l0,0c-11.1,0-22.9,3.3-31.9,9.1l0,0L60.7,176.5L60.7,176.5z M60.8,176.4
						c9-5.8,20.8-9,31.9-9l0,0c2.3,0,4.5,0.1,6.7,0.4l0,0c4.3,0.5,9.9,0.9,15.7,0.9l0,0c12,0,25.3-1.7,31.6-7.6l0,0
						c10.1-9.5,12.2-10,12.4-10l0,0c1.1,0,3.7,0.6,7.2,1.6l0,0l7.2,21.3l1.9-0.6l-2.9-8.7c0,0,0-0.1,0-0.1l0,0c0,0,0,0,0.1,0l0,0
						l29.4,8.1l0.5-1.9l-30.7-8.5c0,0,0,0,0,0l0,0c0,0-0.1,0-0.1-0.1l0,0l-3-8.8c0,0,0-0.1,0-0.1l0,0c0,0,0,0,0.1,0l0,0
						c8.9,2.6,21.4,6.7,27.4,8.7l0,0l0.6-1.9c-3.7-1.2-33-11.1-37.7-11.1l0,0c-0.6,0-2.5,0-13.7,10.6l0,0c-5.9,5.5-18.4,7.1-30,7.1
						l0,0c-5.9,0-11.4-0.4-15.8-1l0,0c-2.3-0.3-4.6-0.4-6.9-0.4l0,0c-11.5,0-23.7,3.4-33,9.3l0,0L60.8,176.4L60.8,176.4z"/>
				</g>
			</g>
			<g>
				<linearGradient id="SVGID_3_" gradientUnits="userSpaceOnUse" x1="156.0597" y1="147.0156" x2="128.5423" y2="157.0311">
					<stop  offset="0" style="stop-color:#B5B6B6"/>
					<stop  offset="0.1611" style="stop-color:#C3C2C2"/>
					<stop  offset="0.5219" style="stop-color:#DDDDDD"/>
					<stop  offset="0.7273" style="stop-color:#E8E8E8"/>
					<stop  offset="0.9515" style="stop-color:#DFDFDE"/>
					<stop  offset="0.9809" style="stop-color:#E5E4E4"/>
					<stop  offset="1" style="stop-color:#ECECEB"/>
				</linearGradient>
				<path class="st8" d="M164.8,173.2c0.4-0.2,0.9-0.4,1.4-0.5l-18-55.4c-0.5,0.1-1.1,0.2-1.5,0.5l-8.9,7c-0.3,0.2-1.2,0.9-1.6,1.1
					l15.4,55.2c0.7-0.1,1.5-0.4,2-0.7L164.8,173.2z"/>
			</g>
		</g>
	</g>
	<path class="st9" d="M186.5,111.7h-5.3c-0.4,0-0.7-0.3-0.7-0.7c0-0.4,0.3-0.7,0.7-0.7h5.3c0.4,0,0.7,0.3,0.7,0.7
		C187.2,111.4,186.9,111.7,186.5,111.7z M175.9,111.7h-5.3c-0.4,0-0.7-0.3-0.7-0.7c0-0.4,0.3-0.7,0.7-0.7h5.3c0.4,0,0.7,0.3,0.7,0.7
		C176.6,111.4,176.3,111.7,175.9,111.7z M165.4,111.7h-5.3c-0.4,0-0.7-0.3-0.7-0.7c0-0.4,0.3-0.7,0.7-0.7h5.3c0.4,0,0.7,0.3,0.7,0.7
		C166.1,111.4,165.8,111.7,165.4,111.7z M154.9,111.7h-5.3c-0.4,0-0.7-0.3-0.7-0.7c0-0.4,0.3-0.7,0.7-0.7h5.3c0.4,0,0.7,0.3,0.7,0.7
		C155.6,111.4,155.3,111.7,154.9,111.7z M144.4,111.7h-5.3c-0.4,0-0.7-0.3-0.7-0.7c0-0.4,0.3-0.7,0.7-0.7h5.3c0.4,0,0.7,0.3,0.7,0.7
		C145.1,111.4,144.8,111.7,144.4,111.7z M133.9,111.7h-5.3c-0.4,0-0.7-0.3-0.7-0.7c0-0.4,0.3-0.7,0.7-0.7h5.3c0.4,0,0.7,0.3,0.7,0.7
		C134.6,111.4,134.3,111.7,133.9,111.7z M123.4,111.7h-5.3c-0.4,0-0.7-0.3-0.7-0.7c0-0.4,0.3-0.7,0.7-0.7h5.3c0.4,0,0.7,0.3,0.7,0.7
		C124.1,111.4,123.8,111.7,123.4,111.7z M112.9,111.7h-0.6c-1.1,0-2.1-0.9-2.1-2.1v-2.5c0-0.4,0.3-0.7,0.7-0.7
		c0.4,0,0.7,0.3,0.7,0.7v2.5c0,0.4,0.3,0.7,0.7,0.7h0.6c0.4,0,0.7,0.3,0.7,0.7C113.6,111.4,113.3,111.7,112.9,111.7z M187.8,107.3
		c-0.4,0-0.7-0.3-0.7-0.7v-5.3c0-0.4,0.3-0.7,0.7-0.7s0.7,0.3,0.7,0.7v5.3C188.5,106.9,188.2,107.3,187.8,107.3z M110.9,102.6
		c-0.4,0-0.7-0.3-0.7-0.7v-5.3c0-0.4,0.3-0.7,0.7-0.7c0.4,0,0.7,0.3,0.7,0.7v5.3C111.6,102.3,111.3,102.6,110.9,102.6z M187.8,96.7
		c-0.4,0-0.7-0.3-0.7-0.7v-5.3c0-0.4,0.3-0.7,0.7-0.7s0.7,0.3,0.7,0.7v5.3C188.5,96.4,188.2,96.7,187.8,96.7z M110.9,92.1
		c-0.4,0-0.7-0.3-0.7-0.7v-5.3c0-0.4,0.3-0.7,0.7-0.7c0.4,0,0.7,0.3,0.7,0.7v5.3C111.6,91.8,111.3,92.1,110.9,92.1z M187.8,86.2
		c-0.4,0-0.7-0.3-0.7-0.7v-5.3c0-0.4,0.3-0.7,0.7-0.7s0.7,0.3,0.7,0.7v5.3C188.5,85.9,188.2,86.2,187.8,86.2z M110.9,81.6
		c-0.4,0-0.7-0.3-0.7-0.7v-3.1c0-1.1,0.9-2.1,2.1-2.1c0,0,0,0,0,0c0.4,0,0.7,0.3,0.7,0.7c0,0.4-0.3,0.7-0.7,0.7
		c-0.4,0-0.7,0.3-0.7,0.7v3.1C111.6,81.3,111.3,81.6,110.9,81.6z M185.8,77.1h-5.3c-0.4,0-0.7-0.3-0.7-0.7s0.3-0.7,0.7-0.7h5.3
		c0.4,0,0.7,0.3,0.7,0.7S186.2,77.1,185.8,77.1z M175.3,77.1h-5.3c-0.4,0-0.7-0.3-0.7-0.7s0.3-0.7,0.7-0.7h5.3
		c0.4,0,0.7,0.3,0.7,0.7S175.7,77.1,175.3,77.1z M164.8,77.1h-5.3c-0.4,0-0.7-0.3-0.7-0.7s0.3-0.7,0.7-0.7h5.3
		c0.4,0,0.7,0.3,0.7,0.7S165.2,77.1,164.8,77.1z M154.3,77.1h-5.3c-0.4,0-0.7-0.3-0.7-0.7s0.3-0.7,0.7-0.7h5.3
		c0.4,0,0.7,0.3,0.7,0.7S154.7,77.1,154.3,77.1z M143.8,77.1h-5.3c-0.4,0-0.7-0.3-0.7-0.7s0.3-0.7,0.7-0.7h5.3
		c0.4,0,0.7,0.3,0.7,0.7S144.2,77.1,143.8,77.1z M133.3,77.1H128c-0.4,0-0.7-0.3-0.7-0.7s0.3-0.7,0.7-0.7h5.3c0.4,0,0.7,0.3,0.7,0.7
		S133.7,77.1,133.3,77.1z M122.8,77.1h-5.3c-0.4,0-0.7-0.3-0.7-0.7s0.3-0.7,0.7-0.7h5.3c0.4,0,0.7,0.3,0.7,0.7
		S123.2,77.1,122.8,77.1z"/>
	<g>
		<path class="st9" d="M100.7,140.1c4.9-8.8,15.3-29.4,13.6-42.7c-1.5-11.8-12.3-20.3-24.2-18.8C78.3,80,69.9,90.8,71.3,102.7
			c1.7,13.4,16.7,30.8,23.6,38.1C96.6,142.6,99.5,142.3,100.7,140.1z"/>
		<path class="st10" d="M103,85.3c-0.9,1.1-2.4,2.1-4.2,3c-2.3,1.1,0.8,5,1,6.7c0.2,1.2-0.7,2.4-2,2.5c-1.2,0.2-2.4-0.7-2.5-2
			c-0.4-2.9,1.9-6.1-3.7-5.4c-5,0.6-10,0-12.3-1.9c-0.1,0.6-0.2,1.2-0.2,1.8c-0.2,2-0.4,3.9-0.6,5.9c-0.2,2.2-0.3,4.4-0.4,6.6
			c0,1.4-0.1,3,0,4.4c0.3,2.1,2.9,3.4,4.6,4c3.6,1.3,7.9,1.4,11.6,0.9c3.7-0.5,7.8-1.6,11-3.7c1.5-1,3.7-2.9,3.5-5
			c-0.2-1.4-0.6-2.9-1-4.3c-0.6-2.1-1.3-4.2-2-6.3c-0.6-1.9-1.3-3.7-2-5.6C103.5,86.4,103.3,85.9,103,85.3L103,85.3z"/>
	</g>
</g>
</svg>
