<svg width="512" height="512" viewBox="0 0 512 512" fill="none" xmlns="http://www.w3.org/2000/svg">
<path d="M256 424.6C346.294 424.6 419.491 349.115 419.491 256C419.491 162.885 346.294 87.4 256 87.4C165.706 87.4 92.5091 162.885 92.5091 256C92.5091 349.115 165.706 424.6 256 424.6Z" fill="#F8F8F9"/>
<path d="M398.739 363.6C399.515 365.2 398.739 366.2 396.994 365.8L324.267 348C322.521 347.6 320 348 318.642 349L294.788 364.8C293.43 365.8 290.715 366.6 288.97 366.6H117.333C115.588 366.6 114.618 365.2 115.2 363.6L155.152 258.4C155.733 256.8 157.673 255.4 159.224 255.4H259.879C261.624 255.4 264.145 254.6 265.503 253.4L284.509 238C285.867 237 288.194 236.4 289.939 237L340.558 254.4C342.109 255 344.049 256.8 344.824 258.4L398.739 363.6Z" fill="#999999"/>
<path d="M398.739 361.6C399.515 363.2 398.739 364.2 396.994 363.8L324.267 346C322.521 345.6 320 346 318.642 347L294.788 362.8C293.43 363.8 290.715 364.6 288.97 364.6H117.333C115.588 364.6 114.618 363.2 115.2 361.6L155.152 256.4C155.733 254.8 157.673 253.4 159.224 253.4H259.879C261.624 253.4 264.145 252.6 265.503 251.4L284.509 236C285.867 235 288.194 234.4 289.939 235L340.558 252.4C342.109 253 344.049 254.8 344.824 256.4L398.739 361.6Z" fill="#999999"/>
<path d="M390.012 352.8C390.594 354.2 390.012 355.2 388.461 354.8L322.521 338.6C320.97 338.2 318.642 338.6 317.479 339.6L295.952 354C294.594 354.8 292.267 355.6 290.715 355.6H126.061C124.509 355.6 123.733 354.4 124.121 352.8L160.194 258.6C160.776 257 162.327 255.8 163.879 255.8H264.145C265.697 255.8 268.024 255 269.188 254L286.448 240C287.612 239 289.939 238.6 291.297 239.2L337.261 254.8C338.812 255.4 340.558 256.8 341.139 258.4L390.012 352.8Z" fill="#F1F0F0"/>
<path d="M295.758 353.4L306.424 346.2C297.697 333.8 279.855 311 223.806 303.6C191.03 299.4 156.703 303 142.352 306L137.503 317C159.224 310.6 206.933 309.6 227.297 316C262.594 327 277.915 346.6 283.152 354.8H290.715C292.073 355 294.4 354.4 295.758 353.4Z" fill="#6BAFD1"/>
<path d="M191.844 270.192L189.726 269.934L187.682 287.81L189.8 288.068L191.844 270.192Z" fill="#999999"/>
<path d="M189.673 288.4L187.539 288.2L189.673 270H189.867L192 270.2L189.673 288.4ZM187.927 287.8L189.673 288L191.806 270.4L190.061 270.2L187.927 287.8Z" fill="#AAA89F"/>
<path d="M243.2 278.4H213.333V276.2H242.618L253.479 268.4L254.642 270.2L243.2 278.4Z" fill="#999999"/>
<path d="M213.139 278.6V276.2H242.424L253.479 268.2L254.836 270.2L243.394 278.4V278.2V278.4H213.139V278.6ZM213.527 278.2H243.2L254.448 270.2L253.479 268.8L242.618 276.6H213.527V278.2Z" fill="#AAA89F"/>
<path d="M297.891 300.8H297.697L275.394 295.8L144.873 295C144.291 295 143.903 294.6 143.903 294C143.903 293.4 144.291 293 144.873 293L275.588 293.8H275.782L297.697 298.6L304.485 290.2C304.679 290 305.067 289.8 305.455 289.8L319.418 292L315.152 279C314.958 278.4 315.345 277.8 315.733 277.6C316.315 277.4 316.897 277.8 317.091 278.2L321.745 293C321.939 293.4 321.745 293.8 321.552 294C321.358 294.2 320.97 294.4 320.582 294.4L305.649 292L298.861 300.4C298.473 300.8 298.085 300.8 297.891 300.8Z" fill="#999999"/>
<path d="M297.503 301L275.2 296L144.679 295.2C144.097 295.2 143.515 294.6 143.515 294C143.515 293.4 144.097 292.8 144.679 292.8L275.394 293.6H275.588L297.309 298.4L304.097 290C304.291 289.8 304.679 289.6 305.067 289.6H305.261L318.836 291.8L314.764 279C314.764 278.8 314.764 278.8 314.764 278.6C314.764 278 315.152 277.6 315.539 277.4C315.733 277.4 315.733 277.4 315.927 277.4C316.509 277.4 316.897 277.8 317.091 278.2L321.746 293C321.746 293.2 321.746 293.2 321.746 293.4C321.746 293.6 321.552 294 321.552 294.2C321.358 294.4 320.97 294.6 320.582 294.6H320.388L305.455 292.2L298.667 300.6C298.473 300.8 298.085 301 297.697 301V300.8V300.6C297.891 300.6 298.279 300.4 298.279 300.2L305.067 291.8H305.261L320.194 294.2C320.194 294.2 320.194 294.2 320.388 294.2C320.582 294.2 320.97 294 320.97 293.8C321.164 293.6 321.164 293.4 321.164 293.2V293L316.509 278.2C316.315 277.8 316.121 277.6 315.733 277.6H315.539C315.152 277.8 314.958 278 314.958 278.4V278.6L319.224 291.6V291.8C319.224 291.8 319.224 291.8 319.03 291.8L305.067 289.6C305.067 289.6 305.067 289.6 304.873 289.6C304.679 289.6 304.291 289.8 304.291 290L297.503 298.4H297.309L275.394 293.6H275.2L144.485 292.8C143.903 292.8 143.515 293.2 143.515 293.8C143.515 294.2 143.903 294.6 144.485 294.6L275.006 295.4L297.309 300.4H297.503V300.6V300.8C297.697 301 297.697 301 297.503 301ZM143.709 294.2C143.709 294.2 143.515 294.2 143.709 294.2C143.515 294.2 143.709 294.2 143.709 294.2ZM143.709 294.2C143.709 294 143.709 294 143.709 294.2C143.709 294 143.709 294.2 143.709 294.2Z" fill="#AAA89F"/>
<path d="M235.055 302C261.042 304.2 276.752 314.8 276.752 314.8C276.752 314.8 273.261 299.2 272.291 299C269.188 298.6 234.473 298.4 234.473 298.4L235.055 302Z" fill="#6BAFD1"/>
<path d="M140.606 321.8L135.952 334.2C135.952 334.2 149.915 325.8 167.564 325.2C193.745 324.4 231.952 332.6 244.17 327C228.267 318.6 212.752 315.8 193.745 315.4C157.285 315 140.606 321.8 140.606 321.8Z" fill="#6BAFD1"/>
<path d="M298.861 270.8L291.103 275.2L293.236 252.2L357.043 270C357.624 270.2 358.206 269.8 358.4 269.2C358.594 268.6 358.206 268 357.624 267.8L292.655 249.6C292.267 249.6 292.073 249.6 291.879 249.8C291.685 250 291.491 250.2 291.491 250.6L289.164 276.2H288.97H272.485L256.582 263.4L254.449 253.8L250.376 254.8L251.539 260.6L220.509 260.4C220.121 260.4 219.927 260.6 219.733 260.8L214.497 266.6L215.273 253.8L211.2 253.6L210.23 268.8H175.321L179.2 255.2L175.127 254L166.012 285.8H145.649V290H273.649L299.249 275.2L365.77 293.2L366.739 289L298.861 270.8ZM220.897 262.8L251.927 263L256.97 286H213.333L214.303 270.4L220.897 262.8ZM174.546 271H210.036L209.067 286H170.279L174.546 271ZM272.679 285.8H261.043L256.97 267L271.127 278.6C271.321 278.8 271.515 278.8 271.709 278.8H284.897L272.679 285.8Z" fill="#E6E7E8"/>
<path d="M299.442 275.4L273.649 290.2H145.649L145.455 290V285.8L145.649 285.6H165.818L174.933 253.8L175.127 253.6L179.2 254.8L179.394 255L175.515 268.4H210.036L211.006 253.4L211.2 253.2L215.273 253.4L215.467 253.6L214.691 266L219.539 260.4C219.733 260.2 220.121 260 220.509 260L251.346 260.2L250.182 254.6L250.376 254.4L254.449 253.4L254.642 253.6L256.776 263.2L272.679 276H289.164L291.491 250.4C291.491 250 291.685 249.8 292.073 249.6C292.267 249.4 292.461 249.4 292.849 249.4C293.042 249.4 293.042 249.4 293.236 249.4L358.206 267.6C358.788 267.8 359.176 268.2 359.176 268.8C359.176 269 359.176 269 359.176 269.2C358.982 269.8 358.594 270.2 358.012 270.2C357.818 270.2 357.818 270.2 357.624 270.2L294.012 252.4L292.073 274.8L299.636 270.4V270.6V270.4L367.903 288.8L368.097 289L367.127 293.2L366.933 293.4L299.442 275.4ZM365.964 293.2L366.933 289.4L298.861 271L291.103 275.4H290.909C290.909 275.4 290.909 275.4 290.909 275.2L293.042 252.2C293.042 252.2 293.042 252.2 293.042 252C293.042 252 293.042 252 293.236 252L357.042 269.8H357.236C357.624 269.8 358.012 269.6 358.012 269.2V269C358.012 268.6 357.818 268.2 357.43 268.2L292.461 250H292.267C292.073 250 291.879 250 291.685 250.2C291.491 250.4 291.297 250.6 291.297 250.8L288.97 276.4V276.6L288.776 276.8H272.097L256.194 263.8L254.061 254.2L250.376 255L251.539 260.6C251.539 260.6 251.539 260.6 251.539 260.8C251.539 260.8 251.539 260.8 251.346 260.8L220.315 260.6C220.121 260.6 219.733 260.8 219.733 260.8L214.497 266.6H214.303C214.303 266.6 214.109 266.6 214.303 266.4L215.079 253.6L211.2 253.4L210.23 268.4L210.036 268.6H175.127C175.127 268.6 175.127 268.6 174.933 268.6C174.933 268.6 174.933 268.6 174.933 268.4L178.812 255L175.127 253.8L166.012 286L165.818 286.2H145.842V290.2H273.649L299.442 275.4L365.964 293.2ZM261.042 286L256.776 267V266.8H256.97L271.127 278.4C271.321 278.6 271.515 278.6 271.709 278.6H284.897C284.897 278.6 285.091 278.6 285.091 278.8V279L272.679 286.2V286V286.2H261.042V286ZM261.236 285.8H272.679L284.509 279H271.903C271.709 279 271.321 279 271.127 278.8L257.164 267.6L261.236 285.8ZM213.333 286C213.139 286 213.139 286 213.333 286C213.139 286 213.139 286 213.333 286L214.109 270L220.703 262.6L220.897 262.8V262.6L251.927 262.8L252.121 263L257.164 286C257.164 286 257.164 286 257.164 286.2C257.164 286.2 257.164 286.2 256.97 286.2H213.333V286ZM214.303 270.2L213.333 285.8H256.582L251.733 263.2L220.897 263L214.303 270.2ZM170.279 286C170.279 286 170.085 286 170.279 286C170.085 285.8 170.085 285.8 170.085 285.8L174.352 270.8L174.546 270.6H210.036C210.036 270.6 210.036 270.6 210.23 270.6C210.23 270.6 210.23 270.6 210.23 270.8L209.261 285.8L209.067 286H170.279ZM170.473 285.8H208.873L209.842 271.2H174.739L170.473 285.8Z" fill="#E6E7E8"/>
<path d="M302.352 268.2L298.861 256.8L320.97 263L325.624 274.6L302.352 268.2Z" fill="#6BAFD1"/>
<path d="M328.727 275.6L324.073 264.4L341.527 268.6L348.509 281.4L328.727 275.6Z" fill="#6BAFD1"/>
<path d="M323.103 284.4L327.952 298.6L359.758 307.6L352.97 293L323.103 284.4Z" fill="#6BAFD1"/>
<path d="M369.648 335.8L365.576 324C365.382 323.8 365.188 323.6 364.994 323.4L353.552 318.2L350.642 311.8C350.448 311.2 349.867 311 349.285 311.2C348.703 311.4 348.509 312 348.703 312.6L351.806 319.4C352 319.6 352 319.8 352.388 320L363.83 325.2L364.412 326.8L331.055 317C330.473 316.8 329.891 317.2 329.697 317.8C329.503 318.4 329.891 319 330.473 319.2L364.994 329.4H365.188L367.709 336.8C367.903 337.2 368.291 337.6 368.679 337.6C368.873 337.6 368.873 337.6 369.067 337.6C369.648 337 369.842 336.4 369.648 335.8Z" fill="#999999"/>
<path d="M367.515 336.6L364.994 329.4H364.8L330.279 319.2C329.697 319 329.503 318.6 329.503 318C329.503 317.8 329.503 317.8 329.503 317.6C329.697 317 330.085 316.8 330.667 316.8C330.861 316.8 330.861 316.8 331.055 316.8L364.024 326.6L363.636 325.4L352.194 320.2C352 320 351.806 319.8 351.612 319.6L348.509 312.8C348.509 312.6 348.315 312.4 348.315 312.2C348.315 311.8 348.509 311.2 349.091 311C349.285 311 349.479 310.8 349.673 310.8C350.061 310.8 350.642 311 350.836 311.6L353.745 318L365.188 323.2C365.576 323.4 365.77 323.6 365.77 323.8L369.842 335.6H369.648H369.842C369.842 335.8 369.842 335.8 369.842 336C369.842 336.4 369.455 337 369.067 337.2C368.873 337.2 368.873 337.2 368.679 337.2C368.097 337.4 367.709 337 367.515 336.6ZM329.697 317.8V318C329.697 318.4 329.891 318.8 330.279 318.8L364.8 329H364.994L365.188 329.2L367.709 336.6C367.903 337 368.097 337.2 368.485 337.2C368.679 337.2 368.679 337.2 368.873 337.2C369.261 337 369.455 336.8 369.455 336.4C369.455 336.2 369.455 336.2 369.455 336L365.382 324.2C365.382 324 365.188 323.8 364.994 323.6L353.552 318.4L350.642 312C350.449 311.6 350.255 311.4 349.867 311.4C349.673 311.4 349.673 311.4 349.479 311.4C349.091 311.6 348.897 311.8 348.897 312.2C348.897 312.4 348.897 312.4 348.897 312.6L352 319.4C352 319.6 352.194 319.8 352.388 319.8L363.83 325L364.412 326.6V326.8H364.218L330.861 317H330.667C330.279 317 329.891 317.4 329.697 317.8Z" fill="#AAA89F"/>
<path d="M372.945 338.4C372.558 338.4 372.17 338.2 371.976 337.8L368.291 328.4C368.097 328 368.291 327.6 368.485 327.2L371.006 324.6L369.067 319.2C368.873 318.6 369.067 318 369.648 317.8C370.23 317.6 370.812 317.8 371.006 318.4L373.333 324.4C373.527 324.8 373.333 325.2 373.139 325.6L370.618 328.2L373.915 337C374.109 337.6 373.915 338.2 373.333 338.4C373.139 338.2 373.139 338.4 372.945 338.4Z" fill="#999999"/>
<path d="M371.782 337.6L368.097 328.2C368.097 328 368.097 327.8 368.097 327.8C368.097 327.4 368.291 327.2 368.485 327L371.006 324.6L369.067 319.4C369.067 319.2 369.067 319.2 369.067 319C369.067 318.6 369.261 318 369.842 317.8C370.036 317.8 370.036 317.8 370.23 317.8C370.618 317.8 371.2 318 371.394 318.6L373.721 324.6C373.721 324.8 373.721 324.8 373.721 325C373.721 325.4 373.527 325.6 373.333 325.8L370.812 328.2L374.109 336.8C374.109 337 374.109 337.2 374.109 337.2C374.109 337.6 373.721 338.2 373.333 338.4C373.139 338.4 372.946 338.4 372.946 338.4V338.2V338C373.139 338 373.139 338 373.333 338C373.721 337.8 373.915 337.6 373.915 337.2C373.915 337 373.915 337 373.915 336.8L370.618 328V327.8L373.139 325.2C373.333 325 373.333 324.8 373.333 324.6C373.333 324.4 373.333 324.4 373.333 324.2L371.006 318.2C370.812 317.8 370.618 317.6 370.23 317.6C370.23 317.6 370.036 317.6 369.842 317.6C369.455 317.8 369.261 318 369.261 318.4C369.261 318.6 369.261 318.6 369.261 318.8L371.2 324.2V324.4L368.679 327C368.485 327.2 368.485 327.4 368.485 327.6C368.485 327.8 368.485 327.8 368.485 328L372.17 337.4C372.364 337.8 372.558 338 372.946 338V338.2V338.4C372.558 338.4 371.976 338.2 371.782 337.6Z" fill="#AAA89F"/>
<path d="M395.055 350C394.861 350 394.861 350 394.861 350L379.539 345.4L372.558 347.2C372.364 347.2 372.17 347.2 371.976 347.2L335.709 337.6C335.127 337.4 334.739 336.8 334.933 336.4C335.127 335.8 335.709 335.4 336.291 335.6L372.364 345.2L379.346 343.4C379.539 343.4 379.733 343.4 379.927 343.4L395.442 348C396.024 348.2 396.218 348.8 396.218 349.4C395.83 349.8 395.442 350 395.055 350Z" fill="#999999"/>
<path d="M394.667 350.2L379.539 345.6L372.558 347.4H372.364C372.17 347.4 372.17 347.4 371.976 347.4L335.709 337.8C335.127 337.6 334.74 337.2 334.74 336.6C334.74 336.6 334.74 336.4 334.74 336.2C334.933 335.6 335.321 335.2 335.903 335.2C335.903 335.2 336.097 335.2 336.291 335.2L372.364 344.8L379.346 343H379.539C379.733 343 379.733 343 379.927 343L395.442 347.6C396.024 347.8 396.218 348.2 396.218 348.8C396.218 349 396.218 349 396.218 349.2C396.024 349.8 395.636 350 395.055 350C395.442 350 395.83 349.8 395.83 349.4V349.2C395.83 348.8 395.636 348.4 395.249 348.4L379.733 343.8H379.539H379.346L372.17 345.6L336.097 336H335.903C335.515 336 335.127 336.2 335.127 336.6V336.8C335.127 337.2 335.321 337.6 335.709 337.6L371.976 347.2H372.17H372.364L379.346 345.4L394.667 350H394.861V350.2V350.4C394.861 350.2 394.667 350.2 394.667 350.2Z" fill="#AAA89F"/>
<path d="M392.727 341.6L332.994 324.4L327.176 306.8C344.63 312 368.873 320.2 380.509 324.2L381.867 320.2C375.273 318 317.867 298 308.558 298C307.2 298 303.709 298 281.794 319.2C264.727 335.6 218.182 334.6 193.164 331.4C167.176 328 137.309 335 115.588 349.4L117.915 353C138.861 339 167.564 332.4 192.776 335.6C218.376 338.8 266.473 339.8 284.703 322.2C304.291 303.2 308.364 302.2 308.558 302.2C310.497 302.2 315.733 303.4 322.327 305.4L336.291 348.2L340.17 346.8L334.545 329.2L391.758 345.6L392.727 341.6Z" fill="#E6E7E8"/>
<path d="M117.721 353L115.394 349.4V349.2C133.624 337.2 157.285 330.4 179.782 330.4C184.242 330.4 188.703 330.6 193.164 331.2C201.503 332.2 212.364 333.2 223.612 333.2C245.915 333.2 270.352 330 281.6 319C303.515 297.8 307.006 297.8 308.558 297.8C317.867 297.8 375.273 317.8 381.867 320L382.061 320.2L380.703 324.2L380.509 324.4C369.067 320.4 344.824 312.2 327.564 307L333.188 324.2L392.921 341.2V341.4V341.2L393.115 341.4L391.952 345.6L391.758 345.8L334.933 329.6L340.558 346.8V347L336.679 348.4L336.485 348.2L322.715 305.4C316.121 303.4 310.885 302.2 308.945 302.2C308.752 302.2 304.679 303.2 285.091 322.2C272.873 334 247.079 337.6 223.612 337.6C212.17 337.6 201.503 336.8 192.97 335.6C188.703 335 184.436 334.8 180.17 334.8C158.642 334.8 135.758 341.4 118.303 353H117.721ZM117.915 352.8C135.37 341.2 158.255 334.8 179.782 334.8C184.242 334.8 188.509 335 192.776 335.6C201.115 336.6 211.976 337.4 223.224 337.4C246.497 337.4 272.291 334 284.509 322.2C304.097 303.2 308.17 302.2 308.558 302.2C310.691 302.2 315.733 303.4 322.521 305.4L336.485 348L340.17 346.8L334.545 329.4V329.2C334.545 329.2 334.546 329.2 334.739 329.2L391.758 345.4L392.727 341.6L333.188 324.6C333.188 324.6 332.994 324.6 332.994 324.4L327.176 306.8V306.6C327.176 306.6 327.176 306.6 327.37 306.6C344.63 311.8 368.873 320 380.509 324L381.673 320.2C374.497 317.8 317.673 298 308.558 298C307.394 298 303.709 298 281.988 319.2C270.545 330.2 246.303 333.4 223.806 333.4C212.364 333.4 201.697 332.6 193.164 331.4C188.703 330.8 184.242 330.6 179.782 330.6C157.479 330.6 133.818 337.4 115.782 349.2L117.915 352.8Z" fill="#E6E7E8"/>
<path d="M319.612 346.4C320.388 346 321.358 345.6 322.327 345.4L287.418 234.6C286.449 234.8 285.285 235 284.509 235.6L267.249 249.6C266.667 250 264.921 251.4 264.146 251.8L294.012 362.2C295.37 362 296.921 361.4 297.891 360.8L319.612 346.4Z" fill="url(#paint0_linear_237:252)"/>
<path d="M361.697 223.4H351.418C350.642 223.4 350.061 222.8 350.061 222C350.061 221.2 350.642 220.6 351.418 220.6H361.697C362.473 220.6 363.055 221.2 363.055 222C363.055 222.8 362.473 223.4 361.697 223.4ZM341.139 223.4H330.861C330.085 223.4 329.503 222.8 329.503 222C329.503 221.2 330.085 220.6 330.861 220.6H341.139C341.915 220.6 342.497 221.2 342.497 222C342.497 222.8 341.915 223.4 341.139 223.4ZM320.776 223.4H310.497C309.721 223.4 309.139 222.8 309.139 222C309.139 221.2 309.721 220.6 310.497 220.6H320.776C321.551 220.6 322.133 221.2 322.133 222C322.133 222.8 321.551 223.4 320.776 223.4ZM300.412 223.4H290.133C289.358 223.4 288.776 222.8 288.776 222C288.776 221.2 289.358 220.6 290.133 220.6H300.412C301.188 220.6 301.77 221.2 301.77 222C301.77 222.8 301.188 223.4 300.412 223.4ZM280.048 223.4H269.77C268.994 223.4 268.412 222.8 268.412 222C268.412 221.2 268.994 220.6 269.77 220.6H280.048C280.824 220.6 281.406 221.2 281.406 222C281.406 222.8 280.824 223.4 280.048 223.4ZM259.685 223.4H249.406C248.63 223.4 248.048 222.8 248.048 222C248.048 221.2 248.63 220.6 249.406 220.6H259.685C260.461 220.6 261.042 221.2 261.042 222C261.042 222.8 260.461 223.4 259.685 223.4ZM239.321 223.4H229.042C228.267 223.4 227.685 222.8 227.685 222C227.685 221.2 228.267 220.6 229.042 220.6H239.321C240.097 220.6 240.679 221.2 240.679 222C240.679 222.8 240.097 223.4 239.321 223.4ZM218.958 223.4H217.794C215.661 223.4 213.721 221.6 213.721 219.2V214.2C213.721 213.4 214.303 212.8 215.079 212.8C215.855 212.8 216.436 213.4 216.436 214.2V219.2C216.436 220 217.018 220.6 217.794 220.6H218.958C219.733 220.6 220.315 221.2 220.315 222C220.315 222.8 219.733 223.4 218.958 223.4ZM364.218 214.6C363.442 214.6 362.861 214 362.861 213.2V202.6C362.861 201.8 363.442 201.2 364.218 201.2C364.994 201.2 365.576 201.8 365.576 202.6V213.2C365.576 213.8 364.994 214.6 364.218 214.6ZM215.079 205.2C214.303 205.2 213.721 204.6 213.721 203.8V193.2C213.721 192.4 214.303 191.8 215.079 191.8C215.855 191.8 216.436 192.4 216.436 193.2V203.8C216.436 204.6 215.855 205.2 215.079 205.2ZM364.218 193.4C363.442 193.4 362.861 192.8 362.861 192V181.4C362.861 180.6 363.442 180 364.218 180C364.994 180 365.576 180.6 365.576 181.4V192C365.576 192.8 364.994 193.4 364.218 193.4ZM215.079 184.2C214.303 184.2 213.721 183.6 213.721 182.8V172.2C213.721 171.4 214.303 170.8 215.079 170.8C215.855 170.8 216.436 171.4 216.436 172.2V182.8C216.436 183.6 215.855 184.2 215.079 184.2ZM364.218 172.4C363.442 172.4 362.861 171.8 362.861 171V160.4C362.861 159.6 363.442 159 364.218 159C364.994 159 365.576 159.6 365.576 160.4V171C365.576 171.8 364.994 172.4 364.218 172.4ZM215.079 163.2C214.303 163.2 213.721 162.6 213.721 161.8V155.6C213.721 153.4 215.467 151.4 217.794 151.4C218.57 151.4 219.152 152 219.152 152.8C219.152 153.6 218.57 154.2 217.794 154.2C217.018 154.2 216.436 154.8 216.436 155.6V161.8C216.436 162.6 215.855 163.2 215.079 163.2ZM360.339 154.2H350.061C349.285 154.2 348.703 153.6 348.703 152.8C348.703 152 349.285 151.4 350.061 151.4H360.339C361.115 151.4 361.697 152 361.697 152.8C361.697 153.6 361.115 154.2 360.339 154.2ZM339.976 154.2H329.697C328.921 154.2 328.339 153.6 328.339 152.8C328.339 152 328.921 151.4 329.697 151.4H339.976C340.752 151.4 341.333 152 341.333 152.8C341.333 153.6 340.752 154.2 339.976 154.2ZM319.612 154.2H309.333C308.558 154.2 307.976 153.6 307.976 152.8C307.976 152 308.558 151.4 309.333 151.4H319.612C320.388 151.4 320.97 152 320.97 152.8C320.97 153.6 320.388 154.2 319.612 154.2ZM299.248 154.2H288.97C288.194 154.2 287.612 153.6 287.612 152.8C287.612 152 288.194 151.4 288.97 151.4H299.248C300.024 151.4 300.606 152 300.606 152.8C300.606 153.6 300.024 154.2 299.248 154.2ZM278.885 154.2H268.606C267.83 154.2 267.248 153.6 267.248 152.8C267.248 152 267.83 151.4 268.606 151.4H278.885C279.661 151.4 280.242 152 280.242 152.8C280.242 153.6 279.661 154.2 278.885 154.2ZM258.521 154.2H248.242C247.467 154.2 246.885 153.6 246.885 152.8C246.885 152 247.467 151.4 248.242 151.4H258.521C259.297 151.4 259.879 152 259.879 152.8C259.879 153.6 259.297 154.2 258.521 154.2ZM238.158 154.2H227.879C227.103 154.2 226.521 153.6 226.521 152.8C226.521 152 227.103 151.4 227.879 151.4H238.158C238.933 151.4 239.515 152 239.515 152.8C239.515 153.6 238.933 154.2 238.158 154.2Z" fill="#27AAE1"/>
<path d="M195.297 280.2C204.8 262.6 224.97 221.4 221.673 194.8C218.764 171.2 197.818 154.2 174.739 157.2C151.855 160 135.564 181.6 138.279 205.4C141.576 232.2 170.667 267 184.048 281.6C187.345 285.2 192.97 284.6 195.297 280.2Z" fill="#27AAE1"/>
<path d="M199.758 170.6C198.012 172.8 195.103 174.8 191.612 176.6C187.151 178.8 193.164 186.6 193.551 190C193.939 192.4 192.194 194.8 189.673 195C187.345 195.4 185.018 193.6 184.824 191C184.048 185.2 188.509 178.8 177.648 180.2C167.951 181.4 158.255 180.2 153.794 176.4C153.6 177.6 153.406 178.8 153.406 180C153.018 184 152.63 187.8 152.242 191.8C151.855 196.2 151.661 200.6 151.467 205C151.467 207.8 151.273 211 151.467 213.8C152.048 218 157.091 220.6 160.388 221.8C167.37 224.4 175.709 224.6 182.885 223.6C190.061 222.6 198.012 220.4 204.218 216.2C207.127 214.2 211.394 210.4 211.006 206.2C210.618 203.4 209.842 200.4 209.067 197.6C207.903 193.4 206.545 189.2 205.188 185C204.024 181.2 202.667 177.6 201.309 173.8C200.727 172.8 200.339 171.8 199.758 170.6Z" fill="white"/>
<path d="M244.345 172.2H249.185V198.6H257.149V203H244.345V172.2ZM266.466 203.44C264.031 203.44 262.154 202.795 260.834 201.504C259.543 200.184 258.898 198.292 258.898 195.828V193.1C258.898 191.575 259.147 190.299 259.646 189.272C260.145 188.216 260.951 187.395 262.066 186.808V186.72C261.039 186.163 260.277 185.4 259.778 184.432C259.309 183.435 259.074 182.173 259.074 180.648V179.372C259.074 176.908 259.705 175.031 260.966 173.74C262.257 172.42 264.09 171.76 266.466 171.76C268.842 171.76 270.661 172.42 271.922 173.74C273.213 175.031 273.858 176.908 273.858 179.372V180.648C273.858 183.581 272.861 185.605 270.866 186.72V186.808C271.981 187.395 272.787 188.216 273.286 189.272C273.785 190.299 274.034 191.575 274.034 193.1V195.828C274.034 198.292 273.374 200.184 272.054 201.504C270.763 202.795 268.901 203.44 266.466 203.44ZM266.466 184.74C268.167 184.74 269.018 183.713 269.018 181.66V179.24C269.018 177.187 268.167 176.16 266.466 176.16C264.765 176.16 263.914 177.187 263.914 179.24V181.66C263.914 183.713 264.765 184.74 266.466 184.74ZM266.466 199.04C268.285 199.04 269.194 197.881 269.194 195.564V192.616C269.194 190.299 268.285 189.14 266.466 189.14C264.647 189.14 263.738 190.299 263.738 192.616V195.564C263.738 197.881 264.647 199.04 266.466 199.04ZM278.231 203.176C277.351 203.176 276.603 203.117 275.987 203V198.6C276.457 198.717 276.985 198.776 277.571 198.776C278.539 198.776 279.258 198.541 279.727 198.072C280.197 197.573 280.431 196.825 280.431 195.828V172.2H285.271V195.696C285.271 198.219 284.685 200.096 283.511 201.328C282.367 202.56 280.607 203.176 278.231 203.176ZM288.732 172.2H296.036C298.529 172.2 300.348 172.787 301.492 173.96C302.636 175.104 303.208 176.879 303.208 179.284V180.516C303.208 182.1 302.944 183.391 302.416 184.388C301.917 185.385 301.14 186.104 300.084 186.544V186.632C302.489 187.453 303.692 189.595 303.692 193.056V195.696C303.692 198.072 303.061 199.891 301.8 201.152C300.568 202.384 298.749 203 296.344 203H288.732V172.2ZM295.464 184.74C296.432 184.74 297.15 184.491 297.62 183.992C298.118 183.493 298.368 182.657 298.368 181.484V179.768C298.368 178.653 298.162 177.847 297.752 177.348C297.37 176.849 296.754 176.6 295.904 176.6H293.572V184.74H295.464ZM296.344 198.6C297.194 198.6 297.825 198.38 298.236 197.94C298.646 197.471 298.852 196.679 298.852 195.564V192.88C298.852 191.472 298.602 190.504 298.104 189.976C297.634 189.419 296.842 189.14 295.728 189.14H293.572V198.6H296.344ZM313.517 203.44C311.141 203.44 309.322 202.765 308.061 201.416C306.799 200.067 306.169 198.16 306.169 195.696V179.504C306.169 177.04 306.799 175.133 308.061 173.784C309.322 172.435 311.141 171.76 313.517 171.76C315.893 171.76 317.711 172.435 318.973 173.784C320.234 175.133 320.865 177.04 320.865 179.504V195.696C320.865 198.16 320.234 200.067 318.973 201.416C317.711 202.765 315.893 203.44 313.517 203.44ZM313.517 199.04C315.189 199.04 316.025 198.028 316.025 196.004V179.196C316.025 177.172 315.189 176.16 313.517 176.16C311.845 176.16 311.009 177.172 311.009 179.196V196.004C311.009 198.028 311.845 199.04 313.517 199.04ZM324.138 172.2H336.942V176.6H328.978V185.18H335.226V189.58H328.978V203H324.138V172.2Z" fill="#5E5E5E"/>
<defs>
<linearGradient id="paint0_linear_237:252" x1="302.661" y1="294.031" x2="248.919" y2="312.999" gradientUnits="userSpaceOnUse">
<stop stop-color="#B5B6B6"/>
<stop offset="0.1611" stop-color="#C3C2C2"/>
<stop offset="0.5219" stop-color="#DDDDDD"/>
<stop offset="0.7273" stop-color="#E8E8E8"/>
<stop offset="0.9515" stop-color="#DFDFDE"/>
<stop offset="0.9809" stop-color="#E5E4E4"/>
<stop offset="1" stop-color="#ECECEB"/>
</linearGradient>
</defs>
</svg>
