<svg width="512" height="512" viewBox="0 0 512 512" fill="none" xmlns="http://www.w3.org/2000/svg">
<path d="M249.406 468.2C339.7 468.2 412.897 392.715 412.897 299.6C412.897 206.485 339.7 131 249.406 131C159.113 131 85.9152 206.485 85.9152 299.6C85.9152 392.715 159.113 468.2 249.406 468.2Z" fill="#F8F8F9"/>
<path d="M206.352 348.4C206.352 348.4 205.964 356.6 207.515 357.4C209.067 358.2 227.685 356.8 227.685 356.8C227.685 356.8 227.491 354.4 224.388 354C221.091 353.6 216.63 351.4 214.303 347.6C210.812 342.6 206.352 348.4 206.352 348.4Z" fill="#434343"/>
<path d="M175.515 276.4C175.515 276.4 201.503 299.6 204.994 307C208.291 314.4 218.764 348.2 218.764 348.2C218.764 348.2 215.855 350 210.036 350.4C207.515 350.6 205.576 349.4 205.576 349.4C205.576 349.4 190.449 318.8 189.091 316C187.733 313 154.182 301.6 145.067 284.2L175.515 276.4Z" fill="#C4E9F6"/>
<path d="M224.776 255.8V259.6C224.776 259.6 185.6 272.2 178.812 274C178.424 274 178.23 274.2 178.036 274.2C178.036 274 178.036 274 178.036 273.8V272.8C178.036 272.4 177.649 272 177.261 272L176.291 271.8C176.291 271.8 176.873 271.6 177.842 271.4C185.212 269.2 216.049 260 224.776 255.8Z" fill="#434343"/>
<path d="M230.4 159.6H228.461H219.927H217.6L192.194 459.6H199.176L241.842 459.8H248.824L230.4 159.6Z" fill="#F7F8F9"/>
<path d="M248.824 460.2H192.194C192 460.2 192 460.2 192 460L191.806 459.8L217.212 159.8C217.212 159.6 217.406 159.4 217.6 159.4H230.4C230.594 159.4 230.788 159.6 230.788 159.8L249.212 459.8C249.212 459.8 249.212 460 249.018 460L248.824 460.2ZM217.794 160L192.582 459.4H248.436L230.012 160H217.794Z" fill="#CFD0D1"/>
<path d="M192.194 459.6L217.6 159.6H219.927H222.255L205.576 459.8L199.176 459.6H192.194Z" fill="#999999"/>
<path d="M231.37 168.8H230.982H211.394C211.2 168.8 211.006 168.8 210.812 168.6C210.812 168.6 206.352 168 205.576 162.2V144.4H211.394H211.782H217.6H231.758V168.8H231.37Z" fill="#F7F8F9"/>
<path d="M211.2 169.2C211.006 169.2 210.812 169.2 210.618 169C210.618 169 205.77 168.2 205.188 162.2V144.4C205.188 144.2 205.382 144 205.576 144H231.564C231.758 144 231.952 144.2 231.952 144.4V168.8C231.952 169 231.758 169.2 231.564 169.2H211.2ZM230.982 144.8H205.77V162C206.352 167.4 210.424 168 210.618 168.2C210.812 168.2 211.006 168.2 211.2 168.2H230.788V144.8H230.982Z" fill="#CFD0D1"/>
<path d="M205.576 156.2V162.2C206.352 168 210.812 168.6 210.812 168.6C211.006 168.6 211.2 168.8 211.394 168.8H231.37V156.2H205.576Z" fill="#CFD0D1"/>
<path d="M231.37 144.4H231.758H237.576V162.2C236.8 168 232.339 168.6 232.339 168.6C232.339 168.6 231.758 168.8 230.982 168.6C230.982 168.6 226.521 168 225.746 162.2V144.4H231.37Z" fill="#F7F8F9"/>
<path d="M230.788 169C230.788 169 225.939 168.2 225.358 162.2V144.4C225.358 144.2 225.552 144 225.745 144H237.576C237.77 144 237.964 144.2 237.964 144.4V162.2C237.188 168.2 232.533 169 232.533 169C232.533 169 232.145 169.2 231.758 169.2C231.37 169.2 231.176 169.2 230.788 169ZM226.133 144.8V162C226.715 167.4 230.788 168 230.982 168.2C231.564 168.4 232.145 168.2 232.145 168.2C232.145 168.2 236.412 167.6 236.994 162.2V144.8H226.133V144.8Z" fill="#CFD0D1"/>
<path d="M331.83 236.2C331.83 236.2 336.097 239.2 337.261 238.4C338.424 237.6 338.036 236.2 336.485 235C334.545 233.6 284.315 187.2 277.527 179.4C277.527 179.4 273.842 176 271.903 175.2C267.83 173.6 242.23 160.4 242.23 160.4C242.23 160.4 239.321 159.6 240.873 162C242.23 164.6 331.83 236.2 331.83 236.2Z" fill="#F7F8F9"/>
<path d="M331.636 236.6C327.952 233.6 241.842 164.8 240.291 162.2C239.709 161.4 239.709 160.8 239.903 160.4C240.097 160 240.485 159.8 241.067 159.8C241.649 159.8 242.036 160 242.23 160C242.424 160.2 267.83 173.4 271.903 174.8C274.036 175.6 277.527 179 277.721 179.2C284.315 186.8 334.352 232.8 336.679 234.6C337.842 235.4 338.424 236.4 338.23 237.2C338.23 237.8 337.842 238.2 337.455 238.6C337.261 238.8 337.067 238.8 336.679 238.8C335.321 239 332.024 236.8 331.636 236.6ZM240.679 160.8C240.679 160.8 240.679 161.2 241.067 161.8C242.424 163.8 301.188 211.2 332.218 236C333.188 236.6 335.709 238.4 336.873 238.4C337.067 238.4 337.067 238.4 337.067 238.4C337.455 238.2 337.455 237.8 337.649 237.6C337.649 237 337.261 236.2 336.291 235.6C333.964 233.8 283.927 187.6 277.333 180C277.333 180 273.649 176.6 271.709 175.8C267.636 174.2 243.006 161.4 242.036 161C242.036 161 241.649 160.8 241.261 160.8C240.873 160.6 240.679 160.8 240.679 160.8Z" fill="#CFD0D1"/>
<path d="M334.739 238C334.739 238 336.291 239.4 337.261 238.6C338.424 237.8 338.424 237 337.649 234.8C336.873 232.6 287.03 184.2 280.242 176.4C280.242 176.4 276.558 173 274.424 172.2C270.352 170.6 244.752 157.4 244.752 157.4C244.752 157.4 239.903 156 240.291 161.4C240.485 164 334.739 238 334.739 238Z" fill="#D9DADC"/>
<path d="M334.546 238.4C318.836 226 240.097 164.2 239.903 161.2C239.709 159.6 240.097 158.4 240.873 157.6C241.455 157 242.424 156.6 243.394 156.6C244.17 156.6 244.752 156.8 244.946 156.8C245.139 157 270.546 170.2 274.618 171.6C276.752 172.4 280.243 175.8 280.436 176C283.346 179.4 294.788 190.6 306.618 202.6C325.236 221 337.455 233.4 337.842 234.6C338.618 236.8 338.812 238 337.455 238.8C337.067 239 336.873 239.2 336.485 239.2C335.515 239.2 334.546 238.4 334.546 238.4ZM241.261 158.2C240.679 158.8 240.485 159.8 240.485 161C241.455 163.8 297.503 208.4 334.933 237.6C335.127 237.8 335.903 238.4 336.485 238.4C336.679 238.4 336.873 238.4 337.067 238.2C337.842 237.6 338.036 237.2 337.261 234.8C336.679 233.4 320.582 217.4 306.23 203.2C294.206 191.4 282.958 180 279.855 176.6C279.855 176.6 276.17 173.2 274.23 172.4C270.158 170.8 245.527 158 244.558 157.6C244.558 157.6 243.976 157.4 243.394 157.4C242.424 157.4 241.843 157.8 241.261 158.2Z" fill="#CFD0D1"/>
<path d="M334.739 238C334.739 238 336.291 239.4 337.261 238.6C338.424 237.8 338.424 237 337.649 234.8C336.873 232.6 287.03 184.2 280.242 176.4C280.242 176.4 276.558 173 274.424 172.2C270.352 170.6 244.752 157.4 244.752 157.4C244.752 157.4 238.933 157.6 243.2 160.8C278.885 187.6 334.739 238 334.739 238Z" fill="white"/>
<path d="M334.546 238.2C333.964 237.8 278.303 187.6 242.812 161C241.455 160 240.873 159.2 241.067 158.4C241.455 157 243.976 156.8 244.558 156.8H244.752C244.945 157 270.352 170.2 274.424 171.6C276.558 172.4 280.049 175.8 280.242 176C283.152 179.4 294.594 190.6 306.424 202.6C325.042 221 337.261 233.4 337.649 234.6C338.424 236.8 338.618 238 337.261 238.8C336.873 239 336.679 239.2 336.291 239.2C335.515 239.2 334.546 238.4 334.546 238.2ZM242.036 158.6C242.036 158.8 242.036 159.4 243.394 160.4C278.885 187 334.546 237.2 335.127 237.6C335.127 237.6 335.903 238.4 336.679 238.4C336.873 238.4 337.067 238.4 337.261 238.2C338.036 237.6 338.23 237.2 337.455 234.8C336.873 233.4 320.776 217.4 306.424 203.2C294.4 191.4 283.152 180 280.049 176.6C280.049 176.6 276.364 173.2 274.424 172.4C270.546 170.8 246.691 158.6 244.752 157.6C243.588 157.8 242.036 158 242.036 158.6Z" fill="#CFD0D1"/>
<path d="M260.073 34.6C260.073 34.6 260.461 32.6 259.297 32C258.133 31.4 257.552 31.8 256 33.6C254.449 35.4 238.933 104.4 235.83 114.4C235.83 114.4 234.861 119.4 235.055 121.6C235.83 126 237.576 155.6 237.576 155.6C237.576 155.6 238.739 160.6 243.006 157.6C245.333 156.2 260.073 34.6 260.073 34.6Z" fill="#D9DADC"/>
<path d="M236.994 155.8C236.994 155.6 235.249 126.2 234.667 121.8C234.279 119.6 235.249 114.6 235.442 114.4C236.606 110 240.485 94.2 244.364 77.4C250.57 51.4 254.642 34.4 255.612 33.2C257.164 31.2 257.939 30.8 259.491 31.4C261.042 32.2 260.461 34.4 260.461 34.4C257.939 54.8 245.721 156.2 243.2 157.8C242.23 158.4 241.261 158.8 240.485 158.8C237.964 159.2 237.188 156 236.994 155.8ZM256.194 34C255.418 35.2 249.988 57.8 245.139 77.8C241.261 94.6 237.382 110.2 236.024 114.6C236.024 114.6 235.055 119.6 235.442 121.6C236.218 126 237.77 154.6 237.77 155.6C237.77 155.6 238.352 158.2 240.485 158.2C241.067 158.2 241.842 157.8 242.812 157.4C244.558 155.2 253.867 82.6 259.685 34.4C259.685 34.4 260.073 32.6 259.103 32.2C258.715 32 258.521 32 258.327 32C257.745 32.2 257.164 32.6 256.194 34Z" fill="#CFD0D1"/>
<path d="M260.073 38C260.073 38 260.461 32.6 259.297 32C258.133 31.4 256.97 32.4 256.776 34.6C256.388 37 242.812 105.4 239.903 115.4C239.903 115.4 238.933 120.4 239.127 122.6C239.903 127 241.455 156.6 241.455 156.6C241.455 156.6 242.23 159.6 243.588 157C244.752 154.4 260.073 38 260.073 38Z" fill="white"/>
<path d="M241.067 156.6C241.067 156.4 239.321 127 238.739 122.6C238.352 120.4 239.321 115.4 239.515 115.2C242.424 105.4 256 37.6 256.388 34.6C256.582 32.8 257.358 31.6 258.521 31.6C258.715 31.6 259.103 31.6 259.297 31.8C260.655 32.4 260.461 36.8 260.267 38.2C259.685 43 244.946 154.6 243.782 157.2C243.394 158 242.812 158.4 242.424 158.4C241.649 158.4 241.067 157 241.067 156.6ZM256.97 34.6C256.582 37.6 243.006 105.6 239.903 115.4C239.903 115.4 238.933 120.4 239.127 122.4C239.903 126.8 241.455 155.4 241.455 156.4C241.649 157 241.842 157.6 242.036 157.6C242.036 157.6 242.23 157.6 242.618 156.8C243.588 154.6 253.867 78.2 259.103 38C259.297 35.6 259.103 32.6 258.521 32.4C258.327 32.4 258.133 32.2 257.939 32.2C257.746 32.2 257.164 33 256.97 34.6Z" fill="#CFD0D1"/>
<path d="M253.479 157C253.479 160.4 251.346 163.2 248.824 163.2C246.303 163.2 244.17 160.4 244.17 157C244.17 153.6 246.303 150.8 248.824 150.8C251.346 150.8 253.479 153.6 253.479 157Z" fill="#F7F8F9"/>
<path d="M243.588 157C243.588 153.4 245.915 150.4 248.63 150.4C251.539 150.4 253.673 153.4 253.673 157C253.673 160.6 251.346 163.6 248.63 163.6C245.915 163.6 243.588 160.8 243.588 157ZM244.364 157C244.364 160.2 246.303 162.8 248.63 162.8C250.958 162.8 252.897 160.2 252.897 157C252.897 153.8 250.958 151.2 248.63 151.2C246.303 151.2 244.364 153.8 244.364 157Z" fill="#CFD0D1"/>
<path d="M232.921 149.4H243.394C243.588 149.4 243.782 149.4 243.976 149.4C247.273 149.4 257.358 152.8 257.358 157C257.358 161.2 247.273 164.6 243.976 164.6C243.782 164.6 243.394 164.8 243.394 164.8H232.921C229.624 164.8 227.103 161.4 227.103 157.2C227.103 152.8 229.624 149.4 232.921 149.4Z" fill="#F7F8F9"/>
<path d="M226.715 157C226.715 152.6 229.43 149 232.921 149H243.2C243.394 149 243.588 149 243.976 149C247.273 149 257.745 152.4 257.745 157C257.745 161.6 247.273 165 243.976 165C243.782 165 243.588 165 243.394 165.2C243.394 165.2 243.394 165.2 243.2 165.2H232.727C229.43 165.2 226.715 161.6 226.715 157ZM243.976 164.2C247.079 164.2 256.97 160.8 256.97 157C256.97 153.2 247.079 149.8 243.976 149.8C243.782 149.8 243.588 149.8 243.394 149.8H232.921C229.818 149.8 227.491 153 227.491 157C227.491 161 230.012 164.4 232.921 164.4H243.2C243.394 164.4 243.782 164.2 243.976 164.2Z" fill="#CFD0D1"/>
<path d="M232.921 149.4H243.394C243.588 149.4 243.782 149.4 243.976 149.4C244.558 149.4 245.139 149.6 245.915 149.6C245.333 149.8 244.752 150.2 244.17 150.8C243.006 152.2 242.618 154.4 242.424 156.2C242.23 158.2 242.23 162.2 243.394 164.6C243.2 164.6 243.2 164.6 243.2 164.6H232.727C229.43 164.6 226.909 161.2 226.909 157C227.103 152.8 229.624 149.4 232.921 149.4Z" fill="#CFD0D1"/>
<path d="M226.715 157C226.715 152.6 229.43 149 232.921 149H243.2C243.394 149 243.588 149 243.976 149C244.558 149 245.139 149 246.109 149.2C246.303 149.2 246.303 149.4 246.497 149.6C246.497 149.8 246.497 150 246.303 150C245.721 150.2 245.139 150.6 244.752 151.2C243.588 152.6 243.2 154.8 243.2 156.4C243.006 158.4 243.006 162.2 244.17 164.6C244.17 164.6 244.17 164.8 244.17 165C244.17 165.2 243.976 165.2 243.976 165.2C243.782 165.2 243.782 165.2 243.782 165.2C243.782 165.2 243.782 165.2 243.588 165.2H233.115C229.43 165.2 226.715 161.6 226.715 157ZM242.23 156.2C242.424 154.6 242.812 152.2 243.976 150.6C244.17 150.2 244.558 150 244.752 149.8C244.17 149.8 243.782 149.8 243.2 149.8H232.727C229.624 149.8 227.297 153 227.297 157C227.297 161 229.818 164.4 232.727 164.4H242.812C242.036 162 242.036 158.8 242.23 156.2Z" fill="#F7F8F9"/>
<path d="M238.158 159.4C241.649 159.4 245.333 159.4 248.824 159.4C251.346 159.4 255.612 159.4 257.358 157.2C257.164 161.4 247.273 164.8 243.976 164.8C243.782 164.8 243.394 165 243.394 165H232.921C230.206 165 228.073 162.6 227.297 159.4C230.788 159.6 234.473 159.4 238.158 159.4Z" fill="#CFD0D1"/>
<path d="M212.17 228.6C211.588 226.6 211.394 226.4 211.394 226.4C211.394 226.4 191.612 227.6 189.673 227.6C187.733 227.6 162.327 220.6 162.327 220.6L149.333 235C149.333 235 185.018 238.6 189.867 238.6C197.624 238.4 212.17 231.8 212.17 231.8C212.17 231.8 212.558 230.2 212.17 228.6Z" fill="#434343"/>
<path d="M177.842 271.4C177.649 271.4 177.455 271.2 177.455 271.2L176.485 271C175.903 271 175.321 271.2 175.127 271.6L173.576 273.6L175.709 276.8L178.23 275.2C178.618 275 178.812 274.6 179.006 274V273.8V272.8C178.812 272.2 178.424 271.6 177.842 271.4ZM177.649 274.6L175.709 276L174.158 273.8L175.321 272.2C175.515 272 175.903 271.8 176.097 271.8L177.067 272C177.455 272 177.842 272.4 177.842 272.8V273.8C177.842 274 177.842 274 177.842 274.2C177.842 274.4 177.842 274.4 177.649 274.6Z" fill="#090909"/>
<path d="M194.327 355.2C194.327 355.2 192.582 363.2 194.133 364.2C195.685 365.2 214.109 367 214.109 367C214.109 367 214.303 364.6 211.2 363.8C208.097 363 204.024 360 202.085 355.8C199.758 350.2 194.327 355.2 194.327 355.2Z" fill="#434343"/>
<path d="M150.303 214.8C150.303 214.8 159.224 225 165.818 223.8C165.818 223.8 164.073 221.6 161.939 219.6C161.358 219 161.552 217.6 161.745 216.8C161.939 216.4 161.939 215.8 162.133 215.4C162.715 212.8 162.909 211.2 162.909 211.2L158.449 206.4L155.345 203.2C155.152 204.8 155.152 206.2 154.57 207.4C152.824 212.2 150.303 214.8 150.303 214.8Z" fill="#F2F2F2"/>
<path d="M154.764 207.6C154.764 207.6 156.509 213.6 162.327 215.6C162.909 213 163.103 211.4 163.103 211.4L158.642 206.6C155.927 206.8 154.764 207.6 154.764 207.6Z" fill="#999999"/>
<path d="M165.042 211.4C165.042 211.4 154.182 212 153.988 205C153.794 198 152.242 193.4 159.224 192.8C166.206 192.2 167.564 194.8 168.145 197C168.727 199.4 167.758 211 165.042 211.4Z" fill="#F2F2F2"/>
<path d="M172.994 250.4C172.994 249.8 172.994 249 172.8 248.4C172.606 244.8 172.218 241.2 171.636 237.8C171.055 235.2 170.473 232.6 169.697 230.4C168.533 227.2 167.176 224.8 165.236 222.8L162.327 219.8C155.345 220.6 150.303 214.8 150.303 214.8C150.303 214.8 133.624 229.6 137.891 261.6C137.891 261.6 138.279 264 139.055 267.2C139.249 268 139.442 268.6 139.636 269.4C140.994 275 173.576 259.6 172.994 250.4Z" fill="#999999"/>
<path d="M147.976 194.6C147.782 194.4 147.588 194.4 147.006 194.6C147.006 194.6 147.394 194.2 147.976 194.2C147.976 193.4 148.17 192 149.333 191.4C149.333 191.4 148.752 191.8 148.752 192.8C149.915 191 152.824 189.4 161.358 188.4C172.606 187.2 170.279 195.4 168.921 196.6C167.564 197.8 163.491 196 160.97 196.6C158.255 197.4 158.449 201.4 157.673 202.2C156.897 203 157.091 201.8 155.733 201.6C154.376 201.2 154.57 203.4 155.152 204.8C155.733 206.2 154.376 208.2 154.376 208.2C154.376 208.2 154.376 208.2 152.242 206.6C150.109 205 147.2 197.2 147.588 195.2C147.782 195 147.782 194.8 147.976 194.6Z" fill="#434343"/>
<path d="M144.291 242.6C144.291 242.6 148.946 258.8 154.182 261.4C159.418 264 159.224 250.2 159.224 250.2L144.291 242.6Z" fill="#434343"/>
<path d="M179.2 282C170.861 278.2 173.576 259.8 172.994 250.6C172.994 250 172.994 249.2 172.8 248.6C172.606 245 172.218 241.4 171.636 238C171.055 235.4 170.473 232.8 169.697 230.6L158.061 232.6C155.733 233 154.182 235 154.376 237.4C154.57 243.4 153.988 254.4 147.976 260C143.515 264 140.8 266.2 139.249 267.4C139.442 268.2 139.636 268.8 139.83 269.6C141.188 275 142.545 282 145.648 286C147.782 289 180.17 282.4 179.2 282Z" fill="#6BAFD1"/>
<path d="M149.139 216C149.139 216 152.436 217.2 156.509 223C160 227.8 161.358 232.4 161.358 232.4L159.418 232.8C159.418 232.8 156.509 222.6 147.976 217.2C147.976 217.4 147.976 217.2 149.139 216Z" fill="#6BAFD1"/>
<path d="M197.236 283.8C197.236 283.8 199.176 279.2 199.758 278.4C200.339 277.8 203.055 275.6 203.249 275.6C203.442 275.8 203.442 276.6 203.055 277C202.667 277.4 202.279 277.6 202.473 277.8C202.667 277.8 203.636 276.2 204.412 276.8C205.188 277.4 207.127 279.8 205.964 281.6C204.8 283.4 200.145 285.4 199.952 285.8C198.012 288.2 197.236 283.8 197.236 283.8Z" fill="#F2F2F2"/>
<path d="M199.758 224.4C199.758 224.4 178.812 243.4 176.873 243.6C173.77 244 156.121 227.4 156.121 227.4C156.121 227.4 153.794 223.2 148.558 225.2C144.097 227 142.158 232.6 142.158 232.6C142.158 232.6 140.606 238 143.321 241.4C149.139 248.6 171.442 256 178.23 255C186.764 253.8 202.667 229.8 202.667 229.8C202.667 229.8 203.636 227.6 202.667 226.2C201.697 225 199.758 224.4 199.758 224.4Z" fill="#999999"/>
<path d="M204.8 355.8C204.8 355.8 201.697 357 195.879 356.4C193.358 356.2 191.612 354.8 191.612 354.8C191.612 354.8 190.642 351.8 189.479 347.6C189.285 347 189.091 346.2 188.897 345.6C188.703 344.6 188.315 343.8 187.927 342.8C187.733 342.2 187.539 341.4 187.345 340.8C184.63 331.6 181.333 320.8 180.752 319.2C179.976 316 148.752 299 142.352 280.4L173.576 274C173.576 274 195.685 305.4 197.818 313.4C198.982 317.6 200.921 329.6 202.279 339.8C202.473 340.4 202.473 341.2 202.667 341.8C202.861 342.8 202.861 343.8 203.055 344.8C203.248 345.4 203.249 346.2 203.249 346.8C204.218 351.8 204.8 355.8 204.8 355.8Z" fill="#6BAFD1"/>
<path d="M173.77 273.8C173.77 273.8 161.746 283.6 144.291 285.2C144.291 285.2 145.842 289.2 148.946 291.2C148.946 291.2 167.758 288.2 175.709 276.4L173.77 273.8Z" fill="#434343"/>
<path d="M214.303 368C214.303 368 214.109 368 214.303 368L189.091 364.6C188.703 364.6 188.315 364 188.315 363.6C188.315 363.2 188.897 362.8 189.285 362.8L214.303 366.2L224.388 362.8C224.776 362.6 225.358 363 225.552 363.4C225.745 363.8 225.358 364.4 224.97 364.6L214.691 368C214.497 368 214.303 368 214.303 368Z" fill="#090909"/>
<path d="M202.473 341.6C198.4 342.8 194.327 343 191.224 343C189.673 343 188.509 343 187.733 342.8C187.539 342.2 187.346 341.4 187.152 340.8H187.346C189.479 341 195.879 341.4 202.085 339.4C202.279 340.4 202.473 341 202.473 341.6Z" fill="white"/>
<path d="M203.249 346.6C199.176 347.8 195.103 348 192.194 348C191.03 348 190.061 348 189.285 348C189.091 347.4 188.897 346.6 188.703 346C191.224 346.2 197.236 346.4 203.055 344.6C203.055 345.2 203.055 345.8 203.249 346.6Z" fill="white"/>
<path d="M171.055 264.2C171.055 264.2 170.085 266 168.727 265.6C167.37 265.2 167.37 264.4 167.37 262C167.37 259.6 201.697 198.2 206.158 188.8C206.158 188.8 208.679 184.4 210.424 183C213.915 180.2 234.667 159.8 234.667 159.8C234.667 159.8 238.933 157 240.097 162.2C240.679 165 171.055 264.2 171.055 264.2Z" fill="#D9DADC"/>
<path d="M168.533 266C166.982 265.4 166.788 264.4 166.982 262C166.982 260.6 175.321 245.2 187.927 222C196.073 207 203.83 192.8 205.77 188.6C205.964 188.4 208.485 184 210.23 182.8C213.721 180.2 234.279 159.8 234.667 159.6C234.667 159.6 235.83 158.8 237.188 158.8C238.352 158.8 239.903 159.4 240.485 162.2C241.067 165 183.079 248 171.442 264.6C171.442 264.6 170.473 266.2 169.115 266.2C168.921 266 168.727 266 168.533 266ZM235.055 160C234.279 160.8 214.109 180.6 210.618 183.2C209.067 184.4 206.352 188.8 206.352 188.8C204.412 193 196.655 207.2 188.509 222.2C178.812 240.2 167.758 260.4 167.564 262C167.564 264.6 167.758 264.8 168.727 265.2H168.921C169.697 265.2 170.279 264.4 170.473 264C198.012 224.6 239.321 165.2 239.515 162.2C239.127 160.2 238.158 159.4 236.994 159.4C236.024 159.4 235.055 160 235.055 160Z" fill="#CFD0D1"/>
<path d="M173.382 261.6C173.382 261.6 170.085 265.8 168.727 265.4C167.37 265 167.37 263.4 168.533 261.8C169.891 259.8 205.188 200.2 209.455 190.8C209.455 190.8 211.976 186.4 213.721 185C217.212 182.2 237.964 161.8 237.964 161.8C237.964 161.8 240.485 160.2 239.709 163C238.933 165.8 173.382 261.6 173.382 261.6Z" fill="white"/>
<path d="M168.533 266C167.952 265.8 167.564 265.4 167.37 264.8C167.176 264 167.37 262.8 168.145 261.8C169.891 259.2 204.8 200 209.067 190.8C209.261 190.6 211.782 186.2 213.527 185C217.018 182.4 237.576 162 237.964 161.8C237.964 161.8 238.739 161.2 239.515 161.2C239.903 161.2 240.097 161.4 240.291 161.6C240.485 162 240.485 162.6 240.291 163.4C239.515 166.2 176.291 258.2 173.576 262.2C172.994 262.8 170.473 266.2 168.921 266.2C168.921 266 168.727 266 168.533 266ZM238.352 162.2C237.576 163 217.406 182.8 213.915 185.4C212.364 186.6 209.842 191 209.649 191C205.382 200.2 170.279 259.6 168.533 262C167.952 263 167.564 263.8 167.758 264.4C167.952 264.8 168.145 265 168.533 265C169.503 265 171.442 262.8 172.606 261.2C195.297 228.2 238.545 165 239.127 162.8C239.321 162 239.321 161.8 239.127 161.8C239.127 161.8 239.127 161.8 238.933 161.8C239.127 161.8 238.545 162.2 238.352 162.2Z" fill="#CFD0D1"/>
<path d="M371.588 415.6C314.958 426.6 260.461 388 249.794 329.6C248.63 323.4 248.049 317.2 248.049 311L206.933 273.2L257.164 266.2C270.545 235 298.279 210.8 333.188 204.2C389.818 193.2 444.315 231.8 454.982 290.2C465.455 348.6 428.024 404.8 371.588 415.6Z" fill="white"/>
<path d="M352.194 419.6C302.158 419.6 257.358 382.8 247.855 330.2C246.885 324.4 246.109 318.4 246.109 312.2L202.473 272L255.806 264.6C270.158 232.2 298.861 209 332.8 202.4C390.4 191.2 446.061 230.6 456.727 290C461.964 318.8 455.952 347.8 440.048 372C423.952 396.2 399.903 412.4 371.976 417.8L371.588 415.8L371.976 417.8C365.188 418.8 358.788 419.6 352.194 419.6ZM211.2 274.8L249.988 310.4V311.2C249.988 317.4 250.57 323.6 251.733 329.4C262.206 386.6 315.733 424.4 371.2 413.8C398.158 408.6 421.43 393 436.752 369.6C452.267 346.4 457.891 318.2 452.849 290.6C447.806 263 432.679 238.8 409.988 223C387.491 207 360.145 201.2 333.382 206.4C300.412 212.8 272.485 235.6 258.715 267.4L258.327 268.4L211.2 274.8Z" fill="#E6E7E8"/>
<path d="M366.158 271.4H405.721C407.079 271.4 408.048 270.4 408.048 269C408.048 267.6 407.079 266.6 405.721 266.6H366.158C364.8 266.6 363.83 267.6 363.83 269C364.024 270.2 364.994 271.4 366.158 271.4Z" fill="#27AAE1"/>
<path d="M366.158 284.2H405.721C407.079 284.2 408.048 283.2 408.048 281.8C408.048 280.4 407.079 279.4 405.721 279.4H366.158C364.8 279.4 363.83 280.4 363.83 281.8C364.024 283.2 364.994 284.2 366.158 284.2Z" fill="#27AAE1"/>
<path d="M366.158 297.2H405.721C407.079 297.2 408.048 296.2 408.048 294.8C408.048 293.4 407.079 292.4 405.721 292.4H366.158C364.8 292.4 363.83 293.4 363.83 294.8C364.024 296.2 364.994 297.2 366.158 297.2Z" fill="#27AAE1"/>
<path d="M291.685 231H291.491C289.358 232 288.776 234.4 289.745 236.6C290.715 238.6 292.267 240 295.37 238.6C310.109 231.6 328.727 238.2 336.097 254C343.467 270 336.873 289.2 321.358 296.8C306.618 304 289.164 298.6 281.018 284L287.612 280.8L269.576 268.6L267.442 290.8L273.649 287.8C283.539 306.2 305.842 313.8 324.655 304.6C344.242 295 352.388 270.8 343.273 250.6C334.158 230.6 311.079 222 291.685 231Z" fill="#27AAE1"/>
<path d="M308.364 289.8C309.721 289.8 310.885 291 310.885 292.4C310.885 293.8 309.721 295 308.364 295C307.006 295 305.842 293.8 305.842 292.4C306.036 291 307.006 289.8 308.364 289.8Z" fill="#27AAE1"/>
<path d="M324.655 251.6C326.012 251.6 327.176 252.8 327.176 254.2C327.176 255.6 326.012 256.8 324.655 256.8C323.297 256.8 322.133 255.6 322.133 254.2C322.133 252.8 323.297 251.6 324.655 251.6Z" fill="#27AAE1"/>
<path d="M324.655 282C326.012 282 327.176 283.2 327.176 284.6C327.176 286 326.012 287.2 324.655 287.2C323.297 287.2 322.133 286 322.133 284.6C322.133 283.2 323.297 282 324.655 282Z" fill="#27AAE1"/>
<path d="M330.085 267C331.442 267 332.606 268.2 332.606 269.6C332.606 271 331.442 272.2 330.085 272.2C328.727 272.2 327.564 271 327.564 269.6C327.758 268.2 328.727 267 330.085 267Z" fill="#27AAE1"/>
<path d="M312.63 248.6C312.63 246.6 311.079 245 309.139 245H308.364C306.424 245 304.873 246.8 304.873 248.6V269.8L294.788 280.2C293.236 281.8 293.43 284.2 294.788 285.8C296.145 287.4 298.667 287.4 300.218 285.8L311.467 274.2L311.661 274C312.242 273.4 312.63 272.4 312.63 271.4V248.6Z" fill="#27AAE1"/>
<path d="M272.679 263.8C278.109 253.6 289.745 230 287.806 214.6C286.255 201 274.036 191.2 260.849 192.8C247.661 194.4 238.158 207 239.709 220.6C241.649 236.2 258.327 256.2 266.085 264.6C268.024 266.8 271.321 266.4 272.679 263.8Z" fill="#27AAE1"/>
<path d="M275.2 200.6C274.23 201.8 272.485 203 270.545 204C268.024 205.2 271.515 209.8 271.709 211.8C271.903 213.2 270.933 214.6 269.576 214.6C268.218 214.8 266.861 213.8 266.861 212.4C266.473 209.2 268.994 205.4 262.594 206.2C256.97 207 251.345 206.2 248.824 204C248.824 204.6 248.63 205.4 248.63 206C248.436 208.2 248.242 210.6 248.049 212.8C247.855 215.4 247.661 217.8 247.661 220.4C247.661 222 247.467 223.8 247.661 225.4C247.855 227.8 250.958 229.4 252.897 230C256.776 231.4 261.624 231.6 265.891 231C270.158 230.4 274.618 229.2 278.109 226.8C279.855 225.6 282.376 223.4 281.988 221C281.794 219.4 281.212 217.6 280.824 216C280.049 213.6 279.467 211.2 278.497 208.8C277.721 206.6 276.945 204.4 276.17 202.4C275.782 202 275.588 201.2 275.2 200.6Z" fill="white"/>
<path d="M412.703 384.6H404.364C403.782 384.6 403.2 384 403.2 383.4C403.2 382.8 403.782 382.2 404.364 382.2H412.703C413.285 382.2 413.867 382.8 413.867 383.4C413.867 384 413.285 384.6 412.703 384.6ZM396.024 384.6H387.685C387.103 384.6 386.521 384 386.521 383.4C386.521 382.8 387.103 382.2 387.685 382.2H396.024C396.606 382.2 397.188 382.8 397.188 383.4C397.188 384 396.606 384.6 396.024 384.6ZM379.345 384.6H371.006C370.424 384.6 369.842 384 369.842 383.4C369.842 382.8 370.424 382.2 371.006 382.2H379.345C379.927 382.2 380.509 382.8 380.509 383.4C380.509 384 379.927 384.6 379.345 384.6ZM362.667 384.6H354.327C353.745 384.6 353.164 384 353.164 383.4C353.164 382.8 353.745 382.2 354.327 382.2H362.667C363.249 382.2 363.83 382.8 363.83 383.4C363.83 384 363.249 384.6 362.667 384.6ZM345.988 384.6H337.649C337.067 384.6 336.485 384 336.485 383.4C336.485 382.8 337.067 382.2 337.649 382.2H345.988C346.57 382.2 347.152 382.8 347.152 383.4C347.152 384 346.57 384.6 345.988 384.6ZM329.309 384.6H320.97C320.388 384.6 319.806 384 319.806 383.4C319.806 382.8 320.388 382.2 320.97 382.2H329.309C329.891 382.2 330.473 382.8 330.473 383.4C330.473 384 329.891 384.6 329.309 384.6ZM312.63 384.6H304.291C303.709 384.6 303.127 384 303.127 383.4C303.127 382.8 303.709 382.2 304.291 382.2H312.63C313.212 382.2 313.794 382.8 313.794 383.4C313.794 384 313.212 384.6 312.63 384.6ZM295.758 384.6H294.788C293.042 384.6 291.491 383 291.491 381.2V377.2C291.491 376.6 292.073 376 292.655 376C293.236 376 293.818 376.6 293.818 377.2V381.2C293.818 381.8 294.4 382.4 294.982 382.4H295.952C296.533 382.4 297.115 383 297.115 383.6C297.115 384.2 296.533 384.6 295.758 384.6ZM415.03 377.2C414.449 377.2 413.867 376.6 413.867 376V367.4C413.867 366.8 414.449 366.2 415.03 366.2C415.612 366.2 416.194 366.8 416.194 367.4V376C416 376.6 415.612 377.2 415.03 377.2ZM292.655 369.6C292.073 369.6 291.491 369 291.491 368.4V359.8C291.491 359.2 292.073 358.6 292.655 358.6C293.236 358.6 293.818 359.2 293.818 359.8V368.4C293.818 369 293.236 369.6 292.655 369.6ZM415.03 360C414.449 360 413.867 359.4 413.867 358.8V350.2C413.867 349.6 414.449 349 415.03 349C415.612 349 416.194 349.6 416.194 350.2V358.8C416 359.4 415.612 360 415.03 360ZM292.655 352.4C292.073 352.4 291.491 351.8 291.491 351.2V342.6C291.491 342 292.073 341.4 292.655 341.4C293.236 341.4 293.818 342 293.818 342.6V351.2C293.818 351.8 293.236 352.4 292.655 352.4ZM415.03 342.8C414.449 342.8 413.867 342.2 413.867 341.6V333C413.867 332.4 414.449 331.8 415.03 331.8C415.612 331.8 416.194 332.4 416.194 333V341.6C416 342.2 415.612 342.8 415.03 342.8ZM292.655 335.2C292.073 335.2 291.491 334.6 291.491 334V329C291.491 327.2 293.042 325.6 294.788 325.6C295.37 325.6 295.952 326.2 295.952 326.8C295.952 327.4 295.564 328 294.788 328C294.206 328 293.624 328.6 293.624 329.2V334.2C293.818 334.6 293.236 335.2 292.655 335.2ZM411.733 327.8H403.394C402.812 327.8 402.23 327.2 402.23 326.6C402.23 326 402.812 325.4 403.394 325.4H411.733C412.315 325.4 412.897 326 412.897 326.6C412.897 327.2 412.315 327.8 411.733 327.8ZM395.055 327.8H386.715C386.133 327.8 385.552 327.2 385.552 326.6C385.552 326 386.133 325.4 386.715 325.4H395.055C395.636 325.4 396.218 326 396.218 326.6C396.218 327.2 395.636 327.8 395.055 327.8ZM378.376 327.8H370.036C369.455 327.8 368.873 327.2 368.873 326.6C368.873 326 369.455 325.4 370.036 325.4H378.376C378.958 325.4 379.539 326 379.539 326.6C379.539 327.2 378.958 327.8 378.376 327.8ZM361.697 327.8H353.358C352.776 327.8 352.194 327.2 352.194 326.6C352.194 326 352.776 325.4 353.358 325.4H361.697C362.279 325.4 362.861 326 362.861 326.6C362.861 327.2 362.279 327.8 361.697 327.8ZM345.018 327.8H336.679C336.097 327.8 335.515 327.2 335.515 326.6C335.515 326 336.097 325.4 336.679 325.4H345.018C345.6 325.4 346.182 326 346.182 326.6C345.988 327.2 345.6 327.8 345.018 327.8ZM328.339 327.8H320C319.418 327.8 318.836 327.2 318.836 326.6C318.836 326 319.418 325.4 320 325.4H328.339C328.921 325.4 329.503 326 329.503 326.6C329.309 327.2 328.921 327.8 328.339 327.8ZM311.661 327.8H303.321C302.739 327.8 302.158 327.2 302.158 326.6C302.158 326 302.739 325.4 303.321 325.4H311.661C312.242 325.4 312.824 326 312.824 326.6C312.63 327.2 312.242 327.8 311.661 327.8Z" fill="#27AAE1"/>
<path d="M303.962 340.2H311.354C313.76 340.2 315.564 340.845 316.766 342.136C317.969 343.427 318.57 345.319 318.57 347.812V363.388C318.57 365.881 317.969 367.773 316.766 369.064C315.564 370.355 313.76 371 311.354 371H303.962V340.2ZM311.266 366.6C312.058 366.6 312.66 366.365 313.07 365.896C313.51 365.427 313.73 364.664 313.73 363.608V347.592C313.73 346.536 313.51 345.773 313.07 345.304C312.66 344.835 312.058 344.6 311.266 344.6H308.802V366.6H311.266ZM328.921 371.44C326.575 371.44 324.785 370.78 323.553 369.46C322.321 368.111 321.705 366.189 321.705 363.696V361.276H326.281V364.048C326.281 366.043 327.117 367.04 328.789 367.04C330.461 367.04 331.297 366.043 331.297 364.048V357.14C331.297 355.116 330.461 354.104 328.789 354.104C327.117 354.104 326.281 355.116 326.281 357.14V357.404H321.705L322.585 340.2H335.345V344.6H326.897L326.501 351.948H326.589C327.499 350.452 328.892 349.704 330.769 349.704C332.529 349.704 333.864 350.305 334.773 351.508C335.683 352.711 336.137 354.456 336.137 356.744V363.696C336.137 366.189 335.521 368.111 334.289 369.46C333.057 370.78 331.268 371.44 328.921 371.44ZM346.274 371.44C343.928 371.44 342.138 370.78 340.906 369.46C339.674 368.111 339.058 366.189 339.058 363.696V363.124H343.634V364.004C343.634 366.028 344.47 367.04 346.142 367.04C347.052 367.04 347.726 366.761 348.166 366.204C348.606 365.647 348.826 364.664 348.826 363.256V357.36H348.738C347.888 359.149 346.421 360.044 344.338 360.044C342.578 360.044 341.244 359.443 340.334 358.24C339.425 357.037 338.97 355.292 338.97 353.004V347.504C338.97 345.04 339.601 343.133 340.862 341.784C342.124 340.435 343.942 339.76 346.318 339.76C348.694 339.76 350.513 340.435 351.774 341.784C353.036 343.133 353.666 345.04 353.666 347.504V363.432C353.666 368.771 351.202 371.44 346.274 371.44ZM346.318 355.644C347.99 355.644 348.826 354.632 348.826 352.608V347.152C348.826 345.157 347.99 344.16 346.318 344.16C344.646 344.16 343.81 345.157 343.81 347.152V352.608C343.81 354.632 344.646 355.644 346.318 355.644ZM365.168 365.412H355.928V361.012L364.728 340.2H370.008V361.012H372.296V365.412H370.008V371H365.168V365.412ZM365.168 361.012V349H365.08L360.328 361.012H365.168ZM378.429 340.2H384.985L390.001 371H385.161L384.281 364.884V364.972H378.781L377.901 371H373.413L378.429 340.2ZM383.709 360.792L381.553 345.568H381.465L379.353 360.792H383.709ZM394.773 357.888L388.921 340.2H394.069L397.369 351.508H397.457L400.757 340.2H405.465L399.613 357.888V371H394.773V357.888Z" fill="#5E5E5E"/>
</svg>
