<svg width="512" height="512" viewBox="0 0 512 512" fill="none" xmlns="http://www.w3.org/2000/svg">
<g id="solutions--property-sector">
<g id="Group">
<path id="Vector" d="M273.067 430.6C363.36 430.6 436.557 355.115 436.557 262C436.557 168.885 363.36 93.4 273.067 93.4C182.773 93.4 109.576 168.885 109.576 262C109.576 355.115 182.773 430.6 273.067 430.6Z" fill="#F8F8F9"/>
<g id="Group_2">
<path id="Vector_2" d="M227.297 183.6C226.715 183.6 226.327 183.2 226.327 182.6C226.327 182 226.133 181.2 226.133 180.6C225.939 179.4 225.939 178.6 225.939 178.6C225.939 178 226.327 177.6 226.909 177.6C227.491 177.6 227.879 178 227.879 178.4C227.879 179 228.073 179.6 228.073 180.4C228.073 181 228.267 181.6 228.267 182.4C228.267 183 228.073 183.4 227.491 183.6H227.297Z" fill="#5E5F5F"/>
<path id="Vector_3" d="M267.442 238.6C267.248 238.6 267.055 238.6 267.055 238.4C264.533 237 262.012 235.4 259.491 233.8C259.103 233.4 258.909 232.8 259.297 232.4C259.685 232 260.267 231.8 260.655 232.2C262.982 233.8 265.503 235.2 268.024 236.6C268.412 236.8 268.606 237.4 268.412 238C268.024 238.4 267.636 238.6 267.442 238.6ZM241.067 215.8C240.679 215.8 240.485 215.6 240.291 215.4C238.545 213 236.994 210.4 235.442 207.8C235.248 207.4 235.248 206.8 235.83 206.4C236.218 206.2 236.8 206.2 237.188 206.8C238.545 209.4 240.291 211.8 241.842 214.2C242.23 214.6 242.036 215.2 241.648 215.6C241.455 215.8 241.261 215.8 241.067 215.8Z" fill="#5E5F5F"/>
<path id="Vector_4" d="M327.37 251.6H325.818C325.236 251.6 324.848 251.2 324.848 250.6C324.848 250 325.236 249.6 325.818 249.6H327.176C329.503 249.6 331.83 249.6 334.351 249.4C334.933 249.4 335.321 249.8 335.321 250.4C335.321 251 334.933 251.4 334.351 251.4C332.218 251.6 329.697 251.6 327.37 251.6ZM300.218 249.4C300.024 249.4 300.024 249.4 300.218 249.4C297.115 248.8 294.206 248.2 291.491 247.6C290.909 247.4 290.715 247 290.715 246.4C290.909 245.8 291.297 245.6 291.879 245.6C294.594 246.2 297.503 246.8 300.218 247.4C300.8 247.4 301.188 248 300.994 248.6C300.994 249 300.606 249.4 300.218 249.4ZM360.339 249C359.951 249 359.37 248.6 359.37 248.2C359.37 247.6 359.758 247.2 360.145 247C362.861 246.6 365.77 246.2 368.679 245.6C369.261 245.6 369.648 245.8 369.842 246.4C369.842 247 369.648 247.4 369.067 247.6C366.158 248.2 363.248 248.6 360.339 249C360.533 249 360.533 249 360.339 249Z" fill="#5E5F5F"/>
<path id="Vector_5" d="M395.248 244.4C395.054 244.4 394.667 244.4 394.473 244.2C394.085 243.8 394.085 243.2 394.473 242.8L394.667 242.6H394.473C393.891 242.8 393.503 242.4 393.309 241.8C393.115 241.2 393.503 240.8 394.085 240.6C395.248 240.2 396.606 240 397.77 239.6C398.158 239.4 398.739 239.8 398.933 240.2C399.127 240.6 399.127 241.2 398.739 241.4C398.739 241.4 397.77 242.4 396.024 244C395.83 244.2 395.636 244.4 395.248 244.4Z" fill="#5E5F5F"/>
<path id="Vector_6" d="M371.782 282.8C371.588 282.8 371.588 282.8 371.394 282.8C370.812 282.6 370.618 282 370.812 281.6C371.588 279.8 372.17 278 372.945 276.2C373.139 275.6 373.721 275.4 374.303 275.6C374.885 275.8 375.079 276.4 374.885 277C374.109 278.6 373.333 280.4 372.751 282.2C372.557 282.6 372.17 282.8 371.782 282.8ZM381.673 262.4C381.479 262.4 381.285 262.4 381.091 262.2C380.703 262 380.509 261.2 380.703 260.8C381.673 259.2 382.642 257.6 383.806 256C384.194 255.6 384.776 255.4 385.163 255.8C385.551 256.2 385.745 256.8 385.357 257.2C384.388 258.8 383.224 260.4 382.254 262C382.448 262.2 382.06 262.4 381.673 262.4Z" fill="#5E5F5F"/>
<path id="Vector_7" d="M361.697 350.4C361.115 350.4 360.727 350 360.727 349.4C360.533 347.4 360.533 345.6 360.533 343.6C360.533 343 360.921 342.6 361.503 342.6C362.085 342.6 362.473 343 362.473 343.6C362.473 345.4 362.667 347.4 362.667 349.4C362.667 350 362.279 350.4 361.697 350.4ZM361.891 327.6C361.891 327.6 361.891 327.4 361.891 327.6C361.309 327.6 360.921 327 360.921 326.6C361.115 324.6 361.309 322.8 361.503 320.8C361.503 320.2 362.085 319.8 362.667 320C363.248 320 363.636 320.6 363.442 321.2C363.248 323 363.054 325 362.861 326.8C362.861 327.2 362.473 327.6 361.891 327.6ZM365.188 304.8H364.994C364.412 304.6 364.218 304.2 364.218 303.6C364.606 301.6 364.994 299.8 365.576 298C365.77 297.4 366.157 297.2 366.739 297.2C367.321 297.4 367.515 297.8 367.515 298.4C367.127 300.2 366.545 302 366.157 304C365.964 304.4 365.576 304.8 365.188 304.8Z" fill="#5E5F5F"/>
<path id="Vector_8" d="M363.83 371.6C363.636 371.6 363.442 371.6 363.442 371.4C363.442 371.4 362.279 370.8 359.952 369.6C359.564 369.4 359.37 368.8 359.564 368.2C359.758 367.6 360.339 367.6 360.921 367.8C361.503 368.2 362.085 368.4 362.667 368.8C362.667 368.2 362.473 367.4 362.473 366.8C362.473 366.2 362.861 365.8 363.248 365.6C363.83 365.6 364.218 366 364.412 366.4C364.606 367.8 364.8 369 364.994 370.4C364.994 370.8 364.994 371.2 364.606 371.4C364.218 371.4 364.024 371.6 363.83 371.6Z" fill="#5E5F5F"/>
<path id="Vector_9" d="M336.873 358.2C336.679 358.2 336.679 358.2 336.485 358.2C333.964 357 331.248 356 328.533 354.8C327.951 354.6 327.757 354 327.951 353.4C328.145 352.8 328.727 352.6 329.309 352.8C332.024 354 334.739 355.2 337.26 356.2C337.842 356.4 338.036 357 337.842 357.6C337.648 358 337.26 358.2 336.873 358.2ZM304.485 345.4C304.291 345.4 304.291 345.4 304.097 345.4C301.382 344.4 298.667 343.6 295.951 342.6C295.37 342.4 295.176 341.8 295.37 341.4C295.564 340.8 296.145 340.6 296.533 340.8C299.248 341.8 302.157 342.6 304.873 343.6C305.454 343.8 305.648 344.4 305.454 344.8C305.261 345 304.873 345.4 304.485 345.4Z" fill="#5E5F5F"/>
<path id="Vector_10" d="M271.127 335.2H270.933C268.218 334.6 265.309 333.8 262.4 333.2C261.818 333 261.624 332.6 261.624 332C261.818 331.4 262.206 331.2 262.788 331.2C265.697 331.8 268.412 332.4 271.321 333.2C271.903 333.4 272.097 333.8 272.097 334.4C271.903 335 271.515 335.2 271.127 335.2ZM193.358 329.6C192.97 329.6 192.388 329.2 192.388 328.8C192.388 328.2 192.582 327.8 193.164 327.6C196.073 327.2 198.982 326.8 201.891 326.6C202.473 326.6 202.861 327 202.861 327.6C202.861 328.2 202.473 328.6 201.891 328.6C199.176 328.8 196.461 329.2 193.358 329.6C193.551 329.6 193.551 329.6 193.358 329.6ZM236.8 329C233.697 328.6 230.788 328.4 228.073 328.2C227.491 328.2 227.103 327.6 227.103 327.2C227.103 326.8 227.491 326.2 228.073 326.2C230.982 326.4 233.891 326.6 236.8 327C237.382 327 237.77 327.6 237.576 328C237.77 328.6 237.382 329 236.8 329Z" fill="#5E5F5F"/>
<path id="Vector_11" d="M164.848 338.2C164.461 338.2 164.073 338 164.073 337.6C163.879 337.2 164.073 336.6 164.461 336.2C164.461 336.2 165.624 335.4 167.564 334C167.951 333.6 168.533 333.8 168.921 334.2C169.115 334.4 169.115 334.6 169.115 334.6C169.309 334.8 169.309 334.8 169.503 335C169.697 335.6 169.503 336 168.921 336.4C167.758 337 166.594 337.4 165.43 338C165.042 338.2 164.848 338.2 164.848 338.2Z" fill="#5E5F5F"/>
<path id="Vector_12" d="M184.242 321.2C184.048 321.2 183.661 321.2 183.661 321C183.273 320.6 183.273 320 183.661 319.6C185.406 317.8 186.958 316 188.509 314.2C188.897 313.8 189.479 313.8 189.867 314.2C190.254 314.6 190.254 315.2 189.867 315.6C188.315 317.4 186.57 319.4 185.018 321.2C184.63 321 184.436 321.2 184.242 321.2ZM202.085 297.8C201.891 297.8 201.697 297.8 201.503 297.6C201.115 297.4 200.921 296.6 201.309 296.2C202.667 294.2 203.83 292 204.994 289.8C205.188 289.4 205.77 289.2 206.351 289.4C206.739 289.6 206.933 290.2 206.739 290.8C205.576 293 204.218 295 202.861 297.2C202.861 297.6 202.473 297.8 202.085 297.8Z" fill="#5E5F5F"/>
<path id="Vector_13" d="M215.467 271.4C215.273 271.4 215.273 271.4 215.079 271.4C214.497 271.2 214.303 270.6 214.497 270C215.467 267.8 216.242 265.4 217.018 263C217.212 262.4 217.794 262.2 218.182 262.4C218.764 262.6 218.958 263.2 218.764 263.6C217.988 266 217.018 268.4 216.242 270.6C216.242 271.2 215.854 271.4 215.467 271.4ZM224 243H223.806C223.224 242.8 223.03 242.4 223.03 241.8C223.612 239.4 224 237 224.388 234.6C224.388 234 224.97 233.6 225.551 233.8C226.133 233.8 226.521 234.4 226.327 235C225.939 237.4 225.358 240 224.97 242.4C224.97 242.6 224.582 243 224 243ZM227.879 213.4C227.297 213.4 226.909 213 226.909 212.4C227.103 210 227.103 207.4 227.103 205C227.103 204.4 227.491 204 228.073 204C228.654 204 229.042 204.4 229.042 205C229.042 207.4 228.848 210 228.848 212.4C228.848 213 228.267 213.4 227.879 213.4Z" fill="#5E5F5F"/>
</g>
<g id="Group_3">
<g id="Group_4">
<g id="Group_5">
<g id="Group_6">
<path id="Vector_14" d="M270.351 414L318.061 385.8V306L270.351 334.2V414Z" fill="#C4E9F6"/>
<path id="Vector_15" d="M270.351 420.4L318.061 392.2V385.8L270.351 414V420.4Z" fill="#334048"/>
<g id="Group_7">
<path id="Vector_16" d="M289.164 409.2L299.248 403.2V383L289.164 389V409.2Z" fill="#434343"/>
<path id="Vector_17" d="M297.891 404.2V385.2L290.521 389.6V408.6L297.891 404.2Z" fill="#787878"/>
</g>
</g>
<g id="Group_8">
<path id="Vector_18" d="M222.836 385.8L270.351 414V334.2L222.836 306V385.8Z" fill="#C4E9F6"/>
<path id="Vector_19" d="M222.836 392.2L270.351 420.4V414L222.836 385.8V392.2Z" fill="#787878"/>
</g>
</g>
<g id="Group_9">
<g id="Group_10">
<path id="Vector_20" d="M218.376 305L270.351 274V270L218.376 301V305Z" fill="#3F4D57"/>
<path id="Vector_21" d="M218.376 301L270.351 332L322.327 305V301L270.351 270L218.376 301Z" fill="#C4E9F6"/>
<path id="Vector_22" d="M270.351 335.8L322.327 305V301L270.351 332V335.8Z" fill="#334048"/>
<path id="Vector_23" d="M218.376 305L270.351 335.8V332L218.376 301V305Z" fill="#787878"/>
</g>
<g id="Group_11">
<path id="Vector_24" d="M224 300.8L270.352 273.2V269.8L224 297.4V300.8Z" fill="#3F4D57"/>
<path id="Vector_25" d="M224 297.4L270.352 325L316.897 300.8V297.4L270.352 269.8L224 297.4Z" fill="#999999"/>
<path id="Vector_26" d="M270.352 328.4L316.897 300.8V297.4L270.352 325V328.4Z" fill="#334048"/>
<path id="Vector_27" d="M224 300.8L270.352 328.4V325L224 297.4V300.8Z" fill="#787878"/>
</g>
</g>
</g>
</g>
<g id="Group_12">
<g id="Group_13">
<path id="Vector_28" d="M253.091 175.2L284.509 194V144.8L253.091 144.6V175.2Z" fill="#C4E9F6"/>
<path id="Vector_29" d="M364.412 96.8L284.509 144.8V194L364.412 146.2V96.8Z" fill="#6BAFD1"/>
</g>
<g id="Group_14">
<path id="Vector_30" d="M290.715 190.2L338.424 218.8V181.4L290.715 153V190.2Z" fill="#C4E9F6"/>
<path id="Vector_31" d="M412.121 137.2L338.424 181.4V218.8L412.121 174.6V137.2Z" fill="#6BAFD1"/>
<path id="Vector_32" d="M290.715 154.6L338.424 183.2V181.4L290.715 153V154.6Z" fill="#86C0E4"/>
<path id="Vector_33" d="M412.121 137.2L338.424 181.4V183.2L412.121 139V137.2Z" fill="#1F376B"/>
<path id="Vector_34" d="M290.715 190.2L338.424 218.8V216.6L290.715 188.2V190.2Z" fill="#C4E9F6"/>
<path id="Vector_35" opacity="0.5" d="M412.121 172.4L338.424 216.6V218.8L412.121 174.6V172.4Z" fill="#86C0E4"/>
<path id="Vector_36" d="M364.412 108.8L290.715 153L338.424 181.4L412.121 137.2L364.412 108.8Z" fill="#999999"/>
</g>
<g id="Group_15">
<path id="Vector_37" d="M295.564 172.8V199.6L322.133 215.4V188.6L295.564 172.8Z" fill="#787878"/>
<path id="Vector_38" d="M327.951 212.4L322.133 216.2V188.4L327.951 184.4V212.4Z" fill="#434343"/>
<path id="Vector_39" d="M296.921 200.6L296.145 201V173L296.921 172.6V200.6Z" fill="#434343"/>
<path id="Vector_40" d="M301.188 168.8L295.37 172.6L322.133 188.4L327.951 184.4L301.188 168.8Z" fill="#434343"/>
<path id="Vector_41" d="M322.133 188.4L295.37 172.6V200.6L296.145 201V174.2L321.357 189V215.8L322.133 216.2V188.4Z" fill="#434343"/>
</g>
<g id="Group_16">
<path id="Vector_42" d="M252.509 150.2V159L279.079 174.6V165.8L252.509 150.2Z" fill="#787878"/>
<path id="Vector_43" d="M279.854 175.2L279.079 175.6V165.6L279.854 165.2V175.2Z" fill="#434343"/>
<path id="Vector_44" d="M253.867 159.8L253.091 160.4V150.4L253.867 149.8V159.8Z" fill="#434343"/>
<path id="Vector_45" d="M253.091 149.4L252.315 149.8L279.079 165.6L279.854 165.2L253.091 149.4Z" fill="#434343"/>
<path id="Vector_46" d="M253.867 159L253.091 159.4L278.303 174.4L279.079 173.8L253.867 159Z" fill="#434343"/>
<path id="Vector_47" d="M252.315 149.8V159.8L279.079 175.6V165.6L252.315 149.8ZM253.091 159.4V151.4L278.303 166.2V174.2L253.091 159.4Z" fill="#434343"/>
</g>
<g id="Group_17">
<path id="Vector_48" d="M252.897 144.6L284.703 144.8V143.4H252.897V144.6Z" fill="#86C0E4"/>
<path id="Vector_49" d="M364.412 95.6L284.703 143.4V144.8L364.412 97V95.6Z" fill="#1F376B"/>
<path id="Vector_50" d="M332.8 95.6L252.897 143.4H284.703L364.412 95.6H332.8Z" fill="#999999"/>
</g>
<g id="Group_18">
<path id="Vector_51" d="M407.467 175.2L409.018 176.6L397.576 183.4L396.024 182.2L407.467 175.2Z" fill="#434343"/>
<path id="Vector_52" d="M408.048 160.6V175L396.8 181.8V167.4L408.048 160.6Z" fill="#787878"/>
<path id="Vector_53" d="M395.83 182.2L396.8 182.8V167L395.83 166.6V182.2Z" fill="#434343"/>
<path id="Vector_54" d="M406.497 176L407.273 176.6V160.8L406.497 160.2V176Z" fill="#434343"/>
<path id="Vector_55" d="M407.273 159.8L408.242 160.2L396.8 167L395.83 166.6L407.273 159.8Z" fill="#434343"/>
<path id="Vector_56" d="M396.8 167.2V167L408.242 160.2V176L407.273 176.6V163.2L397.576 169V182.2L396.8 182.8V167.2Z" fill="#434343"/>
</g>
</g>
<g id="Group_19">
<g id="Group_20">
<g id="Group_21">
<g id="Group_22">
<g id="Group_23">
<path id="Vector_57" d="M116.364 257.2L85.7212 238L86.303 216.2L97.7454 216L116.945 235.2L116.364 257.2Z" fill="#C4E9F6"/>
<path id="Vector_58" d="M116.364 257.2L165.042 229.6L165.624 207.8L116.945 235.2L116.364 257.2Z" fill="#6BAFD1"/>
</g>
<g id="Group_24">
<path id="Vector_59" d="M95.2242 216.8L85.7212 215.8L135.176 187.8L146.618 187.6L95.2242 216.8Z" fill="#C4E9F6"/>
<path id="Vector_60" d="M97.3575 215.4L116.751 235L165.818 207.4L146.618 187.6L97.3575 215.4Z" fill="#999999"/>
<path id="Vector_61" d="M97.3576 215.4L85.7212 215.8V217L97.1636 216.8L116.751 236.4V235L97.3576 215.4Z" fill="#787878"/>
<path id="Vector_62" d="M166.012 208.6L165.818 207.4L116.751 235V236.4L166.012 208.6Z" fill="#86C0E4"/>
</g>
<g id="Group_25">
<path id="Vector_63" d="M85.3333 226.6V228L115.976 247V245.8L85.3333 226.6Z" fill="#787878"/>
<g id="Group_26">
<path id="Vector_64" d="M115.976 245.8V247L116.558 246.6L116.751 245.4L115.976 245.8Z" fill="#86C0E4"/>
</g>
<path id="Vector_65" d="M85.3333 226.6L86.109 226.2L116.751 245.4L115.976 245.8L85.3333 226.6Z" fill="#C4E9F6"/>
</g>
</g>
<g id="Group_27">
<g id="Group_28">
<path id="Vector_66" d="M181.333 277L212.751 259.4L213.333 237.6L201.891 236.8L181.915 255.2L181.333 277Z" fill="#6BAFD1"/>
<path id="Vector_67" d="M181.333 277L134.012 247.2L134.4 225.4L181.915 255.2L181.333 277Z" fill="#C4E9F6"/>
<path id="Vector_68" d="M186.57 280.2V280.8L134.012 247.6V247.2L186.57 280.2Z" fill="#787878"/>
</g>
<g id="Group_29">
<g id="Group_30">
<path id="Vector_69" d="M180.17 276.2L170.279 270L170.473 260.8L180.364 267L180.17 276.2Z" fill="#6BAFD1"/>
<g id="Group_31">
<path id="Vector_70" d="M170.667 269.8L170.86 261L180.363 267L180.17 275.8L170.667 269.8Z" fill="#787878"/>
</g>
</g>
</g>
<g id="Group_32">
<path id="Vector_71" d="M204.412 238.2L213.721 237.6L165.818 207.4L134.982 194.2L204.412 238.2Z" fill="#999999"/>
<path id="Vector_72" d="M202.279 236.8L181.915 255.4L133.818 225.2L134.982 194.2L202.279 236.8Z" fill="#C4E9F6"/>
<path id="Vector_73" d="M202.085 236.8L213.721 237.6V239L202.279 238.2L181.915 256.8V255.4L202.085 236.8Z" fill="#86C0E4"/>
<path id="Vector_74" d="M133.818 226.6V225.2L181.915 255.4V256.8L133.818 226.6Z" fill="#787878"/>
</g>
<path id="Vector_75" d="M186.764 271.8L186.57 280.2L181.333 277L181.527 268.4L186.764 271.8Z" fill="#C4E9F6"/>
<path id="Vector_76" d="M218.182 254.2L186.764 271.8L186.57 280.2L217.988 262.6L218.182 254.2Z" fill="#6BAFD1"/>
<g id="Group_33">
<path id="Vector_77" d="M218.182 254.4L213.721 250.6L181.527 267V268.4L186.57 272L218.182 254.4Z" fill="#86C0E4"/>
<path id="Vector_78" d="M213.721 248.6V249.8L182.303 267.4V266.2L213.721 248.6Z" fill="#728694"/>
<g id="Group_34">
<path id="Vector_79" d="M182.303 266V267.4L181.527 267V265.6L182.303 266Z" fill="#86C0E4"/>
</g>
<path id="Vector_80" d="M213.721 248.6L212.945 248L181.527 265.6L182.303 266.2L213.721 248.6Z" fill="#C4E9F6"/>
<path id="Vector_81" d="M218.182 253.6L213.721 249.8L182.303 267.4L186.764 271.2L218.182 253.6Z" fill="#C4E9F6"/>
<path id="Vector_82" d="M218.182 254.4V253.6L186.764 271.2L186.57 272L218.182 254.4Z" fill="#728694"/>
</g>
</g>
</g>
<g id="Group_35">
<g id="Group_36">
<path id="Vector_83" d="M111.515 254L102.594 248.4L102.788 240L111.709 245.6L111.515 254Z" fill="#6BAFD1"/>
<g id="Group_37">
<path id="Vector_84" d="M102.788 248.2L102.982 240.2L111.709 245.6L111.515 253.8L102.788 248.2Z" fill="#787878"/>
</g>
</g>
</g>
<g id="Group_38">
<g id="Group_39">
<path id="Vector_85" d="M98.1333 245.8L89.212 240L89.406 231.6L98.3272 237.2L98.1333 245.8Z" fill="#6BAFD1"/>
<g id="Group_40">
<path id="Vector_86" d="M89.6 240L89.7939 231.8L98.3272 237.2V245.4L89.6 240Z" fill="#787878"/>
</g>
</g>
</g>
<path id="Vector_87" d="M186.57 280.2V280.8L217.988 263V262.6L186.57 280.2Z" fill="#728694"/>
<path id="Vector_88" d="M85.7212 237.8L116.364 257.2V257.6L85.7212 238.4V237.8Z" fill="#787878"/>
<path id="Vector_89" d="M116.364 257.2V257.6L134.012 247.6V247.2L116.364 257.2Z" fill="#728694"/>
</g>
</g>
<g id="Group_41">
<path id="Vector_90" d="M168.339 341C172.606 333.2 181.527 315 179.976 303C178.618 292.4 169.309 285 159.224 286.2C148.945 287.6 141.77 297 142.933 307.6C144.291 319.6 157.285 335 163.297 341.4C164.848 343.2 167.176 343 168.339 341Z" fill="#27AAE1"/>
<path id="Vector_91" d="M170.279 292.2C169.503 293.2 168.145 294 166.594 294.8C164.654 295.8 167.37 299.2 167.564 300.8C167.758 301.8 166.982 302.8 165.818 303C164.848 303.2 163.879 302.4 163.685 301.2C163.297 298.6 165.236 295.8 160.388 296.4C156.121 297 151.854 296.4 149.721 294.8C149.721 295.4 149.527 295.8 149.527 296.4C149.333 298.2 149.139 299.8 148.945 301.6C148.751 303.6 148.751 305.4 148.558 307.4C148.558 308.6 148.364 310 148.558 311.2C148.751 313 151.079 314.2 152.436 314.8C155.539 316 159.224 316 162.327 315.6C165.43 315.2 169.115 314.2 171.83 312.4C173.188 311.6 175.127 309.8 174.739 308C174.545 306.8 174.158 305.4 173.77 304.2C173.188 302.4 172.606 300.4 172.024 298.6C171.442 297 170.861 295.2 170.279 293.6C170.667 293.2 170.473 292.8 170.279 292.2Z" fill="white"/>
</g>
<g id="Group_42">
<path id="Vector_92" d="M402.812 251.6C407.079 243.8 416 225.6 414.448 213.6C413.091 203 403.782 195.6 393.697 196.8C383.612 198 376.242 207.6 377.406 218.2C378.764 230.2 391.758 245.6 397.77 252C399.127 253.8 401.648 253.4 402.812 251.6Z" fill="#27AAE1"/>
<path id="Vector_93" d="M404.751 202.8C403.976 203.8 402.618 204.6 401.067 205.4C399.127 206.4 401.842 209.8 402.036 211.4C402.23 212.4 401.454 213.4 400.291 213.6C399.321 213.8 398.351 213 398.158 211.8C397.77 209.2 399.709 206.4 394.861 207C390.594 207.6 386.327 207 384.194 205.4C384.194 206 384 206.4 384 207C383.806 208.8 383.612 210.4 383.418 212.2C383.224 214.2 383.224 216 383.03 218C383.03 219.2 382.836 220.6 383.03 221.8C383.224 223.6 385.551 224.8 386.909 225.4C390.012 226.6 393.697 226.6 396.8 226.2C399.903 225.8 403.588 224.8 406.303 223C407.661 222.2 409.6 220.4 409.212 218.6C409.018 217.4 408.63 216 408.242 214.8C407.661 213 407.079 211 406.497 209.2C405.915 207.6 405.333 205.8 404.751 204.2C405.139 203.8 404.945 203.4 404.751 202.8Z" fill="white"/>
</g>
<g id="Group_43">
<path id="Vector_94" d="M364.606 373.8C367.709 368 374.497 354 373.527 345.2C372.558 337.2 365.576 331.6 357.818 332.6C350.061 333.6 344.63 340.8 345.6 348.8C346.764 357.8 356.461 369.4 360.921 374.4C361.891 375.4 363.83 375.2 364.606 373.8Z" fill="#27AAE1"/>
<path id="Vector_95" d="M366.158 337C365.576 337.8 364.606 338.4 363.442 339C361.891 339.8 364.024 342.4 364.024 343.6C364.218 344.4 363.636 345.2 362.667 345.2C361.891 345.4 361.115 344.8 361.115 343.8C360.921 341.8 362.279 339.6 358.594 340.2C355.297 340.6 352 340.2 350.642 339C350.642 339.4 350.448 339.8 350.448 340.2C350.254 341.6 350.254 342.8 350.061 344.2C349.867 345.6 349.867 347.2 349.867 348.6C349.867 349.6 349.867 350.6 349.867 351.6C350.061 353 351.806 353.8 352.776 354.2C355.103 355 357.818 355.2 360.339 354.8C362.667 354.4 365.382 353.8 367.515 352.4C368.485 351.8 370.036 350.4 369.842 349C369.648 348 369.454 347 369.261 346.2C368.873 344.8 368.485 343.4 367.903 342C367.515 340.8 367.127 339.4 366.545 338.2C366.351 337.8 366.351 337.4 366.158 337Z" fill="white"/>
</g>
<path id="otp-code-holder" d="M212.945 173H202.667C201.891 173 201.309 172.4 201.309 171.6C201.309 170.8 201.891 170.2 202.667 170.2H212.945C213.721 170.2 214.303 170.8 214.303 171.6C214.303 172.4 213.721 173 212.945 173ZM192.582 173H182.303C181.527 173 180.945 172.4 180.945 171.6C180.945 170.8 181.527 170.2 182.303 170.2H192.582C193.358 170.2 193.939 170.8 193.939 171.6C193.939 172.4 193.358 173 192.582 173ZM172.218 173H161.939C161.164 173 160.582 172.4 160.582 171.6C160.582 170.8 161.164 170.2 161.939 170.2H172.218C172.994 170.2 173.576 170.8 173.576 171.6C173.576 172.4 172.994 173 172.218 173ZM151.854 173H141.576C140.8 173 140.218 172.4 140.218 171.6C140.218 170.8 140.8 170.2 141.576 170.2H151.854C152.63 170.2 153.212 170.8 153.212 171.6C153.212 172.4 152.63 173 151.854 173ZM131.491 173H121.212C120.436 173 119.854 172.4 119.854 171.6C119.854 170.8 120.436 170.2 121.212 170.2H131.491C132.267 170.2 132.848 170.8 132.848 171.6C132.848 172.4 132.267 173 131.491 173ZM111.127 173H100.848C100.073 173 99.4908 172.4 99.4908 171.6C99.4908 170.8 100.073 170.2 100.848 170.2H111.127C111.903 170.2 112.485 170.8 112.485 171.6C112.485 172.4 111.903 173 111.127 173ZM90.7636 173H80.4848C79.709 173 79.1272 172.4 79.1272 171.6C79.1272 170.8 79.709 170.2 80.4848 170.2H90.7636C91.5393 170.2 92.1212 170.8 92.1212 171.6C92.1212 172.4 91.3454 173 90.7636 173ZM70.3999 173H69.2363C67.103 173 65.1636 171.2 65.1636 168.8V164C65.1636 163.2 65.7454 162.6 66.5212 162.6C67.2969 162.6 67.8787 163.2 67.8787 164V169C67.8787 169.8 68.4605 170.4 69.2363 170.4H70.3999C71.1757 170.4 71.7575 171 71.7575 171.8C71.7575 172.6 70.9818 173 70.3999 173ZM215.661 164C214.885 164 214.303 163.4 214.303 162.6V152C214.303 151.2 214.885 150.6 215.661 150.6C216.436 150.6 217.018 151.2 217.018 152V162.6C217.018 163.4 216.436 164 215.661 164ZM66.5212 154.8C65.7454 154.8 65.1636 154.2 65.1636 153.4V142.8C65.1636 142 65.7454 141.4 66.5212 141.4C67.2969 141.4 67.8787 142 67.8787 142.8V153.4C67.8787 154.2 67.103 154.8 66.5212 154.8ZM215.661 143C214.885 143 214.303 142.4 214.303 141.6V131C214.303 130.2 214.885 129.6 215.661 129.6C216.436 129.6 217.018 130.2 217.018 131V141.6C217.018 142.4 216.436 143 215.661 143ZM66.5212 133.8C65.7454 133.8 65.1636 133.2 65.1636 132.4V122C65.1636 121.2 65.7454 120.6 66.5212 120.6C67.2969 120.6 67.8787 121.2 67.8787 122V132.6C67.8787 133.2 67.103 133.8 66.5212 133.8ZM215.661 122C214.885 122 214.303 121.4 214.303 120.6V110C214.303 109.2 214.885 108.6 215.661 108.6C216.436 108.6 217.018 109.2 217.018 110V120.6C217.018 121.4 216.436 122 215.661 122ZM66.5212 112.8C65.7454 112.8 65.1636 112.2 65.1636 111.4V105.2C65.1636 103 66.909 101 69.2363 101C70.0121 101 70.5939 101.6 70.5939 102.4C70.5939 103.2 70.0121 103.8 69.2363 103.8C68.4605 103.8 67.8787 104.4 67.8787 105.2V111.4C67.8787 112.2 67.103 112.8 66.5212 112.8ZM211.782 103.8H201.697C200.921 103.8 200.339 103.2 200.339 102.4C200.339 101.6 200.921 101 201.697 101H211.976C212.751 101 213.333 101.6 213.333 102.4C213.333 103.2 212.558 103.8 211.782 103.8ZM191.418 103.8H181.139C180.364 103.8 179.782 103.2 179.782 102.4C179.782 101.6 180.364 101 181.139 101H191.418C192.194 101 192.776 101.6 192.776 102.4C192.776 103.2 192.194 103.8 191.418 103.8ZM171.054 103.8H160.776C160 103.8 159.418 103.2 159.418 102.4C159.418 101.6 160 101 160.776 101H171.054C171.83 101 172.412 101.6 172.412 102.4C172.412 103.2 171.83 103.8 171.054 103.8ZM150.691 103.8H140.412C139.636 103.8 139.054 103.2 139.054 102.4C139.054 101.6 139.636 101 140.412 101H150.691C151.467 101 152.048 101.6 152.048 102.4C152.048 103.2 151.467 103.8 150.691 103.8ZM130.327 103.8H120.048C119.273 103.8 118.691 103.2 118.691 102.4C118.691 101.6 119.273 101 120.048 101H130.327C131.103 101 131.685 101.6 131.685 102.4C131.685 103.2 130.909 103.8 130.327 103.8ZM109.964 103.8H99.6848C98.909 103.8 98.3272 103.2 98.3272 102.4C98.3272 101.6 98.909 101 99.6848 101H109.964C110.739 101 111.321 101.6 111.321 102.4C111.321 103.2 110.545 103.8 109.964 103.8ZM89.406 103.8H79.1272C78.3515 103.8 77.7696 103.2 77.7696 102.4C77.7696 101.6 78.3515 101 79.1272 101H89.406C90.1818 101 90.7636 101.6 90.7636 102.4C90.7636 103.2 90.1818 103.8 89.406 103.8Z" fill="#27AAE1"/>
<g id="Group_44">
<path id="Vector_96" d="M230.206 188.8C235.83 178.2 248.048 153.4 246.109 137.4C244.364 123.2 231.758 113 217.988 114.8C204.218 116.6 194.327 129.6 196.073 143.8C198.012 160 215.661 180.8 223.612 189.6C225.551 192 228.848 191.4 230.206 188.8Z" fill="#27AAE1"/>
<path id="Vector_97" d="M232.921 122.8C231.952 124.2 230.206 125.4 227.879 126.4C225.164 127.8 228.848 132.4 229.042 134.6C229.236 136 228.267 137.4 226.715 137.6C225.358 137.8 224 136.8 223.806 135.2C223.418 131.8 225.939 127.8 219.345 128.6C213.527 129.4 207.709 128.6 204.994 126.4C204.994 127.2 204.8 127.8 204.8 128.6C204.606 131 204.218 133.4 204.024 135.8C203.83 138.4 203.636 141 203.636 143.8C203.636 145.4 203.442 147.4 203.636 149C204.024 151.4 206.933 153 209.067 153.8C213.139 155.4 218.182 155.4 222.642 155C226.909 154.4 231.758 153 235.442 150.6C237.188 149.4 239.903 147 239.515 144.6C239.321 143 238.739 141 238.352 139.4C237.576 136.8 236.8 134.4 236.024 131.8C235.248 129.6 234.473 127.4 233.697 125C233.503 124.4 233.115 123.6 232.921 122.8Z" fill="white"/>
</g>
</g>
<path id="otp-code" d="M94.1759 127.6H89.1159V123.2H104.076V127.6H99.0159V154H94.1759V127.6ZM115.879 127.6H106.111V123.2H120.631V127.424L113.063 154H108.135L115.879 127.6ZM124.036 123.2H131.164C133.57 123.2 135.374 123.845 136.576 125.136C137.779 126.427 138.38 128.319 138.38 130.812V133.848C138.38 136.341 137.779 138.233 136.576 139.524C135.374 140.815 133.57 141.46 131.164 141.46H128.876V154H124.036V123.2ZM131.164 137.06C131.956 137.06 132.543 136.84 132.924 136.4C133.335 135.96 133.54 135.212 133.54 134.156V130.504C133.54 129.448 133.335 128.7 132.924 128.26C132.543 127.82 131.956 127.6 131.164 127.6H128.876V137.06H131.164ZM148.049 154.44C145.702 154.44 143.913 153.78 142.681 152.46C141.449 151.111 140.833 149.189 140.833 146.696V123.2H145.673V147.048C145.673 148.104 145.878 148.867 146.289 149.336C146.729 149.805 147.345 150.04 148.137 150.04C148.929 150.04 149.53 149.805 149.941 149.336C150.381 148.867 150.601 148.104 150.601 147.048V123.2H155.265V146.696C155.265 149.189 154.649 151.111 153.417 152.46C152.185 153.78 150.396 154.44 148.049 154.44ZM158.712 123.2H163.552V135.74H168.744V123.2H173.584V154H168.744V140.14H163.552V154H158.712V123.2ZM180.973 127.6H175.913V123.2H190.873V127.6H185.813V154H180.973V127.6Z" fill="#5E5E5E"/>
</g>
</svg>
