<?xml version="1.0" encoding="utf-8"?>
<!-- Generator: Adobe Illustrator 19.1.0, SVG Export Plug-In . SVG Version: 6.00 Build 0)  -->
<svg version="1.1" id="Layer_1" xmlns="http://www.w3.org/2000/svg" xmlns:xlink="http://www.w3.org/1999/xlink" x="0px" y="0px"
	 viewBox="0 0 264 256" style="enable-background:new 0 0 264 256;" xml:space="preserve">
<style type="text/css">
	.st0{fill:#F8F8F9;}
	.st1{fill:#434343;}
	.st2{fill:#C4E9F6;}
	.st3{fill:#F7F8F9;}
	.st4{fill:#CFD0D1;}
	.st5{fill:#999999;}
	.st6{fill:#D9DADC;}
	.st7{fill:#FFFFFF;}
	.st8{fill:#090909;}
	.st9{fill:#F2F2F2;}
	.st10{fill:#6BAFD1;}
	.st11{fill:#E6E7E8;}
	.st12{fill:#27AAE1;}
</style>
<g>
	<circle class="st0" cx="128.6" cy="149.8" r="84.3"/>
	<g>
		<g>
			<path class="st1" d="M106.4,174.2c0,0-0.2,4.1,0.6,4.5c0.8,0.4,10.4-0.3,10.4-0.3s-0.1-1.2-1.7-1.4c-1.7-0.2-4-1.3-5.2-3.2
				C108.7,171.3,106.4,174.2,106.4,174.2z"/>
			<path class="st2" d="M90.5,138.2c0,0,13.4,11.6,15.2,15.3c1.7,3.7,7.1,20.6,7.1,20.6s-1.5,0.9-4.5,1.1c-1.3,0.1-2.3-0.5-2.3-0.5
				s-7.8-15.3-8.5-16.7c-0.7-1.5-18-7.2-22.7-15.9L90.5,138.2z"/>
			<path class="st1" d="M115.9,127.9v1.9c0,0-20.2,6.3-23.7,7.2c-0.2,0-0.3,0.1-0.4,0.1l0,0c0-0.1,0-0.1,0-0.2v-0.5
				c0-0.2-0.2-0.4-0.4-0.4l-0.5-0.1c0,0,0.3-0.1,0.8-0.2C95.5,134.6,111.4,130,115.9,127.9z"/>
		</g>
		<g>
			<g>
				<g>
					<g>
						<polygon class="st3" points="118.8,79.8 117.8,79.8 113.4,79.8 112.2,79.8 99.1,229.8 102.7,229.8 124.7,229.9 128.3,229.9 
													"/>
						<path class="st4" d="M128.3,230.1l-29.2,0c-0.1,0-0.1,0-0.1-0.1c0,0-0.1-0.1-0.1-0.1l13.1-150c0-0.1,0.1-0.2,0.2-0.2l0,0
							l6.6,0c0.1,0,0.2,0.1,0.2,0.2l9.5,150c0,0,0,0.1-0.1,0.1C128.4,230,128.3,230.1,128.3,230.1L128.3,230.1z M112.3,80
							L99.3,229.7l28.8,0L118.6,80L112.3,80z"/>
					</g>
					<g>
						<polygon class="st5" points="99.1,229.8 112.2,79.8 113.4,79.8 114.6,79.8 106,229.9 102.7,229.8 						"/>
					</g>
				</g>
				<g>
					<g>
						<path class="st3" d="M119.3,84.4h-0.2H109v0c-0.1,0-0.2,0-0.3-0.1c0,0-2.3-0.3-2.7-3.2v-8.9h3h0.2h3l0,0h7.3V84.4z"/>
						<path class="st4" d="M108.9,84.6c-0.1,0-0.2,0-0.3-0.1c0,0-2.5-0.4-2.8-3.4v-8.9c0-0.1,0.1-0.2,0.2-0.2h13.4
							c0.1,0,0.2,0.1,0.2,0.2v12.2c0,0.1-0.1,0.2-0.2,0.2L108.9,84.6C108.9,84.6,108.9,84.6,108.9,84.6z M119.1,72.4h-13l0,8.6
							c0.3,2.7,2.4,3,2.5,3.1c0.1,0,0.2,0,0.3,0c0,0,0,0,0,0h10.1V72.4z"/>
					</g>
					<path class="st4" d="M106,78.1v3c0.4,2.9,2.7,3.2,2.7,3.2c0.1,0,0.2,0.1,0.3,0.1v0h10.3v-6.3H106z"/>
					<g>
						<path class="st3" d="M119.3,72.2h0.2h3v8.9c-0.4,2.9-2.7,3.2-2.7,3.2s-0.3,0.1-0.7,0c0,0-2.3-0.3-2.7-3.2v-8.9H119.3z"/>
						<path class="st4" d="M119,84.5c0,0-2.5-0.4-2.8-3.4v-8.9c0-0.1,0.1-0.2,0.2-0.2h6.1c0.1,0,0.2,0.1,0.2,0.2l0,8.9
							c-0.4,3-2.8,3.4-2.8,3.4l0,0c0,0-0.2,0.1-0.4,0.1C119.3,84.6,119.2,84.6,119,84.5z M116.6,72.4v8.6c0.3,2.7,2.4,3,2.5,3.1
							c0.3,0.1,0.6,0,0.6,0c0,0,2.2-0.3,2.5-3v-8.7H116.6z"/>
					</g>
				</g>
				<g>
					<path class="st3" d="M171.1,118.1c0,0,2.2,1.5,2.8,1.1c0.6-0.4,0.4-1.1-0.4-1.7c-1-0.7-26.9-23.9-30.4-27.8
						c0,0-1.9-1.7-2.9-2.1c-2.1-0.8-15.3-7.4-15.3-7.4s-1.5-0.4-0.7,0.8C124.9,82.3,171.1,118.1,171.1,118.1z"/>
					<path class="st4" d="M171,118.3c-1.9-1.5-46.3-35.9-47.1-37.2c-0.3-0.4-0.3-0.7-0.2-0.9c0.1-0.2,0.3-0.3,0.6-0.3
						c0.3,0,0.5,0.1,0.6,0.1c0.1,0.1,13.2,6.7,15.3,7.4c1.1,0.4,2.9,2.1,3,2.2c3.4,3.8,29.2,26.8,30.4,27.7c0.6,0.4,0.9,0.9,0.8,1.3
						c0,0.3-0.2,0.5-0.4,0.7c-0.1,0.1-0.2,0.1-0.4,0.1C172.9,119.5,171.2,118.4,171,118.3z M124.1,80.4c0,0,0,0.2,0.2,0.5
						c0.7,1,31,24.7,47,37.1c0.5,0.3,1.8,1.2,2.4,1.2c0.1,0,0.1,0,0.1,0c0.2-0.1,0.2-0.3,0.3-0.4c0-0.3-0.2-0.7-0.7-1
						c-1.2-0.9-27-24-30.4-27.8c0,0-1.9-1.7-2.9-2.1c-2.1-0.8-14.8-7.2-15.3-7.4c0,0-0.2-0.1-0.4-0.1
						C124.2,80.3,124.1,80.4,124.1,80.4z"/>
				</g>
				<g>
					<path class="st6" d="M172.6,119c0,0,0.8,0.7,1.3,0.3c0.6-0.4,0.6-0.8,0.2-1.9c-0.4-1.1-26.1-25.3-29.6-29.2c0,0-1.9-1.7-3-2.1
						c-2.1-0.8-15.3-7.4-15.3-7.4s-2.5-0.7-2.3,2C124,82,172.6,119,172.6,119z"/>
					<path class="st4" d="M172.5,119.2c-8.1-6.2-48.7-37.1-48.8-38.6c-0.1-0.8,0.1-1.4,0.5-1.8c0.3-0.3,0.8-0.5,1.3-0.5
						c0.4,0,0.7,0.1,0.8,0.1c0.1,0.1,13.2,6.7,15.3,7.4c1.1,0.4,2.9,2.1,3,2.2c1.5,1.7,7.4,7.3,13.5,13.3c9.6,9.2,15.9,15.4,16.1,16
						c0.4,1.1,0.5,1.7-0.2,2.1c-0.2,0.1-0.3,0.2-0.5,0.2C173,119.6,172.5,119.2,172.5,119.2z M124.4,79.1c-0.3,0.3-0.4,0.8-0.4,1.4
						c0.5,1.4,29.4,23.7,48.7,38.3c0.1,0.1,0.5,0.4,0.8,0.4c0.1,0,0.2,0,0.3-0.1c0.4-0.3,0.5-0.5,0.1-1.7c-0.3-0.7-8.6-8.7-16-15.8
						c-6.2-5.9-12-11.6-13.6-13.3c0,0-1.9-1.7-2.9-2.1c-2.1-0.8-14.8-7.2-15.3-7.4c0,0-0.3-0.1-0.6-0.1
						C125,78.7,124.7,78.9,124.4,79.1z"/>
				</g>
				<g>
					<path class="st7" d="M172.6,119c0,0,0.8,0.7,1.3,0.3c0.6-0.4,0.6-0.8,0.2-1.9c-0.4-1.1-26.1-25.3-29.6-29.2c0,0-1.9-1.7-3-2.1
						c-2.1-0.8-15.3-7.4-15.3-7.4s-3,0.1-0.8,1.7C143.8,93.8,172.6,119,172.6,119z"/>
					<path class="st4" d="M172.5,119.1c-0.3-0.2-29-25.3-47.3-38.6c-0.7-0.5-1-0.9-0.9-1.3c0.2-0.7,1.5-0.8,1.8-0.8c0,0,0.1,0,0.1,0
						c0.1,0.1,13.2,6.7,15.3,7.4c1.1,0.4,2.9,2.1,3,2.2c1.5,1.7,7.4,7.3,13.5,13.3c9.6,9.2,15.9,15.4,16.1,16
						c0.4,1.1,0.5,1.7-0.2,2.1c-0.2,0.1-0.3,0.2-0.5,0.2C173,119.6,172.5,119.2,172.5,119.1z M124.8,79.3c0,0.1,0,0.4,0.7,0.9
						c18.3,13.3,47,38.4,47.3,38.6c0,0,0.4,0.4,0.8,0.4c0.1,0,0.2,0,0.3-0.1c0.4-0.3,0.5-0.5,0.1-1.7c-0.3-0.7-8.6-8.7-16-15.8
						c-6.2-5.9-12-11.6-13.6-13.3c0,0-1.9-1.7-2.9-2.1c-2-0.8-14.3-6.9-15.3-7.4C125.6,78.9,124.8,79,124.8,79.3z"/>
				</g>
				<g>
					<path class="st6" d="M134.1,17.3c0,0,0.2-1-0.4-1.3c-0.6-0.3-0.9-0.1-1.7,0.8c-0.8,0.9-8.8,35.4-10.4,40.4c0,0-0.5,2.5-0.4,3.6
						c0.4,2.2,1.3,17,1.3,17s0.6,2.5,2.8,1C126.5,78.1,134.1,17.3,134.1,17.3z"/>
					<path class="st4" d="M122.2,77.9c0-0.1-0.9-14.8-1.2-17c-0.2-1.1,0.3-3.6,0.4-3.7C122,55,124,47.1,126,38.7
						c3.2-13,5.3-21.5,5.8-22.1c0.8-1,1.2-1.2,2-0.9c0.8,0.4,0.5,1.5,0.5,1.5c-1.3,10.2-7.6,60.9-8.9,61.7c-0.5,0.3-1,0.5-1.4,0.5
						C122.7,79.6,122.3,78,122.2,77.9z M132.1,17c-0.4,0.6-3.2,11.9-5.7,21.9c-2,8.4-4,16.2-4.7,18.4c0,0-0.5,2.5-0.3,3.5
						c0.4,2.2,1.2,16.5,1.2,17c0,0,0.3,1.3,1.4,1.3c0.3,0,0.7-0.2,1.2-0.4c0.9-1.1,5.7-37.4,8.7-61.5c0,0,0.2-0.9-0.3-1.1
						c-0.2-0.1-0.3-0.1-0.4-0.1C132.9,16.1,132.6,16.3,132.1,17z"/>
				</g>
				<g>
					<path class="st7" d="M134.1,19c0,0,0.2-2.7-0.4-3c-0.6-0.3-1.2,0.2-1.3,1.3c-0.2,1.2-7.2,35.4-8.7,40.4c0,0-0.5,2.5-0.4,3.6
						c0.4,2.2,1.2,17,1.2,17s0.4,1.5,1.1,0.2C126.2,77.2,134.1,19,134.1,19z"/>
					<path class="st4" d="M124.3,78.3c0-0.1-0.9-14.8-1.2-17c-0.2-1.1,0.3-3.6,0.4-3.7c1.5-4.9,8.5-38.8,8.7-40.3
						c0.1-0.9,0.5-1.5,1.1-1.5c0.1,0,0.3,0,0.4,0.1c0.7,0.3,0.6,2.5,0.5,3.2c-0.3,2.4-7.9,58.2-8.5,59.5c-0.2,0.4-0.5,0.6-0.7,0.6
						C124.6,79.2,124.3,78.5,124.3,78.3z M132.5,17.3c-0.2,1.5-7.2,35.5-8.8,40.4c0,0-0.5,2.5-0.4,3.5c0.4,2.2,1.2,16.5,1.2,17
						c0.1,0.3,0.2,0.6,0.3,0.6c0,0,0.1,0,0.3-0.4c0.5-1.1,5.8-39.3,8.5-59.4c0.1-1.2,0-2.7-0.3-2.8c-0.1,0-0.2-0.1-0.3-0.1
						C132.9,16.1,132.6,16.5,132.5,17.3z"/>
				</g>
				<g>
					<path class="st3" d="M130.7,78.5c0,1.7-1.1,3.1-2.4,3.1c-1.3,0-2.4-1.4-2.4-3.1c0-1.7,1.1-3.1,2.4-3.1
						C129.6,75.4,130.7,76.8,130.7,78.5z"/>
					<path class="st4" d="M125.6,78.5c0-1.8,1.2-3.3,2.6-3.3c1.5,0,2.6,1.5,2.6,3.3c0,1.8-1.2,3.3-2.6,3.3
						C126.8,81.8,125.6,80.4,125.6,78.5z M126,78.5c0,1.6,1,2.9,2.2,2.9c1.2,0,2.2-1.3,2.2-2.9c0-1.6-1-2.9-2.2-2.9
						C127,75.6,126,76.9,126,78.5z"/>
				</g>
				<g>
					<path class="st3" d="M120.1,74.7l5.4,0c0.1,0,0.2,0,0.3,0c1.7,0,6.9,1.7,6.9,3.8c0,2.1-5.2,3.8-6.9,3.8c-0.1,0-0.3,0.1-0.3,0.1
						h-5.4c-1.7,0-3-1.7-3-3.8C117.1,76.4,118.4,74.7,120.1,74.7z"/>
					<path class="st4" d="M116.9,78.5c0-2.2,1.4-4,3.2-4l5.3,0c0.1,0,0.2,0,0.4,0c1.7,0,7.1,1.7,7.1,4c0,2.3-5.4,4-7.1,4
						c-0.1,0-0.2,0-0.3,0.1c0,0,0,0-0.1,0h-5.4C118.3,82.6,116.9,80.8,116.9,78.5z M125.8,82.1c1.6,0,6.7-1.7,6.7-3.6
						c0-1.9-5.1-3.6-6.7-3.6c-0.1,0-0.2,0-0.3,0l-5.4,0c-1.6,0-2.8,1.6-2.8,3.6c0,2,1.3,3.7,2.8,3.7h5.3
						C125.5,82.2,125.7,82.1,125.8,82.1z"/>
				</g>
				<g>
					<path class="st4" d="M120.1,74.7l5.4,0c0.1,0,0.2,0,0.3,0c0.3,0,0.6,0.1,1,0.1c-0.3,0.1-0.6,0.3-0.9,0.6
						c-0.6,0.7-0.8,1.8-0.9,2.7c-0.1,1-0.1,3,0.5,4.2c-0.1,0-0.1,0-0.1,0h-5.4c-1.7,0-3-1.7-3-3.8C117.1,76.4,118.4,74.7,120.1,74.7
						z"/>
					<path class="st3" d="M116.9,78.5c0-2.2,1.4-4,3.2-4l5.3,0c0.1,0,0.2,0,0.4,0c0.3,0,0.6,0,1.1,0.1c0.1,0,0.1,0.1,0.2,0.2
						c0,0.1,0,0.2-0.1,0.2c-0.3,0.1-0.6,0.3-0.8,0.6c-0.6,0.7-0.8,1.8-0.8,2.6c-0.1,1-0.1,2.9,0.5,4.1c0,0,0,0.1,0,0.2
						c0,0.1-0.1,0.1-0.1,0.1c-0.1,0-0.1,0-0.1,0c0,0,0,0-0.1,0h-5.4C118.3,82.6,116.9,80.8,116.9,78.5z M124.9,78.1
						c0.1-0.8,0.3-2,0.9-2.8c0.1-0.2,0.3-0.3,0.4-0.4c-0.3,0-0.5,0-0.8,0l-5.4,0c-1.6,0-2.8,1.6-2.8,3.6c0,2,1.3,3.7,2.8,3.7h5.2
						C124.8,81,124.8,79.4,124.9,78.1z"/>
				</g>
				<path class="st4" d="M122.8,79.7c1.8,0,3.7,0,5.5,0c1.3,0,3.5,0,4.4-1.1c-0.1,2.1-5.2,3.8-6.9,3.8c-0.1,0-0.3,0.1-0.3,0.1h-5.4
					c-1.4,0-2.5-1.2-2.9-2.8C119,79.8,120.9,79.7,122.8,79.7z"/>
			</g>
		</g>
		<path class="st1" d="M109.4,114.3c-0.3-1-0.4-1.1-0.4-1.1s-10.2,0.6-11.2,0.6c-1,0-14.1-3.5-14.1-3.5l-6.7,7.2
			c0,0,18.4,1.8,20.9,1.8c4-0.1,11.5-3.4,11.5-3.4S109.6,115.1,109.4,114.3z"/>
		<g>
			<path class="st8" d="M91.7,135.7c-0.1,0-0.2-0.1-0.2-0.1l-0.5-0.1c-0.3,0-0.6,0.1-0.7,0.3l-0.8,1l1.1,1.6l1.3-0.8
				c0.2-0.1,0.3-0.3,0.4-0.6c0,0,0-0.1,0-0.1v-0.5C92.2,136.1,92,135.8,91.7,135.7z M91.6,137.3l-1,0.7l-0.8-1.1l0.6-0.8
				c0.1-0.1,0.3-0.2,0.4-0.2l0.5,0.1c0.2,0,0.4,0.2,0.4,0.4v0.5c0,0.1,0,0.1,0,0.2C91.7,137.2,91.7,137.2,91.6,137.3z"/>
		</g>
		<path class="st1" d="M100.2,177.6c0,0-0.9,4-0.1,4.5c0.8,0.5,10.3,1.4,10.3,1.4s0.1-1.2-1.5-1.6c-1.6-0.4-3.7-1.9-4.7-4
			C103,175.1,100.2,177.6,100.2,177.6z"/>
		<path class="st9" d="M77.5,107.4c0,0,4.6,5.1,8,4.5c0,0-0.9-1.1-2-2.1c-0.3-0.3-0.2-1-0.1-1.4c0.1-0.2,0.1-0.5,0.2-0.7
			c0.3-1.3,0.4-2.1,0.4-2.1l-2.3-2.4l-1.6-1.6c-0.1,0.8-0.1,1.5-0.4,2.1C78.8,106.1,77.5,107.4,77.5,107.4z"/>
		<path class="st5" d="M79.8,103.8c0,0,0.9,3,3.9,4c0.3-1.3,0.4-2.1,0.4-2.1l-2.3-2.4C80.4,103.4,79.8,103.8,79.8,103.8z"/>
		<path class="st9" d="M85.1,105.7c0,0-5.6,0.3-5.7-3.2c-0.1-3.5-0.9-5.8,2.7-6.1c3.6-0.3,4.3,1,4.6,2.1
			C87,99.7,86.5,105.5,85.1,105.7z"/>
		<path class="st5" d="M89.2,125.2c0-0.3,0-0.7-0.1-1c-0.1-1.8-0.3-3.6-0.6-5.3c-0.3-1.3-0.6-2.6-1-3.7c-0.6-1.6-1.3-2.8-2.3-3.8
			c0,0-1.5-1.5-1.5-1.5c-3.6,0.4-6.2-2.5-6.2-2.5s-8.6,7.4-6.4,23.4c0,0,0.2,1.2,0.6,2.8c0.1,0.4,0.2,0.7,0.3,1.1
			C72.7,137.5,89.5,129.8,89.2,125.2z"/>
		<path class="st1" d="M76.3,97.3c-0.1-0.1-0.2-0.1-0.5,0c0,0,0.2-0.2,0.5-0.2c0-0.4,0.1-1.1,0.7-1.4c0,0-0.3,0.2-0.3,0.7
			c0.6-0.9,2.1-1.7,6.5-2.2c5.8-0.6,4.6,3.5,3.9,4.1c-0.7,0.6-2.8-0.3-4.1,0c-1.4,0.4-1.3,2.4-1.7,2.8c-0.4,0.4-0.3-0.2-1-0.3
			c-0.7-0.2-0.6,0.9-0.3,1.6c0.3,0.7-0.4,1.7-0.4,1.7s0,0-1.1-0.8c-1.1-0.8-2.6-4.7-2.4-5.7C76.2,97.5,76.2,97.4,76.3,97.3z"/>
		<path class="st1" d="M74.4,121.3c0,0,2.4,8.1,5.1,9.4c2.7,1.3,2.6-5.6,2.6-5.6L74.4,121.3z"/>
		<path class="st10" d="M92.4,141c-4.3-1.9-2.9-11.1-3.2-15.7c0-0.3,0-0.7-0.1-1c-0.1-1.8-0.3-3.6-0.6-5.3c-0.3-1.3-0.6-2.6-1-3.7
			l-6,1c-1.2,0.2-2,1.2-1.9,2.4c0.1,3-0.2,8.5-3.3,11.3c-2.3,2-3.7,3.1-4.5,3.7c0.1,0.4,0.2,0.7,0.3,1.1c0.7,2.7,1.4,6.2,3,8.2
			C76.2,144.5,92.9,141.2,92.4,141z"/>
		<path class="st10" d="M76.9,108c0,0,1.7,0.6,3.8,3.5c1.8,2.4,2.5,4.7,2.5,4.7l-1,0.2c0,0-1.5-5.1-5.9-7.8
			C76.3,108.7,76.3,108.6,76.9,108z"/>
		<path class="st9" d="M101.7,141.9c0,0,1-2.3,1.3-2.7c0.3-0.3,1.7-1.4,1.8-1.4c0.1,0.1,0.1,0.5-0.1,0.7c-0.2,0.2-0.4,0.3-0.3,0.4
			c0.1,0,0.6-0.8,1-0.5c0.4,0.3,1.4,1.5,0.8,2.4c-0.6,0.9-3,1.9-3.1,2.1C102.1,144.1,101.7,141.9,101.7,141.9z"/>
		<path class="st5" d="M103,112.2c0,0-10.8,9.5-11.8,9.6c-1.6,0.2-10.7-8.1-10.7-8.1s-1.2-2.1-3.9-1.1c-2.3,0.9-3.3,3.7-3.3,3.7
			s-0.8,2.7,0.6,4.4c3,3.6,14.5,7.3,18,6.8c4.4-0.6,12.6-12.6,12.6-12.6s0.5-1.1,0-1.8C104,112.5,103,112.2,103,112.2z"/>
		<path class="st10" d="M105.6,177.9c0,0-1.6,0.6-4.6,0.3c-1.3-0.1-2.2-0.8-2.2-0.8s-0.5-1.5-1.1-3.6c-0.1-0.3-0.2-0.7-0.3-1
			c-0.1-0.5-0.3-0.9-0.5-1.4c-0.1-0.3-0.2-0.7-0.3-1c-1.4-4.6-3.1-10-3.4-10.8c-0.4-1.6-16.5-10.1-19.8-19.4l16.1-3.2
			c0,0,11.4,15.7,12.5,19.7c0.6,2.1,1.6,8.1,2.3,13.2c0.1,0.3,0.1,0.7,0.2,1c0.1,0.5,0.1,1,0.2,1.5c0.1,0.3,0.1,0.7,0.1,1
			C105.3,175.9,105.6,177.9,105.6,177.9z"/>
		<path class="st1" d="M89.6,136.9c0,0-6.2,4.9-15.2,5.7c0,0,0.8,2,2.4,3c0,0,9.7-1.5,13.8-7.4L89.6,136.9z"/>
		<g>
			<path class="st8" d="M110.5,184C110.5,184,110.4,184,110.5,184l-13-1.7c-0.2,0-0.4-0.3-0.4-0.5c0-0.2,0.3-0.4,0.5-0.4l12.9,1.7
				l5.2-1.7c0.2-0.1,0.5,0.1,0.6,0.3c0.1,0.2-0.1,0.5-0.3,0.6l-5.3,1.7C110.6,184,110.5,184,110.5,184z"/>
		</g>
		<g>
			<path class="st7" d="M104.4,170.8c-2.1,0.6-4.2,0.7-5.8,0.7c-0.8,0-1.4,0-1.8-0.1c-0.1-0.3-0.2-0.7-0.3-1c0,0,0.1,0,0.1,0
				c1.1,0.1,4.4,0.3,7.6-0.7C104.3,170.2,104.4,170.5,104.4,170.8z"/>
		</g>
		<g>
			<path class="st7" d="M104.8,173.3c-2.1,0.6-4.2,0.7-5.7,0.7c-0.6,0-1.1,0-1.5,0c-0.1-0.3-0.2-0.7-0.3-1c1.3,0.1,4.4,0.2,7.4-0.7
				C104.7,172.6,104.7,172.9,104.8,173.3z"/>
		</g>
		<g>
			<g>
				<path class="st6" d="M88.2,132.1c0,0-0.5,0.9-1.2,0.7c-0.7-0.2-0.7-0.6-0.7-1.8c0-1.2,17.7-31.9,20-36.6c0,0,1.3-2.2,2.2-2.9
					c1.8-1.4,12.5-11.6,12.5-11.6s2.2-1.4,2.8,1.2C124.1,82.5,88.2,132.1,88.2,132.1z"/>
				<path class="st4" d="M86.9,133c-0.8-0.3-0.9-0.8-0.8-2c0-0.7,4.3-8.4,10.8-20c4.2-7.5,8.2-14.6,9.2-16.7
					c0.1-0.1,1.4-2.3,2.3-2.9c1.8-1.3,12.4-11.5,12.6-11.6c0,0,0.6-0.4,1.3-0.4c0.6,0,1.4,0.3,1.7,1.7c0.3,1.4-29.6,42.9-35.6,51.2
					c0,0-0.5,0.8-1.2,0.8l0,0C87.1,133,87,133,86.9,133z M121.2,80L121.2,80c-0.4,0.4-10.8,10.3-12.6,11.6c-0.8,0.6-2.2,2.8-2.2,2.8
					c-1,2.1-5,9.2-9.2,16.7c-5,9-10.7,19.1-10.8,19.9c0,1.3,0.1,1.4,0.6,1.6c0,0,0.1,0,0.1,0l0,0c0.4,0,0.7-0.4,0.8-0.6
					c14.2-19.7,35.5-49.4,35.6-50.9c-0.2-1-0.7-1.4-1.3-1.4C121.7,79.7,121.2,80,121.2,80z"/>
			</g>
			<g>
				<path class="st7" d="M89.4,130.8c0,0-1.7,2.1-2.4,1.9c-0.7-0.2-0.7-1-0.1-1.8c0.7-1,18.9-30.8,21.1-35.5c0,0,1.3-2.2,2.2-2.9
					c1.8-1.4,12.5-11.6,12.5-11.6s1.3-0.8,0.9,0.6S89.4,130.8,89.4,130.8z"/>
				<path class="st4" d="M86.9,133c-0.3-0.1-0.5-0.3-0.6-0.6c-0.1-0.4,0-1,0.4-1.5c0.9-1.3,18.9-30.9,21.1-35.5
					c0.1-0.1,1.4-2.3,2.3-2.9c1.8-1.3,12.4-11.5,12.6-11.6c0,0,0.4-0.3,0.8-0.3c0.2,0,0.3,0.1,0.4,0.2c0.1,0.2,0.1,0.5,0,0.9
					c-0.4,1.4-33,47.4-34.4,49.4c-0.3,0.3-1.6,2-2.4,2l0,0C87.1,133,87,133,86.9,133z M122.9,81.1c-0.4,0.4-10.8,10.3-12.6,11.6
					c-0.8,0.6-2.1,2.8-2.2,2.8c-2.2,4.6-20.3,34.3-21.2,35.5c-0.3,0.5-0.5,0.9-0.4,1.2c0.1,0.2,0.2,0.3,0.4,0.3c0,0,0,0,0,0l0,0
					c0.5,0,1.5-1.1,2.1-1.9c11.7-16.5,34-48.1,34.3-49.2c0.1-0.4,0.1-0.5,0-0.5c0,0,0,0-0.1,0C123.3,80.9,123,81.1,122.9,81.1z"/>
			</g>
		</g>
	</g>
	<g>
		<g>
			<path class="st7" d="M191.6,207.8c-29.2,5.5-57.3-13.8-62.8-43c-0.6-3.1-0.9-6.2-0.9-9.3l-21.2-18.9l25.9-3.5
				c6.9-15.6,21.2-27.7,39.2-31c29.2-5.5,57.3,13.8,62.8,43C240,174.3,220.7,202.4,191.6,207.8z"/>
			<path class="st11" d="M181.6,209.8c-25.8,0-48.9-18.4-53.8-44.7c-0.5-2.9-0.9-5.9-0.9-9L104.4,136l27.5-3.7
				c7.4-16.2,22.2-27.8,39.7-31.1c29.7-5.6,58.4,14.1,63.9,43.8c2.7,14.4-0.4,28.9-8.6,41c-8.3,12.1-20.7,20.2-35.1,22.9l-0.2-1
				l0.2,1C188.3,209.4,185,209.8,181.6,209.8z M108.9,137.4l20,17.8l0,0.4c0,3.1,0.3,6.2,0.9,9.1c5.4,28.6,33,47.5,61.6,42.2
				c13.9-2.6,25.9-10.4,33.8-22.1c8-11.6,10.9-25.7,8.3-39.5s-10.4-25.9-22.1-33.8c-11.6-8-25.7-10.9-39.5-8.3
				c-17,3.2-31.4,14.6-38.5,30.5l-0.2,0.5L108.9,137.4z"/>
		</g>
		<g>
			<g>
				<g>
					<g>
						<path class="st12" d="M188.8,135.7h20.4c0.7,0,1.2-0.5,1.2-1.2l0,0c0-0.7-0.5-1.2-1.2-1.2h-20.4c-0.7,0-1.2,0.5-1.2,1.2l0,0
							C187.7,135.1,188.2,135.7,188.8,135.7z"/>
					</g>
				</g>
			</g>
			<g>
				<g>
					<g>
						<path class="st12" d="M188.8,142.1h20.4c0.7,0,1.2-0.5,1.2-1.2l0,0c0-0.7-0.5-1.2-1.2-1.2h-20.4c-0.7,0-1.2,0.5-1.2,1.2l0,0
							C187.7,141.6,188.2,142.1,188.8,142.1z"/>
					</g>
				</g>
			</g>
			<g>
				<g>
					<g>
						<path class="st12" d="M188.8,148.6h20.4c0.7,0,1.2-0.5,1.2-1.2l0,0c0-0.7-0.5-1.2-1.2-1.2h-20.4c-0.7,0-1.2,0.5-1.2,1.2v0
							C187.7,148.1,188.2,148.6,188.8,148.6z"/>
					</g>
				</g>
			</g>
			<g>
				<path class="st12" d="M150.4,115.5c0,0-0.1,0-0.1,0c-1.1,0.5-1.4,1.7-0.9,2.8c0.5,1,1.3,1.7,2.9,1l0,0c7.6-3.5,17.2-0.2,21,7.7
					c3.8,8,0.4,17.6-7.6,21.4c-7.6,3.6-16.6,0.9-20.8-6.4l3.4-1.6l-9.3-6.1l-1.1,11.1l3.2-1.5c5.1,9.2,16.6,13,26.3,8.4
					c10.1-4.8,14.3-16.9,9.6-27C172.3,115.3,160.4,111,150.4,115.5z"/>
				<path class="st12" d="M159,144.9c0.7,0,1.3,0.6,1.3,1.3c0,0.7-0.6,1.3-1.3,1.3c-0.7,0-1.3-0.6-1.3-1.3
					C157.8,145.5,158.3,144.9,159,144.9z"/>
				<path class="st12" d="M167.4,125.8c0.7,0,1.3,0.6,1.3,1.3s-0.6,1.3-1.3,1.3c-0.7,0-1.3-0.6-1.3-1.3S166.7,125.8,167.4,125.8z"/>
				<path class="st12" d="M167.4,141c0.7,0,1.3,0.6,1.3,1.3c0,0.7-0.6,1.3-1.3,1.3c-0.7,0-1.3-0.6-1.3-1.3S166.7,141,167.4,141z"/>
				<path class="st12" d="M170.2,133.5c0.7,0,1.3,0.6,1.3,1.3s-0.6,1.3-1.3,1.3c-0.7,0-1.3-0.6-1.3-1.3
					C169,134.1,169.5,133.5,170.2,133.5z"/>
				<path class="st12" d="M161.2,124.3c0-1-0.8-1.8-1.8-1.8H159c-1,0-1.8,0.9-1.8,1.8v10.6l-5.2,5.2c-0.8,0.8-0.7,2,0,2.8
					c0.7,0.8,2,0.8,2.8,0l5.8-5.8c0,0,0.1-0.1,0.1-0.1c0.3-0.3,0.5-0.8,0.5-1.3L161.2,124.3L161.2,124.3z"/>
				<path class="st12" d="M140.6,131.9c2.8-5.1,8.8-16.9,7.8-24.6c-0.8-6.8-7.1-11.7-13.9-10.9c-6.8,0.8-11.7,7.1-10.9,13.9
					c1,7.8,9.6,17.8,13.6,22C138.2,133.4,139.9,133.2,140.6,131.9z"/>
				<path class="st7" d="M141.9,100.3c-0.5,0.6-1.4,1.2-2.4,1.7c-1.3,0.6,0.5,2.9,0.6,3.9c0.1,0.7-0.4,1.4-1.1,1.4
					c-0.7,0.1-1.4-0.4-1.4-1.1c-0.2-1.6,1.1-3.5-2.2-3.1c-2.9,0.4-5.8,0-7.1-1.1c0,0.3-0.1,0.7-0.1,1c-0.1,1.1-0.2,2.3-0.3,3.4
					c-0.1,1.3-0.2,2.5-0.2,3.8c0,0.8-0.1,1.7,0,2.5c0.1,1.2,1.7,2,2.7,2.3c2,0.7,4.5,0.8,6.7,0.5s4.5-0.9,6.3-2.1
					c0.9-0.6,2.2-1.7,2-2.9c-0.1-0.8-0.4-1.7-0.6-2.5c-0.4-1.2-0.7-2.4-1.2-3.6c-0.4-1.1-0.8-2.2-1.2-3.2
					C142.2,101,142.1,100.6,141.9,100.3L141.9,100.3z"/>
			</g>
			<path class="st12" d="M212.8,192.3h-4.3c-0.3,0-0.6-0.3-0.6-0.6s0.3-0.6,0.6-0.6h4.3c0.3,0,0.6,0.3,0.6,0.6
				S213.1,192.3,212.8,192.3z M204.2,192.3h-4.3c-0.3,0-0.6-0.3-0.6-0.6s0.3-0.6,0.6-0.6h4.3c0.3,0,0.6,0.3,0.6,0.6
				S204.5,192.3,204.2,192.3z M195.6,192.3h-4.3c-0.3,0-0.6-0.3-0.6-0.6s0.3-0.6,0.6-0.6h4.3c0.3,0,0.6,0.3,0.6,0.6
				S195.9,192.3,195.6,192.3z M187,192.3h-4.3c-0.3,0-0.6-0.3-0.6-0.6s0.3-0.6,0.6-0.6h4.3c0.3,0,0.6,0.3,0.6,0.6
				S187.3,192.3,187,192.3z M178.4,192.3h-4.3c-0.3,0-0.6-0.3-0.6-0.6s0.3-0.6,0.6-0.6h4.3c0.3,0,0.6,0.3,0.6,0.6
				S178.7,192.3,178.4,192.3z M169.8,192.3h-4.3c-0.3,0-0.6-0.3-0.6-0.6s0.3-0.6,0.6-0.6h4.3c0.3,0,0.6,0.3,0.6,0.6
				S170.1,192.3,169.8,192.3z M161.2,192.3h-4.3c-0.3,0-0.6-0.3-0.6-0.6s0.3-0.6,0.6-0.6h4.3c0.3,0,0.6,0.3,0.6,0.6
				S161.5,192.3,161.2,192.3z M152.5,192.3H152c-0.9,0-1.7-0.8-1.7-1.7v-2c0-0.3,0.3-0.6,0.6-0.6s0.6,0.3,0.6,0.6v2
				c0,0.3,0.3,0.6,0.6,0.6h0.5c0.3,0,0.6,0.3,0.6,0.6S152.9,192.3,152.5,192.3z M214,188.6c-0.3,0-0.6-0.3-0.6-0.6v-4.3
				c0-0.3,0.3-0.6,0.6-0.6s0.6,0.3,0.6,0.6v4.3C214.5,188.3,214.3,188.6,214,188.6z M150.9,184.8c-0.3,0-0.6-0.3-0.6-0.6v-4.3
				c0-0.3,0.3-0.6,0.6-0.6s0.6,0.3,0.6,0.6v4.3C151.5,184.5,151.2,184.8,150.9,184.8z M214,180c-0.3,0-0.6-0.3-0.6-0.6v-4.3
				c0-0.3,0.3-0.6,0.6-0.6s0.6,0.3,0.6,0.6v4.3C214.5,179.7,214.3,180,214,180z M150.9,176.2c-0.3,0-0.6-0.3-0.6-0.6v-4.3
				c0-0.3,0.3-0.6,0.6-0.6s0.6,0.3,0.6,0.6v4.3C151.5,175.9,151.2,176.2,150.9,176.2z M214,171.4c-0.3,0-0.6-0.3-0.6-0.6v-4.3
				c0-0.3,0.3-0.6,0.6-0.6s0.6,0.3,0.6,0.6v4.3C214.5,171.1,214.3,171.4,214,171.4z M150.9,167.6c-0.3,0-0.6-0.3-0.6-0.6v-2.5
				c0-0.9,0.8-1.7,1.7-1.7c0,0,0,0,0,0c0.3,0,0.6,0.3,0.6,0.6c0,0.3-0.2,0.6-0.6,0.6c-0.3,0-0.6,0.3-0.6,0.6v2.5
				C151.5,167.3,151.2,167.6,150.9,167.6z M212.3,163.9H208c-0.3,0-0.6-0.3-0.6-0.6c0-0.3,0.3-0.6,0.6-0.6h4.3
				c0.3,0,0.6,0.3,0.6,0.6C212.9,163.6,212.6,163.9,212.3,163.9z M203.7,163.9h-4.3c-0.3,0-0.6-0.3-0.6-0.6c0-0.3,0.3-0.6,0.6-0.6
				h4.3c0.3,0,0.6,0.3,0.6,0.6C204.3,163.6,204,163.9,203.7,163.9z M195.1,163.9h-4.3c-0.3,0-0.6-0.3-0.6-0.6c0-0.3,0.3-0.6,0.6-0.6
				h4.3c0.3,0,0.6,0.3,0.6,0.6C195.7,163.6,195.4,163.9,195.1,163.9z M186.5,163.9h-4.3c-0.3,0-0.6-0.3-0.6-0.6
				c0-0.3,0.3-0.6,0.6-0.6h4.3c0.3,0,0.6,0.3,0.6,0.6C187.1,163.6,186.8,163.9,186.5,163.9z M177.9,163.9h-4.3
				c-0.3,0-0.6-0.3-0.6-0.6c0-0.3,0.3-0.6,0.6-0.6h4.3c0.3,0,0.6,0.3,0.6,0.6C178.4,163.6,178.2,163.9,177.9,163.9z M169.3,163.9
				H165c-0.3,0-0.6-0.3-0.6-0.6c0-0.3,0.3-0.6,0.6-0.6h4.3c0.3,0,0.6,0.3,0.6,0.6C169.8,163.6,169.6,163.9,169.3,163.9z
				 M160.7,163.9h-4.3c-0.3,0-0.6-0.3-0.6-0.6c0-0.3,0.3-0.6,0.6-0.6h4.3c0.3,0,0.6,0.3,0.6,0.6C161.2,163.6,161,163.9,160.7,163.9z
				"/>
		</g>
	</g>
</g>
</svg>
